*
*
G04 PADS 9.5 Build Number: 522968 generated Gerber (RS-274-X) file*
G04 PC Version=2.1*
*
%IN "ESP32_WROOM_32D_5X5_V2-"*%
*
%MOIN*%
*
%FSLAX35Y35*%
*
*
*
*
G04 PC Standard Apertures*
*
*
G04 Thermal Relief Aperture macro.*
%AMTER*
1,1,$1,0,0*
1,0,$1-$2,0,0*
21,0,$3,$4,0,0,45*
21,0,$3,$4,0,0,135*
%
*
*
G04 Annular Aperture macro.*
%AMANN*
1,1,$1,0,0*
1,0,$2,0,0*
%
*
*
G04 Odd Aperture macro.*
%AMODD*
1,1,$1,0,0*
1,0,$1-0.005,0,0*
%
*
*
G04 PC Custom Aperture Macros*
*
*
*
*
*
*
G04 PC Aperture Table*
*
%ADD010C,0.001*%
%ADD043C,0.008*%
%ADD044C,0.01*%
%ADD048C,0.006*%
%ADD109C,0.005*%
%ADD131C,0.00787*%
%ADD173C,0.00598*%
%ADD198C,0.002*%
*
*
*
*
G04 PC Circuitry*
G04 Layer Name ESP32_WROOM_32D_5X5_V2- - circuitry*
%LPD*%
*
G54D10*
G01X2062334Y1524124D02*
X2062291Y1524425D01*
X2062167Y1524673*
X2061965Y1524794*
X2061671Y1524836*
X2061457Y1524793*
X2061290Y1524751*
X2061127Y1524629*
X2060998Y1524414*
X2060910Y1524418*
X2060825Y1524589*
X2060704Y1524710*
X2060494Y1524794*
X2060287Y1524835*
X2060122Y1524794*
X2059912Y1524710*
X2059651Y1524449*
X2059566Y1524485*
Y1524792*
X2059264*
Y1522570*
X2059566*
Y1523994*
X2059567Y1524006*
X2059612Y1524184*
X2059622Y1524204*
X2059845Y1524472*
X2059870Y1524488*
X2060182Y1524577*
X2060208Y1524578*
X2060387Y1524533*
X2060403Y1524526*
X2060536Y1524437*
X2060553Y1524418*
X2060643Y1524239*
X2060648Y1524217*
Y1522570*
X2060950*
Y1523860*
Y1523867*
X2060995Y1524179*
X2061004Y1524202*
X2061138Y1524381*
X2061148Y1524391*
X2061327Y1524525*
X2061347Y1524534*
X2061570Y1524578*
X2061590*
X2061813Y1524534*
X2061843Y1524515*
X2061977Y1524336*
X2061985Y1524322*
X2062029Y1524188*
X2062032Y1524172*
Y1522570*
X2062334*
Y1524124*
X2058584D02*
X2058541Y1524425D01*
X2058417Y1524673*
X2058215Y1524794*
X2057921Y1524836*
X2057707Y1524793*
X2057540Y1524751*
X2057377Y1524629*
X2057248Y1524414*
X2057160Y1524418*
X2057075Y1524589*
X2056954Y1524710*
X2056744Y1524794*
X2056537Y1524835*
X2056372Y1524794*
X2056162Y1524710*
X2055901Y1524449*
X2055816Y1524485*
Y1524792*
X2055514*
Y1522570*
X2055816*
Y1523994*
X2055817Y1524006*
X2055862Y1524184*
X2055872Y1524204*
X2056095Y1524472*
X2056120Y1524488*
X2056432Y1524577*
X2056458Y1524578*
X2056637Y1524533*
X2056653Y1524526*
X2056786Y1524437*
X2056803Y1524418*
X2056893Y1524239*
X2056898Y1524217*
Y1522570*
X2057200*
Y1523860*
Y1523867*
X2057245Y1524179*
X2057254Y1524202*
X2057388Y1524381*
X2057398Y1524391*
X2057577Y1524525*
X2057597Y1524534*
X2057820Y1524578*
X2057840*
X2058063Y1524534*
X2058093Y1524515*
X2058227Y1524336*
X2058235Y1524322*
X2058279Y1524188*
X2058282Y1524172*
Y1522570*
X2058584*
Y1524124*
X2054923Y1523636D02*
X2054880Y1524020D01*
X2054669Y1524315*
X2054371Y1524528*
X2054033Y1524612*
X2053741Y1524571*
X2053483Y1524398*
X2053405Y1524440*
X2053406Y1524448*
X2053540Y1525296*
X2053589Y1525338*
X2054744*
Y1525640*
X2053318*
X2053023Y1524082*
X2053347Y1524046*
X2053554Y1524252*
X2053575Y1524265*
X2053888Y1524354*
X2053909Y1524356*
X2054221Y1524311*
X2054244Y1524301*
X2054423Y1524168*
X2054436Y1524153*
X2054569Y1523930*
X2054576Y1523911*
X2054621Y1523599*
Y1523585*
X2054576Y1523272*
X2054569Y1523254*
X2054436Y1523030*
X2054428Y1523021*
X2054249Y1522842*
X2054221Y1522828*
X2053909Y1522783*
X2053892Y1522784*
X2053669Y1522829*
X2053656Y1522833*
X2053477Y1522922*
X2053455Y1522944*
X2053366Y1523123*
X2053363Y1523130*
X2053287Y1523359*
X2052982Y1523325*
X2053055Y1523033*
X2053266Y1522737*
X2053561Y1522569*
X2053901Y1522526*
X2054160Y1522570*
X2054372Y1522612*
X2054538Y1522737*
X2054710Y1522908*
X2054880Y1523206*
X2054923Y1523636*
X2052200Y1522872D02*
X2051898D01*
Y1522570*
X2052200*
Y1522872*
X2051173Y1523636D02*
X2051130Y1524020D01*
X2050919Y1524315*
X2050621Y1524528*
X2050283Y1524612*
X2049991Y1524571*
X2049733Y1524398*
X2049655Y1524440*
X2049656Y1524448*
X2049790Y1525296*
X2049839Y1525338*
X2050994*
Y1525640*
X2049568*
X2049273Y1524082*
X2049597Y1524046*
X2049804Y1524252*
X2049825Y1524265*
X2050138Y1524354*
X2050159Y1524356*
X2050471Y1524311*
X2050494Y1524301*
X2050673Y1524168*
X2050686Y1524153*
X2050819Y1523930*
X2050826Y1523911*
X2050871Y1523599*
Y1523585*
X2050826Y1523272*
X2050819Y1523254*
X2050686Y1523030*
X2050678Y1523021*
X2050499Y1522842*
X2050471Y1522828*
X2050159Y1522783*
X2050142Y1522784*
X2049919Y1522829*
X2049906Y1522833*
X2049727Y1522922*
X2049705Y1522944*
X2049616Y1523123*
X2049613Y1523130*
X2049537Y1523359*
X2049232Y1523325*
X2049305Y1523033*
X2049516Y1522737*
X2049811Y1522569*
X2050151Y1522526*
X2050410Y1522570*
X2050622Y1522612*
X2050788Y1522737*
X2050960Y1522908*
X2051130Y1523206*
X2051173Y1523636*
X2048628Y1522872D02*
X2047116D01*
X2047077Y1522953*
X2047255Y1523177*
X2047264Y1523185*
X2047442Y1523319*
X2047708Y1523541*
X2048062Y1523850*
X2048282Y1524114*
X2048411Y1524286*
X2048497Y1524500*
X2048583Y1524845*
X2048541Y1525178*
X2048333Y1525428*
X2048035Y1525598*
X2047649Y1525684*
X2047266Y1525641*
X2046972Y1525473*
X2046760Y1525178*
X2046687Y1524885*
X2046987Y1524852*
X2047022Y1525030*
X2047031Y1525050*
X2047165Y1525229*
X2047175Y1525239*
X2047354Y1525373*
X2047375Y1525382*
X2047643Y1525427*
X2047661*
X2047885Y1525382*
X2047905Y1525373*
X2048083Y1525239*
X2048089Y1525234*
X2048223Y1525100*
X2048236Y1525075*
X2048281Y1524852*
Y1524832*
X2048236Y1524609*
X2048230Y1524593*
X2048096Y1524370*
X2048091Y1524363*
X2047823Y1524050*
X2047819Y1524046*
X2047416Y1523688*
X2047107Y1523423*
X2046758Y1522986*
X2046673Y1522775*
X2046639Y1522570*
X2048628*
Y1522872*
X2012552Y1585102D02*
X2012509Y1585403D01*
X2012385Y1585650*
X2012183Y1585772*
X2011889Y1585814*
X2011675Y1585771*
X2011508Y1585729*
X2011345Y1585607*
X2011216Y1585392*
X2011128Y1585395*
X2011043Y1585567*
X2010922Y1585688*
X2010712Y1585771*
X2010505Y1585813*
X2010340Y1585772*
X2010130Y1585688*
X2009869Y1585427*
X2009784Y1585462*
Y1585770*
X2009482*
Y1583548*
X2009784*
Y1584971*
X2009785Y1584983*
X2009830Y1585162*
X2009840Y1585182*
X2010063Y1585450*
X2010088Y1585466*
X2010400Y1585555*
X2010426Y1585556*
X2010605Y1585511*
X2010621Y1585504*
X2010754Y1585415*
X2010771Y1585396*
X2010861Y1585217*
X2010866Y1585195*
Y1583548*
X2011168*
Y1584837*
Y1584845*
X2011213Y1585157*
X2011222Y1585180*
X2011356Y1585359*
X2011366Y1585369*
X2011545Y1585502*
X2011565Y1585511*
X2011788Y1585556*
X2011808*
X2012031Y1585511*
X2012061Y1585492*
X2012195Y1585314*
X2012203Y1585300*
X2012247Y1585166*
X2012250Y1585150*
Y1583548*
X2012552*
Y1585102*
X2008802D02*
X2008759Y1585403D01*
X2008635Y1585650*
X2008433Y1585772*
X2008139Y1585814*
X2007925Y1585771*
X2007758Y1585729*
X2007595Y1585607*
X2007466Y1585392*
X2007378Y1585395*
X2007293Y1585567*
X2007172Y1585688*
X2006962Y1585771*
X2006755Y1585813*
X2006590Y1585772*
X2006380Y1585688*
X2006119Y1585427*
X2006034Y1585462*
Y1585770*
X2005732*
Y1583548*
X2006034*
Y1584971*
X2006035Y1584983*
X2006080Y1585162*
X2006090Y1585182*
X2006313Y1585450*
X2006338Y1585466*
X2006650Y1585555*
X2006676Y1585556*
X2006855Y1585511*
X2006871Y1585504*
X2007004Y1585415*
X2007021Y1585396*
X2007111Y1585217*
X2007116Y1585195*
Y1583548*
X2007418*
Y1584837*
Y1584845*
X2007463Y1585157*
X2007472Y1585180*
X2007606Y1585359*
X2007616Y1585369*
X2007795Y1585502*
X2007815Y1585511*
X2008038Y1585556*
X2008058*
X2008281Y1585511*
X2008311Y1585492*
X2008445Y1585314*
X2008453Y1585300*
X2008497Y1585166*
X2008500Y1585150*
Y1583548*
X2008802*
Y1585102*
X2005141Y1585500D02*
X2005054Y1585804D01*
X2004879Y1586287*
X2004753Y1586454*
X2004590Y1586576*
X2004163Y1586662*
X2003867Y1586619*
X2003616Y1586494*
X2003449Y1586285*
X2003319Y1585983*
X2003232Y1585589*
X2003187Y1585059*
Y1584665*
X2003275Y1584315*
X2003362Y1584009*
X2003487Y1583801*
X2003783Y1583589*
X2004166Y1583504*
X2004462Y1583547*
X2004462D02*
X2004712Y1583672D01*
X2004880Y1583881*
X2005009Y1584183*
X2005097Y1584577*
X2005141Y1585063*
Y1585500*
X2004839Y1585418D02*
Y1584704D01*
Y1584695*
X2004794Y1584427*
Y1584426*
X2004749Y1584203*
X2004745Y1584190*
X2004655Y1584012*
X2004642Y1583995*
X2004419Y1583816*
X2004397Y1583806*
X2004174Y1583762*
X2004154*
X2003931Y1583806*
X2003910Y1583816*
X2003687Y1583995*
X2003673Y1584012*
X2003584Y1584190*
X2003579Y1584203*
X2003535Y1584426*
Y1584427*
X2003490Y1584695*
X2003489Y1584704*
Y1585418*
X2003490Y1585425*
X2003534Y1585737*
X2003535Y1585740*
X2003579Y1585963*
X2003584Y1585976*
X2003673Y1586154*
X2003687Y1586171*
X2003910Y1586350*
X2003931Y1586360*
X2004154Y1586404*
X2004172Y1586405*
X2004440Y1586360*
X2004471Y1586342*
X2004650Y1586119*
X2004652Y1586115*
X2004742Y1585981*
X2004749Y1585963*
X2004794Y1585740*
Y1585737*
X2004839Y1585425*
Y1585418*
X2002418Y1583850D02*
X2002116D01*
Y1583548*
X2002418*
Y1583850*
X2001390Y1584437D02*
X2001348Y1584690D01*
X2001264Y1584899*
X2001099Y1585064*
X2000838Y1585194*
X2000838D02*
X2000835Y1585282D01*
X2001053Y1585413*
X2001177Y1585537*
X2001260Y1585703*
X2001301Y1585867*
X2001259Y1586201*
X2001050Y1586452*
X2000798Y1586619*
X2000414Y1586662*
X2000030Y1586619*
X1999778Y1586452*
X1999569Y1586200*
X1999527Y1585910*
X1999569Y1585702*
X1999652Y1585537*
X1999776Y1585413*
X1999993Y1585282*
X1999993D02*
X1999984Y1585192D01*
X1999727Y1585106*
X1999565Y1584944*
X1999481Y1584691*
X1999438Y1584437*
X1999524Y1584052*
X1999692Y1583757*
X2000029Y1583547*
X2000414Y1583504*
X2000799Y1583547*
X2001136Y1583757*
X2001305Y1584052*
X2001390Y1584437*
X2000998Y1585852D02*
X2000954Y1585674D01*
X2000947Y1585658*
X2000858Y1585524*
X2000838Y1585507*
X2000660Y1585418*
X2000647Y1585413*
X2000424Y1585369*
X2000404*
X2000181Y1585413*
X2000169Y1585418*
X1999990Y1585507*
X1999971Y1585524*
X1999882Y1585658*
X1999874Y1585676*
X1999829Y1585899*
X1999830Y1585921*
X1999875Y1586100*
X1999882Y1586115*
X1999971Y1586249*
X1999990Y1586266*
X2000169Y1586355*
X2000181Y1586360*
X2000404Y1586404*
X2000424*
X2000647Y1586360*
X2000660Y1586355*
X2000838Y1586266*
X2000861Y1586244*
X2000950Y1586065*
X2000954Y1586055*
X2000998Y1585876*
Y1585852*
X2001089Y1584436D02*
Y1584427D01*
X2001044Y1584160*
X2001035Y1584138*
X2000901Y1583959*
X2000891Y1583949*
X2000712Y1583815*
X2000690Y1583806*
X2000422Y1583761*
X2000414*
X2000236*
X2000208Y1583769*
X2000077Y1583857*
X1999901Y1583944*
X1999901D02*
X1999882Y1583961D01*
X1999792Y1584095*
X1999784Y1584116*
X1999740Y1584429*
X1999739Y1584436*
X1999740Y1584445*
X1999785Y1584669*
X1999791Y1584685*
X1999925Y1584908*
X1999938Y1584922*
X2000116Y1585056*
X2000138Y1585065*
X2000406Y1585110*
X2000422*
X2000690Y1585065*
X2000712Y1585056*
X2000891Y1584922*
X2000904Y1584908*
X2001037Y1584685*
X2001044Y1584669*
X2001088Y1584445*
X2001089Y1584436*
X1998311Y1586662D02*
X1998121D01*
X1998002Y1586463*
X1997994Y1586454*
X1997771Y1586231*
X1997763Y1586224*
X1997496Y1586046*
X1997493Y1586044*
X1997205Y1585880*
Y1585588*
X1997575Y1585773*
X1997929Y1586038*
X1998009Y1585998*
Y1583548*
X1998311*
Y1586662*
X1997300Y1585635D02*
Y1585934D01*
X1997400Y1585685D02*
Y1585991D01*
X1997500Y1585735D02*
Y1586049D01*
X1997600Y1585792D02*
Y1586115D01*
X1997700Y1585867D02*
Y1586182D01*
X1997800Y1585942D02*
Y1586260D01*
X1997900Y1586017D02*
Y1586360D01*
X1998000Y1586027D02*
Y1586461D01*
X1998100Y1583548D02*
Y1586627D01*
X1998200Y1583548D02*
Y1586662D01*
X1998300Y1583548D02*
Y1586662D01*
X1999500Y1584160D02*
Y1584749D01*
X1999600Y1583919D02*
Y1584979D01*
Y1585640D02*
Y1586238D01*
X1999700Y1583752D02*
Y1585079D01*
Y1585488D02*
Y1586358D01*
X1999800Y1583690D02*
Y1584084D01*
Y1584700D02*
Y1585131D01*
Y1585398D02*
Y1586466D01*
X1999900Y1583627D02*
Y1583945D01*
Y1584866D02*
Y1585164D01*
Y1585338D02*
Y1585630D01*
Y1586143D02*
Y1586533D01*
X2000000Y1583565D02*
Y1583895D01*
Y1584969D02*
Y1585201D01*
Y1585277D02*
Y1585502D01*
Y1586271D02*
Y1586599D01*
X2000100Y1583539D02*
Y1583841D01*
Y1585044D02*
Y1585452D01*
Y1586321D02*
Y1586627D01*
X2000200Y1583528D02*
Y1583774D01*
Y1585076D02*
Y1585410D01*
Y1586363D02*
Y1586638D01*
X2000300Y1583517D02*
Y1583761D01*
Y1585092D02*
Y1585390D01*
Y1586383D02*
Y1586649D01*
X2000400Y1583505D02*
Y1583761D01*
Y1585109D02*
Y1585370D01*
Y1586403D02*
Y1586661D01*
X2000500Y1583513D02*
Y1583774D01*
Y1585097D02*
Y1585384D01*
Y1586389D02*
Y1586653D01*
X2000600Y1583524D02*
Y1583791D01*
Y1585080D02*
Y1585404D01*
Y1586369D02*
Y1586641D01*
X2000700Y1583536D02*
Y1583809D01*
Y1585063D02*
Y1585438D01*
Y1586335D02*
Y1586630D01*
X2000800Y1583547D02*
Y1583881D01*
Y1584990D02*
Y1585488D01*
Y1586285D02*
Y1586618D01*
X2000900Y1583610D02*
Y1583958D01*
Y1584913D02*
Y1585164D01*
Y1585321D02*
Y1585588D01*
Y1586165D02*
Y1586552D01*
X2001000Y1583672D02*
Y1584092D01*
Y1584747D02*
Y1585114D01*
Y1585381D02*
Y1586485D01*
X2001100Y1583735D02*
Y1585063D01*
Y1585460D02*
Y1586392D01*
X2001200Y1583869D02*
Y1584963D01*
Y1585583D02*
Y1586272D01*
X2001300Y1584044D02*
Y1584810D01*
Y1585864D02*
Y1585875D01*
X2002200Y1583548D02*
Y1583850D01*
X2002300Y1583548D02*
Y1583850D01*
X2002400Y1583548D02*
Y1583850D01*
X2003200Y1584615D02*
Y1585210D01*
X2003300Y1584227D02*
Y1585897D01*
X2003400Y1583946D02*
Y1586171D01*
X2003500Y1583792D02*
Y1584635D01*
Y1585497D02*
Y1586349D01*
X2003600Y1583720D02*
Y1584158D01*
Y1586008D02*
Y1586474D01*
X2003700Y1583649D02*
Y1583984D01*
Y1586182D02*
Y1586536D01*
X2003800Y1583586D02*
Y1583904D01*
Y1586262D02*
Y1586586D01*
X2003900Y1583563D02*
Y1583824D01*
Y1586342D02*
Y1586624D01*
X2004000Y1583541D02*
Y1583792D01*
Y1586373D02*
Y1586638D01*
X2004100Y1583519D02*
Y1583773D01*
Y1586393D02*
Y1586653D01*
X2004200Y1583509D02*
Y1583767D01*
Y1586400D02*
Y1586654D01*
X2004300Y1583523D02*
Y1583787D01*
Y1586383D02*
Y1586634D01*
X2004400Y1583538D02*
Y1583807D01*
Y1586367D02*
Y1586614D01*
X2004500Y1583566D02*
Y1583881D01*
Y1586306D02*
Y1586594D01*
X2004600Y1583616D02*
Y1583961D01*
Y1586181D02*
Y1586569D01*
X2004700Y1583666D02*
Y1584101D01*
Y1586044D02*
Y1586494D01*
X2004800Y1583781D02*
Y1584464D01*
Y1585696D02*
Y1586391D01*
X2004900Y1583928D02*
Y1586228D01*
X2005000Y1584162D02*
Y1585953D01*
X2005100Y1584612D02*
Y1585644D01*
X2005800Y1583548D02*
Y1585770D01*
X2005900Y1583548D02*
Y1585770D01*
X2006000Y1583548D02*
Y1585770D01*
X2006100Y1585194D02*
Y1585415D01*
X2006200Y1585314D02*
Y1585508D01*
X2006300Y1585434D02*
Y1585608D01*
X2006400Y1585484D02*
Y1585696D01*
X2006500Y1585512D02*
Y1585736D01*
X2006600Y1585541D02*
Y1585774D01*
X2006700Y1585550D02*
Y1585799D01*
X2006800Y1585525D02*
Y1585804D01*
X2006900Y1585484D02*
Y1585784D01*
X2007000Y1585418D02*
Y1585756D01*
X2007100Y1585238D02*
Y1585716D01*
X2007200Y1583548D02*
Y1585659D01*
X2007300Y1583548D02*
Y1585552D01*
X2007400Y1583548D02*
Y1585373D01*
X2007500Y1585217D02*
Y1585449D01*
X2007600Y1585350D02*
Y1585611D01*
X2007700Y1585431D02*
Y1585686D01*
X2007800Y1585506D02*
Y1585739D01*
X2007900Y1585528D02*
Y1585764D01*
X2008000Y1585548D02*
Y1585786D01*
X2008100Y1585548D02*
Y1585806D01*
X2008200Y1585528D02*
Y1585805D01*
X2008300Y1585503D02*
Y1585790D01*
X2008400Y1585374D02*
Y1585776D01*
X2008500Y1583548D02*
Y1585731D01*
X2008600Y1583548D02*
Y1585671D01*
X2008700Y1583548D02*
Y1585520D01*
X2008800Y1583548D02*
Y1585114D01*
X2009500Y1583548D02*
Y1585770D01*
X2009600Y1583548D02*
Y1585770D01*
X2009700Y1583548D02*
Y1585770D01*
X2009800Y1585042D02*
Y1585426D01*
X2009900Y1585254D02*
Y1585458D01*
X2010000Y1585374D02*
Y1585558D01*
X2010100Y1585469D02*
Y1585658D01*
X2010200Y1585498D02*
Y1585716D01*
X2010300Y1585526D02*
Y1585756D01*
X2010400Y1585555D02*
Y1585787D01*
X2010500Y1585537D02*
Y1585812D01*
X2010600Y1585512D02*
Y1585794D01*
X2010700Y1585451D02*
Y1585774D01*
X2010800Y1585338D02*
Y1585736D01*
X2010900Y1583548D02*
Y1585696D01*
X2011000Y1583548D02*
Y1585609D01*
X2011100Y1583548D02*
Y1585452D01*
X2011200Y1585067D02*
Y1585376D01*
X2011300Y1585283D02*
Y1585532D01*
X2011400Y1585394D02*
Y1585648D01*
X2011500Y1585469D02*
Y1585723D01*
X2011600Y1585518D02*
Y1585752D01*
X2011700Y1585538D02*
Y1585776D01*
X2011800Y1585557D02*
Y1585796D01*
X2011900Y1585538D02*
Y1585812D01*
X2012000Y1585518D02*
Y1585798D01*
X2012100Y1585441D02*
Y1585783D01*
X2012200Y1585306D02*
Y1585761D01*
X2012300Y1583548D02*
Y1585701D01*
X2012400Y1583548D02*
Y1585620D01*
X2012500Y1583548D02*
Y1585420D01*
X2046700Y1522570D02*
Y1522842D01*
Y1524884D02*
Y1524937D01*
X2046800Y1522570D02*
Y1523039D01*
Y1524873D02*
Y1525233D01*
X2046900Y1522570D02*
Y1523164D01*
Y1524862D02*
Y1525373D01*
X2047000Y1522570D02*
Y1523289D01*
Y1524919D02*
Y1525490D01*
X2047100Y1522570D02*
Y1522875D01*
Y1522982D02*
Y1523414D01*
Y1525142D02*
Y1525547D01*
X2047200Y1522570D02*
Y1522872D01*
Y1523107D02*
Y1523502D01*
Y1525258D02*
Y1525604D01*
X2047300Y1522570D02*
Y1522872D01*
Y1523212D02*
Y1523588D01*
Y1525333D02*
Y1525645D01*
X2047400Y1522570D02*
Y1522872D01*
Y1523287D02*
Y1523674D01*
Y1525386D02*
Y1525656D01*
X2047500Y1522570D02*
Y1522872D01*
Y1523367D02*
Y1523762D01*
Y1525403D02*
Y1525668D01*
X2047600Y1522570D02*
Y1522872D01*
Y1523450D02*
Y1523851D01*
Y1525420D02*
Y1525679D01*
X2047700Y1522570D02*
Y1522872D01*
Y1523534D02*
Y1523940D01*
Y1525419D02*
Y1525673D01*
X2047800Y1522570D02*
Y1522872D01*
Y1523621D02*
Y1524029D01*
Y1525399D02*
Y1525650D01*
X2047900Y1522570D02*
Y1522872D01*
Y1523708D02*
Y1524140D01*
Y1525376D02*
Y1525628D01*
X2048000Y1522570D02*
Y1522872D01*
Y1523796D02*
Y1524256D01*
Y1525301D02*
Y1525606D01*
X2048100Y1522570D02*
Y1522872D01*
Y1523896D02*
Y1524376D01*
Y1525223D02*
Y1525561D01*
X2048200Y1522570D02*
Y1522872D01*
Y1524016D02*
Y1524543D01*
Y1525123D02*
Y1525504D01*
X2048300Y1522570D02*
Y1522872D01*
Y1524138D02*
Y1525447D01*
X2048400Y1522570D02*
Y1522872D01*
Y1524271D02*
Y1525348D01*
X2048500Y1522570D02*
Y1522872D01*
Y1524513D02*
Y1525228D01*
X2048600Y1522570D02*
Y1522872D01*
X2049300Y1523052D02*
Y1523333D01*
Y1524079D02*
Y1524223D01*
X2049400Y1522900D02*
Y1523344D01*
Y1524068D02*
Y1524752D01*
X2049500Y1522760D02*
Y1523355D01*
Y1524057D02*
Y1525281D01*
X2049600Y1522689D02*
Y1523169D01*
Y1524048D02*
Y1525640D01*
X2049700Y1522632D02*
Y1522955D01*
Y1524148D02*
Y1524390D01*
Y1524728D02*
Y1525640D01*
X2049800Y1522575D02*
Y1522886D01*
Y1524248D02*
Y1524443D01*
Y1525319D02*
Y1525640D01*
X2049900Y1522558D02*
Y1522836D01*
Y1524286D02*
Y1524510D01*
Y1525338D02*
Y1525640D01*
X2050000Y1522545D02*
Y1522812D01*
Y1524315D02*
Y1524572D01*
Y1525338D02*
Y1525640D01*
X2050100Y1522533D02*
Y1522792D01*
Y1524343D02*
Y1524586D01*
Y1525338D02*
Y1525640D01*
X2050200Y1522535D02*
Y1522789D01*
Y1524350D02*
Y1524601D01*
Y1525338D02*
Y1525640D01*
X2050300Y1522551D02*
Y1522804D01*
Y1524335D02*
Y1524608D01*
Y1525338D02*
Y1525640D01*
X2050400Y1522568D02*
Y1522818D01*
Y1524321D02*
Y1524583D01*
Y1525338D02*
Y1525640D01*
X2050500Y1522587D02*
Y1522843D01*
Y1524297D02*
Y1524558D01*
Y1525338D02*
Y1525640D01*
X2050600Y1522608D02*
Y1522943D01*
Y1524222D02*
Y1524533D01*
Y1525338D02*
Y1525640D01*
X2050700Y1522671D02*
Y1523055D01*
Y1524129D02*
Y1524472D01*
Y1525338D02*
Y1525640D01*
X2050800Y1522748D02*
Y1523221D01*
Y1523962D02*
Y1524400D01*
Y1525338D02*
Y1525640D01*
X2050900Y1522848D02*
Y1524329D01*
Y1525338D02*
Y1525640D01*
X2051000Y1522979D02*
Y1524202D01*
X2051100Y1523154D02*
Y1524062D01*
X2051900Y1522570D02*
Y1522872D01*
X2052000Y1522570D02*
Y1522872D01*
X2052100Y1522570D02*
Y1522872D01*
X2053000Y1523252D02*
Y1523327D01*
X2053100Y1522970D02*
Y1523338D01*
Y1524073D02*
Y1524488D01*
X2053200Y1522830D02*
Y1523349D01*
Y1524062D02*
Y1525016D01*
X2053300Y1522718D02*
Y1523319D01*
Y1524051D02*
Y1525545D01*
X2053400Y1522661D02*
Y1523055D01*
Y1524098D02*
Y1525640D01*
X2053500Y1522603D02*
Y1522911D01*
Y1524198D02*
Y1524410D01*
Y1525045D02*
Y1525640D01*
X2053600Y1522564D02*
Y1522861D01*
Y1524272D02*
Y1524477D01*
Y1525338D02*
Y1525640D01*
X2053700Y1522551D02*
Y1522822D01*
Y1524301D02*
Y1524543D01*
Y1525338D02*
Y1525640D01*
X2053800Y1522539D02*
Y1522802D01*
Y1524329D02*
Y1524579D01*
Y1525338D02*
Y1525640D01*
X2053900Y1522526D02*
Y1522783D01*
Y1524356D02*
Y1524593D01*
Y1525338D02*
Y1525640D01*
X2054000Y1522543D02*
Y1522796D01*
Y1524343D02*
Y1524608D01*
Y1525338D02*
Y1525640D01*
X2054100Y1522560D02*
Y1522811D01*
Y1524328D02*
Y1524596D01*
Y1525338D02*
Y1525640D01*
X2054200Y1522577D02*
Y1522825D01*
Y1524314D02*
Y1524571D01*
Y1525338D02*
Y1525640D01*
X2054300Y1522597D02*
Y1522893D01*
Y1524260D02*
Y1524546D01*
Y1525338D02*
Y1525640D01*
X2054400Y1522633D02*
Y1522993D01*
Y1524185D02*
Y1524507D01*
Y1525338D02*
Y1525640D01*
X2054500Y1522708D02*
Y1523138D01*
Y1524046D02*
Y1524436D01*
Y1525338D02*
Y1525640D01*
X2054600Y1522798D02*
Y1523440D01*
Y1523744D02*
Y1524364D01*
Y1525338D02*
Y1525640D01*
X2054700Y1522898D02*
Y1524272D01*
Y1525338D02*
Y1525640D01*
X2054800Y1523066D02*
Y1524132D01*
X2054900Y1523409D02*
Y1523841D01*
X2055600Y1522570D02*
Y1524792D01*
X2055700Y1522570D02*
Y1524792D01*
X2055800Y1522570D02*
Y1524792D01*
X2055900Y1524238D02*
Y1524448D01*
X2056000Y1524358D02*
Y1524548D01*
X2056100Y1524477D02*
Y1524648D01*
X2056200Y1524511D02*
Y1524725D01*
X2056300Y1524540D02*
Y1524765D01*
X2056400Y1524568D02*
Y1524801D01*
X2056500Y1524567D02*
Y1524826D01*
X2056600Y1524542D02*
Y1524823D01*
X2056700Y1524495D02*
Y1524803D01*
X2056800Y1524424D02*
Y1524771D01*
X2056900Y1522570D02*
Y1524731D01*
X2057000Y1522570D02*
Y1524664D01*
X2057100Y1522570D02*
Y1524539D01*
X2057200Y1523864D02*
Y1524390D01*
X2057300Y1524263D02*
Y1524501D01*
X2057400Y1524392D02*
Y1524646D01*
X2057500Y1524467D02*
Y1524721D01*
X2057600Y1524534D02*
Y1524766D01*
X2057700Y1524554D02*
Y1524791D01*
X2057800Y1524574D02*
Y1524812D01*
X2057900Y1524566D02*
Y1524832D01*
X2058000Y1524546D02*
Y1524824D01*
X2058100Y1524506D02*
Y1524810D01*
X2058200Y1524372D02*
Y1524796D01*
X2058300Y1522570D02*
Y1524743D01*
X2058400Y1522570D02*
Y1524683D01*
X2058500Y1522570D02*
Y1524506D01*
X2059300Y1522570D02*
Y1524792D01*
X2059400Y1522570D02*
Y1524792D01*
X2059500Y1522570D02*
Y1524792D01*
X2059600Y1524136D02*
Y1524437D01*
X2059700Y1524298D02*
Y1524498D01*
X2059800Y1524418D02*
Y1524598D01*
X2059900Y1524497D02*
Y1524698D01*
X2060000Y1524525D02*
Y1524745D01*
X2060100Y1524554D02*
Y1524785D01*
X2060200Y1524579D02*
Y1524814D01*
X2060300Y1524555D02*
Y1524833D01*
X2060400Y1524528D02*
Y1524813D01*
X2060500Y1524461D02*
Y1524791D01*
X2060600Y1524325D02*
Y1524751D01*
X2060700Y1522570D02*
Y1524711D01*
X2060800Y1522570D02*
Y1524614D01*
X2060900Y1522570D02*
Y1524439D01*
X2061000Y1524195D02*
Y1524418D01*
X2061100Y1524330D02*
Y1524584D01*
X2061200Y1524429D02*
Y1524684D01*
X2061300Y1524504D02*
Y1524754D01*
X2061400Y1524544D02*
Y1524779D01*
X2061500Y1524564D02*
Y1524802D01*
X2061600Y1524576D02*
Y1524822D01*
X2061700Y1524556D02*
Y1524832D01*
X2061800Y1524536D02*
Y1524817D01*
X2061900Y1524439D02*
Y1524803D01*
X2062000Y1524276D02*
Y1524773D01*
X2062100Y1522570D02*
Y1524713D01*
X2062200Y1522570D02*
Y1524606D01*
X2062300Y1522570D02*
Y1524360D01*
*
G04 PC Custom Flashes*
G04 Layer Name ESP32_WROOM_32D_5X5_V2- - flashes*
%LPD*%
*
*
G04 PC Circuitry*
G04 Layer Name ESP32_WROOM_32D_5X5_V2- - circuitry*
%LPD*%
*
G54D10*
X1998012Y1517303D02*
Y1512303D01*
X2000512Y1514803D02*
X1995512D01*
X1968504Y1574503D02*
X1968507D01*
X2039370D02*
X2039373D01*
X2039370Y1474288D02*
X2039373D01*
X2039370Y1574503D02*
X2039373D01*
G54D43*
X1993004Y1540803D02*
X1994004D01*
X1980804D02*
X1981804D01*
G54D44*
X2010033Y1527894D02*
G75*
G03X2010033I-360J0D01*
G01X1968504Y1574681D02*
X2039370D01*
Y1474288*
X1968504*
Y1574681*
X2018504Y1520803D02*
X2021004D01*
X2019754Y1519553*
X2018504Y1520803*
G54D48*
X2006814Y1482035D02*
Y1501035D01*
X1992814*
Y1482035*
X1998314*
Y1482112*
X2001314D02*
G03X1998314I-1500J0D01*
G01X2001314D02*
Y1482035D01*
X2006814*
X2004614Y1484285D02*
G03X2004614I-800J0D01*
G54D109*
G01X1992039Y1537203D02*
Y1544403D01*
X1994983*
Y1537203*
X1992039*
X1979839D02*
Y1544403D01*
X1982783*
Y1537203*
X1979839*
X1995989Y1532214D02*
X1996122Y1532445D01*
X1996197Y1532745*
X1996176Y1532964*
X1995942Y1533243*
X1995730Y1533302*
X1995421Y1533280*
X1995171Y1533189*
X1994826Y1533018*
X1994347Y1532616*
X1994118Y1532305*
X1993985Y1532075*
X1993910Y1531775*
X1993931Y1531555*
X1994165Y1531277*
X1994378Y1531218*
X1994686Y1531239*
X1994936Y1531330*
X1996574Y1531518D02*
X1996670Y1531598D01*
X1996919Y1531689*
X1997074Y1531700*
X1997286Y1531641*
X1997520Y1531362*
X1997541Y1531143*
X1997504Y1530993*
X1997371Y1530762*
X1997179Y1530602*
X1996929Y1530511*
X1996525Y1530409*
X1994983Y1530302*
X1995801Y1529327*
X1997955Y1530066D02*
X1998168Y1530007D01*
X1998630Y1530039*
X1996619Y1528352*
X1985471Y1541745D02*
X1985252Y1541654D01*
X1985033Y1541472*
X1984924Y1541291*
Y1540927*
X1985033Y1540745*
X1985252Y1540563*
X1985471Y1540472*
X1985799Y1540381*
X1986346*
X1986674Y1540472*
X1986893Y1540563*
X1987111Y1540745*
X1987221Y1540927*
Y1541291*
X1987111Y1541472*
X1986893Y1541654*
X1986674Y1541745*
X1985361Y1542563D02*
X1985252Y1542745D01*
X1984924Y1543018*
X1987221*
X1985471Y1543927D02*
X1985361D01*
X1985143Y1544018*
X1985033Y1544109*
X1984924Y1544291*
Y1544654*
X1985033Y1544836*
X1985143Y1544927*
X1985361Y1545018*
X1985580*
X1985799Y1544927*
X1986127Y1544745*
X1987221Y1543836*
Y1545109*
X1980549Y1533307D02*
X1980330Y1533216D01*
X1980112Y1533034*
X1980002Y1532852*
Y1532489*
X1980112Y1532307*
X1980330Y1532125*
X1980549Y1532034*
X1980877Y1531943*
X1981424*
X1981752Y1532034*
X1981971Y1532125*
X1982190Y1532307*
X1982299Y1532489*
Y1532852*
X1982190Y1533034*
X1981971Y1533216*
X1981752Y1533307*
X1980440Y1534125D02*
X1980330Y1534307D01*
X1980002Y1534580*
X1982299*
X1980002Y1535580D02*
Y1536580D01*
X1980877Y1536034*
Y1536307*
X1980987Y1536489*
X1981096Y1536580*
X1981424Y1536671*
X1981643*
X1981971Y1536580*
X1982190Y1536398*
X1982299Y1536125*
Y1535852*
X1982190Y1535580*
X1982080Y1535489*
X1981862Y1535398*
X2030517Y1519633D02*
X2032157D01*
X2032485Y1519724*
X2032704Y1519906*
X2032814Y1520179*
Y1520361*
X2032704Y1520633*
X2032485Y1520815*
X2032157Y1520906*
X2030517*
X2030954Y1521724D02*
X2030845Y1521906D01*
X2030517Y1522179*
X2032814*
X1979754Y1527850D02*
Y1526209D01*
X1979845Y1525881*
X1980027Y1525663*
X1980299Y1525553*
X1980481*
X1980754Y1525663*
X1980936Y1525881*
X1981027Y1526209*
Y1527850*
X1981936Y1527303D02*
Y1527413D01*
X1982027Y1527631*
X1982118Y1527741*
X1982299Y1527850*
X1982663*
X1982845Y1527741*
X1982936Y1527631*
X1983027Y1527413*
Y1527194*
X1982936Y1526975*
X1982754Y1526647*
X1981845Y1525553*
X1983118*
X1975466Y1500537D02*
Y1498662D01*
X1975557Y1498287*
X1975739Y1498037*
X1976012Y1497912*
X1976194*
X1976466Y1498037*
X1976648Y1498287*
X1976739Y1498662*
Y1500537*
X1977739D02*
X1978739D01*
X1978194Y1499537*
X1978466*
X1978648Y1499412*
X1978739Y1499287*
X1978830Y1498912*
Y1498662*
X1978739Y1498287*
X1978557Y1498037*
X1978285Y1497912*
X1978012*
X1977739Y1498037*
X1977648Y1498162*
X1977557Y1498412*
X2027995Y1521477D02*
X2027904Y1521696D01*
X2027722Y1521915*
X2027540Y1522024*
X2027176*
X2026995Y1521915*
X2026813Y1521696*
X2026722Y1521477*
X2026631Y1521149*
Y1520602*
X2026722Y1520274*
X2026813Y1520055*
X2026995Y1519837*
X2027176Y1519727*
X2027540*
X2027722Y1519837*
X2027904Y1520055*
X2027995Y1520274*
X2028813Y1521587D02*
X2028995Y1521696D01*
X2029267Y1522024*
Y1519727*
X2003065Y1541668D02*
X2002846Y1541577D01*
X2002627Y1541395*
X2002518Y1541213*
Y1540850*
X2002627Y1540668*
X2002846Y1540486*
X2003065Y1540395*
X2003393Y1540304*
X2003940*
X2004268Y1540395*
X2004487Y1540486*
X2004705Y1540668*
X2004815Y1540850*
Y1541213*
X2004705Y1541395*
X2004487Y1541577*
X2004268Y1541668*
X2002955Y1542486D02*
X2002846Y1542668D01*
X2002518Y1542941*
X2004815*
X2002518Y1544304D02*
X2002627Y1544032D01*
X2002955Y1543850*
X2003502Y1543759*
X2003830*
X2004377Y1543850*
X2004705Y1544032*
X2004815Y1544304*
Y1544486*
X2004705Y1544759*
X2004377Y1544941*
X2003830Y1545032*
X2003502*
X2002955Y1544941*
X2002627Y1544759*
X2002518Y1544486*
Y1544304*
X1988658Y1541802D02*
X1988439Y1541711D01*
X1988221Y1541529*
X1988111Y1541347*
Y1540983*
X1988221Y1540802*
X1988439Y1540620*
X1988658Y1540529*
X1988986Y1540438*
X1989533*
X1989861Y1540529*
X1990080Y1540620*
X1990299Y1540802*
X1990408Y1540983*
Y1541347*
X1990299Y1541529*
X1990080Y1541711*
X1989861Y1541802*
X1988549Y1542620D02*
X1988439Y1542802D01*
X1988111Y1543074*
X1990408*
X1988549Y1543893D02*
X1988439Y1544074D01*
X1988111Y1544347*
X1990408*
X2010758Y1533303D02*
X2010667Y1533522D01*
X2010485Y1533741*
X2010303Y1533850*
X2009939*
X2009758Y1533741*
X2009576Y1533522*
X2009485Y1533303*
X2009394Y1532975*
Y1532428*
X2009485Y1532100*
X2009576Y1531881*
X2009758Y1531663*
X2009939Y1531553*
X2010303*
X2010485Y1531663*
X2010667Y1531881*
X2010758Y1532100*
X2011576Y1533413D02*
X2011758Y1533522D01*
X2012030Y1533850*
Y1531553*
X2013758Y1533850D02*
X2012848Y1532319D01*
X2014212*
X2013758Y1533850D02*
Y1531553D01*
X2010748Y1540803D02*
X2010657Y1541022D01*
X2010475Y1541241*
X2010293Y1541350*
X2009929*
X2009748Y1541241*
X2009566Y1541022*
X2009475Y1540803*
X2009384Y1540475*
Y1539928*
X2009475Y1539600*
X2009566Y1539381*
X2009748Y1539163*
X2009929Y1539053*
X2010293*
X2010475Y1539163*
X2010657Y1539381*
X2010748Y1539600*
X2011566Y1540913D02*
X2011748Y1541022D01*
X2012020Y1541350*
Y1539053*
X2014020Y1541350D02*
X2013111D01*
X2013020Y1540366*
X2013111Y1540475*
X2013384Y1540584*
X2013657*
X2013929Y1540475*
X2014111Y1540256*
X2014202Y1539928*
X2014111Y1539709*
X2014020Y1539381*
X2013838Y1539163*
X2013566Y1539053*
X2013293*
X2013020Y1539163*
X2012929Y1539272*
X2012838Y1539491*
X1989515Y1530847D02*
X1989296Y1530938D01*
X1989012Y1530964*
X1988807Y1530912*
X1988807D02*
X1988549Y1530655D01*
X1988498Y1530449*
X1988524Y1530166*
X1988615Y1529947*
X1988782Y1529651*
X1989169Y1529264*
X1989465Y1529097*
X1989684Y1529006*
X1989968Y1528980*
X1990174Y1529031*
X1990431Y1529288*
X1990482Y1529494*
X1990456Y1529778*
X1990365Y1529996*
X1990016Y1531503D02*
X1990067Y1531709D01*
X1990028Y1532134*
X1991652Y1530510*
X1991610Y1533252D02*
X1991391Y1533342D01*
X1991121Y1533227*
X1990992Y1533098*
X1990877Y1532828*
X1990980Y1532467*
X1991303Y1532016*
X1991689Y1531630*
X1992063Y1531385*
X1992346Y1531358*
X1992616Y1531474*
X1992681Y1531538*
X1992796Y1531808*
X1992770Y1532092*
X1992602Y1532388*
X1992525Y1532465*
X1992229Y1532633*
X1991945Y1532659*
X1991675Y1532544*
X1991611Y1532479*
X1991495Y1532209*
X1991521Y1531926*
X1991689Y1531630*
X1985959Y1536129D02*
X1985740Y1536219D01*
X1985457Y1536245*
X1985251Y1536194*
X1984994Y1535937*
X1984943Y1535731*
X1984969Y1535448*
X1985059Y1535229*
X1985227Y1534932*
X1985614Y1534546*
X1985910Y1534378*
X1986129Y1534288*
X1986412Y1534261*
X1986618Y1534313*
X1986875Y1534570*
X1986927Y1534776*
X1986900Y1535059*
X1986810Y1535278*
X1986461Y1536785D02*
X1986512Y1536990D01*
X1986473Y1537415*
X1988097Y1535791*
X1987951Y1538894D02*
X1988932Y1536627D01*
X1987051Y1537994D02*
X1987951Y1538894D01*
X1977004Y1489417D02*
X1976785Y1489326D01*
X1976566Y1489144*
X1976457Y1488962*
Y1488599*
X1976566Y1488417*
X1976785Y1488235*
X1977004Y1488144*
X1977332Y1488053*
X1977879*
X1978207Y1488144*
X1978426Y1488235*
X1978645Y1488417*
X1978754Y1488599*
Y1488962*
X1978645Y1489144*
X1978426Y1489326*
X1978207Y1489417*
X1976895Y1490235D02*
X1976785Y1490417D01*
X1976457Y1490690*
X1978754*
X1976457Y1491962D02*
X1976566Y1491690D01*
X1976785Y1491599*
X1977004*
X1977223Y1491690*
X1977332Y1491871*
X1977441Y1492235*
X1977551Y1492508*
X1977770Y1492690*
X1977988Y1492780*
X1978316*
X1978535Y1492690*
X1978645Y1492599*
X1978754Y1492326*
Y1491962*
X1978645Y1491690*
X1978535Y1491599*
X1978316Y1491508*
X1977988*
X1977770Y1491599*
X1977551Y1491780*
X1977441Y1492053*
X1977332Y1492417*
X1977223Y1492599*
X1977004Y1492690*
X1976785*
X1976566Y1492599*
X1976457Y1492326*
Y1491962*
X1981004Y1508417D02*
X1980785Y1508326D01*
X1980566Y1508144*
X1980457Y1507962*
Y1507599*
X1980566Y1507417*
X1980785Y1507235*
X1981004Y1507144*
X1981332Y1507053*
X1981879*
X1982207Y1507144*
X1982426Y1507235*
X1982645Y1507417*
X1982754Y1507599*
Y1507962*
X1982645Y1508144*
X1982426Y1508326*
X1982207Y1508417*
X1980895Y1509235D02*
X1980785Y1509417D01*
X1980457Y1509690*
X1982754*
X1981223Y1511690D02*
X1981551Y1511599D01*
X1981770Y1511417*
X1981879Y1511144*
Y1511053*
X1981770Y1510780*
X1981551Y1510599*
X1981223Y1510508*
X1981113*
X1980785Y1510599*
X1980566Y1510780*
X1980457Y1511053*
Y1511144*
X1980566Y1511417*
X1980785Y1511599*
X1981223Y1511690*
X1981770*
X1982316Y1511599*
X1982645Y1511417*
X1982754Y1511144*
Y1510962*
X1982645Y1510690*
X1982426Y1510599*
X2027589Y1500774D02*
X2027498Y1500992D01*
X2027316Y1501211*
X2027134Y1501320*
X2026771*
X2026589Y1501211*
X2026407Y1500992*
X2026316Y1500774*
X2026225Y1500445*
Y1499899*
X2026316Y1499570*
X2026407Y1499352*
X2026589Y1499133*
X2026771Y1499024*
X2027134*
X2027316Y1499133*
X2027498Y1499352*
X2027589Y1499570*
X2028498Y1500774D02*
Y1500883D01*
X2028589Y1501102*
X2028680Y1501211*
X2028862Y1501320*
X2029225*
X2029407Y1501211*
X2029498Y1501102*
X2029589Y1500883*
Y1500664*
X2029498Y1500445*
X2029316Y1500117*
X2028407Y1499024*
X2029680*
X2022299Y1496619D02*
X2022208Y1496838D01*
X2022026Y1497057*
X2021844Y1497166*
X2021481*
X2021299Y1497057*
X2021117Y1496838*
X2021026Y1496619*
X2020935Y1496291*
Y1495744*
X2021026Y1495416*
X2021117Y1495197*
X2021299Y1494978*
X2021481Y1494869*
X2021844*
X2022026Y1494978*
X2022208Y1495197*
X2022299Y1495416*
X2023208Y1496619D02*
Y1496728D01*
X2023299Y1496947*
X2023390Y1497057*
X2023572Y1497166*
X2023935*
X2024117Y1497057*
X2024208Y1496947*
X2024299Y1496728*
Y1496510*
X2024208Y1496291*
X2024026Y1495963*
X2023117Y1494869*
X2024390*
X2025754Y1497166D02*
X2025481Y1497057D01*
X2025299Y1496728*
X2025208Y1496182*
Y1495853*
X2025299Y1495307*
X2025481Y1494978*
X2025754Y1494869*
X2025935*
X2026208Y1494978*
X2026390Y1495307*
X2026481Y1495853*
Y1496182*
X2026390Y1496728*
X2026208Y1497057*
X2025935Y1497166*
X2025754*
X2022006Y1503063D02*
X2021915Y1503282D01*
X2021734Y1503500*
X2021552Y1503610*
X2021188*
X2021006Y1503500*
X2020825Y1503282*
X2020734Y1503063*
X2020643Y1502735*
Y1502188*
X2020734Y1501860*
X2020825Y1501641*
X2021006Y1501422*
X2021188Y1501313*
X2021552*
X2021734Y1501422*
X2021915Y1501641*
X2022006Y1501860*
X2023006Y1503610D02*
X2024006D01*
X2023461Y1502735*
X2023734*
X2023915Y1502625*
X2024006Y1502516*
X2024097Y1502188*
Y1501969*
X2024006Y1501641*
X2023825Y1501422*
X2023552Y1501313*
X2023279*
X2023006Y1501422*
X2022915Y1501532*
X2022825Y1501750*
X2022660Y1488711D02*
X2022569Y1488930D01*
X2022387Y1489149*
X2022205Y1489258*
X2021842*
X2021660Y1489149*
X2021478Y1488930*
X2021387Y1488711*
X2021296Y1488383*
Y1487836*
X2021387Y1487508*
X2021478Y1487289*
X2021660Y1487071*
X2021842Y1486961*
X2022205*
X2022387Y1487071*
X2022569Y1487289*
X2022660Y1487508*
X2024387Y1489258D02*
X2023478Y1487727D01*
X2024842*
X2024387Y1489258D02*
Y1486961D01*
X2022773Y1525488D02*
X2022554Y1525397D01*
X2022335Y1525215*
X2022226Y1525033*
Y1524670*
X2022335Y1524488*
X2022554Y1524306*
X2022773Y1524215*
X2023101Y1524124*
X2023648*
X2023976Y1524215*
X2024195Y1524306*
X2024413Y1524488*
X2024523Y1524670*
Y1525033*
X2024413Y1525215*
X2024195Y1525397*
X2023976Y1525488*
X2022226Y1527488D02*
Y1526579D01*
X2023210Y1526488*
X2023101Y1526579*
X2022991Y1526852*
Y1527124*
X2023101Y1527397*
X2023320Y1527579*
X2023648Y1527670*
X2023866Y1527579*
X2024195Y1527488*
X2024413Y1527306*
X2024523Y1527033*
Y1526761*
X2024413Y1526488*
X2024304Y1526397*
X2024085Y1526306*
X2028749Y1525408D02*
X2028530Y1525317D01*
X2028311Y1525136*
X2028202Y1524954*
Y1524590*
X2028311Y1524408*
X2028530Y1524227*
X2028749Y1524136*
X2029077Y1524045*
X2029624*
X2029952Y1524136*
X2030171Y1524227*
X2030390Y1524408*
X2030499Y1524590*
Y1524954*
X2030390Y1525136*
X2030171Y1525317*
X2029952Y1525408*
X2028530Y1527317D02*
X2028311Y1527227D01*
X2028202Y1526954*
Y1526772*
X2028311Y1526499*
X2028640Y1526317*
X2029186Y1526227*
X2029733*
X2030171Y1526317*
X2030390Y1526499*
X2030499Y1526772*
Y1526863*
X2030390Y1527136*
X2030171Y1527317*
X2029843Y1527408*
X2029733*
X2029405Y1527317*
X2029186Y1527136*
X2029077Y1526863*
Y1526772*
X2029186Y1526499*
X2029405Y1526317*
X2029733Y1526227*
X2014871Y1529603D02*
X2014652Y1529512D01*
X2014434Y1529331*
X2014324Y1529149*
Y1528785*
X2014434Y1528603*
X2014652Y1528421*
X2014871Y1528331*
X2015199Y1528240*
X2015746*
X2016074Y1528331*
X2016293Y1528421*
X2016512Y1528603*
X2016621Y1528785*
Y1529149*
X2016512Y1529331*
X2016293Y1529512*
X2016074Y1529603*
X2015090Y1531603D02*
X2015418Y1531512D01*
X2015637Y1531331*
X2015746Y1531058*
Y1530967*
X2015637Y1530694*
X2015418Y1530512*
X2015090Y1530421*
X2014980*
X2014652Y1530512*
X2014434Y1530694*
X2014324Y1530967*
Y1531058*
X2014434Y1531331*
X2014652Y1531512*
X2015090Y1531603*
X2015637*
X2016184Y1531512*
X2016512Y1531331*
X2016621Y1531058*
Y1530876*
X2016512Y1530603*
X2016293Y1530512*
X2009437Y1535053D02*
X2011734D01*
Y1536144*
X2009437Y1537871D02*
X2010968Y1536962D01*
Y1538326*
X2009437Y1537871D02*
X2011734D01*
X2001991Y1538787D02*
X2000129Y1536937D01*
X2000897Y1536163*
X2004169Y1536594D02*
X2003529Y1537239D01*
X2002666Y1536511*
X2002819Y1536534*
X2003100Y1536429*
X2003292Y1536235*
X2003396Y1535954*
X2003346Y1535649*
X2003144Y1535320*
X2002903Y1535208*
X2002573Y1535008*
X2002267Y1534961*
X2001986Y1535067*
X2001794Y1535260*
X2001691Y1535542*
X2001715Y1535694*
X2001829Y1535935*
X2025176Y1524464D02*
X2027473D01*
X2025176D02*
Y1525282D01*
X2025285Y1525555*
X2025394Y1525646*
X2025613Y1525736*
X2025832*
X2026051Y1525646*
X2026160Y1525555*
X2026269Y1525282*
Y1524464*
Y1525100D02*
X2027473Y1525736D01*
X2025613Y1526555D02*
X2025504Y1526736D01*
X2025176Y1527009*
X2027473*
X2021021Y1500434D02*
Y1497809D01*
Y1500434D02*
X2021839D01*
X2022112Y1500309*
X2022203Y1500184*
X2022294Y1499934*
Y1499684*
X2022203Y1499434*
X2022112Y1499309*
X2021839Y1499184*
X2021021*
X2021657D02*
X2022294Y1497809D01*
X2023203Y1499809D02*
Y1499934D01*
X2023294Y1500184*
X2023385Y1500309*
X2023567Y1500434*
X2023930*
X2024112Y1500309*
X2024203Y1500184*
X2024294Y1499934*
Y1499684*
X2024203Y1499434*
X2024021Y1499059*
X2023112Y1497809*
X2024385*
X2021225Y1490355D02*
X2023850D01*
X2021225D02*
Y1491173D01*
X2021350Y1491446*
X2021475Y1491536*
X2021725Y1491627*
X2021975*
X2022225Y1491536*
X2022350Y1491446*
X2022475Y1491173*
Y1490355*
Y1490991D02*
X2023850Y1491627D01*
X2021225Y1492627D02*
Y1493627D01*
X2022225Y1493082*
Y1493355*
X2022350Y1493536*
X2022475Y1493627*
X2022850Y1493718*
X2023100*
X2023475Y1493627*
X2023725Y1493446*
X2023850Y1493173*
Y1492900*
X2023725Y1492627*
X2023600Y1492536*
X2023350Y1492446*
X1975980Y1534754D02*
X1978277D01*
X1975980D02*
Y1535390D01*
X1976089Y1535663*
X1976308Y1535845*
X1976527Y1535936*
X1976855Y1536027*
X1977402*
X1977730Y1535936*
X1977949Y1535845*
X1978167Y1535663*
X1978277Y1535390*
Y1534754*
X1976417Y1536845D02*
X1976308Y1537027D01*
X1975980Y1537300*
X1978277*
X1968504Y1585373D02*
X1993664D01*
X1968504D02*
X1973504Y1586373D01*
Y1584373*
X1968504Y1585373*
X2039370D02*
X2014210D01*
X2039370D02*
X2034370Y1584373D01*
Y1586373*
X2039370Y1585373*
X1968504Y1576503D02*
Y1587373D01*
X2039370Y1576503D02*
Y1587373D01*
X2054344Y1474288D02*
Y1519520D01*
Y1474288D02*
X2053344Y1479288D01*
X2055344*
X2054344Y1474288*
Y1574503D02*
Y1529270D01*
Y1574503D02*
X2055344Y1569503D01*
X2053344*
X2054344Y1574503*
X2041370Y1474288D02*
X2056344D01*
X2041370Y1574503D02*
X2056344D01*
X2018004Y1523103D02*
X2012004D01*
Y1501503*
X2019004*
X2018000Y1502503D02*
X2019000Y1501503D01*
G54D131*
X2031630Y1518609D02*
Y1505495D01*
X2020138*
Y1518609*
X2031630*
G54D173*
X2007854Y1527402D02*
X2010610Y1524646D01*
Y1502205*
X1985414*
Y1527402*
X2007854*
G54D198*
X1998366Y1531382D02*
X1995583Y1534166D01*
X1997141Y1535725*
X1999925Y1532941*
X1998366Y1531382*
X2021935Y1521906D02*
X2025872D01*
Y1519701*
X2021935*
Y1521906*
X1999402Y1539085D02*
Y1543022D01*
X2001606*
Y1539085*
X1999402*
X1995902D02*
Y1543022D01*
X1998106*
Y1539085*
X1995902*
X2004685Y1531906D02*
X2008622D01*
Y1529701*
X2004685*
Y1531906*
X2008622Y1537701D02*
X2004685D01*
Y1539906*
X2008622*
Y1537701*
X1996225Y1535316D02*
X1993441Y1532532D01*
X1991883Y1534091*
X1994666Y1536875*
X1996225Y1535316*
X1991675Y1534766D02*
X1988891Y1531982D01*
X1987333Y1533541*
X1990116Y1536325*
X1991675Y1534766*
X1978606Y1486772D02*
Y1482835D01*
X1976402*
Y1486772*
X1978606*
X1982606Y1516472D02*
Y1512535D01*
X1980402*
Y1516472*
X1982606*
X2029572Y1502201D02*
X2025635D01*
Y1504406*
X2029572*
Y1502201*
X2013035Y1513706D02*
X2016972D01*
Y1511501*
X2013035*
Y1513706*
X2014035Y1522406D02*
X2017972D01*
Y1520201*
X2014035*
Y1522406*
X2012535Y1504206D02*
X2016472D01*
Y1502001*
X2012535*
Y1504206*
X2016356Y1527522D02*
Y1523585D01*
X2014152*
Y1527522*
X2016356*
X2019152Y1523584D02*
Y1527521D01*
X2021356*
Y1523584*
X2019152*
X2011202Y1526835D02*
Y1530772D01*
X2013406*
Y1526835*
X2011202*
X2004472Y1532835D02*
Y1536772D01*
X2006676*
Y1532835*
X2004472*
X2000116Y1533132D02*
X1997333Y1535916D01*
X1998891Y1537475*
X2001675Y1534691*
X2000116Y1533132*
X2016652Y1523585D02*
Y1527522D01*
X2018856*
Y1523585*
X2016652*
X2018172Y1516401D02*
X2014235D01*
Y1518606*
X2018172*
Y1516401*
X2016606Y1509772D02*
Y1505835D01*
X2014402*
Y1509772*
X2016606*
X1975285Y1538347D02*
Y1540709D01*
X1979222*
Y1538347*
X1975285*
Y1541497D02*
Y1543859D01*
X1979222*
Y1541497*
X1975285*
X1979222Y1540709D02*
X1975285Y1541497D01*
Y1540709D02*
X1979222Y1541497D01*
G74*
X0Y0D02*
M02*
