*
*
G04 PADS 9.5 Build Number: 522968 generated Gerber (RS-274-X) file*
G04 PC Version=2.1*
*
%IN "ESP32_WROOM_32D_5X5_V2-"*%
*
%MOIN*%
*
%FSLAX35Y35*%
*
*
*
*
G04 PC Standard Apertures*
*
*
G04 Thermal Relief Aperture macro.*
%AMTER*
1,1,$1,0,0*
1,0,$1-$2,0,0*
21,0,$3,$4,0,0,45*
21,0,$3,$4,0,0,135*
%
*
*
G04 Annular Aperture macro.*
%AMANN*
1,1,$1,0,0*
1,0,$2,0,0*
%
*
*
G04 Odd Aperture macro.*
%AMODD*
1,1,$1,0,0*
1,0,$1-0.005,0,0*
%
*
*
G04 PC Custom Aperture Macros*
*
*
*
*
*
*
G04 PC Aperture Table*
*
%ADD010C,0.001*%
%ADD044C,0.01*%
%ADD109C,0.005*%
*
*
*
*
G04 PC Circuitry*
G04 Layer Name ESP32_WROOM_32D_5X5_V2- - circuitry*
%LPD*%
*
G54D10*
G01X2062334Y1524124D02*
X2062291Y1524425D01*
X2062167Y1524673*
X2061965Y1524794*
X2061671Y1524836*
X2061457Y1524793*
X2061290Y1524751*
X2061127Y1524629*
X2060998Y1524414*
X2060910Y1524418*
X2060825Y1524589*
X2060704Y1524710*
X2060494Y1524794*
X2060287Y1524835*
X2060122Y1524794*
X2059912Y1524710*
X2059651Y1524449*
X2059566Y1524485*
Y1524792*
X2059264*
Y1522570*
X2059566*
Y1523994*
X2059567Y1524006*
X2059612Y1524184*
X2059622Y1524204*
X2059845Y1524472*
X2059870Y1524488*
X2060182Y1524577*
X2060208Y1524578*
X2060387Y1524533*
X2060403Y1524526*
X2060536Y1524437*
X2060553Y1524418*
X2060643Y1524239*
X2060648Y1524217*
Y1522570*
X2060950*
Y1523860*
Y1523867*
X2060995Y1524179*
X2061004Y1524202*
X2061138Y1524381*
X2061148Y1524391*
X2061327Y1524525*
X2061347Y1524534*
X2061570Y1524578*
X2061590*
X2061813Y1524534*
X2061843Y1524515*
X2061977Y1524336*
X2061985Y1524322*
X2062029Y1524188*
X2062032Y1524172*
Y1522570*
X2062334*
Y1524124*
X2058584D02*
X2058541Y1524425D01*
X2058417Y1524673*
X2058215Y1524794*
X2057921Y1524836*
X2057707Y1524793*
X2057540Y1524751*
X2057377Y1524629*
X2057248Y1524414*
X2057160Y1524418*
X2057075Y1524589*
X2056954Y1524710*
X2056744Y1524794*
X2056537Y1524835*
X2056372Y1524794*
X2056162Y1524710*
X2055901Y1524449*
X2055816Y1524485*
Y1524792*
X2055514*
Y1522570*
X2055816*
Y1523994*
X2055817Y1524006*
X2055862Y1524184*
X2055872Y1524204*
X2056095Y1524472*
X2056120Y1524488*
X2056432Y1524577*
X2056458Y1524578*
X2056637Y1524533*
X2056653Y1524526*
X2056786Y1524437*
X2056803Y1524418*
X2056893Y1524239*
X2056898Y1524217*
Y1522570*
X2057200*
Y1523860*
Y1523867*
X2057245Y1524179*
X2057254Y1524202*
X2057388Y1524381*
X2057398Y1524391*
X2057577Y1524525*
X2057597Y1524534*
X2057820Y1524578*
X2057840*
X2058063Y1524534*
X2058093Y1524515*
X2058227Y1524336*
X2058235Y1524322*
X2058279Y1524188*
X2058282Y1524172*
Y1522570*
X2058584*
Y1524124*
X2054923Y1523636D02*
X2054880Y1524020D01*
X2054669Y1524315*
X2054371Y1524528*
X2054033Y1524612*
X2053741Y1524571*
X2053483Y1524398*
X2053405Y1524440*
X2053406Y1524448*
X2053540Y1525296*
X2053589Y1525338*
X2054744*
Y1525640*
X2053318*
X2053023Y1524082*
X2053347Y1524046*
X2053554Y1524252*
X2053575Y1524265*
X2053888Y1524354*
X2053909Y1524356*
X2054221Y1524311*
X2054244Y1524301*
X2054423Y1524168*
X2054436Y1524153*
X2054569Y1523930*
X2054576Y1523911*
X2054621Y1523599*
Y1523585*
X2054576Y1523272*
X2054569Y1523254*
X2054436Y1523030*
X2054428Y1523021*
X2054249Y1522842*
X2054221Y1522828*
X2053909Y1522783*
X2053892Y1522784*
X2053669Y1522829*
X2053656Y1522833*
X2053477Y1522922*
X2053455Y1522944*
X2053366Y1523123*
X2053363Y1523130*
X2053287Y1523359*
X2052982Y1523325*
X2053055Y1523033*
X2053266Y1522737*
X2053561Y1522569*
X2053901Y1522526*
X2054160Y1522570*
X2054372Y1522612*
X2054538Y1522737*
X2054710Y1522908*
X2054880Y1523206*
X2054923Y1523636*
X2052200Y1522872D02*
X2051898D01*
Y1522570*
X2052200*
Y1522872*
X2051173Y1523636D02*
X2051130Y1524020D01*
X2050919Y1524315*
X2050621Y1524528*
X2050283Y1524612*
X2049991Y1524571*
X2049733Y1524398*
X2049655Y1524440*
X2049656Y1524448*
X2049790Y1525296*
X2049839Y1525338*
X2050994*
Y1525640*
X2049568*
X2049273Y1524082*
X2049597Y1524046*
X2049804Y1524252*
X2049825Y1524265*
X2050138Y1524354*
X2050159Y1524356*
X2050471Y1524311*
X2050494Y1524301*
X2050673Y1524168*
X2050686Y1524153*
X2050819Y1523930*
X2050826Y1523911*
X2050871Y1523599*
Y1523585*
X2050826Y1523272*
X2050819Y1523254*
X2050686Y1523030*
X2050678Y1523021*
X2050499Y1522842*
X2050471Y1522828*
X2050159Y1522783*
X2050142Y1522784*
X2049919Y1522829*
X2049906Y1522833*
X2049727Y1522922*
X2049705Y1522944*
X2049616Y1523123*
X2049613Y1523130*
X2049537Y1523359*
X2049232Y1523325*
X2049305Y1523033*
X2049516Y1522737*
X2049811Y1522569*
X2050151Y1522526*
X2050410Y1522570*
X2050622Y1522612*
X2050788Y1522737*
X2050960Y1522908*
X2051130Y1523206*
X2051173Y1523636*
X2048628Y1522872D02*
X2047116D01*
X2047077Y1522953*
X2047255Y1523177*
X2047264Y1523185*
X2047442Y1523319*
X2047708Y1523541*
X2048062Y1523850*
X2048282Y1524114*
X2048411Y1524286*
X2048497Y1524500*
X2048583Y1524845*
X2048541Y1525178*
X2048333Y1525428*
X2048035Y1525598*
X2047649Y1525684*
X2047266Y1525641*
X2046972Y1525473*
X2046760Y1525178*
X2046687Y1524885*
X2046987Y1524852*
X2047022Y1525030*
X2047031Y1525050*
X2047165Y1525229*
X2047175Y1525239*
X2047354Y1525373*
X2047375Y1525382*
X2047643Y1525427*
X2047661*
X2047885Y1525382*
X2047905Y1525373*
X2048083Y1525239*
X2048089Y1525234*
X2048223Y1525100*
X2048236Y1525075*
X2048281Y1524852*
Y1524832*
X2048236Y1524609*
X2048230Y1524593*
X2048096Y1524370*
X2048091Y1524363*
X2047823Y1524050*
X2047819Y1524046*
X2047416Y1523688*
X2047107Y1523423*
X2046758Y1522986*
X2046673Y1522775*
X2046639Y1522570*
X2048628*
Y1522872*
X2012552Y1585102D02*
X2012509Y1585403D01*
X2012385Y1585650*
X2012183Y1585772*
X2011889Y1585814*
X2011675Y1585771*
X2011508Y1585729*
X2011345Y1585607*
X2011216Y1585392*
X2011128Y1585395*
X2011043Y1585567*
X2010922Y1585688*
X2010712Y1585771*
X2010505Y1585813*
X2010340Y1585772*
X2010130Y1585688*
X2009869Y1585427*
X2009784Y1585462*
Y1585770*
X2009482*
Y1583548*
X2009784*
Y1584971*
X2009785Y1584983*
X2009830Y1585162*
X2009840Y1585182*
X2010063Y1585450*
X2010088Y1585466*
X2010400Y1585555*
X2010426Y1585556*
X2010605Y1585511*
X2010621Y1585504*
X2010754Y1585415*
X2010771Y1585396*
X2010861Y1585217*
X2010866Y1585195*
Y1583548*
X2011168*
Y1584837*
Y1584845*
X2011213Y1585157*
X2011222Y1585180*
X2011356Y1585359*
X2011366Y1585369*
X2011545Y1585502*
X2011565Y1585511*
X2011788Y1585556*
X2011808*
X2012031Y1585511*
X2012061Y1585492*
X2012195Y1585314*
X2012203Y1585300*
X2012247Y1585166*
X2012250Y1585150*
Y1583548*
X2012552*
Y1585102*
X2008802D02*
X2008759Y1585403D01*
X2008635Y1585650*
X2008433Y1585772*
X2008139Y1585814*
X2007925Y1585771*
X2007758Y1585729*
X2007595Y1585607*
X2007466Y1585392*
X2007378Y1585395*
X2007293Y1585567*
X2007172Y1585688*
X2006962Y1585771*
X2006755Y1585813*
X2006590Y1585772*
X2006380Y1585688*
X2006119Y1585427*
X2006034Y1585462*
Y1585770*
X2005732*
Y1583548*
X2006034*
Y1584971*
X2006035Y1584983*
X2006080Y1585162*
X2006090Y1585182*
X2006313Y1585450*
X2006338Y1585466*
X2006650Y1585555*
X2006676Y1585556*
X2006855Y1585511*
X2006871Y1585504*
X2007004Y1585415*
X2007021Y1585396*
X2007111Y1585217*
X2007116Y1585195*
Y1583548*
X2007418*
Y1584837*
Y1584845*
X2007463Y1585157*
X2007472Y1585180*
X2007606Y1585359*
X2007616Y1585369*
X2007795Y1585502*
X2007815Y1585511*
X2008038Y1585556*
X2008058*
X2008281Y1585511*
X2008311Y1585492*
X2008445Y1585314*
X2008453Y1585300*
X2008497Y1585166*
X2008500Y1585150*
Y1583548*
X2008802*
Y1585102*
X2005141Y1585500D02*
X2005054Y1585804D01*
X2004879Y1586287*
X2004753Y1586454*
X2004590Y1586576*
X2004163Y1586662*
X2003867Y1586619*
X2003616Y1586494*
X2003449Y1586285*
X2003319Y1585983*
X2003232Y1585589*
X2003187Y1585059*
Y1584665*
X2003275Y1584315*
X2003362Y1584009*
X2003487Y1583801*
X2003783Y1583589*
X2004166Y1583504*
X2004462Y1583547*
X2004462D02*
X2004712Y1583672D01*
X2004880Y1583881*
X2005009Y1584183*
X2005097Y1584577*
X2005141Y1585063*
Y1585500*
X2004839Y1585418D02*
Y1584704D01*
Y1584695*
X2004794Y1584427*
Y1584426*
X2004749Y1584203*
X2004745Y1584190*
X2004655Y1584012*
X2004642Y1583995*
X2004419Y1583816*
X2004397Y1583806*
X2004174Y1583762*
X2004154*
X2003931Y1583806*
X2003910Y1583816*
X2003687Y1583995*
X2003673Y1584012*
X2003584Y1584190*
X2003579Y1584203*
X2003535Y1584426*
Y1584427*
X2003490Y1584695*
X2003489Y1584704*
Y1585418*
X2003490Y1585425*
X2003534Y1585737*
X2003535Y1585740*
X2003579Y1585963*
X2003584Y1585976*
X2003673Y1586154*
X2003687Y1586171*
X2003910Y1586350*
X2003931Y1586360*
X2004154Y1586404*
X2004172Y1586405*
X2004440Y1586360*
X2004471Y1586342*
X2004650Y1586119*
X2004652Y1586115*
X2004742Y1585981*
X2004749Y1585963*
X2004794Y1585740*
Y1585737*
X2004839Y1585425*
Y1585418*
X2002418Y1583850D02*
X2002116D01*
Y1583548*
X2002418*
Y1583850*
X2001390Y1584437D02*
X2001348Y1584690D01*
X2001264Y1584899*
X2001099Y1585064*
X2000838Y1585194*
X2000838D02*
X2000835Y1585282D01*
X2001053Y1585413*
X2001177Y1585537*
X2001260Y1585703*
X2001301Y1585867*
X2001259Y1586201*
X2001050Y1586452*
X2000798Y1586619*
X2000414Y1586662*
X2000030Y1586619*
X1999778Y1586452*
X1999569Y1586200*
X1999527Y1585910*
X1999569Y1585702*
X1999652Y1585537*
X1999776Y1585413*
X1999993Y1585282*
X1999993D02*
X1999984Y1585192D01*
X1999727Y1585106*
X1999565Y1584944*
X1999481Y1584691*
X1999438Y1584437*
X1999524Y1584052*
X1999692Y1583757*
X2000029Y1583547*
X2000414Y1583504*
X2000799Y1583547*
X2001136Y1583757*
X2001305Y1584052*
X2001390Y1584437*
X2000998Y1585852D02*
X2000954Y1585674D01*
X2000947Y1585658*
X2000858Y1585524*
X2000838Y1585507*
X2000660Y1585418*
X2000647Y1585413*
X2000424Y1585369*
X2000404*
X2000181Y1585413*
X2000169Y1585418*
X1999990Y1585507*
X1999971Y1585524*
X1999882Y1585658*
X1999874Y1585676*
X1999829Y1585899*
X1999830Y1585921*
X1999875Y1586100*
X1999882Y1586115*
X1999971Y1586249*
X1999990Y1586266*
X2000169Y1586355*
X2000181Y1586360*
X2000404Y1586404*
X2000424*
X2000647Y1586360*
X2000660Y1586355*
X2000838Y1586266*
X2000861Y1586244*
X2000950Y1586065*
X2000954Y1586055*
X2000998Y1585876*
Y1585852*
X2001089Y1584436D02*
Y1584427D01*
X2001044Y1584160*
X2001035Y1584138*
X2000901Y1583959*
X2000891Y1583949*
X2000712Y1583815*
X2000690Y1583806*
X2000422Y1583761*
X2000414*
X2000236*
X2000208Y1583769*
X2000077Y1583857*
X1999901Y1583944*
X1999901D02*
X1999882Y1583961D01*
X1999792Y1584095*
X1999784Y1584116*
X1999740Y1584429*
X1999739Y1584436*
X1999740Y1584445*
X1999785Y1584669*
X1999791Y1584685*
X1999925Y1584908*
X1999938Y1584922*
X2000116Y1585056*
X2000138Y1585065*
X2000406Y1585110*
X2000422*
X2000690Y1585065*
X2000712Y1585056*
X2000891Y1584922*
X2000904Y1584908*
X2001037Y1584685*
X2001044Y1584669*
X2001088Y1584445*
X2001089Y1584436*
X1998311Y1586662D02*
X1998121D01*
X1998002Y1586463*
X1997994Y1586454*
X1997771Y1586231*
X1997763Y1586224*
X1997496Y1586046*
X1997493Y1586044*
X1997205Y1585880*
Y1585588*
X1997575Y1585773*
X1997929Y1586038*
X1998009Y1585998*
Y1583548*
X1998311*
Y1586662*
X1997300Y1585635D02*
Y1585934D01*
X1997400Y1585685D02*
Y1585991D01*
X1997500Y1585735D02*
Y1586049D01*
X1997600Y1585792D02*
Y1586115D01*
X1997700Y1585867D02*
Y1586182D01*
X1997800Y1585942D02*
Y1586260D01*
X1997900Y1586017D02*
Y1586360D01*
X1998000Y1586027D02*
Y1586461D01*
X1998100Y1583548D02*
Y1586627D01*
X1998200Y1583548D02*
Y1586662D01*
X1998300Y1583548D02*
Y1586662D01*
X1999500Y1584160D02*
Y1584749D01*
X1999600Y1583919D02*
Y1584979D01*
Y1585640D02*
Y1586238D01*
X1999700Y1583752D02*
Y1585079D01*
Y1585488D02*
Y1586358D01*
X1999800Y1583690D02*
Y1584084D01*
Y1584700D02*
Y1585131D01*
Y1585398D02*
Y1586466D01*
X1999900Y1583627D02*
Y1583945D01*
Y1584866D02*
Y1585164D01*
Y1585338D02*
Y1585630D01*
Y1586143D02*
Y1586533D01*
X2000000Y1583565D02*
Y1583895D01*
Y1584969D02*
Y1585201D01*
Y1585277D02*
Y1585502D01*
Y1586271D02*
Y1586599D01*
X2000100Y1583539D02*
Y1583841D01*
Y1585044D02*
Y1585452D01*
Y1586321D02*
Y1586627D01*
X2000200Y1583528D02*
Y1583774D01*
Y1585076D02*
Y1585410D01*
Y1586363D02*
Y1586638D01*
X2000300Y1583517D02*
Y1583761D01*
Y1585092D02*
Y1585390D01*
Y1586383D02*
Y1586649D01*
X2000400Y1583505D02*
Y1583761D01*
Y1585109D02*
Y1585370D01*
Y1586403D02*
Y1586661D01*
X2000500Y1583513D02*
Y1583774D01*
Y1585097D02*
Y1585384D01*
Y1586389D02*
Y1586653D01*
X2000600Y1583524D02*
Y1583791D01*
Y1585080D02*
Y1585404D01*
Y1586369D02*
Y1586641D01*
X2000700Y1583536D02*
Y1583809D01*
Y1585063D02*
Y1585438D01*
Y1586335D02*
Y1586630D01*
X2000800Y1583547D02*
Y1583881D01*
Y1584990D02*
Y1585488D01*
Y1586285D02*
Y1586618D01*
X2000900Y1583610D02*
Y1583958D01*
Y1584913D02*
Y1585164D01*
Y1585321D02*
Y1585588D01*
Y1586165D02*
Y1586552D01*
X2001000Y1583672D02*
Y1584092D01*
Y1584747D02*
Y1585114D01*
Y1585381D02*
Y1586485D01*
X2001100Y1583735D02*
Y1585063D01*
Y1585460D02*
Y1586392D01*
X2001200Y1583869D02*
Y1584963D01*
Y1585583D02*
Y1586272D01*
X2001300Y1584044D02*
Y1584810D01*
Y1585864D02*
Y1585875D01*
X2002200Y1583548D02*
Y1583850D01*
X2002300Y1583548D02*
Y1583850D01*
X2002400Y1583548D02*
Y1583850D01*
X2003200Y1584615D02*
Y1585210D01*
X2003300Y1584227D02*
Y1585897D01*
X2003400Y1583946D02*
Y1586171D01*
X2003500Y1583792D02*
Y1584635D01*
Y1585497D02*
Y1586349D01*
X2003600Y1583720D02*
Y1584158D01*
Y1586008D02*
Y1586474D01*
X2003700Y1583649D02*
Y1583984D01*
Y1586182D02*
Y1586536D01*
X2003800Y1583586D02*
Y1583904D01*
Y1586262D02*
Y1586586D01*
X2003900Y1583563D02*
Y1583824D01*
Y1586342D02*
Y1586624D01*
X2004000Y1583541D02*
Y1583792D01*
Y1586373D02*
Y1586638D01*
X2004100Y1583519D02*
Y1583773D01*
Y1586393D02*
Y1586653D01*
X2004200Y1583509D02*
Y1583767D01*
Y1586400D02*
Y1586654D01*
X2004300Y1583523D02*
Y1583787D01*
Y1586383D02*
Y1586634D01*
X2004400Y1583538D02*
Y1583807D01*
Y1586367D02*
Y1586614D01*
X2004500Y1583566D02*
Y1583881D01*
Y1586306D02*
Y1586594D01*
X2004600Y1583616D02*
Y1583961D01*
Y1586181D02*
Y1586569D01*
X2004700Y1583666D02*
Y1584101D01*
Y1586044D02*
Y1586494D01*
X2004800Y1583781D02*
Y1584464D01*
Y1585696D02*
Y1586391D01*
X2004900Y1583928D02*
Y1586228D01*
X2005000Y1584162D02*
Y1585953D01*
X2005100Y1584612D02*
Y1585644D01*
X2005800Y1583548D02*
Y1585770D01*
X2005900Y1583548D02*
Y1585770D01*
X2006000Y1583548D02*
Y1585770D01*
X2006100Y1585194D02*
Y1585415D01*
X2006200Y1585314D02*
Y1585508D01*
X2006300Y1585434D02*
Y1585608D01*
X2006400Y1585484D02*
Y1585696D01*
X2006500Y1585512D02*
Y1585736D01*
X2006600Y1585541D02*
Y1585774D01*
X2006700Y1585550D02*
Y1585799D01*
X2006800Y1585525D02*
Y1585804D01*
X2006900Y1585484D02*
Y1585784D01*
X2007000Y1585418D02*
Y1585756D01*
X2007100Y1585238D02*
Y1585716D01*
X2007200Y1583548D02*
Y1585659D01*
X2007300Y1583548D02*
Y1585552D01*
X2007400Y1583548D02*
Y1585373D01*
X2007500Y1585217D02*
Y1585449D01*
X2007600Y1585350D02*
Y1585611D01*
X2007700Y1585431D02*
Y1585686D01*
X2007800Y1585506D02*
Y1585739D01*
X2007900Y1585528D02*
Y1585764D01*
X2008000Y1585548D02*
Y1585786D01*
X2008100Y1585548D02*
Y1585806D01*
X2008200Y1585528D02*
Y1585805D01*
X2008300Y1585503D02*
Y1585790D01*
X2008400Y1585374D02*
Y1585776D01*
X2008500Y1583548D02*
Y1585731D01*
X2008600Y1583548D02*
Y1585671D01*
X2008700Y1583548D02*
Y1585520D01*
X2008800Y1583548D02*
Y1585114D01*
X2009500Y1583548D02*
Y1585770D01*
X2009600Y1583548D02*
Y1585770D01*
X2009700Y1583548D02*
Y1585770D01*
X2009800Y1585042D02*
Y1585426D01*
X2009900Y1585254D02*
Y1585458D01*
X2010000Y1585374D02*
Y1585558D01*
X2010100Y1585469D02*
Y1585658D01*
X2010200Y1585498D02*
Y1585716D01*
X2010300Y1585526D02*
Y1585756D01*
X2010400Y1585555D02*
Y1585787D01*
X2010500Y1585537D02*
Y1585812D01*
X2010600Y1585512D02*
Y1585794D01*
X2010700Y1585451D02*
Y1585774D01*
X2010800Y1585338D02*
Y1585736D01*
X2010900Y1583548D02*
Y1585696D01*
X2011000Y1583548D02*
Y1585609D01*
X2011100Y1583548D02*
Y1585452D01*
X2011200Y1585067D02*
Y1585376D01*
X2011300Y1585283D02*
Y1585532D01*
X2011400Y1585394D02*
Y1585648D01*
X2011500Y1585469D02*
Y1585723D01*
X2011600Y1585518D02*
Y1585752D01*
X2011700Y1585538D02*
Y1585776D01*
X2011800Y1585557D02*
Y1585796D01*
X2011900Y1585538D02*
Y1585812D01*
X2012000Y1585518D02*
Y1585798D01*
X2012100Y1585441D02*
Y1585783D01*
X2012200Y1585306D02*
Y1585761D01*
X2012300Y1583548D02*
Y1585701D01*
X2012400Y1583548D02*
Y1585620D01*
X2012500Y1583548D02*
Y1585420D01*
X2046700Y1522570D02*
Y1522842D01*
Y1524884D02*
Y1524937D01*
X2046800Y1522570D02*
Y1523039D01*
Y1524873D02*
Y1525233D01*
X2046900Y1522570D02*
Y1523164D01*
Y1524862D02*
Y1525373D01*
X2047000Y1522570D02*
Y1523289D01*
Y1524919D02*
Y1525490D01*
X2047100Y1522570D02*
Y1522875D01*
Y1522982D02*
Y1523414D01*
Y1525142D02*
Y1525547D01*
X2047200Y1522570D02*
Y1522872D01*
Y1523107D02*
Y1523502D01*
Y1525258D02*
Y1525604D01*
X2047300Y1522570D02*
Y1522872D01*
Y1523212D02*
Y1523588D01*
Y1525333D02*
Y1525645D01*
X2047400Y1522570D02*
Y1522872D01*
Y1523287D02*
Y1523674D01*
Y1525386D02*
Y1525656D01*
X2047500Y1522570D02*
Y1522872D01*
Y1523367D02*
Y1523762D01*
Y1525403D02*
Y1525668D01*
X2047600Y1522570D02*
Y1522872D01*
Y1523450D02*
Y1523851D01*
Y1525420D02*
Y1525679D01*
X2047700Y1522570D02*
Y1522872D01*
Y1523534D02*
Y1523940D01*
Y1525419D02*
Y1525673D01*
X2047800Y1522570D02*
Y1522872D01*
Y1523621D02*
Y1524029D01*
Y1525399D02*
Y1525650D01*
X2047900Y1522570D02*
Y1522872D01*
Y1523708D02*
Y1524140D01*
Y1525376D02*
Y1525628D01*
X2048000Y1522570D02*
Y1522872D01*
Y1523796D02*
Y1524256D01*
Y1525301D02*
Y1525606D01*
X2048100Y1522570D02*
Y1522872D01*
Y1523896D02*
Y1524376D01*
Y1525223D02*
Y1525561D01*
X2048200Y1522570D02*
Y1522872D01*
Y1524016D02*
Y1524543D01*
Y1525123D02*
Y1525504D01*
X2048300Y1522570D02*
Y1522872D01*
Y1524138D02*
Y1525447D01*
X2048400Y1522570D02*
Y1522872D01*
Y1524271D02*
Y1525348D01*
X2048500Y1522570D02*
Y1522872D01*
Y1524513D02*
Y1525228D01*
X2048600Y1522570D02*
Y1522872D01*
X2049300Y1523052D02*
Y1523333D01*
Y1524079D02*
Y1524223D01*
X2049400Y1522900D02*
Y1523344D01*
Y1524068D02*
Y1524752D01*
X2049500Y1522760D02*
Y1523355D01*
Y1524057D02*
Y1525281D01*
X2049600Y1522689D02*
Y1523169D01*
Y1524048D02*
Y1525640D01*
X2049700Y1522632D02*
Y1522955D01*
Y1524148D02*
Y1524390D01*
Y1524728D02*
Y1525640D01*
X2049800Y1522575D02*
Y1522886D01*
Y1524248D02*
Y1524443D01*
Y1525319D02*
Y1525640D01*
X2049900Y1522558D02*
Y1522836D01*
Y1524286D02*
Y1524510D01*
Y1525338D02*
Y1525640D01*
X2050000Y1522545D02*
Y1522812D01*
Y1524315D02*
Y1524572D01*
Y1525338D02*
Y1525640D01*
X2050100Y1522533D02*
Y1522792D01*
Y1524343D02*
Y1524586D01*
Y1525338D02*
Y1525640D01*
X2050200Y1522535D02*
Y1522789D01*
Y1524350D02*
Y1524601D01*
Y1525338D02*
Y1525640D01*
X2050300Y1522551D02*
Y1522804D01*
Y1524335D02*
Y1524608D01*
Y1525338D02*
Y1525640D01*
X2050400Y1522568D02*
Y1522818D01*
Y1524321D02*
Y1524583D01*
Y1525338D02*
Y1525640D01*
X2050500Y1522587D02*
Y1522843D01*
Y1524297D02*
Y1524558D01*
Y1525338D02*
Y1525640D01*
X2050600Y1522608D02*
Y1522943D01*
Y1524222D02*
Y1524533D01*
Y1525338D02*
Y1525640D01*
X2050700Y1522671D02*
Y1523055D01*
Y1524129D02*
Y1524472D01*
Y1525338D02*
Y1525640D01*
X2050800Y1522748D02*
Y1523221D01*
Y1523962D02*
Y1524400D01*
Y1525338D02*
Y1525640D01*
X2050900Y1522848D02*
Y1524329D01*
Y1525338D02*
Y1525640D01*
X2051000Y1522979D02*
Y1524202D01*
X2051100Y1523154D02*
Y1524062D01*
X2051900Y1522570D02*
Y1522872D01*
X2052000Y1522570D02*
Y1522872D01*
X2052100Y1522570D02*
Y1522872D01*
X2053000Y1523252D02*
Y1523327D01*
X2053100Y1522970D02*
Y1523338D01*
Y1524073D02*
Y1524488D01*
X2053200Y1522830D02*
Y1523349D01*
Y1524062D02*
Y1525016D01*
X2053300Y1522718D02*
Y1523319D01*
Y1524051D02*
Y1525545D01*
X2053400Y1522661D02*
Y1523055D01*
Y1524098D02*
Y1525640D01*
X2053500Y1522603D02*
Y1522911D01*
Y1524198D02*
Y1524410D01*
Y1525045D02*
Y1525640D01*
X2053600Y1522564D02*
Y1522861D01*
Y1524272D02*
Y1524477D01*
Y1525338D02*
Y1525640D01*
X2053700Y1522551D02*
Y1522822D01*
Y1524301D02*
Y1524543D01*
Y1525338D02*
Y1525640D01*
X2053800Y1522539D02*
Y1522802D01*
Y1524329D02*
Y1524579D01*
Y1525338D02*
Y1525640D01*
X2053900Y1522526D02*
Y1522783D01*
Y1524356D02*
Y1524593D01*
Y1525338D02*
Y1525640D01*
X2054000Y1522543D02*
Y1522796D01*
Y1524343D02*
Y1524608D01*
Y1525338D02*
Y1525640D01*
X2054100Y1522560D02*
Y1522811D01*
Y1524328D02*
Y1524596D01*
Y1525338D02*
Y1525640D01*
X2054200Y1522577D02*
Y1522825D01*
Y1524314D02*
Y1524571D01*
Y1525338D02*
Y1525640D01*
X2054300Y1522597D02*
Y1522893D01*
Y1524260D02*
Y1524546D01*
Y1525338D02*
Y1525640D01*
X2054400Y1522633D02*
Y1522993D01*
Y1524185D02*
Y1524507D01*
Y1525338D02*
Y1525640D01*
X2054500Y1522708D02*
Y1523138D01*
Y1524046D02*
Y1524436D01*
Y1525338D02*
Y1525640D01*
X2054600Y1522798D02*
Y1523440D01*
Y1523744D02*
Y1524364D01*
Y1525338D02*
Y1525640D01*
X2054700Y1522898D02*
Y1524272D01*
Y1525338D02*
Y1525640D01*
X2054800Y1523066D02*
Y1524132D01*
X2054900Y1523409D02*
Y1523841D01*
X2055600Y1522570D02*
Y1524792D01*
X2055700Y1522570D02*
Y1524792D01*
X2055800Y1522570D02*
Y1524792D01*
X2055900Y1524238D02*
Y1524448D01*
X2056000Y1524358D02*
Y1524548D01*
X2056100Y1524477D02*
Y1524648D01*
X2056200Y1524511D02*
Y1524725D01*
X2056300Y1524540D02*
Y1524765D01*
X2056400Y1524568D02*
Y1524801D01*
X2056500Y1524567D02*
Y1524826D01*
X2056600Y1524542D02*
Y1524823D01*
X2056700Y1524495D02*
Y1524803D01*
X2056800Y1524424D02*
Y1524771D01*
X2056900Y1522570D02*
Y1524731D01*
X2057000Y1522570D02*
Y1524664D01*
X2057100Y1522570D02*
Y1524539D01*
X2057200Y1523864D02*
Y1524390D01*
X2057300Y1524263D02*
Y1524501D01*
X2057400Y1524392D02*
Y1524646D01*
X2057500Y1524467D02*
Y1524721D01*
X2057600Y1524534D02*
Y1524766D01*
X2057700Y1524554D02*
Y1524791D01*
X2057800Y1524574D02*
Y1524812D01*
X2057900Y1524566D02*
Y1524832D01*
X2058000Y1524546D02*
Y1524824D01*
X2058100Y1524506D02*
Y1524810D01*
X2058200Y1524372D02*
Y1524796D01*
X2058300Y1522570D02*
Y1524743D01*
X2058400Y1522570D02*
Y1524683D01*
X2058500Y1522570D02*
Y1524506D01*
X2059300Y1522570D02*
Y1524792D01*
X2059400Y1522570D02*
Y1524792D01*
X2059500Y1522570D02*
Y1524792D01*
X2059600Y1524136D02*
Y1524437D01*
X2059700Y1524298D02*
Y1524498D01*
X2059800Y1524418D02*
Y1524598D01*
X2059900Y1524497D02*
Y1524698D01*
X2060000Y1524525D02*
Y1524745D01*
X2060100Y1524554D02*
Y1524785D01*
X2060200Y1524579D02*
Y1524814D01*
X2060300Y1524555D02*
Y1524833D01*
X2060400Y1524528D02*
Y1524813D01*
X2060500Y1524461D02*
Y1524791D01*
X2060600Y1524325D02*
Y1524751D01*
X2060700Y1522570D02*
Y1524711D01*
X2060800Y1522570D02*
Y1524614D01*
X2060900Y1522570D02*
Y1524439D01*
X2061000Y1524195D02*
Y1524418D01*
X2061100Y1524330D02*
Y1524584D01*
X2061200Y1524429D02*
Y1524684D01*
X2061300Y1524504D02*
Y1524754D01*
X2061400Y1524544D02*
Y1524779D01*
X2061500Y1524564D02*
Y1524802D01*
X2061600Y1524576D02*
Y1524822D01*
X2061700Y1524556D02*
Y1524832D01*
X2061800Y1524536D02*
Y1524817D01*
X2061900Y1524439D02*
Y1524803D01*
X2062000Y1524276D02*
Y1524773D01*
X2062100Y1522570D02*
Y1524713D01*
X2062200Y1522570D02*
Y1524606D01*
X2062300Y1522570D02*
Y1524360D01*
*
G04 PC Custom Flashes*
G04 Layer Name ESP32_WROOM_32D_5X5_V2- - flashes*
%LPD*%
*
*
G04 PC Circuitry*
G04 Layer Name ESP32_WROOM_32D_5X5_V2- - circuitry*
%LPD*%
*
G54D10*
X1968504Y1574503D02*
X1968507D01*
X2039370D02*
X2039373D01*
X2039370Y1474288D02*
X2039373D01*
X2039370Y1574503D02*
X2039373D01*
G54D44*
X1968504Y1574681D02*
X2039370D01*
Y1474288*
X1968504*
Y1574681*
G54D109*
X1977084Y1545758D02*
X1977175Y1545977D01*
X1977357Y1546196*
X1977539Y1546305*
X1977902*
X1978084Y1546196*
X1978266Y1545977*
X1978357Y1545758*
X1978448Y1545430*
Y1544883*
X1978357Y1544555*
X1978266Y1544336*
X1978084Y1544118*
X1977902Y1544008*
X1977539*
X1977357Y1544118*
X1977175Y1544336*
X1977084Y1544555*
Y1544883*
X1977539D02*
X1977084D01*
X1976266Y1546305D02*
Y1544008D01*
Y1546305D02*
X1974993Y1544008D01*
Y1546305D02*
Y1544008D01*
X1974175Y1546305D02*
Y1544008D01*
Y1546305D02*
X1973539D01*
X1973266Y1546196*
X1973084Y1545977*
X1972993Y1545758*
X1972902Y1545430*
Y1544883*
X1972993Y1544555*
X1973084Y1544336*
X1973266Y1544118*
X1973539Y1544008*
X1974175*
X1978266Y1541305D02*
X1977266D01*
X1977812Y1540430*
X1977539*
X1977357Y1540321*
X1977266Y1540211*
X1977175Y1539883*
Y1539664*
X1977266Y1539336*
X1977448Y1539118*
X1977721Y1539008*
X1977993*
X1978266Y1539118*
X1978357Y1539227*
X1978448Y1539446*
X1976357Y1541305D02*
X1975630Y1539008D01*
X1974902Y1541305D02*
X1975630Y1539008D01*
X1973902Y1541305D02*
X1972902D01*
X1973448Y1540430*
X1973175*
X1972993Y1540321*
X1972902Y1540211*
X1972812Y1539883*
Y1539664*
X1972902Y1539336*
X1973084Y1539118*
X1973357Y1539008*
X1973630*
X1973902Y1539118*
X1973993Y1539227*
X1974084Y1539446*
X1976254Y1536240D02*
Y1533943D01*
Y1536240D02*
X1975072D01*
X1976254Y1535146D02*
X1975527D01*
X1976254Y1533943D02*
X1975072D01*
X1974254Y1536240D02*
Y1533943D01*
Y1536240D02*
X1972981Y1533943D01*
Y1536240D02*
Y1533943D01*
X1989781Y1530912D02*
X1989963Y1531131D01*
X1990236Y1531240*
X1990599*
X1990872Y1531131*
X1991054Y1530912*
Y1530693*
X1990963Y1530474*
X1990872Y1530365*
X1990690Y1530256*
X1990145Y1530037*
X1989963Y1529928*
X1989872Y1529818*
X1989781Y1529599*
Y1529271*
X1989963Y1529053*
X1990236Y1528943*
X1990599*
X1990872Y1529053*
X1991054Y1529271*
X1988963Y1531240D02*
Y1528943D01*
Y1531240D02*
X1987781D01*
X1988963Y1530146D02*
X1988236D01*
X1988963Y1528943D02*
X1987781D01*
X1986963Y1531240D02*
Y1528943D01*
Y1531240D02*
X1985690Y1528943D01*
Y1531240D02*
Y1528943D01*
X1983599Y1530912D02*
X1983781Y1531131D01*
X1984054Y1531240*
X1984418*
X1984690Y1531131*
X1984872Y1530912*
Y1530693*
X1984781Y1530474*
X1984690Y1530365*
X1984508Y1530256*
X1983963Y1530037*
X1983781Y1529928*
X1983690Y1529818*
X1983599Y1529599*
Y1529271*
X1983781Y1529053*
X1984054Y1528943*
X1984418*
X1984690Y1529053*
X1984872Y1529271*
X1982236Y1531240D02*
X1982418Y1531131D01*
X1982599Y1530912*
X1982690Y1530693*
X1982781Y1530365*
Y1529818*
X1982690Y1529490*
X1982599Y1529271*
X1982418Y1529053*
X1982236Y1528943*
X1981872*
X1981690Y1529053*
X1981508Y1529271*
X1981418Y1529490*
X1981327Y1529818*
Y1530365*
X1981418Y1530693*
X1981508Y1530912*
X1981690Y1531131*
X1981872Y1531240*
X1982236*
X1980508D02*
Y1528943D01*
Y1531240D02*
X1979690D01*
X1979418Y1531131*
X1979327Y1531021*
X1979236Y1530803*
Y1530584*
X1979327Y1530365*
X1979418Y1530256*
X1979690Y1530146*
X1980508*
X1979872D02*
X1979236Y1528943D01*
X1978418Y1528506D02*
X1976508D01*
X1975963Y1531240D02*
X1975236Y1528943D01*
X1974508Y1531240D02*
X1975236Y1528943D01*
X1973690Y1531240D02*
Y1528943D01*
Y1531240D02*
X1972872D01*
X1972599Y1531131*
X1972508Y1531021*
X1972418Y1530803*
Y1530474*
X1972508Y1530256*
X1972599Y1530146*
X1972872Y1530037*
X1973690*
X1979054Y1521240D02*
Y1518943D01*
X1977690Y1521240D02*
X1977872Y1521131D01*
X1978054Y1520912*
X1978145Y1520693*
X1978236Y1520365*
Y1519818*
X1978145Y1519490*
X1978054Y1519271*
X1977872Y1519053*
X1977690Y1518943*
X1977327*
X1977145Y1519053*
X1976963Y1519271*
X1976872Y1519490*
X1976781Y1519818*
Y1520365*
X1976872Y1520693*
X1976963Y1520912*
X1977145Y1521131*
X1977327Y1521240*
X1977690*
X1975781D02*
X1974781D01*
X1975327Y1520365*
X1975054*
X1974872Y1520256*
X1974781Y1520146*
X1974690Y1519818*
Y1519599*
X1974781Y1519271*
X1974963Y1519053*
X1975236Y1518943*
X1975508*
X1975781Y1519053*
X1975872Y1519162*
X1975963Y1519381*
X1972963Y1521240D02*
X1973872Y1519709D01*
X1972508*
X1972963Y1521240D02*
Y1518943D01*
X1979054Y1516240D02*
Y1513943D01*
X1977690Y1516240D02*
X1977872Y1516131D01*
X1978054Y1515912*
X1978145Y1515693*
X1978236Y1515365*
Y1514818*
X1978145Y1514490*
X1978054Y1514271*
X1977872Y1514053*
X1977690Y1513943*
X1977327*
X1977145Y1514053*
X1976963Y1514271*
X1976872Y1514490*
X1976781Y1514818*
Y1515365*
X1976872Y1515693*
X1976963Y1515912*
X1977145Y1516131*
X1977327Y1516240*
X1977690*
X1975781D02*
X1974781D01*
X1975327Y1515365*
X1975054*
X1974872Y1515256*
X1974781Y1515146*
X1974690Y1514818*
Y1514599*
X1974781Y1514271*
X1974963Y1514053*
X1975236Y1513943*
X1975508*
X1975781Y1514053*
X1975872Y1514162*
X1975963Y1514381*
X1972690Y1516240D02*
X1973599D01*
X1973690Y1515256*
X1973599Y1515365*
X1973327Y1515474*
X1973054*
X1972781Y1515365*
X1972599Y1515146*
X1972508Y1514818*
X1972599Y1514599*
X1972690Y1514271*
X1972872Y1514053*
X1973145Y1513943*
X1973418*
X1973690Y1514053*
X1973781Y1514162*
X1973872Y1514381*
X1979054Y1511240D02*
Y1508943D01*
X1977690Y1511240D02*
X1977872Y1511131D01*
X1978054Y1510912*
X1978145Y1510693*
X1978236Y1510365*
Y1509818*
X1978145Y1509490*
X1978054Y1509271*
X1977872Y1509053*
X1977690Y1508943*
X1977327*
X1977145Y1509053*
X1976963Y1509271*
X1976872Y1509490*
X1976781Y1509818*
Y1510365*
X1976872Y1510693*
X1976963Y1510912*
X1977145Y1511131*
X1977327Y1511240*
X1977690*
X1975781D02*
X1974781D01*
X1975327Y1510365*
X1975054*
X1974872Y1510256*
X1974781Y1510146*
X1974690Y1509818*
Y1509599*
X1974781Y1509271*
X1974963Y1509053*
X1975236Y1508943*
X1975508*
X1975781Y1509053*
X1975872Y1509162*
X1975963Y1509381*
X1973781Y1510693D02*
Y1510803D01*
X1973690Y1511021*
X1973599Y1511131*
X1973418Y1511240*
X1973054*
X1972872Y1511131*
X1972781Y1511021*
X1972690Y1510803*
Y1510584*
X1972781Y1510365*
X1972963Y1510037*
X1973872Y1508943*
X1972599*
X1979054Y1506240D02*
Y1503943D01*
X1977690Y1506240D02*
X1977872Y1506131D01*
X1978054Y1505912*
X1978145Y1505693*
X1978236Y1505365*
Y1504818*
X1978145Y1504490*
X1978054Y1504271*
X1977872Y1504053*
X1977690Y1503943*
X1977327*
X1977145Y1504053*
X1976963Y1504271*
X1976872Y1504490*
X1976781Y1504818*
Y1505365*
X1976872Y1505693*
X1976963Y1505912*
X1977145Y1506131*
X1977327Y1506240*
X1977690*
X1975781D02*
X1974781D01*
X1975327Y1505365*
X1975054*
X1974872Y1505256*
X1974781Y1505146*
X1974690Y1504818*
Y1504599*
X1974781Y1504271*
X1974963Y1504053*
X1975236Y1503943*
X1975508*
X1975781Y1504053*
X1975872Y1504162*
X1975963Y1504381*
X1973690Y1506240D02*
X1972690D01*
X1973236Y1505365*
X1972963*
X1972781Y1505256*
X1972690Y1505146*
X1972599Y1504818*
Y1504599*
X1972690Y1504271*
X1972872Y1504053*
X1973145Y1503943*
X1973418*
X1973690Y1504053*
X1973781Y1504162*
X1973872Y1504381*
X1979054Y1501240D02*
Y1498943D01*
X1977690Y1501240D02*
X1977872Y1501131D01*
X1978054Y1500912*
X1978145Y1500693*
X1978236Y1500365*
Y1499818*
X1978145Y1499490*
X1978054Y1499271*
X1977872Y1499053*
X1977690Y1498943*
X1977327*
X1977145Y1499053*
X1976963Y1499271*
X1976872Y1499490*
X1976781Y1499818*
Y1500365*
X1976872Y1500693*
X1976963Y1500912*
X1977145Y1501131*
X1977327Y1501240*
X1977690*
X1975872Y1500693D02*
Y1500803D01*
X1975781Y1501021*
X1975690Y1501131*
X1975508Y1501240*
X1975145*
X1974963Y1501131*
X1974872Y1501021*
X1974781Y1500803*
Y1500584*
X1974872Y1500365*
X1975054Y1500037*
X1975963Y1498943*
X1974690*
X1972690Y1501240D02*
X1973599D01*
X1973690Y1500256*
X1973599Y1500365*
X1973327Y1500474*
X1973054*
X1972781Y1500365*
X1972599Y1500146*
X1972508Y1499818*
X1972599Y1499599*
X1972690Y1499271*
X1972872Y1499053*
X1973145Y1498943*
X1973418*
X1973690Y1499053*
X1973781Y1499162*
X1973872Y1499381*
X1979054Y1496240D02*
Y1493943D01*
X1977690Y1496240D02*
X1977872Y1496131D01*
X1978054Y1495912*
X1978145Y1495693*
X1978236Y1495365*
Y1494818*
X1978145Y1494490*
X1978054Y1494271*
X1977872Y1494053*
X1977690Y1493943*
X1977327*
X1977145Y1494053*
X1976963Y1494271*
X1976872Y1494490*
X1976781Y1494818*
Y1495365*
X1976872Y1495693*
X1976963Y1495912*
X1977145Y1496131*
X1977327Y1496240*
X1977690*
X1975872Y1495693D02*
Y1495803D01*
X1975781Y1496021*
X1975690Y1496131*
X1975508Y1496240*
X1975145*
X1974963Y1496131*
X1974872Y1496021*
X1974781Y1495803*
Y1495584*
X1974872Y1495365*
X1975054Y1495037*
X1975963Y1493943*
X1974690*
X1972781Y1495912D02*
X1972872Y1496131D01*
X1973145Y1496240*
X1973327*
X1973599Y1496131*
X1973781Y1495803*
X1973872Y1495256*
Y1494709*
X1973781Y1494271*
X1973599Y1494053*
X1973327Y1493943*
X1973236*
X1972963Y1494053*
X1972781Y1494271*
X1972690Y1494599*
Y1494709*
X1972781Y1495037*
X1972963Y1495256*
X1973236Y1495365*
X1973327*
X1973599Y1495256*
X1973781Y1495037*
X1973872Y1494709*
X1979054Y1491240D02*
Y1488943D01*
X1977690Y1491240D02*
X1977872Y1491131D01*
X1978054Y1490912*
X1978145Y1490693*
X1978236Y1490365*
Y1489818*
X1978145Y1489490*
X1978054Y1489271*
X1977872Y1489053*
X1977690Y1488943*
X1977327*
X1977145Y1489053*
X1976963Y1489271*
X1976872Y1489490*
X1976781Y1489818*
Y1490365*
X1976872Y1490693*
X1976963Y1490912*
X1977145Y1491131*
X1977327Y1491240*
X1977690*
X1975872Y1490693D02*
Y1490803D01*
X1975781Y1491021*
X1975690Y1491131*
X1975508Y1491240*
X1975145*
X1974963Y1491131*
X1974872Y1491021*
X1974781Y1490803*
Y1490584*
X1974872Y1490365*
X1975054Y1490037*
X1975963Y1488943*
X1974690*
X1972599Y1491240D02*
X1973508Y1488943D01*
X1973872Y1491240D02*
X1972599D01*
X1978254Y1486240D02*
Y1483943D01*
X1976890Y1486240D02*
X1977072Y1486131D01*
X1977254Y1485912*
X1977345Y1485693*
X1977436Y1485365*
Y1484818*
X1977345Y1484490*
X1977254Y1484271*
X1977072Y1484053*
X1976890Y1483943*
X1976527*
X1976345Y1484053*
X1976163Y1484271*
X1976072Y1484490*
X1975981Y1484818*
Y1485365*
X1976072Y1485693*
X1976163Y1485912*
X1976345Y1486131*
X1976527Y1486240*
X1976890*
X1975163Y1485803D02*
X1974981Y1485912D01*
X1974708Y1486240*
Y1483943*
X1972981Y1486240D02*
X1973890Y1484709D01*
X1972527*
X1972981Y1486240D02*
Y1483943D01*
X1978254Y1481240D02*
Y1478943D01*
X1976890Y1481240D02*
X1977072Y1481131D01*
X1977254Y1480912*
X1977345Y1480693*
X1977436Y1480365*
Y1479818*
X1977345Y1479490*
X1977254Y1479271*
X1977072Y1479053*
X1976890Y1478943*
X1976527*
X1976345Y1479053*
X1976163Y1479271*
X1976072Y1479490*
X1975981Y1479818*
Y1480365*
X1976072Y1480693*
X1976163Y1480912*
X1976345Y1481131*
X1976527Y1481240*
X1976890*
X1975163Y1480803D02*
X1974981Y1480912D01*
X1974708Y1481240*
Y1478943*
X1973799Y1480693D02*
Y1480803D01*
X1973708Y1481021*
X1973618Y1481131*
X1973436Y1481240*
X1973072*
X1972890Y1481131*
X1972799Y1481021*
X1972708Y1480803*
Y1480584*
X1972799Y1480365*
X1972981Y1480037*
X1973890Y1478943*
X1972618*
X1985457Y1484053D02*
X1987754D01*
X1985457Y1482690D02*
X1985566Y1482871D01*
X1985785Y1483053*
X1986004Y1483144*
X1986332Y1483235*
X1986879*
X1987207Y1483144*
X1987426Y1483053*
X1987645Y1482871*
X1987754Y1482690*
Y1482326*
X1987645Y1482144*
X1987426Y1481962*
X1987207Y1481871*
X1986879Y1481780*
X1986332*
X1986004Y1481871*
X1985785Y1481962*
X1985566Y1482144*
X1985457Y1482326*
Y1482690*
X1985895Y1480962D02*
X1985785Y1480780D01*
X1985457Y1480508*
X1987754*
X1985457Y1479508D02*
Y1478508D01*
X1986332Y1479053*
Y1478780*
X1986441Y1478599*
X1986551Y1478508*
X1986879Y1478417*
X1987098*
X1987426Y1478508*
X1987645Y1478690*
X1987754Y1478962*
Y1479235*
X1987645Y1479508*
X1987535Y1479599*
X1987316Y1479690*
X1990785Y1482780D02*
X1990566Y1482962D01*
X1990457Y1483235*
Y1483599*
X1990566Y1483871*
X1990785Y1484053*
X1991004*
X1991223Y1483962*
X1991332Y1483871*
X1991441Y1483690*
X1991660Y1483144*
X1991770Y1482962*
X1991879Y1482871*
X1992098Y1482780*
X1992426*
X1992645Y1482962*
X1992754Y1483235*
Y1483599*
X1992645Y1483871*
X1992426Y1484053*
X1990457Y1481962D02*
X1992754D01*
X1990457D02*
Y1481326D01*
X1990566Y1481053*
X1990785Y1480871*
X1991004Y1480780*
X1991332Y1480690*
X1991879*
X1992207Y1480780*
X1992426Y1480871*
X1992645Y1481053*
X1992754Y1481326*
Y1481962*
X1991004Y1479780D02*
X1990895D01*
X1990676Y1479690*
X1990566Y1479599*
X1990457Y1479417*
Y1479053*
X1990566Y1478871*
X1990676Y1478780*
X1990895Y1478690*
X1991113*
X1991332Y1478780*
X1991660Y1478962*
X1992754Y1479871*
Y1478599*
X1995785Y1482780D02*
X1995566Y1482962D01*
X1995457Y1483235*
Y1483599*
X1995566Y1483871*
X1995785Y1484053*
X1996004*
X1996223Y1483962*
X1996332Y1483871*
X1996441Y1483690*
X1996660Y1483144*
X1996770Y1482962*
X1996879Y1482871*
X1997098Y1482780*
X1997426*
X1997645Y1482962*
X1997754Y1483235*
Y1483599*
X1997645Y1483871*
X1997426Y1484053*
X1995457Y1481962D02*
X1997754D01*
X1995457D02*
Y1481326D01*
X1995566Y1481053*
X1995785Y1480871*
X1996004Y1480780*
X1996332Y1480690*
X1996879*
X1997207Y1480780*
X1997426Y1480871*
X1997645Y1481053*
X1997754Y1481326*
Y1481962*
X1995457Y1479690D02*
Y1478690D01*
X1996332Y1479235*
Y1478962*
X1996441Y1478780*
X1996551Y1478690*
X1996879Y1478599*
X1997098*
X1997426Y1478690*
X1997645Y1478871*
X1997754Y1479144*
Y1479417*
X1997645Y1479690*
X1997535Y1479780*
X1997316Y1479871*
X2001004Y1482690D02*
X2000785Y1482780D01*
X2000566Y1482962*
X2000457Y1483144*
Y1483508*
X2000566Y1483690*
X2000785Y1483871*
X2001004Y1483962*
X2001332Y1484053*
X2001879*
X2002207Y1483962*
X2002426Y1483871*
X2002645Y1483690*
X2002754Y1483508*
Y1483144*
X2002645Y1482962*
X2002426Y1482780*
X2002207Y1482690*
X2000457Y1481871D02*
X2002754D01*
X2000457D02*
X2002754Y1481144D01*
X2000457Y1480417D02*
X2002754Y1481144D01*
X2000457Y1480417D02*
X2002754D01*
X2000457Y1479599D02*
X2002754D01*
X2000457D02*
Y1478962D01*
X2000566Y1478690*
X2000785Y1478508*
X2001004Y1478417*
X2001332Y1478326*
X2001879*
X2002207Y1478417*
X2002426Y1478508*
X2002645Y1478690*
X2002754Y1478962*
Y1479599*
X2006004Y1482690D02*
X2005785Y1482780D01*
X2005566Y1482962*
X2005457Y1483144*
Y1483508*
X2005566Y1483690*
X2005785Y1483871*
X2006004Y1483962*
X2006332Y1484053*
X2006879*
X2007207Y1483962*
X2007426Y1483871*
X2007645Y1483690*
X2007754Y1483508*
Y1483144*
X2007645Y1482962*
X2007426Y1482780*
X2007207Y1482690*
X2005457Y1481871D02*
X2007754D01*
Y1480780*
X2005457Y1479962D02*
X2007754D01*
X2005457Y1478690D02*
X2006988Y1479962D01*
X2006441Y1479508D02*
X2007754Y1478690D01*
X2010785Y1482780D02*
X2010566Y1482962D01*
X2010457Y1483235*
Y1483599*
X2010566Y1483871*
X2010785Y1484053*
X2011004*
X2011223Y1483962*
X2011332Y1483871*
X2011441Y1483690*
X2011660Y1483144*
X2011770Y1482962*
X2011879Y1482871*
X2012098Y1482780*
X2012426*
X2012645Y1482962*
X2012754Y1483235*
Y1483599*
X2012645Y1483871*
X2012426Y1484053*
X2010457Y1481962D02*
X2012754D01*
X2010457D02*
Y1481326D01*
X2010566Y1481053*
X2010785Y1480871*
X2011004Y1480780*
X2011332Y1480690*
X2011879*
X2012207Y1480780*
X2012426Y1480871*
X2012645Y1481053*
X2012754Y1481326*
Y1481962*
X2010457Y1479326D02*
X2010566Y1479599D01*
X2010895Y1479780*
X2011441Y1479871*
X2011770*
X2012316Y1479780*
X2012645Y1479599*
X2012754Y1479326*
Y1479144*
X2012645Y1478871*
X2012316Y1478690*
X2011770Y1478599*
X2011441*
X2010895Y1478690*
X2010566Y1478871*
X2010457Y1479144*
Y1479326*
X2015785Y1482280D02*
X2015566Y1482462D01*
X2015457Y1482735*
Y1483099*
X2015566Y1483371*
X2015785Y1483553*
X2016004*
X2016223Y1483462*
X2016332Y1483371*
X2016441Y1483190*
X2016660Y1482644*
X2016770Y1482462*
X2016879Y1482371*
X2017098Y1482280*
X2017426*
X2017645Y1482462*
X2017754Y1482735*
Y1483099*
X2017645Y1483371*
X2017426Y1483553*
X2015457Y1481462D02*
X2017754D01*
X2015457D02*
Y1480826D01*
X2015566Y1480553*
X2015785Y1480371*
X2016004Y1480280*
X2016332Y1480190*
X2016879*
X2017207Y1480280*
X2017426Y1480371*
X2017645Y1480553*
X2017754Y1480826*
Y1481462*
X2015895Y1479371D02*
X2015785Y1479190D01*
X2015457Y1478917*
X2017754*
X2020457Y1484053D02*
X2022754D01*
X2020457Y1482690D02*
X2020566Y1482871D01*
X2020785Y1483053*
X2021004Y1483144*
X2021332Y1483235*
X2021879*
X2022207Y1483144*
X2022426Y1483053*
X2022645Y1482871*
X2022754Y1482690*
Y1482326*
X2022645Y1482144*
X2022426Y1481962*
X2022207Y1481871*
X2021879Y1481780*
X2021332*
X2021004Y1481871*
X2020785Y1481962*
X2020566Y1482144*
X2020457Y1482326*
Y1482690*
X2020895Y1480962D02*
X2020785Y1480780D01*
X2020457Y1480508*
X2022754*
X2020457Y1478508D02*
Y1479417D01*
X2021441Y1479508*
X2021332Y1479417*
X2021223Y1479144*
Y1478871*
X2021332Y1478599*
X2021551Y1478417*
X2021879Y1478326*
X2022098Y1478417*
X2022426Y1478508*
X2022645Y1478690*
X2022754Y1478962*
Y1479235*
X2022645Y1479508*
X2022535Y1479599*
X2022316Y1479690*
X2025457Y1483053D02*
X2027754D01*
X2025457Y1481690D02*
X2025566Y1481871D01*
X2025785Y1482053*
X2026004Y1482144*
X2026332Y1482235*
X2026879*
X2027207Y1482144*
X2027426Y1482053*
X2027645Y1481871*
X2027754Y1481690*
Y1481326*
X2027645Y1481144*
X2027426Y1480962*
X2027207Y1480871*
X2026879Y1480780*
X2026332*
X2026004Y1480871*
X2025785Y1480962*
X2025566Y1481144*
X2025457Y1481326*
Y1481690*
X2026004Y1479871D02*
X2025895D01*
X2025676Y1479780*
X2025566Y1479690*
X2025457Y1479508*
Y1479144*
X2025566Y1478962*
X2025676Y1478871*
X2025895Y1478780*
X2026113*
X2026332Y1478871*
X2026660Y1479053*
X2027754Y1479962*
Y1478690*
X2035254Y1481240D02*
Y1478943D01*
X2033890Y1481240D02*
X2034072Y1481131D01*
X2034254Y1480912*
X2034345Y1480693*
X2034436Y1480365*
Y1479818*
X2034345Y1479490*
X2034254Y1479271*
X2034072Y1479053*
X2033890Y1478943*
X2033527*
X2033345Y1479053*
X2033163Y1479271*
X2033072Y1479490*
X2032981Y1479818*
Y1480365*
X2033072Y1480693*
X2033163Y1480912*
X2033345Y1481131*
X2033527Y1481240*
X2033890*
X2031618D02*
X2031890Y1481131D01*
X2032072Y1480803*
X2032163Y1480256*
Y1479928*
X2032072Y1479381*
X2031890Y1479053*
X2031618Y1478943*
X2031436*
X2031163Y1479053*
X2030981Y1479381*
X2030890Y1479928*
Y1480256*
X2030981Y1480803*
X2031163Y1481131*
X2031436Y1481240*
X2031618*
X2035254Y1486240D02*
Y1483943D01*
X2033890Y1486240D02*
X2034072Y1486131D01*
X2034254Y1485912*
X2034345Y1485693*
X2034436Y1485365*
Y1484818*
X2034345Y1484490*
X2034254Y1484271*
X2034072Y1484053*
X2033890Y1483943*
X2033527*
X2033345Y1484053*
X2033163Y1484271*
X2033072Y1484490*
X2032981Y1484818*
Y1485365*
X2033072Y1485693*
X2033163Y1485912*
X2033345Y1486131*
X2033527Y1486240*
X2033890*
X2031254D02*
X2032163Y1484709D01*
X2030799*
X2031254Y1486240D02*
Y1483943D01*
X2034413Y1501123D02*
Y1498826D01*
X2033049Y1501123D02*
X2033231Y1501013D01*
X2033413Y1500795*
X2033504Y1500576*
X2033595Y1500248*
Y1499701*
X2033504Y1499373*
X2033413Y1499154*
X2033231Y1498935*
X2033049Y1498826*
X2032686*
X2032504Y1498935*
X2032322Y1499154*
X2032231Y1499373*
X2032140Y1499701*
Y1500248*
X2032231Y1500576*
X2032322Y1500795*
X2032504Y1501013*
X2032686Y1501123*
X2033049*
X2030140D02*
X2031049D01*
X2031140Y1500138*
X2031049Y1500248*
X2030777Y1500357*
X2030504*
X2030231Y1500248*
X2030049Y1500029*
X2029958Y1499701*
X2030049Y1499482*
X2030140Y1499154*
X2030322Y1498935*
X2030595Y1498826*
X2030868*
X2031140Y1498935*
X2031231Y1499045*
X2031322Y1499263*
X2035254Y1491240D02*
Y1488943D01*
X2033890Y1491240D02*
X2034072Y1491131D01*
X2034254Y1490912*
X2034345Y1490693*
X2034436Y1490365*
Y1489818*
X2034345Y1489490*
X2034254Y1489271*
X2034072Y1489053*
X2033890Y1488943*
X2033527*
X2033345Y1489053*
X2033163Y1489271*
X2033072Y1489490*
X2032981Y1489818*
Y1490365*
X2033072Y1490693*
X2033163Y1490912*
X2033345Y1491131*
X2033527Y1491240*
X2033890*
X2032163Y1490803D02*
X2031981Y1490912D01*
X2031708Y1491240*
Y1488943*
X2029799Y1490912D02*
X2029890Y1491131D01*
X2030163Y1491240*
X2030345*
X2030618Y1491131*
X2030799Y1490803*
X2030890Y1490256*
Y1489709*
X2030799Y1489271*
X2030618Y1489053*
X2030345Y1488943*
X2030254*
X2029981Y1489053*
X2029799Y1489271*
X2029708Y1489599*
Y1489709*
X2029799Y1490037*
X2029981Y1490256*
X2030254Y1490365*
X2030345*
X2030618Y1490256*
X2030799Y1490037*
X2030890Y1489709*
X2035504Y1496123D02*
Y1493826D01*
X2034140Y1496123D02*
X2034322Y1496013D01*
X2034504Y1495795*
X2034595Y1495576*
X2034686Y1495248*
Y1494701*
X2034595Y1494373*
X2034504Y1494154*
X2034322Y1493935*
X2034140Y1493826*
X2033777*
X2033595Y1493935*
X2033413Y1494154*
X2033322Y1494373*
X2033231Y1494701*
Y1495248*
X2033322Y1495576*
X2033413Y1495795*
X2033595Y1496013*
X2033777Y1496123*
X2034140*
X2032413Y1495685D02*
X2032231Y1495795D01*
X2031958Y1496123*
Y1493826*
X2029868Y1496123D02*
X2030777Y1493826D01*
X2031140Y1496123D02*
X2029868D01*
X2035004Y1506123D02*
Y1503826D01*
X2033640Y1506123D02*
X2033822Y1506013D01*
X2034004Y1505795*
X2034095Y1505576*
X2034186Y1505248*
Y1504701*
X2034095Y1504373*
X2034004Y1504154*
X2033822Y1503935*
X2033640Y1503826*
X2033277*
X2033095Y1503935*
X2032913Y1504154*
X2032822Y1504373*
X2032731Y1504701*
Y1505248*
X2032822Y1505576*
X2032913Y1505795*
X2033095Y1506013*
X2033277Y1506123*
X2033640*
X2031913Y1505685D02*
X2031731Y1505795D01*
X2031458Y1506123*
Y1503826*
X2030186Y1506123D02*
X2030458Y1506013D01*
X2030549Y1505795*
Y1505576*
X2030458Y1505357*
X2030277Y1505248*
X2029913Y1505138*
X2029640Y1505029*
X2029458Y1504810*
X2029368Y1504592*
Y1504263*
X2029458Y1504045*
X2029549Y1503935*
X2029822Y1503826*
X2030186*
X2030458Y1503935*
X2030549Y1504045*
X2030640Y1504263*
Y1504592*
X2030549Y1504810*
X2030368Y1505029*
X2030095Y1505138*
X2029731Y1505248*
X2029549Y1505357*
X2029458Y1505576*
Y1505795*
X2029549Y1506013*
X2029822Y1506123*
X2030186*
X2034822Y1531123D02*
Y1528826D01*
X2035458Y1531123D02*
X2034186D01*
X2033368D02*
X2032095Y1528826D01*
Y1531123D02*
X2033368Y1528826D01*
X2031277Y1531123D02*
Y1528826D01*
Y1531123D02*
X2030640D01*
X2030368Y1531013*
X2030186Y1530795*
X2030095Y1530576*
X2030004Y1530248*
Y1529701*
X2030095Y1529373*
X2030186Y1529154*
X2030368Y1528935*
X2030640Y1528826*
X2031277*
X2028640Y1531123D02*
X2028913Y1531013D01*
X2029095Y1530685*
X2029186Y1530138*
Y1529810*
X2029095Y1529263*
X2028913Y1528935*
X2028640Y1528826*
X2028458*
X2028186Y1528935*
X2028004Y1529263*
X2027913Y1529810*
Y1530138*
X2028004Y1530685*
X2028186Y1531013*
X2028458Y1531123*
X2028640*
X2035258Y1526123D02*
Y1523826D01*
Y1526123D02*
X2034440D01*
X2034168Y1526013*
X2034077Y1525904*
X2033986Y1525685*
Y1525467*
X2034077Y1525248*
X2034168Y1525138*
X2034440Y1525029*
X2035258*
X2034622D02*
X2033986Y1523826D01*
X2033168Y1526123D02*
X2031895Y1523826D01*
Y1526123D02*
X2033168Y1523826D01*
X2031077Y1526123D02*
Y1523826D01*
Y1526123D02*
X2030440D01*
X2030168Y1526013*
X2029986Y1525795*
X2029895Y1525576*
X2029804Y1525248*
Y1524701*
X2029895Y1524373*
X2029986Y1524154*
X2030168Y1523935*
X2030440Y1523826*
X2031077*
X2028440Y1526123D02*
X2028713Y1526013D01*
X2028895Y1525685*
X2028986Y1525138*
Y1524810*
X2028895Y1524263*
X2028713Y1523935*
X2028440Y1523826*
X2028258*
X2027986Y1523935*
X2027804Y1524263*
X2027713Y1524810*
Y1525138*
X2027804Y1525685*
X2027986Y1526013*
X2028258Y1526123*
X2028440*
X2034913Y1536123D02*
Y1533826D01*
X2033549Y1536123D02*
X2033731Y1536013D01*
X2033913Y1535795*
X2034004Y1535576*
X2034095Y1535248*
Y1534701*
X2034004Y1534373*
X2033913Y1534154*
X2033731Y1533935*
X2033549Y1533826*
X2033186*
X2033004Y1533935*
X2032822Y1534154*
X2032731Y1534373*
X2032640Y1534701*
Y1535248*
X2032731Y1535576*
X2032822Y1535795*
X2033004Y1536013*
X2033186Y1536123*
X2033549*
X2031731Y1535576D02*
Y1535685D01*
X2031640Y1535904*
X2031549Y1536013*
X2031368Y1536123*
X2031004*
X2030822Y1536013*
X2030731Y1535904*
X2030640Y1535685*
Y1535467*
X2030731Y1535248*
X2030913Y1534920*
X2031822Y1533826*
X2030549*
X2029640Y1535576D02*
Y1535685D01*
X2029549Y1535904*
X2029458Y1536013*
X2029277Y1536123*
X2028913*
X2028731Y1536013*
X2028640Y1535904*
X2028549Y1535685*
Y1535467*
X2028640Y1535248*
X2028822Y1534920*
X2029731Y1533826*
X2028458*
X2035304Y1521123D02*
Y1518826D01*
X2033940Y1521123D02*
X2034122Y1521013D01*
X2034304Y1520795*
X2034395Y1520576*
X2034486Y1520248*
Y1519701*
X2034395Y1519373*
X2034304Y1519154*
X2034122Y1518935*
X2033940Y1518826*
X2033577*
X2033395Y1518935*
X2033213Y1519154*
X2033122Y1519373*
X2033031Y1519701*
Y1520248*
X2033122Y1520576*
X2033213Y1520795*
X2033395Y1521013*
X2033577Y1521123*
X2033940*
X2032122Y1520576D02*
Y1520685D01*
X2032031Y1520904*
X2031940Y1521013*
X2031758Y1521123*
X2031395*
X2031213Y1521013*
X2031122Y1520904*
X2031031Y1520685*
Y1520467*
X2031122Y1520248*
X2031304Y1519920*
X2032213Y1518826*
X2030940*
X2030122Y1520685D02*
X2029940Y1520795D01*
X2029668Y1521123*
Y1518826*
X2035375Y1516314D02*
Y1514017D01*
Y1516314D02*
X2034102Y1514017D01*
Y1516314D02*
Y1514017D01*
X2031920Y1515767D02*
X2032011Y1515986D01*
X2032193Y1516204*
X2032375Y1516314*
X2032739*
X2032920Y1516204*
X2033102Y1515986*
X2033193Y1515767*
X2033284Y1515439*
Y1514892*
X2033193Y1514564*
X2033102Y1514345*
X2032920Y1514126*
X2032739Y1514017*
X2032375*
X2032193Y1514126*
X2032011Y1514345*
X2031920Y1514564*
X2034958Y1511123D02*
Y1508826D01*
X2033595Y1511123D02*
X2033777Y1511013D01*
X2033958Y1510795*
X2034049Y1510576*
X2034140Y1510248*
Y1509701*
X2034049Y1509373*
X2033958Y1509154*
X2033777Y1508935*
X2033595Y1508826*
X2033231*
X2033049Y1508935*
X2032868Y1509154*
X2032777Y1509373*
X2032686Y1509701*
Y1510248*
X2032777Y1510576*
X2032868Y1510795*
X2033049Y1511013*
X2033231Y1511123*
X2033595*
X2031868Y1510685D02*
X2031686Y1510795D01*
X2031413Y1511123*
Y1508826*
X2029413Y1510357D02*
X2029504Y1510029D01*
X2029686Y1509810*
X2029958Y1509701*
X2030049*
X2030322Y1509810*
X2030504Y1510029*
X2030595Y1510357*
Y1510467*
X2030504Y1510795*
X2030322Y1511013*
X2030049Y1511123*
X2029958*
X2029686Y1511013*
X2029504Y1510795*
X2029413Y1510357*
Y1509810*
X2029504Y1509263*
X2029686Y1508935*
X2029958Y1508826*
X2030140*
X2030413Y1508935*
X2030504Y1509154*
X2033992Y1545860D02*
X2034083Y1546079D01*
X2034265Y1546297*
X2034446Y1546407*
X2034810*
X2034992Y1546297*
X2035174Y1546079*
X2035265Y1545860*
X2035355Y1545532*
Y1544985*
X2035265Y1544657*
X2035174Y1544438*
X2034992Y1544219*
X2034810Y1544110*
X2034446*
X2034265Y1544219*
X2034083Y1544438*
X2033992Y1544657*
Y1544985*
X2034446D02*
X2033992D01*
X2033174Y1546407D02*
Y1544110D01*
Y1546407D02*
X2031901Y1544110D01*
Y1546407D02*
Y1544110D01*
X2031083Y1546407D02*
Y1544110D01*
Y1546407D02*
X2030446D01*
X2030174Y1546297*
X2029992Y1546079*
X2029901Y1545860*
X2029810Y1545532*
Y1544985*
X2029901Y1544657*
X2029992Y1544438*
X2030174Y1544219*
X2030446Y1544110*
X2031083*
X1989781Y1525912D02*
X1989963Y1526131D01*
X1990236Y1526240*
X1990599*
X1990872Y1526131*
X1991054Y1525912*
Y1525693*
X1990963Y1525474*
X1990872Y1525365*
X1990690Y1525256*
X1990145Y1525037*
X1989963Y1524928*
X1989872Y1524818*
X1989781Y1524599*
Y1524271*
X1989963Y1524053*
X1990236Y1523943*
X1990599*
X1990872Y1524053*
X1991054Y1524271*
X1988963Y1526240D02*
Y1523943D01*
Y1526240D02*
X1987781D01*
X1988963Y1525146D02*
X1988236D01*
X1988963Y1523943D02*
X1987781D01*
X1986963Y1526240D02*
Y1523943D01*
Y1526240D02*
X1985690Y1523943D01*
Y1526240D02*
Y1523943D01*
X1983599Y1525912D02*
X1983781Y1526131D01*
X1984054Y1526240*
X1984418*
X1984690Y1526131*
X1984872Y1525912*
Y1525693*
X1984781Y1525474*
X1984690Y1525365*
X1984508Y1525256*
X1983963Y1525037*
X1983781Y1524928*
X1983690Y1524818*
X1983599Y1524599*
Y1524271*
X1983781Y1524053*
X1984054Y1523943*
X1984418*
X1984690Y1524053*
X1984872Y1524271*
X1982236Y1526240D02*
X1982418Y1526131D01*
X1982599Y1525912*
X1982690Y1525693*
X1982781Y1525365*
Y1524818*
X1982690Y1524490*
X1982599Y1524271*
X1982418Y1524053*
X1982236Y1523943*
X1981872*
X1981690Y1524053*
X1981508Y1524271*
X1981418Y1524490*
X1981327Y1524818*
Y1525365*
X1981418Y1525693*
X1981508Y1525912*
X1981690Y1526131*
X1981872Y1526240*
X1982236*
X1980508D02*
Y1523943D01*
Y1526240D02*
X1979690D01*
X1979418Y1526131*
X1979327Y1526021*
X1979236Y1525803*
Y1525584*
X1979327Y1525365*
X1979418Y1525256*
X1979690Y1525146*
X1980508*
X1979872D02*
X1979236Y1523943D01*
X1978418Y1523506D02*
X1976508D01*
X1975963Y1526240D02*
X1975236Y1523943D01*
X1974508Y1526240D02*
X1975236Y1523943D01*
X1973690Y1526240D02*
Y1523943D01*
Y1526240D02*
X1972418Y1523943D01*
Y1526240D02*
Y1523943D01*
X2034913Y1541123D02*
Y1538826D01*
X2033549Y1541123D02*
X2033731Y1541013D01*
X2033913Y1540795*
X2034004Y1540576*
X2034095Y1540248*
Y1539701*
X2034004Y1539373*
X2033913Y1539154*
X2033731Y1538935*
X2033549Y1538826*
X2033186*
X2033004Y1538935*
X2032822Y1539154*
X2032731Y1539373*
X2032640Y1539701*
Y1540248*
X2032731Y1540576*
X2032822Y1540795*
X2033004Y1541013*
X2033186Y1541123*
X2033549*
X2031731Y1540576D02*
Y1540685D01*
X2031640Y1540904*
X2031549Y1541013*
X2031368Y1541123*
X2031004*
X2030822Y1541013*
X2030731Y1540904*
X2030640Y1540685*
Y1540467*
X2030731Y1540248*
X2030913Y1539920*
X2031822Y1538826*
X2030549*
X2029549Y1541123D02*
X2028549D01*
X2029095Y1540248*
X2028822*
X2028640Y1540138*
X2028549Y1540029*
X2028458Y1539701*
Y1539482*
X2028549Y1539154*
X2028731Y1538935*
X2029004Y1538826*
X2029277*
X2029549Y1538935*
X2029640Y1539045*
X2029731Y1539263*
X1980656Y1482686D02*
X1980437Y1482776D01*
X1980218Y1482958*
X1980109Y1483140*
Y1483504*
X1980218Y1483686*
X1980437Y1483867*
X1980656Y1483958*
X1980984Y1484049*
X1981531*
X1981859Y1483958*
X1982078Y1483867*
X1982297Y1483686*
X1982406Y1483504*
Y1483140*
X1982297Y1482958*
X1982078Y1482776*
X1981859Y1482686*
X1981531*
Y1483140D02*
Y1482686D01*
X1980109Y1481867D02*
X1982406D01*
X1980109D02*
X1982406Y1480595D01*
X1980109D02*
X1982406D01*
X1980109Y1479776D02*
X1982406D01*
X1980109D02*
Y1479140D01*
X1980218Y1478867*
X1980437Y1478686*
X1980656Y1478595*
X1980984Y1478504*
X1981531*
X1981859Y1478595*
X1982078Y1478686*
X1982297Y1478867*
X1982406Y1479140*
Y1479776*
X2025777Y1546407D02*
Y1544110D01*
Y1546407D02*
X2024595D01*
X2025777Y1545313D02*
X2025049D01*
X2025777Y1544110D02*
X2024595D01*
X2022504Y1546079D02*
X2022686Y1546297D01*
X2022958Y1546407*
X2023322*
X2023595Y1546297*
X2023777Y1546079*
Y1545860*
X2023686Y1545641*
X2023595Y1545532*
X2023413Y1545422*
X2022868Y1545204*
X2022686Y1545094*
X2022595Y1544985*
X2022504Y1544766*
Y1544438*
X2022686Y1544219*
X2022958Y1544110*
X2023322*
X2023595Y1544219*
X2023777Y1544438*
X2021686Y1546407D02*
Y1544110D01*
Y1546407D02*
X2020868D01*
X2020595Y1546297*
X2020504Y1546188*
X2020413Y1545969*
Y1545641*
X2020504Y1545422*
X2020595Y1545313*
X2020868Y1545204*
X2021686*
X2019413Y1546407D02*
X2018413D01*
X2018958Y1545532*
X2018686*
X2018504Y1545422*
X2018413Y1545313*
X2018322Y1544985*
Y1544766*
X2018413Y1544438*
X2018595Y1544219*
X2018868Y1544110*
X2019140*
X2019413Y1544219*
X2019504Y1544329*
X2019595Y1544547*
X2017413Y1545860D02*
Y1545969D01*
X2017322Y1546188*
X2017231Y1546297*
X2017049Y1546407*
X2016686*
X2016504Y1546297*
X2016413Y1546188*
X2016322Y1545969*
Y1545751*
X2016413Y1545532*
X2016595Y1545204*
X2017504Y1544110*
X2016231*
X2015413Y1545094D02*
X2013777D01*
X2012958Y1546407D02*
X2012504Y1544110D01*
X2012049Y1546407D02*
X2012504Y1544110D01*
X2012049Y1546407D02*
X2011595Y1544110D01*
X2011140Y1546407D02*
X2011595Y1544110D01*
X2010322Y1546407D02*
Y1544110D01*
Y1546407D02*
X2009504D01*
X2009231Y1546297*
X2009140Y1546188*
X2009049Y1545969*
Y1545751*
X2009140Y1545532*
X2009231Y1545422*
X2009504Y1545313*
X2010322*
X2009686D02*
X2009049Y1544110D01*
X2007686Y1546407D02*
X2007868Y1546297D01*
X2008049Y1546079*
X2008140Y1545860*
X2008231Y1545532*
Y1544985*
X2008140Y1544657*
X2008049Y1544438*
X2007868Y1544219*
X2007686Y1544110*
X2007322*
X2007140Y1544219*
X2006958Y1544438*
X2006868Y1544657*
X2006777Y1544985*
Y1545532*
X2006868Y1545860*
X2006958Y1546079*
X2007140Y1546297*
X2007322Y1546407*
X2007686*
X2005413D02*
X2005595Y1546297D01*
X2005777Y1546079*
X2005868Y1545860*
X2005958Y1545532*
Y1544985*
X2005868Y1544657*
X2005777Y1544438*
X2005595Y1544219*
X2005413Y1544110*
X2005049*
X2004868Y1544219*
X2004686Y1544438*
X2004595Y1544657*
X2004504Y1544985*
Y1545532*
X2004595Y1545860*
X2004686Y1546079*
X2004868Y1546297*
X2005049Y1546407*
X2005413*
X2003686D02*
Y1544110D01*
Y1546407D02*
X2002958Y1544110D01*
X2002231Y1546407D02*
X2002958Y1544110D01*
X2002231Y1546407D02*
Y1544110D01*
X2001413Y1545094D02*
X1999777D01*
X1998777Y1546407D02*
X1997777D01*
X1998322Y1545532*
X1998049*
X1997868Y1545422*
X1997777Y1545313*
X1997686Y1544985*
Y1544766*
X1997777Y1544438*
X1997958Y1544219*
X1998231Y1544110*
X1998504*
X1998777Y1544219*
X1998868Y1544329*
X1998958Y1544547*
X1996777Y1545860D02*
Y1545969D01*
X1996686Y1546188*
X1996595Y1546297*
X1996413Y1546407*
X1996049*
X1995868Y1546297*
X1995777Y1546188*
X1995686Y1545969*
Y1545751*
X1995777Y1545532*
X1995958Y1545204*
X1996868Y1544110*
X1995595*
X1994777Y1546407D02*
Y1544110D01*
Y1546407D02*
X1994140D01*
X1993868Y1546297*
X1993686Y1546079*
X1993595Y1545860*
X1993504Y1545532*
Y1544985*
X1993595Y1544657*
X1993686Y1544438*
X1993868Y1544219*
X1994140Y1544110*
X1994777*
X1992686Y1543672D02*
X1990777D01*
X1990231Y1546407D02*
X1989504Y1544110D01*
X1988777Y1546407D02*
X1989504Y1544110D01*
X1987868Y1545860D02*
Y1545969D01*
X1987777Y1546188*
X1987686Y1546297*
X1987504Y1546407*
X1987140*
X1986958Y1546297*
X1986868Y1546188*
X1986777Y1545969*
Y1545751*
X1986868Y1545532*
X1987049Y1545204*
X1987958Y1544110*
X1986686*
X1985777Y1544329D02*
X1985868Y1544219D01*
X1985777Y1544110*
X1985686Y1544219*
X1985777Y1544329*
X1984777Y1545860D02*
Y1545969D01*
X1984686Y1546188*
X1984595Y1546297*
X1984413Y1546407*
X1984049*
X1983868Y1546297*
X1983777Y1546188*
X1983686Y1545969*
Y1545751*
X1983777Y1545532*
X1983958Y1545204*
X1984868Y1544110*
X1983595*
X1968504Y1585373D02*
X1993664D01*
X1968504D02*
X1973504Y1586373D01*
Y1584373*
X1968504Y1585373*
X2039370D02*
X2014210D01*
X2039370D02*
X2034370Y1584373D01*
Y1586373*
X2039370Y1585373*
X1968504Y1576503D02*
Y1587373D01*
X2039370Y1576503D02*
Y1587373D01*
X2054344Y1474288D02*
Y1519520D01*
Y1474288D02*
X2053344Y1479288D01*
X2055344*
X2054344Y1474288*
Y1574503D02*
Y1529270D01*
Y1574503D02*
X2055344Y1569503D01*
X2053344*
X2054344Y1574503*
X2041370Y1474288D02*
X2056344D01*
X2041370Y1574503D02*
X2056344D01*
X0Y0D02*
M02*
