*
*
G04 PADS 9.5 Build Number: 522968 generated Gerber (RS-274-X) file*
G04 PC Version=2.1*
*
%IN "ESP32_WROOM_32D_5X5_V2-"*%
*
%MOIN*%
*
%FSLAX35Y35*%
*
*
*
*
G04 PC Standard Apertures*
*
*
G04 Thermal Relief Aperture macro.*
%AMTER*
1,1,$1,0,0*
1,0,$1-$2,0,0*
21,0,$3,$4,0,0,45*
21,0,$3,$4,0,0,135*
%
*
*
G04 Annular Aperture macro.*
%AMANN*
1,1,$1,0,0*
1,0,$2,0,0*
%
*
*
G04 Odd Aperture macro.*
%AMODD*
1,1,$1,0,0*
1,0,$1-0.005,0,0*
%
*
*
G04 PC Custom Aperture Macros*
*
*
*
*
*
*
G04 PC Aperture Table*
*
%ADD010C,0.001*%
%ADD014R,0.02X0.02*%
%ADD016C,0.02362*%
%ADD036R,0.03937X0.04331*%
%ADD044C,0.01*%
%ADD109C,0.005*%
%ADD115R,0.03543X0.03543*%
%ADD120C,0.01575*%
%ADD169R,0.14764X0.14764*%
%ADD174R,0.00787X0.0315*%
%ADD175R,0.0315X0.00787*%
%ADD186R,0.118X0.024*%
%ADD187O,0.118X0.024*%
%ADD188R,0.01181X0.01575*%
%ADD189R,0.01575X0.01181*%
%ADD190R,0.02756X0.01575*%
*
*
*
*
G04 PC Circuitry*
G04 Layer Name ESP32_WROOM_32D_5X5_V2- - circuitry*
%LPD*%
*
G54D10*
G01X2062334Y1524124D02*
X2062291Y1524425D01*
X2062167Y1524673*
X2061965Y1524794*
X2061671Y1524836*
X2061457Y1524793*
X2061290Y1524751*
X2061127Y1524629*
X2060998Y1524414*
X2060910Y1524418*
X2060825Y1524589*
X2060704Y1524710*
X2060494Y1524794*
X2060287Y1524835*
X2060122Y1524794*
X2059912Y1524710*
X2059651Y1524449*
X2059566Y1524485*
Y1524792*
X2059264*
Y1522570*
X2059566*
Y1523994*
X2059567Y1524006*
X2059612Y1524184*
X2059622Y1524204*
X2059845Y1524472*
X2059870Y1524488*
X2060182Y1524577*
X2060208Y1524578*
X2060387Y1524533*
X2060403Y1524526*
X2060536Y1524437*
X2060553Y1524418*
X2060643Y1524239*
X2060648Y1524217*
Y1522570*
X2060950*
Y1523860*
Y1523867*
X2060995Y1524179*
X2061004Y1524202*
X2061138Y1524381*
X2061148Y1524391*
X2061327Y1524525*
X2061347Y1524534*
X2061570Y1524578*
X2061590*
X2061813Y1524534*
X2061843Y1524515*
X2061977Y1524336*
X2061985Y1524322*
X2062029Y1524188*
X2062032Y1524172*
Y1522570*
X2062334*
Y1524124*
X2058584D02*
X2058541Y1524425D01*
X2058417Y1524673*
X2058215Y1524794*
X2057921Y1524836*
X2057707Y1524793*
X2057540Y1524751*
X2057377Y1524629*
X2057248Y1524414*
X2057160Y1524418*
X2057075Y1524589*
X2056954Y1524710*
X2056744Y1524794*
X2056537Y1524835*
X2056372Y1524794*
X2056162Y1524710*
X2055901Y1524449*
X2055816Y1524485*
Y1524792*
X2055514*
Y1522570*
X2055816*
Y1523994*
X2055817Y1524006*
X2055862Y1524184*
X2055872Y1524204*
X2056095Y1524472*
X2056120Y1524488*
X2056432Y1524577*
X2056458Y1524578*
X2056637Y1524533*
X2056653Y1524526*
X2056786Y1524437*
X2056803Y1524418*
X2056893Y1524239*
X2056898Y1524217*
Y1522570*
X2057200*
Y1523860*
Y1523867*
X2057245Y1524179*
X2057254Y1524202*
X2057388Y1524381*
X2057398Y1524391*
X2057577Y1524525*
X2057597Y1524534*
X2057820Y1524578*
X2057840*
X2058063Y1524534*
X2058093Y1524515*
X2058227Y1524336*
X2058235Y1524322*
X2058279Y1524188*
X2058282Y1524172*
Y1522570*
X2058584*
Y1524124*
X2054923Y1523636D02*
X2054880Y1524020D01*
X2054669Y1524315*
X2054371Y1524528*
X2054033Y1524612*
X2053741Y1524571*
X2053483Y1524398*
X2053405Y1524440*
X2053406Y1524448*
X2053540Y1525296*
X2053589Y1525338*
X2054744*
Y1525640*
X2053318*
X2053023Y1524082*
X2053347Y1524046*
X2053554Y1524252*
X2053575Y1524265*
X2053888Y1524354*
X2053909Y1524356*
X2054221Y1524311*
X2054244Y1524301*
X2054423Y1524168*
X2054436Y1524153*
X2054569Y1523930*
X2054576Y1523911*
X2054621Y1523599*
Y1523585*
X2054576Y1523272*
X2054569Y1523254*
X2054436Y1523030*
X2054428Y1523021*
X2054249Y1522842*
X2054221Y1522828*
X2053909Y1522783*
X2053892Y1522784*
X2053669Y1522829*
X2053656Y1522833*
X2053477Y1522922*
X2053455Y1522944*
X2053366Y1523123*
X2053363Y1523130*
X2053287Y1523359*
X2052982Y1523325*
X2053055Y1523033*
X2053266Y1522737*
X2053561Y1522569*
X2053901Y1522526*
X2054160Y1522570*
X2054372Y1522612*
X2054538Y1522737*
X2054710Y1522908*
X2054880Y1523206*
X2054923Y1523636*
X2052200Y1522872D02*
X2051898D01*
Y1522570*
X2052200*
Y1522872*
X2051173Y1523636D02*
X2051130Y1524020D01*
X2050919Y1524315*
X2050621Y1524528*
X2050283Y1524612*
X2049991Y1524571*
X2049733Y1524398*
X2049655Y1524440*
X2049656Y1524448*
X2049790Y1525296*
X2049839Y1525338*
X2050994*
Y1525640*
X2049568*
X2049273Y1524082*
X2049597Y1524046*
X2049804Y1524252*
X2049825Y1524265*
X2050138Y1524354*
X2050159Y1524356*
X2050471Y1524311*
X2050494Y1524301*
X2050673Y1524168*
X2050686Y1524153*
X2050819Y1523930*
X2050826Y1523911*
X2050871Y1523599*
Y1523585*
X2050826Y1523272*
X2050819Y1523254*
X2050686Y1523030*
X2050678Y1523021*
X2050499Y1522842*
X2050471Y1522828*
X2050159Y1522783*
X2050142Y1522784*
X2049919Y1522829*
X2049906Y1522833*
X2049727Y1522922*
X2049705Y1522944*
X2049616Y1523123*
X2049613Y1523130*
X2049537Y1523359*
X2049232Y1523325*
X2049305Y1523033*
X2049516Y1522737*
X2049811Y1522569*
X2050151Y1522526*
X2050410Y1522570*
X2050622Y1522612*
X2050788Y1522737*
X2050960Y1522908*
X2051130Y1523206*
X2051173Y1523636*
X2048628Y1522872D02*
X2047116D01*
X2047077Y1522953*
X2047255Y1523177*
X2047264Y1523185*
X2047442Y1523319*
X2047708Y1523541*
X2048062Y1523850*
X2048282Y1524114*
X2048411Y1524286*
X2048497Y1524500*
X2048583Y1524845*
X2048541Y1525178*
X2048333Y1525428*
X2048035Y1525598*
X2047649Y1525684*
X2047266Y1525641*
X2046972Y1525473*
X2046760Y1525178*
X2046687Y1524885*
X2046987Y1524852*
X2047022Y1525030*
X2047031Y1525050*
X2047165Y1525229*
X2047175Y1525239*
X2047354Y1525373*
X2047375Y1525382*
X2047643Y1525427*
X2047661*
X2047885Y1525382*
X2047905Y1525373*
X2048083Y1525239*
X2048089Y1525234*
X2048223Y1525100*
X2048236Y1525075*
X2048281Y1524852*
Y1524832*
X2048236Y1524609*
X2048230Y1524593*
X2048096Y1524370*
X2048091Y1524363*
X2047823Y1524050*
X2047819Y1524046*
X2047416Y1523688*
X2047107Y1523423*
X2046758Y1522986*
X2046673Y1522775*
X2046639Y1522570*
X2048628*
Y1522872*
X2012552Y1585102D02*
X2012509Y1585403D01*
X2012385Y1585650*
X2012183Y1585772*
X2011889Y1585814*
X2011675Y1585771*
X2011508Y1585729*
X2011345Y1585607*
X2011216Y1585392*
X2011128Y1585395*
X2011043Y1585567*
X2010922Y1585688*
X2010712Y1585771*
X2010505Y1585813*
X2010340Y1585772*
X2010130Y1585688*
X2009869Y1585427*
X2009784Y1585462*
Y1585770*
X2009482*
Y1583548*
X2009784*
Y1584971*
X2009785Y1584983*
X2009830Y1585162*
X2009840Y1585182*
X2010063Y1585450*
X2010088Y1585466*
X2010400Y1585555*
X2010426Y1585556*
X2010605Y1585511*
X2010621Y1585504*
X2010754Y1585415*
X2010771Y1585396*
X2010861Y1585217*
X2010866Y1585195*
Y1583548*
X2011168*
Y1584837*
Y1584845*
X2011213Y1585157*
X2011222Y1585180*
X2011356Y1585359*
X2011366Y1585369*
X2011545Y1585502*
X2011565Y1585511*
X2011788Y1585556*
X2011808*
X2012031Y1585511*
X2012061Y1585492*
X2012195Y1585314*
X2012203Y1585300*
X2012247Y1585166*
X2012250Y1585150*
Y1583548*
X2012552*
Y1585102*
X2008802D02*
X2008759Y1585403D01*
X2008635Y1585650*
X2008433Y1585772*
X2008139Y1585814*
X2007925Y1585771*
X2007758Y1585729*
X2007595Y1585607*
X2007466Y1585392*
X2007378Y1585395*
X2007293Y1585567*
X2007172Y1585688*
X2006962Y1585771*
X2006755Y1585813*
X2006590Y1585772*
X2006380Y1585688*
X2006119Y1585427*
X2006034Y1585462*
Y1585770*
X2005732*
Y1583548*
X2006034*
Y1584971*
X2006035Y1584983*
X2006080Y1585162*
X2006090Y1585182*
X2006313Y1585450*
X2006338Y1585466*
X2006650Y1585555*
X2006676Y1585556*
X2006855Y1585511*
X2006871Y1585504*
X2007004Y1585415*
X2007021Y1585396*
X2007111Y1585217*
X2007116Y1585195*
Y1583548*
X2007418*
Y1584837*
Y1584845*
X2007463Y1585157*
X2007472Y1585180*
X2007606Y1585359*
X2007616Y1585369*
X2007795Y1585502*
X2007815Y1585511*
X2008038Y1585556*
X2008058*
X2008281Y1585511*
X2008311Y1585492*
X2008445Y1585314*
X2008453Y1585300*
X2008497Y1585166*
X2008500Y1585150*
Y1583548*
X2008802*
Y1585102*
X2005141Y1585500D02*
X2005054Y1585804D01*
X2004879Y1586287*
X2004753Y1586454*
X2004590Y1586576*
X2004163Y1586662*
X2003867Y1586619*
X2003616Y1586494*
X2003449Y1586285*
X2003319Y1585983*
X2003232Y1585589*
X2003187Y1585059*
Y1584665*
X2003275Y1584315*
X2003362Y1584009*
X2003487Y1583801*
X2003783Y1583589*
X2004166Y1583504*
X2004462Y1583547*
X2004462D02*
X2004712Y1583672D01*
X2004880Y1583881*
X2005009Y1584183*
X2005097Y1584577*
X2005141Y1585063*
Y1585500*
X2004839Y1585418D02*
Y1584704D01*
Y1584695*
X2004794Y1584427*
Y1584426*
X2004749Y1584203*
X2004745Y1584190*
X2004655Y1584012*
X2004642Y1583995*
X2004419Y1583816*
X2004397Y1583806*
X2004174Y1583762*
X2004154*
X2003931Y1583806*
X2003910Y1583816*
X2003687Y1583995*
X2003673Y1584012*
X2003584Y1584190*
X2003579Y1584203*
X2003535Y1584426*
Y1584427*
X2003490Y1584695*
X2003489Y1584704*
Y1585418*
X2003490Y1585425*
X2003534Y1585737*
X2003535Y1585740*
X2003579Y1585963*
X2003584Y1585976*
X2003673Y1586154*
X2003687Y1586171*
X2003910Y1586350*
X2003931Y1586360*
X2004154Y1586404*
X2004172Y1586405*
X2004440Y1586360*
X2004471Y1586342*
X2004650Y1586119*
X2004652Y1586115*
X2004742Y1585981*
X2004749Y1585963*
X2004794Y1585740*
Y1585737*
X2004839Y1585425*
Y1585418*
X2002418Y1583850D02*
X2002116D01*
Y1583548*
X2002418*
Y1583850*
X2001390Y1584437D02*
X2001348Y1584690D01*
X2001264Y1584899*
X2001099Y1585064*
X2000838Y1585194*
X2000838D02*
X2000835Y1585282D01*
X2001053Y1585413*
X2001177Y1585537*
X2001260Y1585703*
X2001301Y1585867*
X2001259Y1586201*
X2001050Y1586452*
X2000798Y1586619*
X2000414Y1586662*
X2000030Y1586619*
X1999778Y1586452*
X1999569Y1586200*
X1999527Y1585910*
X1999569Y1585702*
X1999652Y1585537*
X1999776Y1585413*
X1999993Y1585282*
X1999993D02*
X1999984Y1585192D01*
X1999727Y1585106*
X1999565Y1584944*
X1999481Y1584691*
X1999438Y1584437*
X1999524Y1584052*
X1999692Y1583757*
X2000029Y1583547*
X2000414Y1583504*
X2000799Y1583547*
X2001136Y1583757*
X2001305Y1584052*
X2001390Y1584437*
X2000998Y1585852D02*
X2000954Y1585674D01*
X2000947Y1585658*
X2000858Y1585524*
X2000838Y1585507*
X2000660Y1585418*
X2000647Y1585413*
X2000424Y1585369*
X2000404*
X2000181Y1585413*
X2000169Y1585418*
X1999990Y1585507*
X1999971Y1585524*
X1999882Y1585658*
X1999874Y1585676*
X1999829Y1585899*
X1999830Y1585921*
X1999875Y1586100*
X1999882Y1586115*
X1999971Y1586249*
X1999990Y1586266*
X2000169Y1586355*
X2000181Y1586360*
X2000404Y1586404*
X2000424*
X2000647Y1586360*
X2000660Y1586355*
X2000838Y1586266*
X2000861Y1586244*
X2000950Y1586065*
X2000954Y1586055*
X2000998Y1585876*
Y1585852*
X2001089Y1584436D02*
Y1584427D01*
X2001044Y1584160*
X2001035Y1584138*
X2000901Y1583959*
X2000891Y1583949*
X2000712Y1583815*
X2000690Y1583806*
X2000422Y1583761*
X2000414*
X2000236*
X2000208Y1583769*
X2000077Y1583857*
X1999901Y1583944*
X1999901D02*
X1999882Y1583961D01*
X1999792Y1584095*
X1999784Y1584116*
X1999740Y1584429*
X1999739Y1584436*
X1999740Y1584445*
X1999785Y1584669*
X1999791Y1584685*
X1999925Y1584908*
X1999938Y1584922*
X2000116Y1585056*
X2000138Y1585065*
X2000406Y1585110*
X2000422*
X2000690Y1585065*
X2000712Y1585056*
X2000891Y1584922*
X2000904Y1584908*
X2001037Y1584685*
X2001044Y1584669*
X2001088Y1584445*
X2001089Y1584436*
X1998311Y1586662D02*
X1998121D01*
X1998002Y1586463*
X1997994Y1586454*
X1997771Y1586231*
X1997763Y1586224*
X1997496Y1586046*
X1997493Y1586044*
X1997205Y1585880*
Y1585588*
X1997575Y1585773*
X1997929Y1586038*
X1998009Y1585998*
Y1583548*
X1998311*
Y1586662*
X1997300Y1585635D02*
Y1585934D01*
X1997400Y1585685D02*
Y1585991D01*
X1997500Y1585735D02*
Y1586049D01*
X1997600Y1585792D02*
Y1586115D01*
X1997700Y1585867D02*
Y1586182D01*
X1997800Y1585942D02*
Y1586260D01*
X1997900Y1586017D02*
Y1586360D01*
X1998000Y1586027D02*
Y1586461D01*
X1998100Y1583548D02*
Y1586627D01*
X1998200Y1583548D02*
Y1586662D01*
X1998300Y1583548D02*
Y1586662D01*
X1999500Y1584160D02*
Y1584749D01*
X1999600Y1583919D02*
Y1584979D01*
Y1585640D02*
Y1586238D01*
X1999700Y1583752D02*
Y1585079D01*
Y1585488D02*
Y1586358D01*
X1999800Y1583690D02*
Y1584084D01*
Y1584700D02*
Y1585131D01*
Y1585398D02*
Y1586466D01*
X1999900Y1583627D02*
Y1583945D01*
Y1584866D02*
Y1585164D01*
Y1585338D02*
Y1585630D01*
Y1586143D02*
Y1586533D01*
X2000000Y1583565D02*
Y1583895D01*
Y1584969D02*
Y1585201D01*
Y1585277D02*
Y1585502D01*
Y1586271D02*
Y1586599D01*
X2000100Y1583539D02*
Y1583841D01*
Y1585044D02*
Y1585452D01*
Y1586321D02*
Y1586627D01*
X2000200Y1583528D02*
Y1583774D01*
Y1585076D02*
Y1585410D01*
Y1586363D02*
Y1586638D01*
X2000300Y1583517D02*
Y1583761D01*
Y1585092D02*
Y1585390D01*
Y1586383D02*
Y1586649D01*
X2000400Y1583505D02*
Y1583761D01*
Y1585109D02*
Y1585370D01*
Y1586403D02*
Y1586661D01*
X2000500Y1583513D02*
Y1583774D01*
Y1585097D02*
Y1585384D01*
Y1586389D02*
Y1586653D01*
X2000600Y1583524D02*
Y1583791D01*
Y1585080D02*
Y1585404D01*
Y1586369D02*
Y1586641D01*
X2000700Y1583536D02*
Y1583809D01*
Y1585063D02*
Y1585438D01*
Y1586335D02*
Y1586630D01*
X2000800Y1583547D02*
Y1583881D01*
Y1584990D02*
Y1585488D01*
Y1586285D02*
Y1586618D01*
X2000900Y1583610D02*
Y1583958D01*
Y1584913D02*
Y1585164D01*
Y1585321D02*
Y1585588D01*
Y1586165D02*
Y1586552D01*
X2001000Y1583672D02*
Y1584092D01*
Y1584747D02*
Y1585114D01*
Y1585381D02*
Y1586485D01*
X2001100Y1583735D02*
Y1585063D01*
Y1585460D02*
Y1586392D01*
X2001200Y1583869D02*
Y1584963D01*
Y1585583D02*
Y1586272D01*
X2001300Y1584044D02*
Y1584810D01*
Y1585864D02*
Y1585875D01*
X2002200Y1583548D02*
Y1583850D01*
X2002300Y1583548D02*
Y1583850D01*
X2002400Y1583548D02*
Y1583850D01*
X2003200Y1584615D02*
Y1585210D01*
X2003300Y1584227D02*
Y1585897D01*
X2003400Y1583946D02*
Y1586171D01*
X2003500Y1583792D02*
Y1584635D01*
Y1585497D02*
Y1586349D01*
X2003600Y1583720D02*
Y1584158D01*
Y1586008D02*
Y1586474D01*
X2003700Y1583649D02*
Y1583984D01*
Y1586182D02*
Y1586536D01*
X2003800Y1583586D02*
Y1583904D01*
Y1586262D02*
Y1586586D01*
X2003900Y1583563D02*
Y1583824D01*
Y1586342D02*
Y1586624D01*
X2004000Y1583541D02*
Y1583792D01*
Y1586373D02*
Y1586638D01*
X2004100Y1583519D02*
Y1583773D01*
Y1586393D02*
Y1586653D01*
X2004200Y1583509D02*
Y1583767D01*
Y1586400D02*
Y1586654D01*
X2004300Y1583523D02*
Y1583787D01*
Y1586383D02*
Y1586634D01*
X2004400Y1583538D02*
Y1583807D01*
Y1586367D02*
Y1586614D01*
X2004500Y1583566D02*
Y1583881D01*
Y1586306D02*
Y1586594D01*
X2004600Y1583616D02*
Y1583961D01*
Y1586181D02*
Y1586569D01*
X2004700Y1583666D02*
Y1584101D01*
Y1586044D02*
Y1586494D01*
X2004800Y1583781D02*
Y1584464D01*
Y1585696D02*
Y1586391D01*
X2004900Y1583928D02*
Y1586228D01*
X2005000Y1584162D02*
Y1585953D01*
X2005100Y1584612D02*
Y1585644D01*
X2005800Y1583548D02*
Y1585770D01*
X2005900Y1583548D02*
Y1585770D01*
X2006000Y1583548D02*
Y1585770D01*
X2006100Y1585194D02*
Y1585415D01*
X2006200Y1585314D02*
Y1585508D01*
X2006300Y1585434D02*
Y1585608D01*
X2006400Y1585484D02*
Y1585696D01*
X2006500Y1585512D02*
Y1585736D01*
X2006600Y1585541D02*
Y1585774D01*
X2006700Y1585550D02*
Y1585799D01*
X2006800Y1585525D02*
Y1585804D01*
X2006900Y1585484D02*
Y1585784D01*
X2007000Y1585418D02*
Y1585756D01*
X2007100Y1585238D02*
Y1585716D01*
X2007200Y1583548D02*
Y1585659D01*
X2007300Y1583548D02*
Y1585552D01*
X2007400Y1583548D02*
Y1585373D01*
X2007500Y1585217D02*
Y1585449D01*
X2007600Y1585350D02*
Y1585611D01*
X2007700Y1585431D02*
Y1585686D01*
X2007800Y1585506D02*
Y1585739D01*
X2007900Y1585528D02*
Y1585764D01*
X2008000Y1585548D02*
Y1585786D01*
X2008100Y1585548D02*
Y1585806D01*
X2008200Y1585528D02*
Y1585805D01*
X2008300Y1585503D02*
Y1585790D01*
X2008400Y1585374D02*
Y1585776D01*
X2008500Y1583548D02*
Y1585731D01*
X2008600Y1583548D02*
Y1585671D01*
X2008700Y1583548D02*
Y1585520D01*
X2008800Y1583548D02*
Y1585114D01*
X2009500Y1583548D02*
Y1585770D01*
X2009600Y1583548D02*
Y1585770D01*
X2009700Y1583548D02*
Y1585770D01*
X2009800Y1585042D02*
Y1585426D01*
X2009900Y1585254D02*
Y1585458D01*
X2010000Y1585374D02*
Y1585558D01*
X2010100Y1585469D02*
Y1585658D01*
X2010200Y1585498D02*
Y1585716D01*
X2010300Y1585526D02*
Y1585756D01*
X2010400Y1585555D02*
Y1585787D01*
X2010500Y1585537D02*
Y1585812D01*
X2010600Y1585512D02*
Y1585794D01*
X2010700Y1585451D02*
Y1585774D01*
X2010800Y1585338D02*
Y1585736D01*
X2010900Y1583548D02*
Y1585696D01*
X2011000Y1583548D02*
Y1585609D01*
X2011100Y1583548D02*
Y1585452D01*
X2011200Y1585067D02*
Y1585376D01*
X2011300Y1585283D02*
Y1585532D01*
X2011400Y1585394D02*
Y1585648D01*
X2011500Y1585469D02*
Y1585723D01*
X2011600Y1585518D02*
Y1585752D01*
X2011700Y1585538D02*
Y1585776D01*
X2011800Y1585557D02*
Y1585796D01*
X2011900Y1585538D02*
Y1585812D01*
X2012000Y1585518D02*
Y1585798D01*
X2012100Y1585441D02*
Y1585783D01*
X2012200Y1585306D02*
Y1585761D01*
X2012300Y1583548D02*
Y1585701D01*
X2012400Y1583548D02*
Y1585620D01*
X2012500Y1583548D02*
Y1585420D01*
X2046700Y1522570D02*
Y1522842D01*
Y1524884D02*
Y1524937D01*
X2046800Y1522570D02*
Y1523039D01*
Y1524873D02*
Y1525233D01*
X2046900Y1522570D02*
Y1523164D01*
Y1524862D02*
Y1525373D01*
X2047000Y1522570D02*
Y1523289D01*
Y1524919D02*
Y1525490D01*
X2047100Y1522570D02*
Y1522875D01*
Y1522982D02*
Y1523414D01*
Y1525142D02*
Y1525547D01*
X2047200Y1522570D02*
Y1522872D01*
Y1523107D02*
Y1523502D01*
Y1525258D02*
Y1525604D01*
X2047300Y1522570D02*
Y1522872D01*
Y1523212D02*
Y1523588D01*
Y1525333D02*
Y1525645D01*
X2047400Y1522570D02*
Y1522872D01*
Y1523287D02*
Y1523674D01*
Y1525386D02*
Y1525656D01*
X2047500Y1522570D02*
Y1522872D01*
Y1523367D02*
Y1523762D01*
Y1525403D02*
Y1525668D01*
X2047600Y1522570D02*
Y1522872D01*
Y1523450D02*
Y1523851D01*
Y1525420D02*
Y1525679D01*
X2047700Y1522570D02*
Y1522872D01*
Y1523534D02*
Y1523940D01*
Y1525419D02*
Y1525673D01*
X2047800Y1522570D02*
Y1522872D01*
Y1523621D02*
Y1524029D01*
Y1525399D02*
Y1525650D01*
X2047900Y1522570D02*
Y1522872D01*
Y1523708D02*
Y1524140D01*
Y1525376D02*
Y1525628D01*
X2048000Y1522570D02*
Y1522872D01*
Y1523796D02*
Y1524256D01*
Y1525301D02*
Y1525606D01*
X2048100Y1522570D02*
Y1522872D01*
Y1523896D02*
Y1524376D01*
Y1525223D02*
Y1525561D01*
X2048200Y1522570D02*
Y1522872D01*
Y1524016D02*
Y1524543D01*
Y1525123D02*
Y1525504D01*
X2048300Y1522570D02*
Y1522872D01*
Y1524138D02*
Y1525447D01*
X2048400Y1522570D02*
Y1522872D01*
Y1524271D02*
Y1525348D01*
X2048500Y1522570D02*
Y1522872D01*
Y1524513D02*
Y1525228D01*
X2048600Y1522570D02*
Y1522872D01*
X2049300Y1523052D02*
Y1523333D01*
Y1524079D02*
Y1524223D01*
X2049400Y1522900D02*
Y1523344D01*
Y1524068D02*
Y1524752D01*
X2049500Y1522760D02*
Y1523355D01*
Y1524057D02*
Y1525281D01*
X2049600Y1522689D02*
Y1523169D01*
Y1524048D02*
Y1525640D01*
X2049700Y1522632D02*
Y1522955D01*
Y1524148D02*
Y1524390D01*
Y1524728D02*
Y1525640D01*
X2049800Y1522575D02*
Y1522886D01*
Y1524248D02*
Y1524443D01*
Y1525319D02*
Y1525640D01*
X2049900Y1522558D02*
Y1522836D01*
Y1524286D02*
Y1524510D01*
Y1525338D02*
Y1525640D01*
X2050000Y1522545D02*
Y1522812D01*
Y1524315D02*
Y1524572D01*
Y1525338D02*
Y1525640D01*
X2050100Y1522533D02*
Y1522792D01*
Y1524343D02*
Y1524586D01*
Y1525338D02*
Y1525640D01*
X2050200Y1522535D02*
Y1522789D01*
Y1524350D02*
Y1524601D01*
Y1525338D02*
Y1525640D01*
X2050300Y1522551D02*
Y1522804D01*
Y1524335D02*
Y1524608D01*
Y1525338D02*
Y1525640D01*
X2050400Y1522568D02*
Y1522818D01*
Y1524321D02*
Y1524583D01*
Y1525338D02*
Y1525640D01*
X2050500Y1522587D02*
Y1522843D01*
Y1524297D02*
Y1524558D01*
Y1525338D02*
Y1525640D01*
X2050600Y1522608D02*
Y1522943D01*
Y1524222D02*
Y1524533D01*
Y1525338D02*
Y1525640D01*
X2050700Y1522671D02*
Y1523055D01*
Y1524129D02*
Y1524472D01*
Y1525338D02*
Y1525640D01*
X2050800Y1522748D02*
Y1523221D01*
Y1523962D02*
Y1524400D01*
Y1525338D02*
Y1525640D01*
X2050900Y1522848D02*
Y1524329D01*
Y1525338D02*
Y1525640D01*
X2051000Y1522979D02*
Y1524202D01*
X2051100Y1523154D02*
Y1524062D01*
X2051900Y1522570D02*
Y1522872D01*
X2052000Y1522570D02*
Y1522872D01*
X2052100Y1522570D02*
Y1522872D01*
X2053000Y1523252D02*
Y1523327D01*
X2053100Y1522970D02*
Y1523338D01*
Y1524073D02*
Y1524488D01*
X2053200Y1522830D02*
Y1523349D01*
Y1524062D02*
Y1525016D01*
X2053300Y1522718D02*
Y1523319D01*
Y1524051D02*
Y1525545D01*
X2053400Y1522661D02*
Y1523055D01*
Y1524098D02*
Y1525640D01*
X2053500Y1522603D02*
Y1522911D01*
Y1524198D02*
Y1524410D01*
Y1525045D02*
Y1525640D01*
X2053600Y1522564D02*
Y1522861D01*
Y1524272D02*
Y1524477D01*
Y1525338D02*
Y1525640D01*
X2053700Y1522551D02*
Y1522822D01*
Y1524301D02*
Y1524543D01*
Y1525338D02*
Y1525640D01*
X2053800Y1522539D02*
Y1522802D01*
Y1524329D02*
Y1524579D01*
Y1525338D02*
Y1525640D01*
X2053900Y1522526D02*
Y1522783D01*
Y1524356D02*
Y1524593D01*
Y1525338D02*
Y1525640D01*
X2054000Y1522543D02*
Y1522796D01*
Y1524343D02*
Y1524608D01*
Y1525338D02*
Y1525640D01*
X2054100Y1522560D02*
Y1522811D01*
Y1524328D02*
Y1524596D01*
Y1525338D02*
Y1525640D01*
X2054200Y1522577D02*
Y1522825D01*
Y1524314D02*
Y1524571D01*
Y1525338D02*
Y1525640D01*
X2054300Y1522597D02*
Y1522893D01*
Y1524260D02*
Y1524546D01*
Y1525338D02*
Y1525640D01*
X2054400Y1522633D02*
Y1522993D01*
Y1524185D02*
Y1524507D01*
Y1525338D02*
Y1525640D01*
X2054500Y1522708D02*
Y1523138D01*
Y1524046D02*
Y1524436D01*
Y1525338D02*
Y1525640D01*
X2054600Y1522798D02*
Y1523440D01*
Y1523744D02*
Y1524364D01*
Y1525338D02*
Y1525640D01*
X2054700Y1522898D02*
Y1524272D01*
Y1525338D02*
Y1525640D01*
X2054800Y1523066D02*
Y1524132D01*
X2054900Y1523409D02*
Y1523841D01*
X2055600Y1522570D02*
Y1524792D01*
X2055700Y1522570D02*
Y1524792D01*
X2055800Y1522570D02*
Y1524792D01*
X2055900Y1524238D02*
Y1524448D01*
X2056000Y1524358D02*
Y1524548D01*
X2056100Y1524477D02*
Y1524648D01*
X2056200Y1524511D02*
Y1524725D01*
X2056300Y1524540D02*
Y1524765D01*
X2056400Y1524568D02*
Y1524801D01*
X2056500Y1524567D02*
Y1524826D01*
X2056600Y1524542D02*
Y1524823D01*
X2056700Y1524495D02*
Y1524803D01*
X2056800Y1524424D02*
Y1524771D01*
X2056900Y1522570D02*
Y1524731D01*
X2057000Y1522570D02*
Y1524664D01*
X2057100Y1522570D02*
Y1524539D01*
X2057200Y1523864D02*
Y1524390D01*
X2057300Y1524263D02*
Y1524501D01*
X2057400Y1524392D02*
Y1524646D01*
X2057500Y1524467D02*
Y1524721D01*
X2057600Y1524534D02*
Y1524766D01*
X2057700Y1524554D02*
Y1524791D01*
X2057800Y1524574D02*
Y1524812D01*
X2057900Y1524566D02*
Y1524832D01*
X2058000Y1524546D02*
Y1524824D01*
X2058100Y1524506D02*
Y1524810D01*
X2058200Y1524372D02*
Y1524796D01*
X2058300Y1522570D02*
Y1524743D01*
X2058400Y1522570D02*
Y1524683D01*
X2058500Y1522570D02*
Y1524506D01*
X2059300Y1522570D02*
Y1524792D01*
X2059400Y1522570D02*
Y1524792D01*
X2059500Y1522570D02*
Y1524792D01*
X2059600Y1524136D02*
Y1524437D01*
X2059700Y1524298D02*
Y1524498D01*
X2059800Y1524418D02*
Y1524598D01*
X2059900Y1524497D02*
Y1524698D01*
X2060000Y1524525D02*
Y1524745D01*
X2060100Y1524554D02*
Y1524785D01*
X2060200Y1524579D02*
Y1524814D01*
X2060300Y1524555D02*
Y1524833D01*
X2060400Y1524528D02*
Y1524813D01*
X2060500Y1524461D02*
Y1524791D01*
X2060600Y1524325D02*
Y1524751D01*
X2060700Y1522570D02*
Y1524711D01*
X2060800Y1522570D02*
Y1524614D01*
X2060900Y1522570D02*
Y1524439D01*
X2061000Y1524195D02*
Y1524418D01*
X2061100Y1524330D02*
Y1524584D01*
X2061200Y1524429D02*
Y1524684D01*
X2061300Y1524504D02*
Y1524754D01*
X2061400Y1524544D02*
Y1524779D01*
X2061500Y1524564D02*
Y1524802D01*
X2061600Y1524576D02*
Y1524822D01*
X2061700Y1524556D02*
Y1524832D01*
X2061800Y1524536D02*
Y1524817D01*
X2061900Y1524439D02*
Y1524803D01*
X2062000Y1524276D02*
Y1524773D01*
X2062100Y1522570D02*
Y1524713D01*
X2062200Y1522570D02*
Y1524606D01*
X2062300Y1522570D02*
Y1524360D01*
*
G04 PC Custom Flashes*
G04 Layer Name ESP32_WROOM_32D_5X5_V2- - flashes*
%LPD*%
*
*
G04 PC Circuitry*
G04 Layer Name ESP32_WROOM_32D_5X5_V2- - circuitry*
%LPD*%
*
G54D10*
X1998380Y1531884D02*
X1999423Y1532927D01*
X1998659Y1533691*
X1997616Y1532648*
X1998380Y1531884*
X1998380*
X1998280Y1531984D02*
X1998480D01*
X1998180Y1532084D02*
X1998580D01*
X1998080Y1532184D02*
X1998680D01*
X1997980Y1532284D02*
X1998780D01*
X1997880Y1532384D02*
X1998880D01*
X1997780Y1532484D02*
X1998980D01*
X1997680Y1532584D02*
X1999080D01*
X1997651Y1532684D02*
X1999180D01*
X1997751Y1532784D02*
X1999280D01*
X1997851Y1532884D02*
X1999380D01*
X1997951Y1532984D02*
X1999366D01*
X1998051Y1533084D02*
X1999266D01*
X1998151Y1533184D02*
X1999166D01*
X1998251Y1533284D02*
X1999066D01*
X1998351Y1533384D02*
X1998966D01*
X1998451Y1533484D02*
X1998866D01*
X1998551Y1533584D02*
X1998766D01*
X1998651Y1533684D02*
X1998666D01*
X1997704Y1532560D02*
Y1532736D01*
X1997804Y1532460D02*
Y1532836D01*
X1997904Y1532360D02*
Y1532936D01*
X1998004Y1532260D02*
Y1533036D01*
X1998104Y1532160D02*
Y1533136D01*
X1998204Y1532060D02*
Y1533236D01*
X1998304Y1531960D02*
Y1533336D01*
X1998404Y1531908D02*
Y1533436D01*
X1998504Y1532008D02*
Y1533536D01*
X1998604Y1532108D02*
Y1533636D01*
X1998704Y1532208D02*
Y1533646D01*
X1998804Y1532308D02*
Y1533546D01*
X1998904Y1532408D02*
Y1533446D01*
X1999004Y1532508D02*
Y1533346D01*
X1999104Y1532608D02*
Y1533246D01*
X1999204Y1532708D02*
Y1533146D01*
X1999304Y1532808D02*
Y1533046D01*
X1999404Y1532908D02*
Y1532946D01*
X1996849Y1533415D02*
X1997892Y1534458D01*
X1997128Y1535222*
X1996085Y1534180*
X1996849Y1533415*
X1996849*
X1996749Y1533515D02*
X1996949D01*
X1996649Y1533615D02*
X1997049D01*
X1996549Y1533715D02*
X1997149D01*
X1996449Y1533815D02*
X1997249D01*
X1996349Y1533915D02*
X1997349D01*
X1996249Y1534015D02*
X1997449D01*
X1996149Y1534115D02*
X1997549D01*
X1996120Y1534215D02*
X1997649D01*
X1996220Y1534315D02*
X1997749D01*
X1996320Y1534415D02*
X1997849D01*
X1996420Y1534515D02*
X1997835D01*
X1996520Y1534615D02*
X1997735D01*
X1996620Y1534715D02*
X1997635D01*
X1996720Y1534815D02*
X1997535D01*
X1996820Y1534915D02*
X1997435D01*
X1996920Y1535015D02*
X1997335D01*
X1997020Y1535115D02*
X1997235D01*
X1997120Y1535215D02*
X1997135D01*
X1996104Y1534160D02*
Y1534199D01*
X1996204Y1534060D02*
Y1534299D01*
X1996304Y1533960D02*
Y1534399D01*
X1996404Y1533860D02*
Y1534499D01*
X1996504Y1533760D02*
Y1534599D01*
X1996604Y1533660D02*
Y1534699D01*
X1996704Y1533560D02*
Y1534799D01*
X1996804Y1533460D02*
Y1534899D01*
X1996904Y1533470D02*
Y1534999D01*
X1997004Y1533570D02*
Y1535099D01*
X1997104Y1533670D02*
Y1535199D01*
X1997204Y1533770D02*
Y1535146D01*
X1997304Y1533870D02*
Y1535046D01*
X1997404Y1533970D02*
Y1534946D01*
X1997504Y1534070D02*
Y1534846D01*
X1997604Y1534170D02*
Y1534746D01*
X1997704Y1534270D02*
Y1534646D01*
X1997804Y1534370D02*
Y1534546D01*
X1995723Y1535330D02*
X1994680Y1536372D01*
X1993916Y1535608*
X1994959Y1534565*
X1995723Y1535330*
X1994959Y1534565D02*
X1994959D01*
X1994859Y1534665D02*
X1995059D01*
X1994759Y1534765D02*
X1995159D01*
X1994659Y1534865D02*
X1995259D01*
X1994559Y1534965D02*
X1995359D01*
X1994459Y1535065D02*
X1995459D01*
X1994359Y1535165D02*
X1995559D01*
X1994259Y1535265D02*
X1995659D01*
X1994159Y1535365D02*
X1995688D01*
X1994059Y1535465D02*
X1995588D01*
X1993959Y1535565D02*
X1995488D01*
X1993973Y1535665D02*
X1995388D01*
X1994073Y1535765D02*
X1995288D01*
X1994173Y1535865D02*
X1995188D01*
X1994273Y1535965D02*
X1995088D01*
X1994373Y1536065D02*
X1994988D01*
X1994473Y1536165D02*
X1994888D01*
X1994573Y1536265D02*
X1994788D01*
X1994673Y1536365D02*
X1994688D01*
X1994004Y1535520D02*
Y1535696D01*
X1994104Y1535420D02*
Y1535796D01*
X1994204Y1535320D02*
Y1535896D01*
X1994304Y1535220D02*
Y1535996D01*
X1994404Y1535120D02*
Y1536096D01*
X1994504Y1535020D02*
Y1536196D01*
X1994604Y1534920D02*
Y1536296D01*
X1994704Y1534820D02*
Y1536349D01*
X1994804Y1534720D02*
Y1536249D01*
X1994904Y1534620D02*
Y1536149D01*
X1995004Y1534610D02*
Y1536049D01*
X1995104Y1534710D02*
Y1535949D01*
X1995204Y1534810D02*
Y1535849D01*
X1995304Y1534910D02*
Y1535749D01*
X1995404Y1535010D02*
Y1535649D01*
X1995504Y1535110D02*
Y1535549D01*
X1995604Y1535210D02*
Y1535449D01*
X1995704Y1535310D02*
Y1535349D01*
X1994192Y1533798D02*
X1993149Y1534841D01*
X1992385Y1534077*
X1993428Y1533034*
X1994192Y1533798*
X1993428Y1533034D02*
X1993428D01*
X1993328Y1533134D02*
X1993528D01*
X1993228Y1533234D02*
X1993628D01*
X1993128Y1533334D02*
X1993728D01*
X1993028Y1533434D02*
X1993828D01*
X1992928Y1533534D02*
X1993928D01*
X1992828Y1533634D02*
X1994028D01*
X1992728Y1533734D02*
X1994128D01*
X1992628Y1533834D02*
X1994156D01*
X1992528Y1533934D02*
X1994056D01*
X1992428Y1534034D02*
X1993956D01*
X1992442Y1534134D02*
X1993856D01*
X1992542Y1534234D02*
X1993756D01*
X1992642Y1534334D02*
X1993656D01*
X1992742Y1534434D02*
X1993556D01*
X1992842Y1534534D02*
X1993456D01*
X1992942Y1534634D02*
X1993356D01*
X1993042Y1534734D02*
X1993256D01*
X1993142Y1534834D02*
X1993156D01*
X1992404Y1534058D02*
Y1534096D01*
X1992504Y1533958D02*
Y1534196D01*
X1992604Y1533858D02*
Y1534296D01*
X1992704Y1533758D02*
Y1534396D01*
X1992804Y1533658D02*
Y1534496D01*
X1992904Y1533558D02*
Y1534596D01*
X1993004Y1533458D02*
Y1534696D01*
X1993104Y1533358D02*
Y1534796D01*
X1993204Y1533258D02*
Y1534786D01*
X1993304Y1533158D02*
Y1534686D01*
X1993404Y1533058D02*
Y1534586D01*
X1993504Y1533110D02*
Y1534486D01*
X1993604Y1533210D02*
Y1534386D01*
X1993704Y1533310D02*
Y1534286D01*
X1993804Y1533410D02*
Y1534186D01*
X1993904Y1533510D02*
Y1534086D01*
X1994004Y1533610D02*
Y1533986D01*
X1994104Y1533710D02*
Y1533886D01*
X1991173Y1534780D02*
X1990130Y1535822D01*
X1989366Y1535058*
X1990409Y1534015*
X1991173Y1534780*
X1990409Y1534015D02*
X1990409D01*
X1990309Y1534115D02*
X1990509D01*
X1990209Y1534215D02*
X1990609D01*
X1990109Y1534315D02*
X1990709D01*
X1990009Y1534415D02*
X1990809D01*
X1989909Y1534515D02*
X1990909D01*
X1989809Y1534615D02*
X1991009D01*
X1989709Y1534715D02*
X1991109D01*
X1989609Y1534815D02*
X1991138D01*
X1989509Y1534915D02*
X1991038D01*
X1989409Y1535015D02*
X1990938D01*
X1989423Y1535115D02*
X1990838D01*
X1989523Y1535215D02*
X1990738D01*
X1989623Y1535315D02*
X1990638D01*
X1989723Y1535415D02*
X1990538D01*
X1989823Y1535515D02*
X1990438D01*
X1989923Y1535615D02*
X1990338D01*
X1990023Y1535715D02*
X1990238D01*
X1990123Y1535815D02*
X1990138D01*
X1989404Y1535020D02*
Y1535096D01*
X1989504Y1534920D02*
Y1535196D01*
X1989604Y1534820D02*
Y1535296D01*
X1989704Y1534720D02*
Y1535396D01*
X1989804Y1534620D02*
Y1535496D01*
X1989904Y1534520D02*
Y1535596D01*
X1990004Y1534420D02*
Y1535696D01*
X1990104Y1534320D02*
Y1535796D01*
X1990204Y1534220D02*
Y1535749D01*
X1990304Y1534120D02*
Y1535649D01*
X1990404Y1534020D02*
Y1535549D01*
X1990504Y1534110D02*
Y1535449D01*
X1990604Y1534210D02*
Y1535349D01*
X1990704Y1534310D02*
Y1535249D01*
X1990804Y1534410D02*
Y1535149D01*
X1990904Y1534510D02*
Y1535049D01*
X1991004Y1534610D02*
Y1534949D01*
X1991104Y1534710D02*
Y1534849D01*
X1989642Y1533248D02*
X1988599Y1534291D01*
X1987835Y1533527*
X1988878Y1532484*
X1989642Y1533248*
X1988878Y1532484D02*
X1988878D01*
X1988778Y1532584D02*
X1988978D01*
X1988678Y1532684D02*
X1989078D01*
X1988578Y1532784D02*
X1989178D01*
X1988478Y1532884D02*
X1989278D01*
X1988378Y1532984D02*
X1989378D01*
X1988278Y1533084D02*
X1989478D01*
X1988178Y1533184D02*
X1989578D01*
X1988078Y1533284D02*
X1989606D01*
X1987978Y1533384D02*
X1989506D01*
X1987878Y1533484D02*
X1989406D01*
X1987892Y1533584D02*
X1989306D01*
X1987992Y1533684D02*
X1989206D01*
X1988092Y1533784D02*
X1989106D01*
X1988192Y1533884D02*
X1989006D01*
X1988292Y1533984D02*
X1988906D01*
X1988392Y1534084D02*
X1988806D01*
X1988492Y1534184D02*
X1988706D01*
X1988592Y1534284D02*
X1988606D01*
X1987904Y1533458D02*
Y1533596D01*
X1988004Y1533358D02*
Y1533696D01*
X1988104Y1533258D02*
Y1533796D01*
X1988204Y1533158D02*
Y1533896D01*
X1988304Y1533058D02*
Y1533996D01*
X1988404Y1532958D02*
Y1534096D01*
X1988504Y1532858D02*
Y1534196D01*
X1988604Y1532758D02*
Y1534286D01*
X1988704Y1532658D02*
Y1534186D01*
X1988804Y1532558D02*
Y1534086D01*
X1988904Y1532510D02*
Y1533986D01*
X1989004Y1532610D02*
Y1533886D01*
X1989104Y1532710D02*
Y1533786D01*
X1989204Y1532810D02*
Y1533686D01*
X1989304Y1532910D02*
Y1533586D01*
X1989404Y1533010D02*
Y1533486D01*
X1989504Y1533110D02*
Y1533386D01*
X1989604Y1533210D02*
Y1533286D01*
X2000130Y1533634D02*
X2001173Y1534677D01*
X2000409Y1535441*
X1999366Y1534398*
X2000130Y1533634*
X2000130*
X2000030Y1533734D02*
X2000230D01*
X1999930Y1533834D02*
X2000330D01*
X1999830Y1533934D02*
X2000430D01*
X1999730Y1534034D02*
X2000530D01*
X1999630Y1534134D02*
X2000630D01*
X1999530Y1534234D02*
X2000730D01*
X1999430Y1534334D02*
X2000830D01*
X1999401Y1534434D02*
X2000930D01*
X1999501Y1534534D02*
X2001030D01*
X1999601Y1534634D02*
X2001130D01*
X1999701Y1534734D02*
X2001116D01*
X1999801Y1534834D02*
X2001016D01*
X1999901Y1534934D02*
X2000916D01*
X2000001Y1535034D02*
X2000816D01*
X2000101Y1535134D02*
X2000716D01*
X2000201Y1535234D02*
X2000616D01*
X2000301Y1535334D02*
X2000516D01*
X2000401Y1535434D02*
X2000416D01*
X1999404Y1534360D02*
Y1534436D01*
X1999504Y1534260D02*
Y1534536D01*
X1999604Y1534160D02*
Y1534636D01*
X1999704Y1534060D02*
Y1534736D01*
X1999804Y1533960D02*
Y1534836D01*
X1999904Y1533860D02*
Y1534936D01*
X2000004Y1533760D02*
Y1535036D01*
X2000104Y1533660D02*
Y1535136D01*
X2000204Y1533708D02*
Y1535236D01*
X2000304Y1533808D02*
Y1535336D01*
X2000404Y1533908D02*
Y1535436D01*
X2000504Y1534008D02*
Y1535346D01*
X2000604Y1534108D02*
Y1535246D01*
X2000704Y1534208D02*
Y1535146D01*
X2000804Y1534308D02*
Y1535046D01*
X2000904Y1534408D02*
Y1534946D01*
X2001004Y1534508D02*
Y1534846D01*
X2001104Y1534608D02*
Y1534746D01*
X1998599Y1535165D02*
X1999642Y1536208D01*
X1998878Y1536972*
X1997835Y1535930*
X1998599Y1535165*
X1998599*
X1998499Y1535265D02*
X1998699D01*
X1998399Y1535365D02*
X1998799D01*
X1998299Y1535465D02*
X1998899D01*
X1998199Y1535565D02*
X1998999D01*
X1998099Y1535665D02*
X1999099D01*
X1997999Y1535765D02*
X1999199D01*
X1997899Y1535865D02*
X1999299D01*
X1997870Y1535965D02*
X1999399D01*
X1997970Y1536065D02*
X1999499D01*
X1998070Y1536165D02*
X1999599D01*
X1998170Y1536265D02*
X1999585D01*
X1998270Y1536365D02*
X1999485D01*
X1998370Y1536465D02*
X1999385D01*
X1998470Y1536565D02*
X1999285D01*
X1998570Y1536665D02*
X1999185D01*
X1998670Y1536765D02*
X1999085D01*
X1998770Y1536865D02*
X1998985D01*
X1998870Y1536965D02*
X1998885D01*
X1997904Y1535860D02*
Y1535999D01*
X1998004Y1535760D02*
Y1536099D01*
X1998104Y1535660D02*
Y1536199D01*
X1998204Y1535560D02*
Y1536299D01*
X1998304Y1535460D02*
Y1536399D01*
X1998404Y1535360D02*
Y1536499D01*
X1998504Y1535260D02*
Y1536599D01*
X1998604Y1535170D02*
Y1536699D01*
X1998704Y1535270D02*
Y1536799D01*
X1998804Y1535370D02*
Y1536899D01*
X1998904Y1535470D02*
Y1536946D01*
X1999004Y1535570D02*
Y1536846D01*
X1999104Y1535670D02*
Y1536746D01*
X1999204Y1535770D02*
Y1536646D01*
X1999304Y1535870D02*
Y1536546D01*
X1999404Y1535970D02*
Y1536446D01*
X1999504Y1536070D02*
Y1536346D01*
X1999604Y1536170D02*
Y1536246D01*
X1968504Y1574503D02*
X1968507D01*
X2039370D02*
X2039373D01*
X2039370Y1474288D02*
X2039373D01*
X2039370Y1574503D02*
X2039373D01*
G54D14*
X1993504Y1538803D03*
Y1542803D03*
X1981304Y1538803D03*
Y1542803D03*
G54D16*
X2016504Y1547303D02*
X1973128D01*
X2034708Y1478819D02*
X1973141D01*
X2034708Y1547303D02*
X2025504D01*
X1973141Y1534303D02*
Y1478819D01*
X2034708Y1547303D02*
Y1478819D01*
X1973128Y1547303D02*
Y1545303D01*
G54D36*
X2022835Y1515605D03*
Y1508519D03*
X2028740D03*
Y1515605D03*
G54D44*
X1968504Y1574681D02*
X2039370D01*
Y1474288*
X1968504*
Y1574681*
G54D109*
Y1585373D02*
X1993664D01*
X1968504D02*
X1973504Y1586373D01*
Y1584373*
X1968504Y1585373*
X2039370D02*
X2014210D01*
X2039370D02*
X2034370Y1584373D01*
Y1586373*
X2039370Y1585373*
X1968504Y1576503D02*
Y1587373D01*
X2039370Y1576503D02*
Y1587373D01*
X2054344Y1474288D02*
Y1519520D01*
Y1474288D02*
X2053344Y1479288D01*
X2055344*
X2054344Y1474288*
Y1574503D02*
Y1529270D01*
Y1574503D02*
X2055344Y1569503D01*
X2053344*
X2054344Y1574503*
X2041370Y1474288D02*
X2056344D01*
X2041370Y1574503D02*
X2056344D01*
G54D115*
X2039370Y1545193D03*
X1968504Y1530193D03*
X1996476Y1474287D03*
X2039370Y1530193D03*
X1968504Y1525193D03*
X2001476Y1474287D03*
X2039370Y1525193D03*
X1968504Y1520193D03*
X2006476Y1474287D03*
X2039370Y1520193D03*
X1968504Y1515193D03*
X1981476Y1474287D03*
X2011476D03*
X2039370Y1515193D03*
X1968504Y1510193D03*
X2016476Y1474287D03*
X2039370Y1510193D03*
X1968504Y1505193D03*
X2021476Y1474287D03*
X2039370Y1505193D03*
X1968504Y1500193D03*
X2026476Y1474287D03*
X1968504Y1545193D03*
X2039370Y1500193D03*
X1968504Y1495193D03*
X2039370D03*
X1968504Y1490193D03*
X2039370D03*
X1968504Y1485193D03*
X2039370D03*
X1968504Y1480193D03*
X2039384D03*
X1968504Y1540193D03*
X1986476Y1474287D03*
X2039370Y1540193D03*
X1968504Y1535193D03*
X1991476Y1474287D03*
X2039370Y1535193D03*
G54D120*
X2022004Y1550803D03*
X2030810D03*
G54D169*
X1998012Y1514803D03*
G54D174*
X2006969Y1524646D03*
X2005591D03*
X2004213D03*
X2002835D03*
X2001457D03*
X2000079D03*
X1998701D03*
X1997323D03*
X1995945D03*
X1994567D03*
X1993189D03*
X1991811D03*
X1990433D03*
X1989055D03*
Y1504961D03*
X1990433D03*
X1991811D03*
X1993189D03*
X1994567D03*
X1995945D03*
X1997323D03*
X1998701D03*
X2000079D03*
X2001457D03*
X2002835D03*
X2004213D03*
X2005591D03*
X2006969D03*
G54D175*
X1988169Y1521004D03*
Y1519626D03*
Y1518248D03*
Y1516870D03*
Y1515492D03*
Y1514114D03*
Y1512736D03*
Y1511358D03*
Y1509980D03*
Y1508602D03*
X2007854D03*
Y1509980D03*
Y1511358D03*
Y1512736D03*
Y1514114D03*
Y1515492D03*
Y1516870D03*
Y1518248D03*
Y1519626D03*
Y1521004D03*
G54D186*
X2013614Y1484035D03*
G54D187*
Y1489035D03*
Y1494035D03*
Y1499035D03*
X1986014D03*
Y1494035D03*
Y1489035D03*
Y1484035D03*
G54D188*
X2022821Y1520803D03*
X2024987D03*
X2005571Y1530803D03*
X2007737D03*
Y1538803D03*
X2005571D03*
X2028687Y1503303D03*
X2026521D03*
X2013921Y1512603D03*
X2016087D03*
X2014921Y1521303D03*
X2017087D03*
X2013421Y1503103D03*
X2015587D03*
X2017287Y1517503D03*
X2015121D03*
G54D189*
X2000504Y1539970D03*
Y1542136D03*
X1997004Y1539970D03*
Y1542136D03*
X1977504Y1485886D03*
Y1483720D03*
X1981504Y1515586D03*
Y1513420D03*
X2015254Y1526636D03*
Y1524470D03*
X2020254Y1524469D03*
Y1526635D03*
X2012304Y1527720D03*
Y1529886D03*
X2005574Y1533720D03*
Y1535886D03*
X2017754Y1524470D03*
Y1526636D03*
X2015504Y1508886D03*
Y1506720D03*
G54D190*
X1977254Y1539725D03*
Y1542481D03*
X0Y0D02*
M02*
