*
*
G04 PADS 9.5 Build Number: 522968 generated Gerber (RS-274-X) file*
G04 PC Version=2.1*
*
%IN "ESP32_WROOM_32D_5X5_V2-"*%
*
%MOIN*%
*
%FSLAX35Y35*%
*
*
*
*
G04 PC Standard Apertures*
*
*
G04 Thermal Relief Aperture macro.*
%AMTER*
1,1,$1,0,0*
1,0,$1-$2,0,0*
21,0,$3,$4,0,0,45*
21,0,$3,$4,0,0,135*
%
*
*
G04 Annular Aperture macro.*
%AMANN*
1,1,$1,0,0*
1,0,$2,0,0*
%
*
*
G04 Odd Aperture macro.*
%AMODD*
1,1,$1,0,0*
1,0,$1-0.005,0,0*
%
*
*
G04 PC Custom Aperture Macros*
*
*
*
*
*
*
G04 PC Aperture Table*
*
%ADD010C,0.001*%
%ADD014R,0.02X0.02*%
%ADD036R,0.03937X0.04331*%
%ADD043C,0.008*%
%ADD044C,0.01*%
%ADD045C,0.02*%
%ADD046C,0.015*%
%ADD047C,0.012*%
%ADD049C,0.009*%
%ADD109C,0.005*%
%ADD115R,0.03543X0.03543*%
%ADD120C,0.01575*%
%ADD164C,0.035*%
%ADD169R,0.14764X0.14764*%
%ADD174R,0.00787X0.0315*%
%ADD175R,0.0315X0.00787*%
%ADD178C,0.018*%
%ADD179C,0.03465*%
%ADD186R,0.118X0.024*%
%ADD187O,0.118X0.024*%
%ADD188R,0.01181X0.01575*%
%ADD189R,0.01575X0.01181*%
%ADD190R,0.02756X0.01575*%
*
*
*
*
G04 PC Circuitry*
G04 Layer Name ESP32_WROOM_32D_5X5_V2- - circuitry*
%LPD*%
*
G54D10*
G01X2062334Y1524124D02*
X2062291Y1524425D01*
X2062167Y1524673*
X2061965Y1524794*
X2061671Y1524836*
X2061457Y1524793*
X2061290Y1524751*
X2061127Y1524629*
X2060998Y1524414*
X2060910Y1524418*
X2060825Y1524589*
X2060704Y1524710*
X2060494Y1524794*
X2060287Y1524835*
X2060122Y1524794*
X2059912Y1524710*
X2059651Y1524449*
X2059566Y1524485*
Y1524792*
X2059264*
Y1522570*
X2059566*
Y1523994*
X2059567Y1524006*
X2059612Y1524184*
X2059622Y1524204*
X2059845Y1524472*
X2059870Y1524488*
X2060182Y1524577*
X2060208Y1524578*
X2060387Y1524533*
X2060403Y1524526*
X2060536Y1524437*
X2060553Y1524418*
X2060643Y1524239*
X2060648Y1524217*
Y1522570*
X2060950*
Y1523860*
Y1523867*
X2060995Y1524179*
X2061004Y1524202*
X2061138Y1524381*
X2061148Y1524391*
X2061327Y1524525*
X2061347Y1524534*
X2061570Y1524578*
X2061590*
X2061813Y1524534*
X2061843Y1524515*
X2061977Y1524336*
X2061985Y1524322*
X2062029Y1524188*
X2062032Y1524172*
Y1522570*
X2062334*
Y1524124*
X2058584D02*
X2058541Y1524425D01*
X2058417Y1524673*
X2058215Y1524794*
X2057921Y1524836*
X2057707Y1524793*
X2057540Y1524751*
X2057377Y1524629*
X2057248Y1524414*
X2057160Y1524418*
X2057075Y1524589*
X2056954Y1524710*
X2056744Y1524794*
X2056537Y1524835*
X2056372Y1524794*
X2056162Y1524710*
X2055901Y1524449*
X2055816Y1524485*
Y1524792*
X2055514*
Y1522570*
X2055816*
Y1523994*
X2055817Y1524006*
X2055862Y1524184*
X2055872Y1524204*
X2056095Y1524472*
X2056120Y1524488*
X2056432Y1524577*
X2056458Y1524578*
X2056637Y1524533*
X2056653Y1524526*
X2056786Y1524437*
X2056803Y1524418*
X2056893Y1524239*
X2056898Y1524217*
Y1522570*
X2057200*
Y1523860*
Y1523867*
X2057245Y1524179*
X2057254Y1524202*
X2057388Y1524381*
X2057398Y1524391*
X2057577Y1524525*
X2057597Y1524534*
X2057820Y1524578*
X2057840*
X2058063Y1524534*
X2058093Y1524515*
X2058227Y1524336*
X2058235Y1524322*
X2058279Y1524188*
X2058282Y1524172*
Y1522570*
X2058584*
Y1524124*
X2054923Y1523636D02*
X2054880Y1524020D01*
X2054669Y1524315*
X2054371Y1524528*
X2054033Y1524612*
X2053741Y1524571*
X2053483Y1524398*
X2053405Y1524440*
X2053406Y1524448*
X2053540Y1525296*
X2053589Y1525338*
X2054744*
Y1525640*
X2053318*
X2053023Y1524082*
X2053347Y1524046*
X2053554Y1524252*
X2053575Y1524265*
X2053888Y1524354*
X2053909Y1524356*
X2054221Y1524311*
X2054244Y1524301*
X2054423Y1524168*
X2054436Y1524153*
X2054569Y1523930*
X2054576Y1523911*
X2054621Y1523599*
Y1523585*
X2054576Y1523272*
X2054569Y1523254*
X2054436Y1523030*
X2054428Y1523021*
X2054249Y1522842*
X2054221Y1522828*
X2053909Y1522783*
X2053892Y1522784*
X2053669Y1522829*
X2053656Y1522833*
X2053477Y1522922*
X2053455Y1522944*
X2053366Y1523123*
X2053363Y1523130*
X2053287Y1523359*
X2052982Y1523325*
X2053055Y1523033*
X2053266Y1522737*
X2053561Y1522569*
X2053901Y1522526*
X2054160Y1522570*
X2054372Y1522612*
X2054538Y1522737*
X2054710Y1522908*
X2054880Y1523206*
X2054923Y1523636*
X2052200Y1522872D02*
X2051898D01*
Y1522570*
X2052200*
Y1522872*
X2051173Y1523636D02*
X2051130Y1524020D01*
X2050919Y1524315*
X2050621Y1524528*
X2050283Y1524612*
X2049991Y1524571*
X2049733Y1524398*
X2049655Y1524440*
X2049656Y1524448*
X2049790Y1525296*
X2049839Y1525338*
X2050994*
Y1525640*
X2049568*
X2049273Y1524082*
X2049597Y1524046*
X2049804Y1524252*
X2049825Y1524265*
X2050138Y1524354*
X2050159Y1524356*
X2050471Y1524311*
X2050494Y1524301*
X2050673Y1524168*
X2050686Y1524153*
X2050819Y1523930*
X2050826Y1523911*
X2050871Y1523599*
Y1523585*
X2050826Y1523272*
X2050819Y1523254*
X2050686Y1523030*
X2050678Y1523021*
X2050499Y1522842*
X2050471Y1522828*
X2050159Y1522783*
X2050142Y1522784*
X2049919Y1522829*
X2049906Y1522833*
X2049727Y1522922*
X2049705Y1522944*
X2049616Y1523123*
X2049613Y1523130*
X2049537Y1523359*
X2049232Y1523325*
X2049305Y1523033*
X2049516Y1522737*
X2049811Y1522569*
X2050151Y1522526*
X2050410Y1522570*
X2050622Y1522612*
X2050788Y1522737*
X2050960Y1522908*
X2051130Y1523206*
X2051173Y1523636*
X2048628Y1522872D02*
X2047116D01*
X2047077Y1522953*
X2047255Y1523177*
X2047264Y1523185*
X2047442Y1523319*
X2047708Y1523541*
X2048062Y1523850*
X2048282Y1524114*
X2048411Y1524286*
X2048497Y1524500*
X2048583Y1524845*
X2048541Y1525178*
X2048333Y1525428*
X2048035Y1525598*
X2047649Y1525684*
X2047266Y1525641*
X2046972Y1525473*
X2046760Y1525178*
X2046687Y1524885*
X2046987Y1524852*
X2047022Y1525030*
X2047031Y1525050*
X2047165Y1525229*
X2047175Y1525239*
X2047354Y1525373*
X2047375Y1525382*
X2047643Y1525427*
X2047661*
X2047885Y1525382*
X2047905Y1525373*
X2048083Y1525239*
X2048089Y1525234*
X2048223Y1525100*
X2048236Y1525075*
X2048281Y1524852*
Y1524832*
X2048236Y1524609*
X2048230Y1524593*
X2048096Y1524370*
X2048091Y1524363*
X2047823Y1524050*
X2047819Y1524046*
X2047416Y1523688*
X2047107Y1523423*
X2046758Y1522986*
X2046673Y1522775*
X2046639Y1522570*
X2048628*
Y1522872*
X2012552Y1585102D02*
X2012509Y1585403D01*
X2012385Y1585650*
X2012183Y1585772*
X2011889Y1585814*
X2011675Y1585771*
X2011508Y1585729*
X2011345Y1585607*
X2011216Y1585392*
X2011128Y1585395*
X2011043Y1585567*
X2010922Y1585688*
X2010712Y1585771*
X2010505Y1585813*
X2010340Y1585772*
X2010130Y1585688*
X2009869Y1585427*
X2009784Y1585462*
Y1585770*
X2009482*
Y1583548*
X2009784*
Y1584971*
X2009785Y1584983*
X2009830Y1585162*
X2009840Y1585182*
X2010063Y1585450*
X2010088Y1585466*
X2010400Y1585555*
X2010426Y1585556*
X2010605Y1585511*
X2010621Y1585504*
X2010754Y1585415*
X2010771Y1585396*
X2010861Y1585217*
X2010866Y1585195*
Y1583548*
X2011168*
Y1584837*
Y1584845*
X2011213Y1585157*
X2011222Y1585180*
X2011356Y1585359*
X2011366Y1585369*
X2011545Y1585502*
X2011565Y1585511*
X2011788Y1585556*
X2011808*
X2012031Y1585511*
X2012061Y1585492*
X2012195Y1585314*
X2012203Y1585300*
X2012247Y1585166*
X2012250Y1585150*
Y1583548*
X2012552*
Y1585102*
X2008802D02*
X2008759Y1585403D01*
X2008635Y1585650*
X2008433Y1585772*
X2008139Y1585814*
X2007925Y1585771*
X2007758Y1585729*
X2007595Y1585607*
X2007466Y1585392*
X2007378Y1585395*
X2007293Y1585567*
X2007172Y1585688*
X2006962Y1585771*
X2006755Y1585813*
X2006590Y1585772*
X2006380Y1585688*
X2006119Y1585427*
X2006034Y1585462*
Y1585770*
X2005732*
Y1583548*
X2006034*
Y1584971*
X2006035Y1584983*
X2006080Y1585162*
X2006090Y1585182*
X2006313Y1585450*
X2006338Y1585466*
X2006650Y1585555*
X2006676Y1585556*
X2006855Y1585511*
X2006871Y1585504*
X2007004Y1585415*
X2007021Y1585396*
X2007111Y1585217*
X2007116Y1585195*
Y1583548*
X2007418*
Y1584837*
Y1584845*
X2007463Y1585157*
X2007472Y1585180*
X2007606Y1585359*
X2007616Y1585369*
X2007795Y1585502*
X2007815Y1585511*
X2008038Y1585556*
X2008058*
X2008281Y1585511*
X2008311Y1585492*
X2008445Y1585314*
X2008453Y1585300*
X2008497Y1585166*
X2008500Y1585150*
Y1583548*
X2008802*
Y1585102*
X2005141Y1585500D02*
X2005054Y1585804D01*
X2004879Y1586287*
X2004753Y1586454*
X2004590Y1586576*
X2004163Y1586662*
X2003867Y1586619*
X2003616Y1586494*
X2003449Y1586285*
X2003319Y1585983*
X2003232Y1585589*
X2003187Y1585059*
Y1584665*
X2003275Y1584315*
X2003362Y1584009*
X2003487Y1583801*
X2003783Y1583589*
X2004166Y1583504*
X2004462Y1583547*
X2004462D02*
X2004712Y1583672D01*
X2004880Y1583881*
X2005009Y1584183*
X2005097Y1584577*
X2005141Y1585063*
Y1585500*
X2004839Y1585418D02*
Y1584704D01*
Y1584695*
X2004794Y1584427*
Y1584426*
X2004749Y1584203*
X2004745Y1584190*
X2004655Y1584012*
X2004642Y1583995*
X2004419Y1583816*
X2004397Y1583806*
X2004174Y1583762*
X2004154*
X2003931Y1583806*
X2003910Y1583816*
X2003687Y1583995*
X2003673Y1584012*
X2003584Y1584190*
X2003579Y1584203*
X2003535Y1584426*
Y1584427*
X2003490Y1584695*
X2003489Y1584704*
Y1585418*
X2003490Y1585425*
X2003534Y1585737*
X2003535Y1585740*
X2003579Y1585963*
X2003584Y1585976*
X2003673Y1586154*
X2003687Y1586171*
X2003910Y1586350*
X2003931Y1586360*
X2004154Y1586404*
X2004172Y1586405*
X2004440Y1586360*
X2004471Y1586342*
X2004650Y1586119*
X2004652Y1586115*
X2004742Y1585981*
X2004749Y1585963*
X2004794Y1585740*
Y1585737*
X2004839Y1585425*
Y1585418*
X2002418Y1583850D02*
X2002116D01*
Y1583548*
X2002418*
Y1583850*
X2001390Y1584437D02*
X2001348Y1584690D01*
X2001264Y1584899*
X2001099Y1585064*
X2000838Y1585194*
X2000838D02*
X2000835Y1585282D01*
X2001053Y1585413*
X2001177Y1585537*
X2001260Y1585703*
X2001301Y1585867*
X2001259Y1586201*
X2001050Y1586452*
X2000798Y1586619*
X2000414Y1586662*
X2000030Y1586619*
X1999778Y1586452*
X1999569Y1586200*
X1999527Y1585910*
X1999569Y1585702*
X1999652Y1585537*
X1999776Y1585413*
X1999993Y1585282*
X1999993D02*
X1999984Y1585192D01*
X1999727Y1585106*
X1999565Y1584944*
X1999481Y1584691*
X1999438Y1584437*
X1999524Y1584052*
X1999692Y1583757*
X2000029Y1583547*
X2000414Y1583504*
X2000799Y1583547*
X2001136Y1583757*
X2001305Y1584052*
X2001390Y1584437*
X2000998Y1585852D02*
X2000954Y1585674D01*
X2000947Y1585658*
X2000858Y1585524*
X2000838Y1585507*
X2000660Y1585418*
X2000647Y1585413*
X2000424Y1585369*
X2000404*
X2000181Y1585413*
X2000169Y1585418*
X1999990Y1585507*
X1999971Y1585524*
X1999882Y1585658*
X1999874Y1585676*
X1999829Y1585899*
X1999830Y1585921*
X1999875Y1586100*
X1999882Y1586115*
X1999971Y1586249*
X1999990Y1586266*
X2000169Y1586355*
X2000181Y1586360*
X2000404Y1586404*
X2000424*
X2000647Y1586360*
X2000660Y1586355*
X2000838Y1586266*
X2000861Y1586244*
X2000950Y1586065*
X2000954Y1586055*
X2000998Y1585876*
Y1585852*
X2001089Y1584436D02*
Y1584427D01*
X2001044Y1584160*
X2001035Y1584138*
X2000901Y1583959*
X2000891Y1583949*
X2000712Y1583815*
X2000690Y1583806*
X2000422Y1583761*
X2000414*
X2000236*
X2000208Y1583769*
X2000077Y1583857*
X1999901Y1583944*
X1999901D02*
X1999882Y1583961D01*
X1999792Y1584095*
X1999784Y1584116*
X1999740Y1584429*
X1999739Y1584436*
X1999740Y1584445*
X1999785Y1584669*
X1999791Y1584685*
X1999925Y1584908*
X1999938Y1584922*
X2000116Y1585056*
X2000138Y1585065*
X2000406Y1585110*
X2000422*
X2000690Y1585065*
X2000712Y1585056*
X2000891Y1584922*
X2000904Y1584908*
X2001037Y1584685*
X2001044Y1584669*
X2001088Y1584445*
X2001089Y1584436*
X1998311Y1586662D02*
X1998121D01*
X1998002Y1586463*
X1997994Y1586454*
X1997771Y1586231*
X1997763Y1586224*
X1997496Y1586046*
X1997493Y1586044*
X1997205Y1585880*
Y1585588*
X1997575Y1585773*
X1997929Y1586038*
X1998009Y1585998*
Y1583548*
X1998311*
Y1586662*
X1997300Y1585635D02*
Y1585934D01*
X1997400Y1585685D02*
Y1585991D01*
X1997500Y1585735D02*
Y1586049D01*
X1997600Y1585792D02*
Y1586115D01*
X1997700Y1585867D02*
Y1586182D01*
X1997800Y1585942D02*
Y1586260D01*
X1997900Y1586017D02*
Y1586360D01*
X1998000Y1586027D02*
Y1586461D01*
X1998100Y1583548D02*
Y1586627D01*
X1998200Y1583548D02*
Y1586662D01*
X1998300Y1583548D02*
Y1586662D01*
X1999500Y1584160D02*
Y1584749D01*
X1999600Y1583919D02*
Y1584979D01*
Y1585640D02*
Y1586238D01*
X1999700Y1583752D02*
Y1585079D01*
Y1585488D02*
Y1586358D01*
X1999800Y1583690D02*
Y1584084D01*
Y1584700D02*
Y1585131D01*
Y1585398D02*
Y1586466D01*
X1999900Y1583627D02*
Y1583945D01*
Y1584866D02*
Y1585164D01*
Y1585338D02*
Y1585630D01*
Y1586143D02*
Y1586533D01*
X2000000Y1583565D02*
Y1583895D01*
Y1584969D02*
Y1585201D01*
Y1585277D02*
Y1585502D01*
Y1586271D02*
Y1586599D01*
X2000100Y1583539D02*
Y1583841D01*
Y1585044D02*
Y1585452D01*
Y1586321D02*
Y1586627D01*
X2000200Y1583528D02*
Y1583774D01*
Y1585076D02*
Y1585410D01*
Y1586363D02*
Y1586638D01*
X2000300Y1583517D02*
Y1583761D01*
Y1585092D02*
Y1585390D01*
Y1586383D02*
Y1586649D01*
X2000400Y1583505D02*
Y1583761D01*
Y1585109D02*
Y1585370D01*
Y1586403D02*
Y1586661D01*
X2000500Y1583513D02*
Y1583774D01*
Y1585097D02*
Y1585384D01*
Y1586389D02*
Y1586653D01*
X2000600Y1583524D02*
Y1583791D01*
Y1585080D02*
Y1585404D01*
Y1586369D02*
Y1586641D01*
X2000700Y1583536D02*
Y1583809D01*
Y1585063D02*
Y1585438D01*
Y1586335D02*
Y1586630D01*
X2000800Y1583547D02*
Y1583881D01*
Y1584990D02*
Y1585488D01*
Y1586285D02*
Y1586618D01*
X2000900Y1583610D02*
Y1583958D01*
Y1584913D02*
Y1585164D01*
Y1585321D02*
Y1585588D01*
Y1586165D02*
Y1586552D01*
X2001000Y1583672D02*
Y1584092D01*
Y1584747D02*
Y1585114D01*
Y1585381D02*
Y1586485D01*
X2001100Y1583735D02*
Y1585063D01*
Y1585460D02*
Y1586392D01*
X2001200Y1583869D02*
Y1584963D01*
Y1585583D02*
Y1586272D01*
X2001300Y1584044D02*
Y1584810D01*
Y1585864D02*
Y1585875D01*
X2002200Y1583548D02*
Y1583850D01*
X2002300Y1583548D02*
Y1583850D01*
X2002400Y1583548D02*
Y1583850D01*
X2003200Y1584615D02*
Y1585210D01*
X2003300Y1584227D02*
Y1585897D01*
X2003400Y1583946D02*
Y1586171D01*
X2003500Y1583792D02*
Y1584635D01*
Y1585497D02*
Y1586349D01*
X2003600Y1583720D02*
Y1584158D01*
Y1586008D02*
Y1586474D01*
X2003700Y1583649D02*
Y1583984D01*
Y1586182D02*
Y1586536D01*
X2003800Y1583586D02*
Y1583904D01*
Y1586262D02*
Y1586586D01*
X2003900Y1583563D02*
Y1583824D01*
Y1586342D02*
Y1586624D01*
X2004000Y1583541D02*
Y1583792D01*
Y1586373D02*
Y1586638D01*
X2004100Y1583519D02*
Y1583773D01*
Y1586393D02*
Y1586653D01*
X2004200Y1583509D02*
Y1583767D01*
Y1586400D02*
Y1586654D01*
X2004300Y1583523D02*
Y1583787D01*
Y1586383D02*
Y1586634D01*
X2004400Y1583538D02*
Y1583807D01*
Y1586367D02*
Y1586614D01*
X2004500Y1583566D02*
Y1583881D01*
Y1586306D02*
Y1586594D01*
X2004600Y1583616D02*
Y1583961D01*
Y1586181D02*
Y1586569D01*
X2004700Y1583666D02*
Y1584101D01*
Y1586044D02*
Y1586494D01*
X2004800Y1583781D02*
Y1584464D01*
Y1585696D02*
Y1586391D01*
X2004900Y1583928D02*
Y1586228D01*
X2005000Y1584162D02*
Y1585953D01*
X2005100Y1584612D02*
Y1585644D01*
X2005800Y1583548D02*
Y1585770D01*
X2005900Y1583548D02*
Y1585770D01*
X2006000Y1583548D02*
Y1585770D01*
X2006100Y1585194D02*
Y1585415D01*
X2006200Y1585314D02*
Y1585508D01*
X2006300Y1585434D02*
Y1585608D01*
X2006400Y1585484D02*
Y1585696D01*
X2006500Y1585512D02*
Y1585736D01*
X2006600Y1585541D02*
Y1585774D01*
X2006700Y1585550D02*
Y1585799D01*
X2006800Y1585525D02*
Y1585804D01*
X2006900Y1585484D02*
Y1585784D01*
X2007000Y1585418D02*
Y1585756D01*
X2007100Y1585238D02*
Y1585716D01*
X2007200Y1583548D02*
Y1585659D01*
X2007300Y1583548D02*
Y1585552D01*
X2007400Y1583548D02*
Y1585373D01*
X2007500Y1585217D02*
Y1585449D01*
X2007600Y1585350D02*
Y1585611D01*
X2007700Y1585431D02*
Y1585686D01*
X2007800Y1585506D02*
Y1585739D01*
X2007900Y1585528D02*
Y1585764D01*
X2008000Y1585548D02*
Y1585786D01*
X2008100Y1585548D02*
Y1585806D01*
X2008200Y1585528D02*
Y1585805D01*
X2008300Y1585503D02*
Y1585790D01*
X2008400Y1585374D02*
Y1585776D01*
X2008500Y1583548D02*
Y1585731D01*
X2008600Y1583548D02*
Y1585671D01*
X2008700Y1583548D02*
Y1585520D01*
X2008800Y1583548D02*
Y1585114D01*
X2009500Y1583548D02*
Y1585770D01*
X2009600Y1583548D02*
Y1585770D01*
X2009700Y1583548D02*
Y1585770D01*
X2009800Y1585042D02*
Y1585426D01*
X2009900Y1585254D02*
Y1585458D01*
X2010000Y1585374D02*
Y1585558D01*
X2010100Y1585469D02*
Y1585658D01*
X2010200Y1585498D02*
Y1585716D01*
X2010300Y1585526D02*
Y1585756D01*
X2010400Y1585555D02*
Y1585787D01*
X2010500Y1585537D02*
Y1585812D01*
X2010600Y1585512D02*
Y1585794D01*
X2010700Y1585451D02*
Y1585774D01*
X2010800Y1585338D02*
Y1585736D01*
X2010900Y1583548D02*
Y1585696D01*
X2011000Y1583548D02*
Y1585609D01*
X2011100Y1583548D02*
Y1585452D01*
X2011200Y1585067D02*
Y1585376D01*
X2011300Y1585283D02*
Y1585532D01*
X2011400Y1585394D02*
Y1585648D01*
X2011500Y1585469D02*
Y1585723D01*
X2011600Y1585518D02*
Y1585752D01*
X2011700Y1585538D02*
Y1585776D01*
X2011800Y1585557D02*
Y1585796D01*
X2011900Y1585538D02*
Y1585812D01*
X2012000Y1585518D02*
Y1585798D01*
X2012100Y1585441D02*
Y1585783D01*
X2012200Y1585306D02*
Y1585761D01*
X2012300Y1583548D02*
Y1585701D01*
X2012400Y1583548D02*
Y1585620D01*
X2012500Y1583548D02*
Y1585420D01*
X2046700Y1522570D02*
Y1522842D01*
Y1524884D02*
Y1524937D01*
X2046800Y1522570D02*
Y1523039D01*
Y1524873D02*
Y1525233D01*
X2046900Y1522570D02*
Y1523164D01*
Y1524862D02*
Y1525373D01*
X2047000Y1522570D02*
Y1523289D01*
Y1524919D02*
Y1525490D01*
X2047100Y1522570D02*
Y1522875D01*
Y1522982D02*
Y1523414D01*
Y1525142D02*
Y1525547D01*
X2047200Y1522570D02*
Y1522872D01*
Y1523107D02*
Y1523502D01*
Y1525258D02*
Y1525604D01*
X2047300Y1522570D02*
Y1522872D01*
Y1523212D02*
Y1523588D01*
Y1525333D02*
Y1525645D01*
X2047400Y1522570D02*
Y1522872D01*
Y1523287D02*
Y1523674D01*
Y1525386D02*
Y1525656D01*
X2047500Y1522570D02*
Y1522872D01*
Y1523367D02*
Y1523762D01*
Y1525403D02*
Y1525668D01*
X2047600Y1522570D02*
Y1522872D01*
Y1523450D02*
Y1523851D01*
Y1525420D02*
Y1525679D01*
X2047700Y1522570D02*
Y1522872D01*
Y1523534D02*
Y1523940D01*
Y1525419D02*
Y1525673D01*
X2047800Y1522570D02*
Y1522872D01*
Y1523621D02*
Y1524029D01*
Y1525399D02*
Y1525650D01*
X2047900Y1522570D02*
Y1522872D01*
Y1523708D02*
Y1524140D01*
Y1525376D02*
Y1525628D01*
X2048000Y1522570D02*
Y1522872D01*
Y1523796D02*
Y1524256D01*
Y1525301D02*
Y1525606D01*
X2048100Y1522570D02*
Y1522872D01*
Y1523896D02*
Y1524376D01*
Y1525223D02*
Y1525561D01*
X2048200Y1522570D02*
Y1522872D01*
Y1524016D02*
Y1524543D01*
Y1525123D02*
Y1525504D01*
X2048300Y1522570D02*
Y1522872D01*
Y1524138D02*
Y1525447D01*
X2048400Y1522570D02*
Y1522872D01*
Y1524271D02*
Y1525348D01*
X2048500Y1522570D02*
Y1522872D01*
Y1524513D02*
Y1525228D01*
X2048600Y1522570D02*
Y1522872D01*
X2049300Y1523052D02*
Y1523333D01*
Y1524079D02*
Y1524223D01*
X2049400Y1522900D02*
Y1523344D01*
Y1524068D02*
Y1524752D01*
X2049500Y1522760D02*
Y1523355D01*
Y1524057D02*
Y1525281D01*
X2049600Y1522689D02*
Y1523169D01*
Y1524048D02*
Y1525640D01*
X2049700Y1522632D02*
Y1522955D01*
Y1524148D02*
Y1524390D01*
Y1524728D02*
Y1525640D01*
X2049800Y1522575D02*
Y1522886D01*
Y1524248D02*
Y1524443D01*
Y1525319D02*
Y1525640D01*
X2049900Y1522558D02*
Y1522836D01*
Y1524286D02*
Y1524510D01*
Y1525338D02*
Y1525640D01*
X2050000Y1522545D02*
Y1522812D01*
Y1524315D02*
Y1524572D01*
Y1525338D02*
Y1525640D01*
X2050100Y1522533D02*
Y1522792D01*
Y1524343D02*
Y1524586D01*
Y1525338D02*
Y1525640D01*
X2050200Y1522535D02*
Y1522789D01*
Y1524350D02*
Y1524601D01*
Y1525338D02*
Y1525640D01*
X2050300Y1522551D02*
Y1522804D01*
Y1524335D02*
Y1524608D01*
Y1525338D02*
Y1525640D01*
X2050400Y1522568D02*
Y1522818D01*
Y1524321D02*
Y1524583D01*
Y1525338D02*
Y1525640D01*
X2050500Y1522587D02*
Y1522843D01*
Y1524297D02*
Y1524558D01*
Y1525338D02*
Y1525640D01*
X2050600Y1522608D02*
Y1522943D01*
Y1524222D02*
Y1524533D01*
Y1525338D02*
Y1525640D01*
X2050700Y1522671D02*
Y1523055D01*
Y1524129D02*
Y1524472D01*
Y1525338D02*
Y1525640D01*
X2050800Y1522748D02*
Y1523221D01*
Y1523962D02*
Y1524400D01*
Y1525338D02*
Y1525640D01*
X2050900Y1522848D02*
Y1524329D01*
Y1525338D02*
Y1525640D01*
X2051000Y1522979D02*
Y1524202D01*
X2051100Y1523154D02*
Y1524062D01*
X2051900Y1522570D02*
Y1522872D01*
X2052000Y1522570D02*
Y1522872D01*
X2052100Y1522570D02*
Y1522872D01*
X2053000Y1523252D02*
Y1523327D01*
X2053100Y1522970D02*
Y1523338D01*
Y1524073D02*
Y1524488D01*
X2053200Y1522830D02*
Y1523349D01*
Y1524062D02*
Y1525016D01*
X2053300Y1522718D02*
Y1523319D01*
Y1524051D02*
Y1525545D01*
X2053400Y1522661D02*
Y1523055D01*
Y1524098D02*
Y1525640D01*
X2053500Y1522603D02*
Y1522911D01*
Y1524198D02*
Y1524410D01*
Y1525045D02*
Y1525640D01*
X2053600Y1522564D02*
Y1522861D01*
Y1524272D02*
Y1524477D01*
Y1525338D02*
Y1525640D01*
X2053700Y1522551D02*
Y1522822D01*
Y1524301D02*
Y1524543D01*
Y1525338D02*
Y1525640D01*
X2053800Y1522539D02*
Y1522802D01*
Y1524329D02*
Y1524579D01*
Y1525338D02*
Y1525640D01*
X2053900Y1522526D02*
Y1522783D01*
Y1524356D02*
Y1524593D01*
Y1525338D02*
Y1525640D01*
X2054000Y1522543D02*
Y1522796D01*
Y1524343D02*
Y1524608D01*
Y1525338D02*
Y1525640D01*
X2054100Y1522560D02*
Y1522811D01*
Y1524328D02*
Y1524596D01*
Y1525338D02*
Y1525640D01*
X2054200Y1522577D02*
Y1522825D01*
Y1524314D02*
Y1524571D01*
Y1525338D02*
Y1525640D01*
X2054300Y1522597D02*
Y1522893D01*
Y1524260D02*
Y1524546D01*
Y1525338D02*
Y1525640D01*
X2054400Y1522633D02*
Y1522993D01*
Y1524185D02*
Y1524507D01*
Y1525338D02*
Y1525640D01*
X2054500Y1522708D02*
Y1523138D01*
Y1524046D02*
Y1524436D01*
Y1525338D02*
Y1525640D01*
X2054600Y1522798D02*
Y1523440D01*
Y1523744D02*
Y1524364D01*
Y1525338D02*
Y1525640D01*
X2054700Y1522898D02*
Y1524272D01*
Y1525338D02*
Y1525640D01*
X2054800Y1523066D02*
Y1524132D01*
X2054900Y1523409D02*
Y1523841D01*
X2055600Y1522570D02*
Y1524792D01*
X2055700Y1522570D02*
Y1524792D01*
X2055800Y1522570D02*
Y1524792D01*
X2055900Y1524238D02*
Y1524448D01*
X2056000Y1524358D02*
Y1524548D01*
X2056100Y1524477D02*
Y1524648D01*
X2056200Y1524511D02*
Y1524725D01*
X2056300Y1524540D02*
Y1524765D01*
X2056400Y1524568D02*
Y1524801D01*
X2056500Y1524567D02*
Y1524826D01*
X2056600Y1524542D02*
Y1524823D01*
X2056700Y1524495D02*
Y1524803D01*
X2056800Y1524424D02*
Y1524771D01*
X2056900Y1522570D02*
Y1524731D01*
X2057000Y1522570D02*
Y1524664D01*
X2057100Y1522570D02*
Y1524539D01*
X2057200Y1523864D02*
Y1524390D01*
X2057300Y1524263D02*
Y1524501D01*
X2057400Y1524392D02*
Y1524646D01*
X2057500Y1524467D02*
Y1524721D01*
X2057600Y1524534D02*
Y1524766D01*
X2057700Y1524554D02*
Y1524791D01*
X2057800Y1524574D02*
Y1524812D01*
X2057900Y1524566D02*
Y1524832D01*
X2058000Y1524546D02*
Y1524824D01*
X2058100Y1524506D02*
Y1524810D01*
X2058200Y1524372D02*
Y1524796D01*
X2058300Y1522570D02*
Y1524743D01*
X2058400Y1522570D02*
Y1524683D01*
X2058500Y1522570D02*
Y1524506D01*
X2059300Y1522570D02*
Y1524792D01*
X2059400Y1522570D02*
Y1524792D01*
X2059500Y1522570D02*
Y1524792D01*
X2059600Y1524136D02*
Y1524437D01*
X2059700Y1524298D02*
Y1524498D01*
X2059800Y1524418D02*
Y1524598D01*
X2059900Y1524497D02*
Y1524698D01*
X2060000Y1524525D02*
Y1524745D01*
X2060100Y1524554D02*
Y1524785D01*
X2060200Y1524579D02*
Y1524814D01*
X2060300Y1524555D02*
Y1524833D01*
X2060400Y1524528D02*
Y1524813D01*
X2060500Y1524461D02*
Y1524791D01*
X2060600Y1524325D02*
Y1524751D01*
X2060700Y1522570D02*
Y1524711D01*
X2060800Y1522570D02*
Y1524614D01*
X2060900Y1522570D02*
Y1524439D01*
X2061000Y1524195D02*
Y1524418D01*
X2061100Y1524330D02*
Y1524584D01*
X2061200Y1524429D02*
Y1524684D01*
X2061300Y1524504D02*
Y1524754D01*
X2061400Y1524544D02*
Y1524779D01*
X2061500Y1524564D02*
Y1524802D01*
X2061600Y1524576D02*
Y1524822D01*
X2061700Y1524556D02*
Y1524832D01*
X2061800Y1524536D02*
Y1524817D01*
X2061900Y1524439D02*
Y1524803D01*
X2062000Y1524276D02*
Y1524773D01*
X2062100Y1522570D02*
Y1524713D01*
X2062200Y1522570D02*
Y1524606D01*
X2062300Y1522570D02*
Y1524360D01*
*
G04 PC Custom Flashes*
G04 Layer Name ESP32_WROOM_32D_5X5_V2- - flashes*
%LPD*%
*
*
G04 PC Circuitry*
G04 Layer Name ESP32_WROOM_32D_5X5_V2- - circuitry*
%LPD*%
*
G54D10*
X1998380Y1531884D02*
X1999423Y1532927D01*
X1998659Y1533691*
X1997616Y1532648*
X1998380Y1531884*
X1998380*
X1998280Y1531984D02*
X1998480D01*
X1998180Y1532084D02*
X1998580D01*
X1998080Y1532184D02*
X1998680D01*
X1997980Y1532284D02*
X1998780D01*
X1997880Y1532384D02*
X1998880D01*
X1997780Y1532484D02*
X1998980D01*
X1997680Y1532584D02*
X1999080D01*
X1997651Y1532684D02*
X1999180D01*
X1997751Y1532784D02*
X1999280D01*
X1997851Y1532884D02*
X1999380D01*
X1997951Y1532984D02*
X1999366D01*
X1998051Y1533084D02*
X1999266D01*
X1998151Y1533184D02*
X1999166D01*
X1998251Y1533284D02*
X1999066D01*
X1998351Y1533384D02*
X1998966D01*
X1998451Y1533484D02*
X1998866D01*
X1998551Y1533584D02*
X1998766D01*
X1998651Y1533684D02*
X1998666D01*
X1997704Y1532560D02*
Y1532736D01*
X1997804Y1532460D02*
Y1532836D01*
X1997904Y1532360D02*
Y1532936D01*
X1998004Y1532260D02*
Y1533036D01*
X1998104Y1532160D02*
Y1533136D01*
X1998204Y1532060D02*
Y1533236D01*
X1998304Y1531960D02*
Y1533336D01*
X1998404Y1531908D02*
Y1533436D01*
X1998504Y1532008D02*
Y1533536D01*
X1998604Y1532108D02*
Y1533636D01*
X1998704Y1532208D02*
Y1533646D01*
X1998804Y1532308D02*
Y1533546D01*
X1998904Y1532408D02*
Y1533446D01*
X1999004Y1532508D02*
Y1533346D01*
X1999104Y1532608D02*
Y1533246D01*
X1999204Y1532708D02*
Y1533146D01*
X1999304Y1532808D02*
Y1533046D01*
X1999404Y1532908D02*
Y1532946D01*
X1996849Y1533415D02*
X1997892Y1534458D01*
X1997128Y1535222*
X1996085Y1534180*
X1996849Y1533415*
X1996849*
X1996749Y1533515D02*
X1996949D01*
X1996649Y1533615D02*
X1997049D01*
X1996549Y1533715D02*
X1997149D01*
X1996449Y1533815D02*
X1997249D01*
X1996349Y1533915D02*
X1997349D01*
X1996249Y1534015D02*
X1997449D01*
X1996149Y1534115D02*
X1997549D01*
X1996120Y1534215D02*
X1997649D01*
X1996220Y1534315D02*
X1997749D01*
X1996320Y1534415D02*
X1997849D01*
X1996420Y1534515D02*
X1997835D01*
X1996520Y1534615D02*
X1997735D01*
X1996620Y1534715D02*
X1997635D01*
X1996720Y1534815D02*
X1997535D01*
X1996820Y1534915D02*
X1997435D01*
X1996920Y1535015D02*
X1997335D01*
X1997020Y1535115D02*
X1997235D01*
X1997120Y1535215D02*
X1997135D01*
X1996104Y1534160D02*
Y1534199D01*
X1996204Y1534060D02*
Y1534299D01*
X1996304Y1533960D02*
Y1534399D01*
X1996404Y1533860D02*
Y1534499D01*
X1996504Y1533760D02*
Y1534599D01*
X1996604Y1533660D02*
Y1534699D01*
X1996704Y1533560D02*
Y1534799D01*
X1996804Y1533460D02*
Y1534899D01*
X1996904Y1533470D02*
Y1534999D01*
X1997004Y1533570D02*
Y1535099D01*
X1997104Y1533670D02*
Y1535199D01*
X1997204Y1533770D02*
Y1535146D01*
X1997304Y1533870D02*
Y1535046D01*
X1997404Y1533970D02*
Y1534946D01*
X1997504Y1534070D02*
Y1534846D01*
X1997604Y1534170D02*
Y1534746D01*
X1997704Y1534270D02*
Y1534646D01*
X1997804Y1534370D02*
Y1534546D01*
X1995723Y1535330D02*
X1994680Y1536372D01*
X1993916Y1535608*
X1994959Y1534565*
X1995723Y1535330*
X1994959Y1534565D02*
X1994959D01*
X1994859Y1534665D02*
X1995059D01*
X1994759Y1534765D02*
X1995159D01*
X1994659Y1534865D02*
X1995259D01*
X1994559Y1534965D02*
X1995359D01*
X1994459Y1535065D02*
X1995459D01*
X1994359Y1535165D02*
X1995559D01*
X1994259Y1535265D02*
X1995659D01*
X1994159Y1535365D02*
X1995688D01*
X1994059Y1535465D02*
X1995588D01*
X1993959Y1535565D02*
X1995488D01*
X1993973Y1535665D02*
X1995388D01*
X1994073Y1535765D02*
X1995288D01*
X1994173Y1535865D02*
X1995188D01*
X1994273Y1535965D02*
X1995088D01*
X1994373Y1536065D02*
X1994988D01*
X1994473Y1536165D02*
X1994888D01*
X1994573Y1536265D02*
X1994788D01*
X1994673Y1536365D02*
X1994688D01*
X1994004Y1535520D02*
Y1535696D01*
X1994104Y1535420D02*
Y1535796D01*
X1994204Y1535320D02*
Y1535896D01*
X1994304Y1535220D02*
Y1535996D01*
X1994404Y1535120D02*
Y1536096D01*
X1994504Y1535020D02*
Y1536196D01*
X1994604Y1534920D02*
Y1536296D01*
X1994704Y1534820D02*
Y1536349D01*
X1994804Y1534720D02*
Y1536249D01*
X1994904Y1534620D02*
Y1536149D01*
X1995004Y1534610D02*
Y1536049D01*
X1995104Y1534710D02*
Y1535949D01*
X1995204Y1534810D02*
Y1535849D01*
X1995304Y1534910D02*
Y1535749D01*
X1995404Y1535010D02*
Y1535649D01*
X1995504Y1535110D02*
Y1535549D01*
X1995604Y1535210D02*
Y1535449D01*
X1995704Y1535310D02*
Y1535349D01*
X1994192Y1533798D02*
X1993149Y1534841D01*
X1992385Y1534077*
X1993428Y1533034*
X1994192Y1533798*
X1993428Y1533034D02*
X1993428D01*
X1993328Y1533134D02*
X1993528D01*
X1993228Y1533234D02*
X1993628D01*
X1993128Y1533334D02*
X1993728D01*
X1993028Y1533434D02*
X1993828D01*
X1992928Y1533534D02*
X1993928D01*
X1992828Y1533634D02*
X1994028D01*
X1992728Y1533734D02*
X1994128D01*
X1992628Y1533834D02*
X1994156D01*
X1992528Y1533934D02*
X1994056D01*
X1992428Y1534034D02*
X1993956D01*
X1992442Y1534134D02*
X1993856D01*
X1992542Y1534234D02*
X1993756D01*
X1992642Y1534334D02*
X1993656D01*
X1992742Y1534434D02*
X1993556D01*
X1992842Y1534534D02*
X1993456D01*
X1992942Y1534634D02*
X1993356D01*
X1993042Y1534734D02*
X1993256D01*
X1993142Y1534834D02*
X1993156D01*
X1992404Y1534058D02*
Y1534096D01*
X1992504Y1533958D02*
Y1534196D01*
X1992604Y1533858D02*
Y1534296D01*
X1992704Y1533758D02*
Y1534396D01*
X1992804Y1533658D02*
Y1534496D01*
X1992904Y1533558D02*
Y1534596D01*
X1993004Y1533458D02*
Y1534696D01*
X1993104Y1533358D02*
Y1534796D01*
X1993204Y1533258D02*
Y1534786D01*
X1993304Y1533158D02*
Y1534686D01*
X1993404Y1533058D02*
Y1534586D01*
X1993504Y1533110D02*
Y1534486D01*
X1993604Y1533210D02*
Y1534386D01*
X1993704Y1533310D02*
Y1534286D01*
X1993804Y1533410D02*
Y1534186D01*
X1993904Y1533510D02*
Y1534086D01*
X1994004Y1533610D02*
Y1533986D01*
X1994104Y1533710D02*
Y1533886D01*
X1991173Y1534780D02*
X1990130Y1535822D01*
X1989366Y1535058*
X1990409Y1534015*
X1991173Y1534780*
X1990409Y1534015D02*
X1990409D01*
X1990309Y1534115D02*
X1990509D01*
X1990209Y1534215D02*
X1990609D01*
X1990109Y1534315D02*
X1990709D01*
X1990009Y1534415D02*
X1990809D01*
X1989909Y1534515D02*
X1990909D01*
X1989809Y1534615D02*
X1991009D01*
X1989709Y1534715D02*
X1991109D01*
X1989609Y1534815D02*
X1991138D01*
X1989509Y1534915D02*
X1991038D01*
X1989409Y1535015D02*
X1990938D01*
X1989423Y1535115D02*
X1990838D01*
X1989523Y1535215D02*
X1990738D01*
X1989623Y1535315D02*
X1990638D01*
X1989723Y1535415D02*
X1990538D01*
X1989823Y1535515D02*
X1990438D01*
X1989923Y1535615D02*
X1990338D01*
X1990023Y1535715D02*
X1990238D01*
X1990123Y1535815D02*
X1990138D01*
X1989404Y1535020D02*
Y1535096D01*
X1989504Y1534920D02*
Y1535196D01*
X1989604Y1534820D02*
Y1535296D01*
X1989704Y1534720D02*
Y1535396D01*
X1989804Y1534620D02*
Y1535496D01*
X1989904Y1534520D02*
Y1535596D01*
X1990004Y1534420D02*
Y1535696D01*
X1990104Y1534320D02*
Y1535796D01*
X1990204Y1534220D02*
Y1535749D01*
X1990304Y1534120D02*
Y1535649D01*
X1990404Y1534020D02*
Y1535549D01*
X1990504Y1534110D02*
Y1535449D01*
X1990604Y1534210D02*
Y1535349D01*
X1990704Y1534310D02*
Y1535249D01*
X1990804Y1534410D02*
Y1535149D01*
X1990904Y1534510D02*
Y1535049D01*
X1991004Y1534610D02*
Y1534949D01*
X1991104Y1534710D02*
Y1534849D01*
X1989642Y1533248D02*
X1988599Y1534291D01*
X1987835Y1533527*
X1988878Y1532484*
X1989642Y1533248*
X1988878Y1532484D02*
X1988878D01*
X1988778Y1532584D02*
X1988978D01*
X1988678Y1532684D02*
X1989078D01*
X1988578Y1532784D02*
X1989178D01*
X1988478Y1532884D02*
X1989278D01*
X1988378Y1532984D02*
X1989378D01*
X1988278Y1533084D02*
X1989478D01*
X1988178Y1533184D02*
X1989578D01*
X1988078Y1533284D02*
X1989606D01*
X1987978Y1533384D02*
X1989506D01*
X1987878Y1533484D02*
X1989406D01*
X1987892Y1533584D02*
X1989306D01*
X1987992Y1533684D02*
X1989206D01*
X1988092Y1533784D02*
X1989106D01*
X1988192Y1533884D02*
X1989006D01*
X1988292Y1533984D02*
X1988906D01*
X1988392Y1534084D02*
X1988806D01*
X1988492Y1534184D02*
X1988706D01*
X1988592Y1534284D02*
X1988606D01*
X1987904Y1533458D02*
Y1533596D01*
X1988004Y1533358D02*
Y1533696D01*
X1988104Y1533258D02*
Y1533796D01*
X1988204Y1533158D02*
Y1533896D01*
X1988304Y1533058D02*
Y1533996D01*
X1988404Y1532958D02*
Y1534096D01*
X1988504Y1532858D02*
Y1534196D01*
X1988604Y1532758D02*
Y1534286D01*
X1988704Y1532658D02*
Y1534186D01*
X1988804Y1532558D02*
Y1534086D01*
X1988904Y1532510D02*
Y1533986D01*
X1989004Y1532610D02*
Y1533886D01*
X1989104Y1532710D02*
Y1533786D01*
X1989204Y1532810D02*
Y1533686D01*
X1989304Y1532910D02*
Y1533586D01*
X1989404Y1533010D02*
Y1533486D01*
X1989504Y1533110D02*
Y1533386D01*
X1989604Y1533210D02*
Y1533286D01*
X2000130Y1533634D02*
X2001173Y1534677D01*
X2000409Y1535441*
X1999366Y1534398*
X2000130Y1533634*
X2000130*
X2000030Y1533734D02*
X2000230D01*
X1999930Y1533834D02*
X2000330D01*
X1999830Y1533934D02*
X2000430D01*
X1999730Y1534034D02*
X2000530D01*
X1999630Y1534134D02*
X2000630D01*
X1999530Y1534234D02*
X2000730D01*
X1999430Y1534334D02*
X2000830D01*
X1999401Y1534434D02*
X2000930D01*
X1999501Y1534534D02*
X2001030D01*
X1999601Y1534634D02*
X2001130D01*
X1999701Y1534734D02*
X2001116D01*
X1999801Y1534834D02*
X2001016D01*
X1999901Y1534934D02*
X2000916D01*
X2000001Y1535034D02*
X2000816D01*
X2000101Y1535134D02*
X2000716D01*
X2000201Y1535234D02*
X2000616D01*
X2000301Y1535334D02*
X2000516D01*
X2000401Y1535434D02*
X2000416D01*
X1999404Y1534360D02*
Y1534436D01*
X1999504Y1534260D02*
Y1534536D01*
X1999604Y1534160D02*
Y1534636D01*
X1999704Y1534060D02*
Y1534736D01*
X1999804Y1533960D02*
Y1534836D01*
X1999904Y1533860D02*
Y1534936D01*
X2000004Y1533760D02*
Y1535036D01*
X2000104Y1533660D02*
Y1535136D01*
X2000204Y1533708D02*
Y1535236D01*
X2000304Y1533808D02*
Y1535336D01*
X2000404Y1533908D02*
Y1535436D01*
X2000504Y1534008D02*
Y1535346D01*
X2000604Y1534108D02*
Y1535246D01*
X2000704Y1534208D02*
Y1535146D01*
X2000804Y1534308D02*
Y1535046D01*
X2000904Y1534408D02*
Y1534946D01*
X2001004Y1534508D02*
Y1534846D01*
X2001104Y1534608D02*
Y1534746D01*
X1998599Y1535165D02*
X1999642Y1536208D01*
X1998878Y1536972*
X1997835Y1535930*
X1998599Y1535165*
X1998599*
X1998499Y1535265D02*
X1998699D01*
X1998399Y1535365D02*
X1998799D01*
X1998299Y1535465D02*
X1998899D01*
X1998199Y1535565D02*
X1998999D01*
X1998099Y1535665D02*
X1999099D01*
X1997999Y1535765D02*
X1999199D01*
X1997899Y1535865D02*
X1999299D01*
X1997870Y1535965D02*
X1999399D01*
X1997970Y1536065D02*
X1999499D01*
X1998070Y1536165D02*
X1999599D01*
X1998170Y1536265D02*
X1999585D01*
X1998270Y1536365D02*
X1999485D01*
X1998370Y1536465D02*
X1999385D01*
X1998470Y1536565D02*
X1999285D01*
X1998570Y1536665D02*
X1999185D01*
X1998670Y1536765D02*
X1999085D01*
X1998770Y1536865D02*
X1998985D01*
X1998870Y1536965D02*
X1998885D01*
X1997904Y1535860D02*
Y1535999D01*
X1998004Y1535760D02*
Y1536099D01*
X1998104Y1535660D02*
Y1536199D01*
X1998204Y1535560D02*
Y1536299D01*
X1998304Y1535460D02*
Y1536399D01*
X1998404Y1535360D02*
Y1536499D01*
X1998504Y1535260D02*
Y1536599D01*
X1998604Y1535170D02*
Y1536699D01*
X1998704Y1535270D02*
Y1536799D01*
X1998804Y1535370D02*
Y1536899D01*
X1998904Y1535470D02*
Y1536946D01*
X1999004Y1535570D02*
Y1536846D01*
X1999104Y1535670D02*
Y1536746D01*
X1999204Y1535770D02*
Y1536646D01*
X1999304Y1535870D02*
Y1536546D01*
X1999404Y1535970D02*
Y1536446D01*
X1999504Y1536070D02*
Y1536346D01*
X1999604Y1536170D02*
Y1536246D01*
X1968504Y1574503D02*
X1968507D01*
X2039370D02*
X2039373D01*
X2039370Y1474288D02*
X2039373D01*
X2039370Y1574503D02*
X2039373D01*
G54D14*
X1993504Y1538803D03*
Y1542803D03*
X1981304Y1538803D03*
Y1542803D03*
G54D36*
X2022835Y1515605D03*
Y1508519D03*
X2028740D03*
Y1515605D03*
G54D43*
X1988754Y1501553D02*
X1989254D01*
X1990433Y1502732*
Y1504961*
X2005591D02*
Y1503016D01*
X2006554Y1502053*
X2008254*
X1984004Y1515492D02*
X1984004D01*
X1988169*
X2011004Y1514353D02*
X2011854D01*
X2013604Y1512603*
X2013921*
X2007854Y1518248D02*
X2010549D01*
X2011004Y1518703*
X2003358Y1527658D02*
X2004213Y1526803D01*
Y1524646*
X2003358Y1527658D02*
X2003504Y1527803D01*
X2002835Y1524646D02*
Y1527134D01*
X2003358Y1527658*
X2006969Y1524646D02*
Y1525518D01*
X2008754Y1527303*
X1996504Y1536203D02*
X1996729Y1535978D01*
Y1535078*
X1996988Y1534819*
Y1534319*
G54D44*
X1977504Y1485886D02*
X1978171D01*
X1980022Y1484035*
X1983814*
X1977504Y1485886D02*
Y1499803D01*
X1979254Y1501553*
X1988754*
X2021020Y1550853D02*
X2022989D01*
Y1570144*
X2029576*
Y1550853*
X2032043*
Y1572113*
X2012857*
Y1561483*
X2004940*
Y1572113*
X1993917*
Y1561483*
X1986043*
Y1572113*
X1975413*
Y1553714*
X1977381*
Y1570144*
X1984074*
Y1559514*
X1995885*
Y1570144*
X2002972*
Y1559514*
X2014826*
Y1570144*
X2021020*
Y1550853*
X2012857Y1571552D02*
X2032043D01*
X2012857Y1570652D02*
X2032043D01*
X2029576Y1569752D02*
X2032043D01*
X2029576Y1568852D02*
X2032043D01*
X2029576Y1567952D02*
X2032043D01*
X2029576Y1567052D02*
X2032043D01*
X2029576Y1566152D02*
X2032043D01*
X2029576Y1565252D02*
X2032043D01*
X2029576Y1564352D02*
X2032043D01*
X2029576Y1563452D02*
X2032043D01*
X2029576Y1562552D02*
X2032043D01*
X2029576Y1561652D02*
X2032043D01*
X2029576Y1560752D02*
X2032043D01*
X2029576Y1559852D02*
X2032043D01*
X2029576Y1558952D02*
X2032043D01*
X2029576Y1558052D02*
X2032043D01*
X2029576Y1557152D02*
X2032043D01*
X2029576Y1556252D02*
X2032043D01*
X2029576Y1555352D02*
X2032043D01*
X2029576Y1554452D02*
X2032043D01*
X2029576Y1553552D02*
X2032043D01*
X2029576Y1552652D02*
X2032043D01*
X2029576Y1551752D02*
X2032043D01*
X2021020Y1569752D02*
X2022989D01*
X2021020Y1568852D02*
X2022989D01*
X2021020Y1567952D02*
X2022989D01*
X2021020Y1567052D02*
X2022989D01*
X2021020Y1566152D02*
X2022989D01*
X2021020Y1565252D02*
X2022989D01*
X2021020Y1564352D02*
X2022989D01*
X2021020Y1563452D02*
X2022989D01*
X2021020Y1562552D02*
X2022989D01*
X2021020Y1561652D02*
X2022989D01*
X2021020Y1560752D02*
X2022989D01*
X2021020Y1559852D02*
X2022989D01*
X2021020Y1558952D02*
X2022989D01*
X2021020Y1558052D02*
X2022989D01*
X2021020Y1557152D02*
X2022989D01*
X2021020Y1556252D02*
X2022989D01*
X2021020Y1555352D02*
X2022989D01*
X2021020Y1554452D02*
X2022989D01*
X2021020Y1553552D02*
X2022989D01*
X2021020Y1552652D02*
X2022989D01*
X2021020Y1551752D02*
X2022989D01*
X2012857Y1569752D02*
X2014826D01*
X2012857Y1568852D02*
X2014826D01*
X2012857Y1567952D02*
X2014826D01*
X2012857Y1567052D02*
X2014826D01*
X2012857Y1566152D02*
X2014826D01*
X2012857Y1565252D02*
X2014826D01*
X2012857Y1564352D02*
X2014826D01*
X2012857Y1563452D02*
X2014826D01*
X2012857Y1562552D02*
X2014826D01*
X2012857Y1561652D02*
X2014826D01*
X2002972Y1560752D02*
X2014826D01*
X2002972Y1559852D02*
X2014826D01*
X1993917Y1571552D02*
X2004940D01*
X1993917Y1570652D02*
X2004940D01*
X2002972Y1569752D02*
X2004940D01*
X2002972Y1568852D02*
X2004940D01*
X2002972Y1567952D02*
X2004940D01*
X2002972Y1567052D02*
X2004940D01*
X2002972Y1566152D02*
X2004940D01*
X2002972Y1565252D02*
X2004940D01*
X2002972Y1564352D02*
X2004940D01*
X2002972Y1563452D02*
X2004940D01*
X2002972Y1562552D02*
X2004940D01*
X2002972Y1561652D02*
X2004940D01*
X1993917Y1569752D02*
X1995885D01*
X1993917Y1568852D02*
X1995885D01*
X1993917Y1567952D02*
X1995885D01*
X1993917Y1567052D02*
X1995885D01*
X1993917Y1566152D02*
X1995885D01*
X1993917Y1565252D02*
X1995885D01*
X1993917Y1564352D02*
X1995885D01*
X1993917Y1563452D02*
X1995885D01*
X1993917Y1562552D02*
X1995885D01*
X1993917Y1561652D02*
X1995885D01*
X1984074Y1560752D02*
X1995885D01*
X1984074Y1559852D02*
X1995885D01*
X1975413Y1571552D02*
X1986043D01*
X1975413Y1570652D02*
X1986043D01*
X1984074Y1569752D02*
X1986043D01*
X1984074Y1568852D02*
X1986043D01*
X1984074Y1567952D02*
X1986043D01*
X1984074Y1567052D02*
X1986043D01*
X1984074Y1566152D02*
X1986043D01*
X1984074Y1565252D02*
X1986043D01*
X1984074Y1564352D02*
X1986043D01*
X1984074Y1563452D02*
X1986043D01*
X1984074Y1562552D02*
X1986043D01*
X1984074Y1561652D02*
X1986043D01*
X1975413Y1569752D02*
X1977381D01*
X1975413Y1568852D02*
X1977381D01*
X1975413Y1567952D02*
X1977381D01*
X1975413Y1567052D02*
X1977381D01*
X1975413Y1566152D02*
X1977381D01*
X1975413Y1565252D02*
X1977381D01*
X1975413Y1564352D02*
X1977381D01*
X1975413Y1563452D02*
X1977381D01*
X1975413Y1562552D02*
X1977381D01*
X1975413Y1561652D02*
X1977381D01*
X1975413Y1560752D02*
X1977381D01*
X1975413Y1559852D02*
X1977381D01*
X1975413Y1558952D02*
X1977381D01*
X1975413Y1558052D02*
X1977381D01*
X1975413Y1557152D02*
X1977381D01*
X1975413Y1556252D02*
X1977381D01*
X1975413Y1555352D02*
X1977381D01*
X1975413Y1554452D02*
X1977381D01*
X1968504Y1574681D02*
X2039370D01*
Y1474288*
X1968504*
Y1574681*
G54D45*
X2008754Y1527303D03*
X1984254Y1538303D03*
Y1540803D03*
X1990754D03*
Y1538303D03*
G54D46*
X2008254Y1502053D03*
X1984004Y1515492D03*
X2011004Y1514353D03*
Y1518703D03*
G54D47*
X2008254Y1502053D02*
X2009304Y1503103D01*
X2013421*
X1981504Y1515586D02*
X1983910D01*
X1984004Y1515492*
X2011004Y1518703D02*
X2013604Y1521303D01*
X2014921*
X2008754Y1527303D02*
X2009171Y1527720D01*
X2012304*
X2013564Y1524417D02*
X2013617Y1524470D01*
X2015254*
X2000004Y1484053D03*
X1996754Y1485553D03*
X1998254Y1489053D03*
X2003254Y1487303D03*
X1995254Y1490553D03*
X2001504Y1487303D03*
X1995004D03*
X2006504Y1490553D03*
X2004754D03*
X1983054Y1503342D03*
X1986204D03*
X1991704Y1501703D03*
X1988004Y1503342D03*
X2001457Y1499617D03*
X2003004Y1500803D03*
X2004304Y1502103D03*
X1981479Y1504303D03*
X1983754Y1512553D03*
X1984629Y1504303D03*
X2011404Y1507503D03*
X2011624Y1505427D03*
X2015504Y1505303D03*
X2013754D03*
X2016254Y1510803D03*
X2014004Y1510603D03*
X2031754Y1504803D03*
X2031972Y1507680D03*
X2032066Y1510207D03*
X2031996Y1512500D03*
X1981504Y1523553D03*
X1979004Y1518803D03*
X1978504Y1520553D03*
X1980254Y1517553D03*
X1982254D03*
X1984254Y1522553D03*
X2013404Y1518503D03*
X2020004Y1519553D03*
X2018754Y1521303D03*
X2021004D03*
X2014104Y1514503D03*
X2015804D03*
X2019504Y1517303D03*
X2015204Y1519403D03*
X2017204D03*
X2032004Y1519553D03*
X2032020Y1514769D03*
X2032066Y1517202D03*
X1981004Y1526553D03*
X1979504Y1528053D03*
Y1525053D03*
X1980754Y1532053D03*
X1985254Y1532553D03*
X2013564Y1524417D03*
X2034704Y1531303D03*
X1992754Y1536053D03*
X1995754Y1543553D03*
X1996504Y1536203D03*
X1998754Y1542303D03*
G54D49*
X2007854Y1514114D02*
X2010765D01*
X2011004Y1514353*
X2005571Y1530803D02*
Y1533718D01*
X2005574Y1533720*
X2005571Y1530803D02*
X2005591Y1530784D01*
Y1524646*
X2010504Y1543303D02*
X2015504D01*
X2010504D02*
G75*
G03X2005571Y1538803I-0J-4953D01*
G01X2005574Y1538800*
Y1535886*
X2015504Y1543303D02*
G03X2022004Y1550799I-1077J7500D01*
G01Y1550803*
G54D109*
X2000004Y1484053D02*
X2000022Y1484035D01*
X2013614*
X1986014Y1489035D02*
X1991272D01*
X1994754Y1485553*
X1996754*
X1986014Y1494035D02*
X1989772D01*
X1995004Y1488803*
Y1487303*
X2003254D02*
X2005254D01*
X2006986Y1489035*
X2013614*
X2006504Y1490553D02*
X2009986Y1494035D01*
X2013614*
X1983054Y1503342D02*
Y1508353D01*
X1986059Y1511358*
X1988169*
X1983814Y1499035D02*
X1990272D01*
X1995254Y1494053*
Y1490553*
X1993187Y1497870D02*
X1996754Y1494303D01*
Y1485553*
X1993187Y1497870D02*
Y1504958D01*
X1993189Y1504961*
X1986204Y1503342D02*
Y1507617D01*
X1987189Y1508602*
X1988169*
X1991704Y1501703D02*
X1991811Y1501810D01*
Y1504961*
X1988004Y1503342D02*
X1988504D01*
X1989055Y1503893*
Y1504961*
X2028687Y1503303D02*
Y1508465D01*
X2028740Y1508519*
X1981479Y1504303D02*
Y1508278D01*
X1985937Y1512736*
X1988169*
X1983754Y1512553D02*
X1985315Y1514114D01*
X1988169*
X1984629Y1504303D02*
Y1508178D01*
X1986431Y1509980*
X1988169*
X2002835Y1504961D02*
Y1500972D01*
X2003004Y1500803*
X2001457Y1504961D02*
Y1499617D01*
X2001457*
X2000079Y1504961D02*
Y1498978D01*
X2004754Y1494303*
Y1490553*
X1998701Y1504961D02*
Y1498856D01*
X2003254Y1494303*
Y1487303*
X1997323Y1504961D02*
Y1498484D01*
X2001504Y1494303*
Y1487303*
X1995945Y1504961D02*
Y1498112D01*
X2000004Y1494053*
Y1484053*
X1994567Y1504961D02*
Y1497990D01*
X1998254Y1494303*
Y1489053*
X2007854Y1512736D02*
X2011321D01*
X2013454Y1510603*
X2014004*
X2007854Y1511358D02*
X2011199D01*
X2013671Y1508886*
X2015504*
X2007854Y1509980D02*
X2011077D01*
X2013754Y1507303*
Y1505303*
X2007854Y1508602D02*
X2010305D01*
X2011404Y1507503*
X2006969Y1504961D02*
Y1505831D01*
X2007388Y1506250*
X2010801*
X2011624Y1505427*
X2004213Y1504961D02*
Y1502194D01*
X2004304Y1502103*
X2015504Y1505303D02*
Y1506720D01*
X1981504Y1523553D02*
X1983089D01*
X1986589Y1527053*
X1989754*
X1990433Y1526374*
Y1524646*
X1979004Y1518803D02*
X1980204Y1520003D01*
X1985304*
X1985681Y1519626*
X1988169*
X1978504Y1520553D02*
X1978955Y1521004D01*
X1988169*
X1980254Y1517553D02*
X1981604Y1518903D01*
X1984869*
X1985524Y1518248*
X1988169*
X1982254Y1517553D02*
X1984504D01*
X1985187Y1516870*
X1988169*
X1984254Y1522553D02*
X1987754Y1526053D01*
X1988635*
X1989055Y1525633*
Y1524646*
X2007854Y1521004D02*
X2009205D01*
X2012004Y1523803*
Y1524803*
X2013837Y1526636*
X2015254*
X2007854Y1519626D02*
X2009577D01*
X2013004Y1523053*
X2016337*
X2017754Y1524470*
X2007854Y1516870D02*
X2007988Y1517003D01*
X2014621*
X2015121Y1517503*
X2007854Y1515492D02*
X2009737D01*
X2010148Y1515903*
X2016404*
X2020134Y1512173*
X2025086*
X2028740Y1508519*
X2017287Y1517503D02*
X2019185Y1515605D01*
X2022835*
X2022821Y1520803D02*
Y1515619D01*
X2022835Y1515605*
X1981004Y1526553D02*
X1982720D01*
X1985220Y1529053*
X1990582*
X1993189Y1526446*
Y1524646*
X1979504Y1528053D02*
X1981880D01*
X1983880Y1530053*
X1991004*
X1994567Y1526490*
Y1524646*
X1979504Y1525053D02*
X1982905D01*
X1985905Y1528053*
X1990168*
X1991811Y1526410*
Y1524646*
X1980754Y1532053D02*
X1981754Y1531053D01*
X1991418*
X1995945Y1526526*
Y1524646*
X1985254Y1532553D02*
X1986088Y1533388D01*
X1988738*
X1990073Y1532053*
X1991832*
X1997323Y1526563*
Y1524646*
X1993288Y1533938D02*
X2000079Y1527147D01*
Y1524646*
X2017754Y1526636D02*
X2020253D01*
X2020254Y1526635*
X2017754Y1524470D02*
X2020253D01*
X2020254Y1524469*
X2015254Y1526636D02*
X2017754D01*
X1992754Y1536053D02*
X1993754D01*
X1994338Y1535469*
X1994820*
X1990270Y1534919D02*
X1990388D01*
X1998701Y1526606*
Y1524646*
X1994820Y1535469D02*
X1995204Y1535084D01*
Y1533603*
X2001457Y1527350*
Y1524646*
X2000357Y1535053D02*
X2000650D01*
X2001004Y1534700*
Y1531157*
X2000604Y1530757*
X1999604*
X1998004Y1532357*
Y1532700*
X2000357Y1535053*
X1971754Y1540200D02*
X1972107Y1540553D01*
X1982607*
X1983607Y1541553*
X1984900*
X1985254Y1541200*
Y1537657*
X1984650Y1537053*
X1972357*
X1971754Y1537657*
Y1540200*
X1991150Y1541803D02*
X1992400Y1540553D01*
X2000900*
X2001004Y1540450*
Y1537907*
X1998504Y1535407*
X1998504*
X1997987Y1535923*
X1997879Y1536185*
Y1536782*
X1997107Y1537553*
X1990107*
X1989754Y1537907*
Y1541200*
X1990357Y1541803*
X1991150*
X2027754Y1550053D02*
X2034254D01*
Y1547053*
X2027754*
Y1550053*
X1999660Y1534355D02*
X2001004D01*
X1999210Y1533905D02*
X2001004D01*
X1998760Y1533455D02*
X2001004D01*
X1998310Y1533005D02*
X2001004D01*
X1998004Y1532555D02*
X2001004D01*
X1998255Y1532105D02*
X2001004D01*
X1998705Y1531655D02*
X2001004D01*
X1999155Y1531205D02*
X2001004D01*
X2000110Y1534805D02*
X2000898D01*
X1983156Y1541102D02*
X1985254D01*
X1982706Y1540652D02*
X1985254D01*
X1971756Y1540202D02*
X1985254D01*
X1971754Y1539752D02*
X1985254D01*
X1971754Y1539302D02*
X1985254D01*
X1971754Y1538852D02*
X1985254D01*
X1971754Y1538402D02*
X1985254D01*
X1971754Y1537952D02*
X1985254D01*
X1971909Y1537502D02*
X1985099D01*
X1983606Y1541552D02*
X1984902D01*
X1989754Y1540355D02*
X2001004D01*
X1989754Y1539905D02*
X2001004D01*
X1989754Y1539455D02*
X2001004D01*
X1989754Y1539005D02*
X2001004D01*
X1989754Y1538555D02*
X2001004D01*
X1989754Y1538105D02*
X2001004D01*
X1990005Y1537655D02*
X2000753D01*
X1997455Y1537205D02*
X2000303D01*
X1997879Y1536755D02*
X1999853D01*
X1997879Y1536305D02*
X1999403D01*
X1998055Y1535855D02*
X1998953D01*
X1989754Y1540805D02*
X1992148D01*
X1989810Y1541255D02*
X1991698D01*
X1990260Y1541705D02*
X1991248D01*
X2027754Y1549752D02*
X2034254D01*
X2027754Y1549302D02*
X2034254D01*
X2027754Y1548852D02*
X2034254D01*
X2027754Y1548402D02*
X2034254D01*
X2027754Y1547952D02*
X2034254D01*
X2027754Y1547502D02*
X2034254D01*
X2038120Y1543013D02*
Y1549903D01*
G03X2037970Y1550053I-150J0*
G01X2033072*
G03X2032962Y1550005I-0J-150*
G01X2032043Y1549603D02*
G03X2032962Y1550005I0J1250D01*
G01X2032043Y1549603D02*
X2029576D01*
X2028658Y1550005D02*
G03X2029576Y1549603I918J848D01*
G01X2028658Y1550005D02*
G03X2028548Y1550053I-110J-102D01*
G01X2024017*
G03X2023907Y1550005I0J-150*
G01X2023704Y1549828D02*
G03X2023907Y1550005I-715J1025D01*
G01X2023704Y1549828D02*
G03X2023641Y1549722I86J-123D01*
G01X2015746Y1541620D02*
G03X2023641Y1549722I-1319J9183D01*
G01X2015504Y1541603D02*
G03X2015746Y1541620I-0J1700D01*
G01X2015504Y1541603D02*
X2010504D01*
G03X2007300Y1538917I-0J-3253*
X2007298Y1538890I148J-27*
G01Y1529803*
X2007293Y1529756D02*
G03X2007298Y1529803I-245J47D01*
G01X2007293Y1529756D02*
G03X2007291Y1529727I148J-29D01*
G01Y1528676*
G03X2007544Y1528568I150J0*
G01X2008895Y1529047D02*
G03X2007544Y1528568I-141J-1744D01*
G01X2008895Y1529047D02*
G03X2008933Y1529049I12J150D01*
G01X2009171Y1529070D02*
G03X2008933Y1529049I0J-1350D01*
G01X2009171Y1529070D02*
X2012304D01*
X2012455Y1529062D02*
G03X2012304Y1529070I-151J-1342D01*
G01X2012455Y1529062D02*
G03X2012472Y1529061I17J149D01*
G01X2013091*
X2013841Y1528311D02*
G03X2013091Y1529061I-750J0D01*
G01X2013841Y1528311D02*
Y1527991D01*
G03X2014071Y1527863I150J-0*
G01X2014467Y1527976D02*
G03X2014071Y1527863I-0J-750D01*
G01X2014467Y1527976D02*
X2016041D01*
X2016427Y1527870D02*
G03X2016041Y1527976I-386J-644D01*
G01X2016427Y1527870D02*
G03X2016581I77J128D01*
G01X2016967Y1527976D02*
G03X2016581Y1527870I-0J-750D01*
G01X2016967Y1527976D02*
X2018541D01*
X2018928Y1527869D02*
G03X2018541Y1527976I-387J-643D01*
G01X2018928Y1527869D02*
G03X2019082I77J129D01*
G01X2019467Y1527975D02*
G03X2019082Y1527869I-0J-750D01*
G01X2019467Y1527975D02*
X2021041D01*
X2021791Y1527225D02*
G03X2021041Y1527975I-750J0D01*
G01X2021791Y1527225D02*
Y1526044D01*
X2021669Y1525634D02*
G03X2021791Y1526044I-628J410D01*
G01X2021669Y1525634D02*
G03Y1525470I126J-82D01*
G01X2021791Y1525060D02*
G03X2021669Y1525470I-750J0D01*
G01X2021791Y1525060D02*
Y1523879D01*
X2021041Y1523129D02*
G03X2021791Y1523879I0J750D01*
G01X2021041Y1523129D02*
X2019467D01*
X2019080Y1523236D02*
G03X2019467Y1523129I387J643D01*
G01X2019080Y1523236D02*
G03X2018926I-77J-129D01*
G01X2018541Y1523130D02*
G03X2018926Y1523236I0J750D01*
G01X2018541Y1523130D02*
X2017890D01*
G03X2017784Y1523086I-0J-150*
G01X2017044Y1522346*
X2016402Y1522055D02*
G03X2017044Y1522346I-65J998D01*
G01X2016402Y1522055D02*
G03X2016262Y1521906I10J-149D01*
G01Y1521471*
G03X2016263Y1521454I150J0*
G01Y1521152D02*
G03Y1521454I-1342J151D01*
G01Y1521152D02*
G03X2016262Y1521135I149J-17D01*
G01Y1520516*
X2015512Y1519766D02*
G03X2016262Y1520516I-0J750D01*
G01X2015512Y1519766D02*
X2014331D01*
X2014118Y1519797D02*
G03X2014331Y1519766I213J719D01*
G01X2014118Y1519797D02*
G03X2013969Y1519759I-43J-144D01*
G01X2012469Y1518259*
G03X2012575Y1518003I106J-106*
G01X2013631*
G03X2013781Y1518153I-0J150*
G01Y1518291*
X2014531Y1519041D02*
G03X2013781Y1518291I-0J-750D01*
G01X2014531Y1519041D02*
X2015712D01*
X2016122Y1518919D02*
G03X2015712Y1519041I-410J-628D01*
G01X2016122Y1518919D02*
G03X2016286I82J125D01*
G01X2016696Y1519041D02*
G03X2016286Y1518919I0J-750D01*
G01X2016696Y1519041D02*
X2017877D01*
X2018627Y1518291D02*
G03X2017877Y1519041I-750J-0D01*
G01X2018627Y1518291D02*
Y1517639D01*
G03X2018671Y1517533I150J-0*
G01X2019555Y1516649*
G03X2019661Y1516605I106J106*
G01X2019966*
G03X2020116Y1516755I0J150*
G01Y1517771*
X2020866Y1518521D02*
G03X2020116Y1517771I0J-750D01*
G01X2020866Y1518521D02*
X2021671D01*
G03X2021821Y1518671I0J150*
G01Y1519311*
G03X2021764Y1519428I-150J-0*
G01X2021481Y1520016D02*
G03X2021764Y1519428I750J-0D01*
G01X2021481Y1520016D02*
Y1521591D01*
X2022231Y1522341D02*
G03X2021481Y1521591I-0J-750D01*
G01X2022231Y1522341D02*
X2023412D01*
X2024162Y1521591D02*
G03X2023412Y1522341I-750J-0D01*
G01X2024162Y1521591D02*
Y1520016D01*
X2023878Y1519428D02*
G03X2024162Y1520016I-466J588D01*
G01X2023878Y1519428D02*
G03X2023821Y1519311I93J-117D01*
G01Y1518671*
G03X2023971Y1518521I150J-0*
G01X2024803*
X2025553Y1517771D02*
G03X2024803Y1518521I-750J-0D01*
G01X2025553Y1517771D02*
Y1513440D01*
X2025518Y1513214D02*
G03X2025553Y1513440I-715J226D01*
G01X2025518Y1513214D02*
G03X2025586Y1513039I143J-45D01*
G01X2025793Y1512880D02*
G03X2025586Y1513039I-707J-707D01*
G01X2025793Y1512880D02*
X2027195Y1511478D01*
G03X2027301Y1511434I106J106*
G01X2030709*
X2031459Y1510684D02*
G03X2030709Y1511434I-750J-0D01*
G01X2031459Y1510684D02*
Y1506353D01*
X2030709Y1505603D02*
G03X2031459Y1506353I-0J750D01*
G01X2030709Y1505603D02*
X2029837D01*
G03X2029687Y1505453I-0J-150*
G01Y1504796*
G03X2029743Y1504678I150J-0*
G01X2030027Y1504091D02*
G03X2029743Y1504678I-750J-0D01*
G01X2030027Y1504091D02*
Y1502516D01*
X2029277Y1501766D02*
G03X2030027Y1502516I0J750D01*
G01X2029277Y1501766D02*
X2028096D01*
X2027346Y1502516D02*
G03X2028096Y1501766I750J-0D01*
G01X2027346Y1502516D02*
Y1504091D01*
X2027630Y1504678D02*
G03X2027346Y1504091I466J-587D01*
G01X2027630Y1504678D02*
G03X2027687Y1504796I-93J118D01*
G01Y1505453*
G03X2027537Y1505603I-150J0*
G01X2026772*
X2026022Y1506353D02*
G03X2026772Y1505603I750J0D01*
G01X2026022Y1506353D02*
Y1509761D01*
G03X2025978Y1509867I-150J-0*
G01X2024715Y1511129*
G03X2024609Y1511173I-106J-106*
G01X2020134*
X2019427Y1511466D02*
G03X2020134Y1511173I707J707D01*
G01X2019427Y1511466D02*
X2016034Y1514859D01*
G03X2015928Y1514903I-106J-106*
G01X2013292*
G03X2013186Y1514647I0J-150*
G01X2013649Y1514185*
G03X2013755Y1514141I106J106*
G01X2014512*
X2015262Y1513391D02*
G03X2014512Y1514141I-750J-0D01*
G01X2015262Y1513391D02*
Y1511816D01*
X2015163Y1511444D02*
G03X2015262Y1511816I-651J372D01*
G01X2015163Y1511444D02*
G03X2015164Y1511293I130J-74D01*
G01X2015338Y1510399D02*
G03X2015164Y1511293I-1334J204D01*
G01X2015338Y1510399D02*
G03X2015487Y1510226I149J-23D01*
G01X2016291*
X2017041Y1509476D02*
G03X2016291Y1510226I-750J0D01*
G01X2017041Y1509476D02*
Y1508295D01*
X2016919Y1507885D02*
G03X2017041Y1508295I-628J410D01*
G01X2016919Y1507885D02*
G03Y1507721I126J-82D01*
G01X2017041Y1507311D02*
G03X2016919Y1507721I-750J0D01*
G01X2017041Y1507311D02*
Y1506130D01*
X2016868Y1505650D02*
G03X2017041Y1506130I-577J480D01*
G01X2016868Y1505650D02*
G03X2016835Y1505529I115J-96D01*
G01X2014970Y1504063D02*
G03X2016835Y1505529I534J1240D01*
G01X2014970Y1504063D02*
G03X2014761Y1503919I-59J-138D01*
G01X2014762Y1503891D02*
G03X2014761Y1503919I-750J-0D01*
G01X2014762Y1503891D02*
Y1503271D01*
G03X2014763Y1503254I150J0*
G01Y1502952D02*
G03Y1503254I-1342J151D01*
G01Y1502952D02*
G03X2014762Y1502935I149J-17D01*
G01Y1502316*
X2014012Y1501566D02*
G03X2014762Y1502316I-0J750D01*
G01X2014012Y1501566D02*
X2012831D01*
X2012373Y1501722D02*
G03X2012831Y1501566I458J594D01*
G01X2012373Y1501722D02*
G03X2012281Y1501753I-92J-119D01*
G01X2009925*
G03X2009819Y1501709I0J-150*
G01X2009695Y1501585*
G03X2009660Y1501531I106J-106*
G01X2007330Y1500871D02*
G03X2009660Y1501531I924J1182D01*
G01X2007330Y1500871D02*
G03X2007238Y1500903I-92J-118D01*
G01X2006554*
X2005741Y1501240D02*
G03X2006554Y1500903I813J813D01*
G01X2005741Y1501240D02*
X2005636Y1501345D01*
G03X2005407Y1501325I-106J-106*
G01X2004473Y1500764D02*
G03X2005407Y1501325I-169J1339D01*
G01X2004473Y1500764D02*
G03X2004343Y1500634I19J-149D01*
G01X2002932Y1499455D02*
G03X2004343Y1500634I72J1348D01*
G01X2002932Y1499455D02*
G03X2002777Y1499336I-8J-150D01*
G01X2002219Y1498503D02*
G03X2002777Y1499336I-762J1114D01*
G01X2002219Y1498503D02*
G03X2002198Y1498273I85J-124D01*
G01X2005461Y1495010*
X2005754Y1494303D02*
G03X2005461Y1495010I-1000J0D01*
G01X2005754Y1494303D02*
Y1491928D01*
G03X2005964Y1491790I150J-0*
G01X2006385Y1491898D02*
G03X2005964Y1491790I119J-1345D01*
G01X2006385Y1491898D02*
G03X2006478Y1491941I-13J149D01*
G01X2007284Y1492747*
G03X2007302Y1492938I-106J106*
G01X2008914Y1495985D02*
G03X2007302Y1492938I-0J-1950D01*
G01X2008914Y1495985D02*
X2018314D01*
X2019790Y1492761D02*
G03X2018314Y1495985I-1476J1274D01*
G01X2019790Y1492761D02*
G03X2019754Y1492663I114J-98D01*
G01Y1490407*
G03X2019790Y1490309I150J-0*
G01X2018314Y1487085D02*
G03X2019790Y1490309I-0J1950D01*
G01X2018314Y1487085D02*
X2008914D01*
X2007402Y1487803D02*
G03X2008914Y1487085I1512J1232D01*
G01X2007402Y1487803D02*
G03X2007180Y1487815I-116J-94D01*
G01X2005961Y1486596*
X2005254Y1486303D02*
G03X2005961Y1486596I-0J1000D01*
G01X2005254Y1486303D02*
X2004217D01*
G03X2004121Y1486268I0J-150*
G01X2002466Y1486207D02*
G03X2004121Y1486268I788J1096D01*
G01X2002466Y1486207D02*
G03X2002291I-87J-122D01*
G01X2001189Y1485990D02*
G03X2002291Y1486207I315J1313D01*
G01X2001189Y1485990D02*
G03X2001004Y1485845I-35J-145D01*
G01Y1485185*
G03X2001154Y1485035I150J0*
G01X2006814*
G03X2006964Y1485185I-0J150*
G01Y1485235*
X2007714Y1485985D02*
G03X2006964Y1485235I-0J-750D01*
G01X2007714Y1485985D02*
X2019514D01*
X2020264Y1485235D02*
G03X2019514Y1485985I-750J0D01*
G01X2020264Y1485235D02*
Y1482835D01*
X2019514Y1482085D02*
G03X2020264Y1482835I-0J750D01*
G01X2019514Y1482085D02*
X2007714D01*
X2006964Y1482835D02*
G03X2007714Y1482085I750J0D01*
G01X2006964Y1482835D02*
Y1482885D01*
G03X2006814Y1483035I-150J0*
G01X2000945*
G03X2000851Y1483002I0J-150*
G01X1998969Y1484920D02*
G03X2000851Y1483002I1035J-867D01*
G01X1998969Y1484920D02*
G03X1999004Y1485016I-115J96D01*
G01Y1487678*
G03X1998794Y1487816I-150J0*
G01X1997939Y1487740D02*
G03X1998794Y1487816I315J1313D01*
G01X1997939Y1487740D02*
G03X1997754Y1487595I-35J-145D01*
G01Y1486516*
G03X1997789Y1486420I150J0*
G01X1995887Y1484518D02*
G03X1997789Y1486420I867J1035D01*
G01X1995887Y1484518D02*
G03X1995791Y1484553I-96J-115D01*
G01X1994754*
X1994047Y1484846D02*
G03X1994754Y1484553I707J707D01*
G01X1994047Y1484846D02*
X1991671Y1487222D01*
Y1487221D02*
G03X1991504Y1487253I-106J-106D01*
G01X1990714Y1487085D02*
G03X1991504Y1487253I-0J1950D01*
G01X1990714Y1487085D02*
X1981314D01*
X1980876Y1490935D02*
G03X1981314Y1487085I438J-1900D01*
G01X1980876Y1490935D02*
G03X1980992Y1491081I-34J146D01*
G01Y1491989*
G03X1980876Y1492135I-150J-0*
G01Y1495935D02*
G03Y1492135I438J-1900D01*
G01Y1495935D02*
G03X1980992Y1496081I-34J146D01*
G01Y1496989*
G03X1980876Y1497135I-150J-0*
G01X1979440Y1499573D02*
G03X1980876Y1497135I1874J-538D01*
G01X1979440Y1499573D02*
G03X1979189Y1499721I-145J42D01*
G01X1978798Y1499329*
G03X1978754Y1499223I106J-106*
G01Y1487136*
G03X1978802Y1487026I150J-0*
G01X1978906Y1486907D02*
G03X1978802Y1487026I-615J-431D01*
G01X1978906Y1486907D02*
G03X1978937Y1486874I123J86D01*
G01X1979055Y1486770D02*
G03X1978937Y1486874I-884J-884D01*
G01X1979055Y1486770D02*
X1980107Y1485718D01*
G03X1980292Y1485696I106J106*
G01X1981314Y1485985D02*
G03X1980292Y1485696I-0J-1950D01*
G01X1981314Y1485985D02*
X1990714D01*
Y1482085D02*
G03Y1485985I-0J1950D01*
G01Y1482085D02*
X1981314D01*
X1979834Y1482766D02*
G03X1981314Y1482085I1480J1269D01*
G01X1979834Y1482766D02*
G03X1979752Y1482815I-114J-98D01*
G01X1979138Y1483151D02*
G03X1979752Y1482815I884J884D01*
G01X1979138Y1483151D02*
X1977788Y1484501D01*
G03X1977682Y1484545I-106J-106*
G01X1976717*
X1975967Y1485295D02*
G03X1976717Y1484545I750J0D01*
G01X1975967Y1485295D02*
Y1486476D01*
X1976206Y1487026D02*
G03X1975967Y1486476I511J-550D01*
G01X1976206Y1487026D02*
G03X1976254Y1487136I-102J110D01*
G01Y1499803*
X1976620Y1500687D02*
G03X1976254Y1499803I884J-884D01*
G01X1976620Y1500687D02*
X1978370Y1502437D01*
X1979254Y1502803D02*
G03X1978370Y1502437I-0J-1250D01*
G01X1979254Y1502803D02*
X1980825D01*
G03X1980890Y1503088I0J150*
G01X1980444Y1505170D02*
G03X1980890Y1503088I1035J-867D01*
G01X1980444Y1505170D02*
G03X1980479Y1505266I-115J96D01*
G01Y1508278*
X1980772Y1508985D02*
G03X1980479Y1508278I707J-707D01*
G01X1980772Y1508985D02*
X1983003Y1511216D01*
G03X1982982Y1511445I-106J106*
G01X1983365Y1513846D02*
G03X1982982Y1511445I389J-1293D01*
G01X1983365Y1513846D02*
G03X1983384Y1514126I-43J144D01*
G01X1983219Y1514214D02*
G03X1983384Y1514126I785J1278D01*
G01X1983219Y1514214D02*
G03X1983141Y1514236I-78J-128D01*
G01X1981504*
X1981353Y1514244D02*
G03X1981504Y1514236I151J1342D01*
G01X1981353Y1514244D02*
G03X1981336Y1514245I-17J-149D01*
G01X1980717*
X1979967Y1514995D02*
G03X1980717Y1514245I750J0D01*
G01X1979967Y1514995D02*
Y1516118D01*
G03X1979860Y1516262I-150J0*
G01X1978920Y1517344D02*
G03X1979860Y1516262I1334J209D01*
G01X1978920Y1517344D02*
G03X1978795Y1517469I-148J-23D01*
G01X1977747Y1519296D02*
G03X1978795Y1517469I1257J-493D01*
G01X1977747Y1519296D02*
G03X1977697Y1519471I-140J55D01*
G01X1978486Y1521903D02*
G03X1977697Y1519471I18J-1350D01*
G01X1978486Y1521903D02*
G03X1978545Y1521916I-2J150D01*
G01X1978955Y1522004D02*
G03X1978545Y1521916I-0J-1000D01*
G01X1978955Y1522004D02*
X1980963D01*
G03X1981017Y1522294I0J150*
G01X1980156Y1523631D02*
G03X1981017Y1522294I1348J-78D01*
G01X1980156Y1523631D02*
G03X1979956Y1523781I-150J9D01*
G01X1979497Y1526403D02*
G03X1979956Y1523781I7J-1350D01*
G01X1979497Y1526403D02*
G03Y1526703I-1J150D01*
G01X1980371Y1529088D02*
G03X1979497Y1526703I-867J-1035D01*
G01X1980371Y1529088D02*
G03X1980467Y1529053I96J115D01*
G01X1981404*
G03X1981510Y1529097I-0J150*
G01X1982210Y1529797*
G03X1982104Y1530053I-106J106*
G01X1981754*
X1981047Y1530346D02*
G03X1981754Y1530053I707J707D01*
G01X1981047Y1530346D02*
X1980728Y1530665D01*
G03X1980635Y1530708I-106J-106*
G01X1982097Y1532188D02*
G03X1980635Y1530708I-1343J-135D01*
G01X1982097Y1532188D02*
G03X1982246Y1532053I149J15D01*
G01X1983795*
G03X1983941Y1532238I0J150*
G01X1985135Y1533898D02*
G03X1983941Y1532238I119J-1345D01*
G01X1985135Y1533898D02*
G03X1985228Y1533941I-13J149D01*
G01X1985381Y1534095*
X1986088Y1534388D02*
G03X1985381Y1534095I0J-1000D01*
G01X1986088Y1534388D02*
X1987502D01*
G03X1987608Y1534432I0J150*
G01X1988069Y1534892*
X1988445Y1535096D02*
G03X1988069Y1534892I154J-734D01*
G01X1988445Y1535096D02*
G03X1988561Y1535212I-31J147D01*
G01X1988765Y1535588D02*
G03X1988561Y1535212I530J-530D01*
G01X1988765Y1535588D02*
X1989600Y1536423D01*
X1989627Y1536449D02*
G03X1989600Y1536423I503J-556D01*
G01X1989627Y1536449D02*
G03X1989602Y1536690I-100J112D01*
G01X1989400Y1536846D02*
G03X1989602Y1536690I707J707D01*
G01X1989400Y1536846D02*
X1989047Y1537200D01*
X1988754Y1537907D02*
G03X1989047Y1537200I1000J-0D01*
G01X1988754Y1537907D02*
Y1541200D01*
X1989047Y1541907D02*
G03X1988754Y1541200I707J-707D01*
G01X1989047Y1541907D02*
X1989650Y1542510D01*
X1990357Y1542803D02*
G03X1989650Y1542510I0J-1000D01*
G01X1990357Y1542803D02*
X1991150D01*
X1991858Y1542510D02*
G03X1991150Y1542803I-708J-707D01*
G01X1991858Y1542510D02*
X1992771Y1541597D01*
G03X1992877Y1541553I106J106*
G01X2000900*
X2001608Y1541260D02*
G03X2000900Y1541553I-708J-707D01*
G01X2001608Y1541260D02*
X2001631Y1541237D01*
G03X2001663Y1541213I106J106*
G01X2002041Y1540561D02*
G03X2001663Y1541213I-750J0D01*
G01X2002041Y1540561D02*
Y1539380D01*
X2002010Y1539166D02*
G03X2002041Y1539380I-719J214D01*
G01X2002010Y1539166D02*
G03X2002004Y1539123I144J-43D01*
G01Y1537907*
X2001711Y1537200D02*
G03X2002004Y1537907I-707J707D01*
G01X2001711Y1537200D02*
X2000847Y1536335D01*
G03X2000862Y1536110I106J-106*
G01X2000939Y1536042D02*
G03X2000862Y1536109I-530J-530D01*
G01X2000939Y1536042D02*
X2000963Y1536018D01*
G03X2001015Y1535984I106J106*
G01X2001358Y1535760D02*
G03X2001015Y1535984I-708J-707D01*
G01X2001358Y1535760D02*
X2001711Y1535407D01*
X2002004Y1534700D02*
G03X2001711Y1535407I-1000J-0D01*
G01X2002004Y1534700D02*
Y1531699D01*
G03X2002048Y1531593I150J-0*
G01X2003635Y1530006*
G03X2003891Y1530112I106J106*
G01Y1530536*
G03X2003889Y1530557I-150J-0*
G01X2003871Y1530803D02*
G03X2003889Y1530557I1700J0D01*
G01X2003871Y1530803D02*
Y1533718D01*
X2003890Y1533971D02*
G03X2003871Y1533718I1681J-253D01*
G01X2003890Y1533971D02*
G03X2003892Y1533994I-148J23D01*
G01Y1535628*
G03X2003890Y1535649I-150J0*
G01X2003874Y1535886D02*
G03X2003890Y1535649I1700J-0D01*
G01X2003874Y1535886D02*
Y1538704D01*
G03Y1538712I-150J-0*
G01X2003878Y1538959D02*
G03X2003874Y1538712I1693J-156D01*
G01X2010504Y1545003D02*
G03X2003878Y1538959I-0J-6653D01*
G01X2010504Y1545003D02*
X2015363D01*
G03X2015387Y1545005I-0J150*
X2020218Y1549799I-960J5798*
X2020172Y1549935I-148J26*
G01X2020102Y1550005D02*
G03X2020172Y1549935I918J848D01*
G01X2020102Y1550005D02*
G03X2019992Y1550053I-110J-102D01*
G01X1969904*
G03X1969754Y1549903I-0J-150*
G01Y1542913*
G03X1969904Y1542763I150J0*
G01X1970834*
X1970975Y1542719D02*
G03X1970834Y1542763I-141J-206D01*
G01X1970975Y1542719D02*
G03X1971060Y1542693I85J124D01*
G01X1971246*
X1973014Y1541961D02*
G03X1971246Y1542693I-1768J-1768D01*
G01X1973014Y1541961D02*
X1973378Y1541597D01*
G03X1973484Y1541553I106J106*
G01X1982131*
G03X1982237Y1541597I0J150*
G01X1982900Y1542260*
X1983607Y1542553D02*
G03X1982900Y1542260I0J-1000D01*
G01X1983607Y1542553D02*
X1984900D01*
X1985608Y1542260D02*
G03X1984900Y1542553I-708J-707D01*
G01X1985608Y1542260D02*
X1985961Y1541907D01*
X1986254Y1541200D02*
G03X1985961Y1541907I-1000J-0D01*
G01X1986254Y1541200D02*
Y1537657D01*
X1985961Y1536950D02*
G03X1986254Y1537657I-707J707D01*
G01X1985961Y1536950D02*
X1985358Y1536346D01*
X1984650Y1536053D02*
G03X1985358Y1536346I0J1000D01*
G01X1984650Y1536053D02*
X1972357D01*
X1971650Y1536346D02*
G03X1972357Y1536053I707J707D01*
G01X1971650Y1536346D02*
X1971340Y1536656D01*
G03X1971084Y1536550I-106J-106*
G01Y1478033*
X1970834Y1477783D02*
G03X1971084Y1478033I-0J250D01*
G01X1970834Y1477783D02*
X1970710D01*
G03X1970637Y1477765I-0J-150*
G01X1970276Y1477671D02*
G03X1970637Y1477765I-0J750D01*
G01X1970276Y1477671D02*
X1969904D01*
G03X1969754Y1477521I-0J-150*
G01Y1475688*
G03X1969904Y1475538I150J-0*
G01X1983734*
G03X1983884Y1475688I-0J150*
G01Y1476413*
X1984134Y1476663D02*
G03X1983884Y1476413I-0J-250D01*
G01X1984134Y1476663D02*
X1984213D01*
G03X1984295Y1476687I0J150*
G01X1984704Y1476809D02*
G03X1984295Y1476687I0J-750D01*
G01X1984704Y1476809D02*
X1988248D01*
X1988657Y1476687D02*
G03X1988248Y1476809I-409J-628D01*
G01X1988657Y1476687D02*
G03X1988738Y1476663I81J126D01*
G01X1989213*
G03X1989295Y1476687I0J150*
G01X1989704Y1476809D02*
G03X1989295Y1476687I0J-750D01*
G01X1989704Y1476809D02*
X1993248D01*
X1993657Y1476687D02*
G03X1993248Y1476809I-409J-628D01*
G01X1993657Y1476687D02*
G03X1993738Y1476663I81J126D01*
G01X1994213*
G03X1994295Y1476687I0J150*
G01X1994704Y1476809D02*
G03X1994295Y1476687I0J-750D01*
G01X1994704Y1476809D02*
X1998248D01*
X1998657Y1476687D02*
G03X1998248Y1476809I-409J-628D01*
G01X1998657Y1476687D02*
G03X1998738Y1476663I81J126D01*
G01X1999213*
G03X1999295Y1476687I0J150*
G01X1999704Y1476809D02*
G03X1999295Y1476687I0J-750D01*
G01X1999704Y1476809D02*
X2003248D01*
X2003657Y1476687D02*
G03X2003248Y1476809I-409J-628D01*
G01X2003657Y1476687D02*
G03X2003738Y1476663I81J126D01*
G01X2004213*
G03X2004295Y1476687I0J150*
G01X2004704Y1476809D02*
G03X2004295Y1476687I0J-750D01*
G01X2004704Y1476809D02*
X2008248D01*
X2008657Y1476687D02*
G03X2008248Y1476809I-409J-628D01*
G01X2008657Y1476687D02*
G03X2008738Y1476663I81J126D01*
G01X2009213*
G03X2009295Y1476687I0J150*
G01X2009704Y1476809D02*
G03X2009295Y1476687I0J-750D01*
G01X2009704Y1476809D02*
X2013248D01*
X2013657Y1476687D02*
G03X2013248Y1476809I-409J-628D01*
G01X2013657Y1476687D02*
G03X2013738Y1476663I81J126D01*
G01X2014213*
G03X2014295Y1476687I0J150*
G01X2014704Y1476809D02*
G03X2014295Y1476687I0J-750D01*
G01X2014704Y1476809D02*
X2018248D01*
X2018657Y1476687D02*
G03X2018248Y1476809I-409J-628D01*
G01X2018657Y1476687D02*
G03X2018738Y1476663I81J126D01*
G01X2019213*
G03X2019295Y1476687I0J150*
G01X2019704Y1476809D02*
G03X2019295Y1476687I0J-750D01*
G01X2019704Y1476809D02*
X2023248D01*
X2023657Y1476687D02*
G03X2023248Y1476809I-409J-628D01*
G01X2023657Y1476687D02*
G03X2023738Y1476663I81J126D01*
G01X2024213*
G03X2024295Y1476687I0J150*
G01X2024704Y1476809D02*
G03X2024295Y1476687I0J-750D01*
G01X2024704Y1476809D02*
X2028248D01*
X2028657Y1476687D02*
G03X2028248Y1476809I-409J-628D01*
G01X2028657Y1476687D02*
G03X2028738Y1476663I81J126D01*
G01X2029064*
X2029314Y1476413D02*
G03X2029064Y1476663I-250J0D01*
G01X2029314Y1476413D02*
Y1475688D01*
G03X2029464Y1475538I150J-0*
G01X2037970*
G03X2038120Y1475688I-0J150*
G01Y1477521*
G03X2037970Y1477671I-150J0*
G01X2037612*
X2037127Y1477850D02*
G03X2037612Y1477671I485J571D01*
G01X2037127Y1477850D02*
G03X2037046Y1477885I-97J-114D01*
G01X2036824Y1478133D02*
G03X2037046Y1477885I250J0D01*
G01X2036824Y1478133D02*
Y1542613D01*
X2037074Y1542863D02*
G03X2036824Y1542613I-0J-250D01*
G01X2037074Y1542863D02*
X2037970D01*
G03X2038120Y1543013I-0J150*
G01X2005819Y1507285D02*
G03X2005896Y1507564I0J150D01*
G01X2005530Y1508209D02*
G03X2005896Y1507564I750J-0D01*
G01X2005530Y1508209D02*
Y1508996D01*
X2005571Y1509242D02*
G03X2005530Y1508996I709J-246D01*
G01X2005571Y1509242D02*
G03Y1509341I-142J49D01*
G01X2005530Y1509587D02*
G03X2005571Y1509341I750J-0D01*
G01X2005530Y1509587D02*
Y1510374D01*
X2005571Y1510620D02*
G03X2005530Y1510374I709J-246D01*
G01X2005571Y1510620D02*
G03Y1510719I-142J49D01*
G01X2005530Y1510965D02*
G03X2005571Y1510719I750J-0D01*
G01X2005530Y1510965D02*
Y1511752D01*
X2005571Y1511998D02*
G03X2005530Y1511752I709J-246D01*
G01X2005571Y1511998D02*
G03Y1512096I-142J49D01*
G01X2005530Y1512343D02*
G03X2005571Y1512096I750J-0D01*
G01X2005530Y1512343D02*
Y1513130D01*
X2005571Y1513376D02*
G03X2005530Y1513130I709J-246D01*
G01X2005571Y1513376D02*
G03Y1513474I-142J49D01*
G01X2005530Y1513720D02*
G03X2005571Y1513474I750J0D01*
G01X2005530Y1513720D02*
Y1514508D01*
X2005571Y1514754D02*
G03X2005530Y1514508I709J-246D01*
G01X2005571Y1514754D02*
G03Y1514852I-142J49D01*
G01X2005530Y1515098D02*
G03X2005571Y1514852I750J0D01*
G01X2005530Y1515098D02*
Y1515886D01*
X2005571Y1516132D02*
G03X2005530Y1515886I709J-246D01*
G01X2005571Y1516132D02*
G03Y1516230I-142J49D01*
G01X2005530Y1516476D02*
G03X2005571Y1516230I750J0D01*
G01X2005530Y1516476D02*
Y1517264D01*
X2005571Y1517510D02*
G03X2005530Y1517264I709J-246D01*
G01X2005571Y1517510D02*
G03Y1517608I-142J49D01*
G01X2005530Y1517854D02*
G03X2005571Y1517608I750J0D01*
G01X2005530Y1517854D02*
Y1518642D01*
X2005571Y1518888D02*
G03X2005530Y1518642I709J-246D01*
G01X2005571Y1518888D02*
G03Y1518986I-142J49D01*
G01X2005530Y1519232D02*
G03X2005571Y1518986I750J0D01*
G01X2005530Y1519232D02*
Y1520020D01*
X2005571Y1520266D02*
G03X2005530Y1520020I709J-246D01*
G01X2005571Y1520266D02*
G03Y1520364I-142J49D01*
G01X2005530Y1520610D02*
G03X2005571Y1520364I750J0D01*
G01X2005530Y1520610D02*
Y1521398D01*
X2005782Y1521959D02*
G03X2005530Y1521398I498J-561D01*
G01X2005782Y1521959D02*
G03X2005682Y1522221I-100J112D01*
G01X2005197*
X2004809Y1522314D02*
G03X2005197Y1522221I388J757D01*
G01X2004809Y1522314D02*
G03X2004718Y1522329I-68J-133D01*
G01X2004606Y1522321D02*
G03X2004718Y1522329I0J750D01*
G01X2004606Y1522321D02*
X2003819D01*
X2003573Y1522362D02*
G03X2003819Y1522321I246J709D01*
G01X2003573Y1522362D02*
G03X2003475I-49J-141D01*
G01X2003228Y1522321D02*
G03X2003475Y1522362I0J750D01*
G01X2003228Y1522321D02*
X2002441D01*
X2002195Y1522362D02*
G03X2002441Y1522321I246J709D01*
G01X2002195Y1522362D02*
G03X2002097I-49J-141D01*
G01X2001851Y1522321D02*
G03X2002097Y1522362I-0J750D01*
G01X2001851Y1522321D02*
X2001063D01*
X2000817Y1522362D02*
G03X2001063Y1522321I246J709D01*
G01X2000817Y1522362D02*
G03X2000719I-49J-141D01*
G01X2000473Y1522321D02*
G03X2000719Y1522362I-0J750D01*
G01X2000473Y1522321D02*
X1999685D01*
X1999439Y1522362D02*
G03X1999685Y1522321I246J709D01*
G01X1999439Y1522362D02*
G03X1999341I-49J-141D01*
G01X1999095Y1522321D02*
G03X1999341Y1522362I-0J750D01*
G01X1999095Y1522321D02*
X1998307D01*
X1998061Y1522362D02*
G03X1998307Y1522321I246J709D01*
G01X1998061Y1522362D02*
G03X1997963I-49J-141D01*
G01X1997717Y1522321D02*
G03X1997963Y1522362I-0J750D01*
G01X1997717Y1522321D02*
X1996929D01*
X1996683Y1522362D02*
G03X1996929Y1522321I246J709D01*
G01X1996683Y1522362D02*
G03X1996585I-49J-141D01*
G01X1996339Y1522321D02*
G03X1996585Y1522362I-0J750D01*
G01X1996339Y1522321D02*
X1995551D01*
X1995305Y1522362D02*
G03X1995551Y1522321I246J709D01*
G01X1995305Y1522362D02*
G03X1995207I-49J-141D01*
G01X1994961Y1522321D02*
G03X1995207Y1522362I-0J750D01*
G01X1994961Y1522321D02*
X1994173D01*
X1993927Y1522362D02*
G03X1994173Y1522321I246J709D01*
G01X1993927Y1522362D02*
G03X1993829I-49J-141D01*
G01X1993583Y1522321D02*
G03X1993829Y1522362I-0J750D01*
G01X1993583Y1522321D02*
X1992795D01*
X1992549Y1522362D02*
G03X1992795Y1522321I246J709D01*
G01X1992549Y1522362D02*
G03X1992451I-49J-141D01*
G01X1992205Y1522321D02*
G03X1992451Y1522362I-0J750D01*
G01X1992205Y1522321D02*
X1991417D01*
X1991171Y1522362D02*
G03X1991417Y1522321I246J709D01*
G01X1991171Y1522362D02*
G03X1991073I-49J-141D01*
G01X1990827Y1522321D02*
G03X1991073Y1522362I-0J750D01*
G01X1990827Y1522321D02*
X1990205D01*
G03X1990128Y1522042I-0J-150*
G01X1990494Y1521398D02*
G03X1990128Y1522042I-750J-0D01*
G01X1990494Y1521398D02*
Y1520610D01*
X1990453Y1520364D02*
G03X1990494Y1520610I-709J246D01*
G01X1990453Y1520364D02*
G03Y1520266I141J-49D01*
G01X1990494Y1520020D02*
G03X1990453Y1520266I-750J-0D01*
G01X1990494Y1520020D02*
Y1519232D01*
X1990453Y1518986D02*
G03X1990494Y1519232I-709J246D01*
G01X1990453Y1518986D02*
G03Y1518888I141J-49D01*
G01X1990494Y1518642D02*
G03X1990453Y1518888I-750J-0D01*
G01X1990494Y1518642D02*
Y1517854D01*
X1990453Y1517608D02*
G03X1990494Y1517854I-709J246D01*
G01X1990453Y1517608D02*
G03Y1517510I141J-49D01*
G01X1990494Y1517264D02*
G03X1990453Y1517510I-750J-0D01*
G01X1990494Y1517264D02*
Y1516476D01*
X1990453Y1516230D02*
G03X1990494Y1516476I-709J246D01*
G01X1990453Y1516230D02*
G03Y1516132I141J-49D01*
G01X1990494Y1515886D02*
G03X1990453Y1516132I-750J-0D01*
G01X1990494Y1515886D02*
Y1515098D01*
X1990453Y1514852D02*
G03X1990494Y1515098I-709J246D01*
G01X1990453Y1514852D02*
G03Y1514754I141J-49D01*
G01X1990494Y1514508D02*
G03X1990453Y1514754I-750J-0D01*
G01X1990494Y1514508D02*
Y1513720D01*
X1990453Y1513474D02*
G03X1990494Y1513720I-709J246D01*
G01X1990453Y1513474D02*
G03Y1513376I141J-49D01*
G01X1990494Y1513130D02*
G03X1990453Y1513376I-750J-0D01*
G01X1990494Y1513130D02*
Y1512343D01*
X1990453Y1512096D02*
G03X1990494Y1512343I-709J247D01*
G01X1990453Y1512096D02*
G03Y1511998I141J-49D01*
G01X1990494Y1511752D02*
G03X1990453Y1511998I-750J-0D01*
G01X1990494Y1511752D02*
Y1510965D01*
X1990453Y1510719D02*
G03X1990494Y1510965I-709J246D01*
G01X1990453Y1510719D02*
G03Y1510620I141J-50D01*
G01X1990494Y1510374D02*
G03X1990453Y1510620I-750J0D01*
G01X1990494Y1510374D02*
Y1509587D01*
X1990453Y1509341D02*
G03X1990494Y1509587I-709J246D01*
G01X1990453Y1509341D02*
G03Y1509242I141J-50D01*
G01X1990494Y1508996D02*
G03X1990453Y1509242I-750J0D01*
G01X1990494Y1508996D02*
Y1508209D01*
X1990128Y1507564D02*
G03X1990494Y1508209I-384J645D01*
G01X1990128Y1507564D02*
G03X1990205Y1507285I77J-129D01*
G01X1990827*
X1991073Y1507244D02*
G03X1990827Y1507285I-246J-709D01*
G01X1991073Y1507244D02*
G03X1991171I49J142D01*
G01X1991417Y1507285D02*
G03X1991171Y1507244I0J-750D01*
G01X1991417Y1507285D02*
X1992205D01*
X1992451Y1507244D02*
G03X1992205Y1507285I-246J-709D01*
G01X1992451Y1507244D02*
G03X1992549I49J142D01*
G01X1992795Y1507285D02*
G03X1992549Y1507244I0J-750D01*
G01X1992795Y1507285D02*
X1993583D01*
X1993829Y1507244D02*
G03X1993583Y1507285I-246J-709D01*
G01X1993829Y1507244D02*
G03X1993927I49J142D01*
G01X1994173Y1507285D02*
G03X1993927Y1507244I0J-750D01*
G01X1994173Y1507285D02*
X1994961D01*
X1995207Y1507244D02*
G03X1994961Y1507285I-246J-709D01*
G01X1995207Y1507244D02*
G03X1995305I49J142D01*
G01X1995551Y1507285D02*
G03X1995305Y1507244I0J-750D01*
G01X1995551Y1507285D02*
X1996339D01*
X1996585Y1507244D02*
G03X1996339Y1507285I-246J-709D01*
G01X1996585Y1507244D02*
G03X1996683I49J142D01*
G01X1996929Y1507285D02*
G03X1996683Y1507244I0J-750D01*
G01X1996929Y1507285D02*
X1997717D01*
X1997963Y1507244D02*
G03X1997717Y1507285I-246J-709D01*
G01X1997963Y1507244D02*
G03X1998061I49J142D01*
G01X1998307Y1507285D02*
G03X1998061Y1507244I0J-750D01*
G01X1998307Y1507285D02*
X1999095D01*
X1999341Y1507244D02*
G03X1999095Y1507285I-246J-709D01*
G01X1999341Y1507244D02*
G03X1999439I49J142D01*
G01X1999685Y1507285D02*
G03X1999439Y1507244I0J-750D01*
G01X1999685Y1507285D02*
X2000473D01*
X2000719Y1507244D02*
G03X2000473Y1507285I-246J-709D01*
G01X2000719Y1507244D02*
G03X2000817I49J142D01*
G01X2001063Y1507285D02*
G03X2000817Y1507244I0J-750D01*
G01X2001063Y1507285D02*
X2001851D01*
X2002097Y1507244D02*
G03X2001851Y1507285I-246J-709D01*
G01X2002097Y1507244D02*
G03X2002195I49J142D01*
G01X2002441Y1507285D02*
G03X2002195Y1507244I0J-750D01*
G01X2002441Y1507285D02*
X2003228D01*
X2003475Y1507244D02*
G03X2003228Y1507285I-247J-709D01*
G01X2003475Y1507244D02*
G03X2003573I49J142D01*
G01X2003819Y1507285D02*
G03X2003573Y1507244I0J-750D01*
G01X2003819Y1507285D02*
X2004606D01*
X2004852Y1507244D02*
G03X2004606Y1507285I-246J-709D01*
G01X2004852Y1507244D02*
G03X2004951I50J142D01*
G01X2005197Y1507285D02*
G03X2004951Y1507244I-0J-750D01*
G01X2005197Y1507285D02*
X2005819D01*
X1997845Y1534009D02*
G03X1997819Y1534241I-106J106D01*
G01X1997777Y1534275D02*
G03X1997819Y1534241I177J177D01*
G01X1997777Y1534275D02*
X1997126Y1534924D01*
X1997107Y1535257D02*
G03X1997126Y1534924I195J-156D01*
G01X1997107Y1535257D02*
G03X1997120Y1535425I-117J94D01*
G01X1997063Y1535541D02*
G03X1997120Y1535425I924J382D01*
G01X1997063Y1535541D02*
X1996955Y1535802D01*
X1996879Y1536185D02*
G03X1996955Y1535802I1000J-0D01*
G01X1996879Y1536185D02*
Y1536305D01*
G03X1996835Y1536411I-150J0*
G01X1996737Y1536509*
G03X1996631Y1536553I-106J-106*
G01X1995993*
G03X1995887Y1536297I0J-150*
G01X1996324Y1535860*
Y1534799D02*
G03Y1535860I-530J531D01*
G01Y1534799D02*
X1996248Y1534723D01*
G03X1996204Y1534617I106J-106*
G01Y1534080*
X1996204D02*
G03X1996248Y1533973I150J-0D01*
G01X1996923Y1533299*
G03X1997135I106J106*
G01X1997845Y1534009*
X2016220Y1525132D02*
G03X2016066Y1525296I-149J14D01*
G01X2016041Y1525295D02*
G03X2016066Y1525296I0J750D01*
G01X2016041Y1525295D02*
X2014467D01*
X2014133Y1525373D02*
G03X2014467Y1525295I334J672D01*
G01X2014133Y1525373D02*
G03X2013960Y1525345I-67J-134D01*
G01X2013048Y1524433*
G03X2013004Y1524327I106J-106*
G01Y1524203*
G03X2013154Y1524053I150J0*
G01X2015860*
G03X2015966Y1524097I0J150*
G01X2016173Y1524303*
G03X2016217Y1524409I-106J106*
G01Y1525061*
X2016220Y1525132D02*
G03X2016217Y1525061I747J-71D01*
G01X2013357Y1524742D02*
X2016217D01*
X2013807Y1525192D02*
X2016213D01*
X2013004Y1524292D02*
X2016161D01*
X1996204Y1534192D02*
X1997867D01*
X1996479Y1533742D02*
X1997578D01*
X1996206Y1534642D02*
X1997409D01*
X1996930Y1533292D02*
X1997127D01*
X1996513Y1535542D02*
X1997063D01*
X1996505Y1535092D02*
X1997053D01*
X1996192Y1535992D02*
X1996898D01*
X1995848Y1536442D02*
X1996805D01*
X1990128Y1522042D02*
X2005829D01*
X1990235Y1507642D02*
X2005788D01*
X1990445Y1516192D02*
X2005579D01*
X1990445Y1517542D02*
X2005578D01*
X1990450Y1514842D02*
X2005574D01*
X1990451Y1518892D02*
X2005572D01*
X1990459Y1513492D02*
X2005565D01*
X1990461Y1520242D02*
X2005563D01*
X1990467Y1512142D02*
X2005557D01*
X1990469Y1521592D02*
X2005555D01*
X1990474Y1510792D02*
X2005550D01*
X1990480Y1509442D02*
X2005544D01*
X1990485Y1508092D02*
X2005539D01*
X1990494Y1521142D02*
X2005530D01*
X1990494Y1520692D02*
X2005530D01*
X1990494Y1519792D02*
X2005530D01*
X1990494Y1519342D02*
X2005530D01*
X1990494Y1518442D02*
X2005530D01*
X1990494Y1517992D02*
X2005530D01*
X1990494Y1517092D02*
X2005530D01*
X1990494Y1516642D02*
X2005530D01*
X1990494Y1515742D02*
X2005530D01*
X1990494Y1515292D02*
X2005530D01*
X1990494Y1514392D02*
X2005530D01*
X1990494Y1513942D02*
X2005530D01*
X1990494Y1513042D02*
X2005530D01*
X1990494Y1512592D02*
X2005530D01*
X1990494Y1511692D02*
X2005530D01*
X1990494Y1511242D02*
X2005530D01*
X1990494Y1510342D02*
X2005530D01*
X1990494Y1509892D02*
X2005530D01*
X1990494Y1508992D02*
X2005530D01*
X1990494Y1508542D02*
X2005530D01*
X2023611Y1549492D02*
X2038120D01*
X2023535Y1549042D02*
X2038120D01*
X2023437Y1548592D02*
X2038120D01*
X2023314Y1548142D02*
X2038120D01*
X2023167Y1547692D02*
X2038120D01*
X2022993Y1547242D02*
X2038120D01*
X2022792Y1546792D02*
X2038120D01*
X2022561Y1546342D02*
X2038120D01*
X2022297Y1545892D02*
X2038120D01*
X2021998Y1545442D02*
X2038120D01*
X2021658Y1544992D02*
X2038120D01*
X2021272Y1544542D02*
X2038120D01*
X2020832Y1544092D02*
X2038120D01*
X2020324Y1543642D02*
X2038120D01*
X2019731Y1543192D02*
X2038120D01*
X1969754Y1477492D02*
X2038120D01*
X1969754Y1477042D02*
X2038120D01*
X2029239Y1476592D02*
X2038120D01*
X2029314Y1476142D02*
X2038120D01*
X2029314Y1475692D02*
X2038120D01*
X2032899Y1549942D02*
X2038115D01*
X1971067Y1477942D02*
X2036913D01*
X2019018Y1542742D02*
X2036860D01*
X2018117Y1542292D02*
X2036824D01*
X2016826Y1541842D02*
X2036824D01*
X2009351Y1541392D02*
X2036824D01*
X2008538Y1540942D02*
X2036824D01*
X2008055Y1540492D02*
X2036824D01*
X2007725Y1540042D02*
X2036824D01*
X2007497Y1539592D02*
X2036824D01*
X2007348Y1539142D02*
X2036824D01*
X2007298Y1538692D02*
X2036824D01*
X2007298Y1538242D02*
X2036824D01*
X2007298Y1537792D02*
X2036824D01*
X2007298Y1537342D02*
X2036824D01*
X2007298Y1536892D02*
X2036824D01*
X2007298Y1536442D02*
X2036824D01*
X2007298Y1535992D02*
X2036824D01*
X2007298Y1535542D02*
X2036824D01*
X2007298Y1535092D02*
X2036824D01*
X2007298Y1534642D02*
X2036824D01*
X2007298Y1534192D02*
X2036824D01*
X2007298Y1533742D02*
X2036824D01*
X2007298Y1533292D02*
X2036824D01*
X2007298Y1532842D02*
X2036824D01*
X2007298Y1532392D02*
X2036824D01*
X2007298Y1531942D02*
X2036824D01*
X2007298Y1531492D02*
X2036824D01*
X2007298Y1531042D02*
X2036824D01*
X2007298Y1530592D02*
X2036824D01*
X2007298Y1530142D02*
X2036824D01*
X2007291Y1529692D02*
X2036824D01*
X2007291Y1529242D02*
X2036824D01*
X2013667Y1528792D02*
X2036824D01*
X2013841Y1528342D02*
X2036824D01*
X2021385Y1527892D02*
X2036824D01*
X2021759Y1527442D02*
X2036824D01*
X2021791Y1526992D02*
X2036824D01*
X2021791Y1526542D02*
X2036824D01*
X2021791Y1526092D02*
X2036824D01*
X2021674Y1525642D02*
X2036824D01*
X2021780Y1525192D02*
X2036824D01*
X2021791Y1524742D02*
X2036824D01*
X2021791Y1524292D02*
X2036824D01*
X2021790Y1523842D02*
X2036824D01*
X2021612Y1523392D02*
X2036824D01*
X2017640Y1522942D02*
X2036824D01*
X2017190Y1522492D02*
X2036824D01*
X2024011Y1522042D02*
X2036824D01*
X2024162Y1521592D02*
X2036824D01*
X2024162Y1521142D02*
X2036824D01*
X2024162Y1520692D02*
X2036824D01*
X2024162Y1520242D02*
X2036824D01*
X2024128Y1519792D02*
X2036824D01*
X2023825Y1519342D02*
X2036824D01*
X2023821Y1518892D02*
X2036824D01*
X2025138Y1518442D02*
X2036824D01*
X2025520Y1517992D02*
X2036824D01*
X2025553Y1517542D02*
X2036824D01*
X2025553Y1517092D02*
X2036824D01*
X2025553Y1516642D02*
X2036824D01*
X2025553Y1516192D02*
X2036824D01*
X2025553Y1515742D02*
X2036824D01*
X2025553Y1515292D02*
X2036824D01*
X2025553Y1514842D02*
X2036824D01*
X2025553Y1514392D02*
X2036824D01*
X2025553Y1513942D02*
X2036824D01*
X2025553Y1513492D02*
X2036824D01*
X2025581Y1513042D02*
X2036824D01*
X2026081Y1512592D02*
X2036824D01*
X2026531Y1512142D02*
X2036824D01*
X2026981Y1511692D02*
X2036824D01*
X2031210Y1511242D02*
X2036824D01*
X2031451Y1510792D02*
X2036824D01*
X2031459Y1510342D02*
X2036824D01*
X2031459Y1509892D02*
X2036824D01*
X2031459Y1509442D02*
X2036824D01*
X2031459Y1508992D02*
X2036824D01*
X2031459Y1508542D02*
X2036824D01*
X2031459Y1508092D02*
X2036824D01*
X2031459Y1507642D02*
X2036824D01*
X2031459Y1507192D02*
X2036824D01*
X2031459Y1506742D02*
X2036824D01*
X2031456Y1506292D02*
X2036824D01*
X2031257Y1505842D02*
X2036824D01*
X2029687Y1505392D02*
X2036824D01*
X2029687Y1504942D02*
X2036824D01*
X2029911Y1504492D02*
X2036824D01*
X2030027Y1504042D02*
X2036824D01*
X2030027Y1503592D02*
X2036824D01*
X2030027Y1503142D02*
X2036824D01*
X2030027Y1502692D02*
X2036824D01*
X2029975Y1502242D02*
X2036824D01*
X2029473Y1501792D02*
X2036824D01*
X2009575Y1501342D02*
X2036824D01*
X2009203Y1500892D02*
X2036824D01*
X2004305Y1500442D02*
X2036824D01*
X2004083Y1499992D02*
X2036824D01*
X2003485Y1499542D02*
X2036824D01*
X2002701Y1499092D02*
X2036824D01*
X2002390Y1498642D02*
X2036824D01*
X2002279Y1498192D02*
X2036824D01*
X2002729Y1497742D02*
X2036824D01*
X2003179Y1497292D02*
X2036824D01*
X2003629Y1496842D02*
X2036824D01*
X2004079Y1496392D02*
X2036824D01*
X2018723Y1495942D02*
X2036824D01*
X2019610Y1495492D02*
X2036824D01*
X2019984Y1495042D02*
X2036824D01*
X2020183Y1494592D02*
X2036824D01*
X2020261Y1494142D02*
X2036824D01*
X2020233Y1493692D02*
X2036824D01*
X2020095Y1493242D02*
X2036824D01*
X2019816Y1492792D02*
X2036824D01*
X2019754Y1492342D02*
X2036824D01*
X2019754Y1491892D02*
X2036824D01*
X2019754Y1491442D02*
X2036824D01*
X2019754Y1490992D02*
X2036824D01*
X2019754Y1490542D02*
X2036824D01*
X2019953Y1490092D02*
X2036824D01*
X2020167Y1489642D02*
X2036824D01*
X2020258Y1489192D02*
X2036824D01*
X2020242Y1488742D02*
X2036824D01*
X2020117Y1488292D02*
X2036824D01*
X2019856Y1487842D02*
X2036824D01*
X2019364Y1487392D02*
X2036824D01*
X2006307Y1486942D02*
X2036824D01*
X2005839Y1486492D02*
X2036824D01*
X2003735Y1486042D02*
X2036824D01*
X2020174Y1485592D02*
X2036824D01*
X2020264Y1485142D02*
X2036824D01*
X2020264Y1484692D02*
X2036824D01*
X2020264Y1484242D02*
X2036824D01*
X2020264Y1483792D02*
X2036824D01*
X2020264Y1483342D02*
X2036824D01*
X2020264Y1482892D02*
X2036824D01*
X2020153Y1482442D02*
X2036824D01*
X1971084Y1481992D02*
X2036824D01*
X1971084Y1481542D02*
X2036824D01*
X1971084Y1481092D02*
X2036824D01*
X1971084Y1480642D02*
X2036824D01*
X1971084Y1480192D02*
X2036824D01*
X1971084Y1479742D02*
X2036824D01*
X1971084Y1479292D02*
X2036824D01*
X1971084Y1478842D02*
X2036824D01*
X1971084Y1478392D02*
X2036824D01*
X2023844Y1549942D02*
X2028721D01*
X2014549Y1501792D02*
X2027900D01*
X2016851Y1505392D02*
X2027687D01*
X2016805Y1504942D02*
X2027687D01*
X2016583Y1504492D02*
X2027462D01*
X2014758Y1502242D02*
X2027398D01*
X2015985Y1504042D02*
X2027346D01*
X2014762Y1503592D02*
X2027346D01*
X2014771Y1503142D02*
X2027346D01*
X2014762Y1502692D02*
X2027346D01*
X2016984Y1505842D02*
X2026223D01*
X2017041Y1506292D02*
X2026024D01*
X2017041Y1509442D02*
X2026022D01*
X2017041Y1508992D02*
X2026022D01*
X2017041Y1508542D02*
X2026022D01*
X2017013Y1508092D02*
X2026022D01*
X2016964Y1507642D02*
X2026022D01*
X2017041Y1507192D02*
X2026022D01*
X2017041Y1506742D02*
X2026022D01*
X2016916Y1509892D02*
X2025953D01*
X2015341Y1510342D02*
X2025503D01*
X2015341Y1510792D02*
X2025053D01*
X2018325Y1518892D02*
X2021821D01*
X2013552Y1519342D02*
X2021818D01*
X2016349Y1522042D02*
X2021632D01*
X2015708Y1519792D02*
X2021515D01*
X2016262Y1521592D02*
X2021481D01*
X2016262Y1521142D02*
X2021481D01*
X2016262Y1520692D02*
X2021481D01*
X2016210Y1520242D02*
X2021481D01*
X2018612Y1518442D02*
X2020532D01*
X1969759Y1549942D02*
X2020164D01*
X1969754Y1549492D02*
X2020156D01*
X2018627Y1517992D02*
X2020150D01*
X2018663Y1517542D02*
X2020116D01*
X2019112Y1517092D02*
X2020116D01*
X2019563Y1516642D02*
X2020064D01*
X1969754Y1549042D02*
X2020034D01*
X1969754Y1548592D02*
X2019872D01*
X2015193Y1511242D02*
X2019770D01*
X1969754Y1548142D02*
X2019667D01*
X1969754Y1547692D02*
X2019413D01*
X2015252Y1511692D02*
X2019201D01*
X2018887Y1527892D02*
X2019122D01*
X1969754Y1547242D02*
X2019102D01*
X2015262Y1512142D02*
X2018751D01*
X1969754Y1546792D02*
X2018722D01*
X2015262Y1512592D02*
X2018301D01*
X1969754Y1546342D02*
X2018253D01*
X2015262Y1513042D02*
X2017851D01*
X1969754Y1545892D02*
X2017655D01*
X2015255Y1513492D02*
X2017401D01*
X2015020Y1513942D02*
X2016951D01*
X1969754Y1545442D02*
X2016834D01*
X2016387Y1527892D02*
X2016621D01*
X2013442Y1514392D02*
X2016501D01*
X2013172Y1514842D02*
X2016051D01*
X2014817Y1504042D02*
X2015023D01*
X2014019Y1519792D02*
X2014135D01*
X2013879Y1527892D02*
X2014121D01*
X2013102Y1518892D02*
X2014082D01*
X2012652Y1518442D02*
X2013796D01*
X1969754Y1544992D02*
X2010116D01*
X2004529Y1495942D02*
X2008505D01*
X1969754Y1544542D02*
X2008070D01*
X2006757Y1487392D02*
X2007864D01*
X2007291Y1528792D02*
X2007834D01*
X2004979Y1495492D02*
X2007618D01*
X2007217Y1487842D02*
X2007355D01*
X2005754Y1492792D02*
X2007315D01*
X2004900Y1500892D02*
X2007295D01*
X2005429Y1495042D02*
X2007244D01*
X1969754Y1544092D02*
X2007143D01*
X2005754Y1493242D02*
X2007133D01*
X1991838Y1482442D02*
X2007075D01*
X2001004Y1485592D02*
X2007054D01*
X2005711Y1494592D02*
X2007045D01*
X2005754Y1493692D02*
X2006994D01*
X2005754Y1494142D02*
X2006967D01*
X2000692Y1482892D02*
X2006964D01*
X2001010Y1485142D02*
X2006958D01*
X2005754Y1492342D02*
X2006878D01*
X1969754Y1543642D02*
X2006471D01*
X2005758Y1491892D02*
X2006329D01*
X1969754Y1543192D02*
X2005941D01*
X2005421Y1501342D02*
X2005639D01*
X1991495Y1542742D02*
X2005506D01*
X1992076Y1542292D02*
X2005144D01*
X1992526Y1541842D02*
X2004841D01*
X2001445Y1541392D02*
X2004587D01*
X2001937Y1540942D02*
X2004376D01*
X2002041Y1540492D02*
X2004205D01*
X2002041Y1540042D02*
X2004069D01*
X2002041Y1539592D02*
X2003967D01*
X2002005Y1539142D02*
X2003898D01*
X2001576Y1535542D02*
X2003892D01*
X2001924Y1535092D02*
X2003892D01*
X2002004Y1534642D02*
X2003892D01*
X2002004Y1534192D02*
X2003892D01*
X2003499Y1530142D02*
X2003891D01*
X2003049Y1530592D02*
X2003884D01*
X2002004Y1538692D02*
X2003874D01*
X2002004Y1538242D02*
X2003874D01*
X2001997Y1537792D02*
X2003874D01*
X2001829Y1537342D02*
X2003874D01*
X2001403Y1536892D02*
X2003874D01*
X2000953Y1536442D02*
X2003874D01*
X2000999Y1535992D02*
X2003874D01*
X2002004Y1533742D02*
X2003871D01*
X2002004Y1533292D02*
X2003871D01*
X2002004Y1532842D02*
X2003871D01*
X2002004Y1532392D02*
X2003871D01*
X2002004Y1531942D02*
X2003871D01*
X2002149Y1531492D02*
X2003871D01*
X2002599Y1531042D02*
X2003871D01*
X2001985Y1486042D02*
X2002773D01*
X1992294Y1482892D02*
X1999316D01*
X1997754Y1487392D02*
X1999004D01*
X1997754Y1486942D02*
X1999004D01*
X1997756Y1486492D02*
X1999004D01*
X1998012Y1486042D02*
X1999004D01*
X1998103Y1485592D02*
X1999004D01*
X1998040Y1485142D02*
X1999004D01*
X1992537Y1483342D02*
X1998857D01*
X1997794Y1484692D02*
X1998815D01*
X1992649Y1483792D02*
X1998679D01*
X1997075Y1484242D02*
X1998667D01*
X1992653D02*
X1996433D01*
X1992550Y1484692D02*
X1994246D01*
X1992319Y1485142D02*
X1993751D01*
X1991888Y1485592D02*
X1993301D01*
X1979783Y1486042D02*
X1992851D01*
X1979333Y1486492D02*
X1992401D01*
X1978879Y1486942D02*
X1991951D01*
X1970935Y1542742D02*
X1990013D01*
X1985453Y1536442D02*
X1989619D01*
X1985574Y1542292D02*
X1989432D01*
X1985903Y1536892D02*
X1989355D01*
X1971084Y1535992D02*
X1989168D01*
X1986020Y1541842D02*
X1988987D01*
X1986203Y1537342D02*
X1988929D01*
X1986235Y1541392D02*
X1988773D01*
X1986254Y1537792D02*
X1988761D01*
X1986254Y1540942D02*
X1988754D01*
X1986254Y1540492D02*
X1988754D01*
X1986254Y1540042D02*
X1988754D01*
X1986254Y1539592D02*
X1988754D01*
X1986254Y1539142D02*
X1988754D01*
X1986254Y1538692D02*
X1988754D01*
X1986254Y1538242D02*
X1988754D01*
X1971084Y1535542D02*
X1988722D01*
X1971084Y1535092D02*
X1988427D01*
X1971084Y1534642D02*
X1987818D01*
X1971084Y1534192D02*
X1985494D01*
X1971084Y1533742D02*
X1984614D01*
X1981291Y1533292D02*
X1984124D01*
X1969754Y1476592D02*
X1983959D01*
X1981850Y1532842D02*
X1983935D01*
X1982061Y1532392D02*
X1983914D01*
X1969754Y1476142D02*
X1983884D01*
X1969754Y1475692D02*
X1983884D01*
X1971084Y1513942D02*
X1983464D01*
X1971084Y1511242D02*
X1983023D01*
X1972605Y1542292D02*
X1982933D01*
X1971084Y1513492D02*
X1982784D01*
X1971084Y1511692D02*
X1982714D01*
X1971084Y1510792D02*
X1982578D01*
X1971084Y1513042D02*
X1982495D01*
X1973133Y1541842D02*
X1982482D01*
X1971084Y1512142D02*
X1982468D01*
X1971084Y1512592D02*
X1982404D01*
X1971084Y1510342D02*
X1982128D01*
X1971084Y1529692D02*
X1982104D01*
X1971084Y1509892D02*
X1981678D01*
X1980144Y1529242D02*
X1981654D01*
X1971084Y1530142D02*
X1981342D01*
X1971084Y1509442D02*
X1981228D01*
X1971084Y1522042D02*
X1981063D01*
X1978754Y1496842D02*
X1980992D01*
X1978754Y1496392D02*
X1980992D01*
X1978754Y1491892D02*
X1980992D01*
X1978754Y1491442D02*
X1980992D01*
X1978754Y1490992D02*
X1980962D01*
X1978754Y1495942D02*
X1980897D01*
X1971084Y1530592D02*
X1980801D01*
X1971084Y1503142D02*
X1980791D01*
X1971084Y1508992D02*
X1980778D01*
X1971084Y1522492D02*
X1980670D01*
X1971084Y1508542D02*
X1980514D01*
X1971084Y1508092D02*
X1980479D01*
X1971084Y1507642D02*
X1980479D01*
X1971084Y1507192D02*
X1980479D01*
X1971084Y1506742D02*
X1980479D01*
X1971084Y1506292D02*
X1980479D01*
X1971084Y1505842D02*
X1980479D01*
X1971084Y1505392D02*
X1980479D01*
X1978754Y1497292D02*
X1980440D01*
X1978754Y1492342D02*
X1980347D01*
X1971084Y1503592D02*
X1980332D01*
X1971084Y1522942D02*
X1980300D01*
X1971084Y1504942D02*
X1980290D01*
X1971084Y1514392D02*
X1980271D01*
X1978754Y1487392D02*
X1980264D01*
X1971084Y1533292D02*
X1980217D01*
X1971084Y1482442D02*
X1980190D01*
X1971084Y1523392D02*
X1980164D01*
X1971084Y1504042D02*
X1980154D01*
X1971084Y1504492D02*
X1980142D01*
X1978754Y1490542D02*
X1980076D01*
X1978754Y1495492D02*
X1980018D01*
X1971084Y1514842D02*
X1979982D01*
X1971084Y1515742D02*
X1979967D01*
X1971084Y1515292D02*
X1979967D01*
X1971084Y1516192D02*
X1979947D01*
X1971084Y1531042D02*
X1979860D01*
X1978754Y1497742D02*
X1979855D01*
X1978754Y1492792D02*
X1979812D01*
X1978754Y1487842D02*
X1979772D01*
X1978754Y1490092D02*
X1979675D01*
X1971084Y1532842D02*
X1979658D01*
X1971084Y1526542D02*
X1979646D01*
X1978754Y1495042D02*
X1979644D01*
X1978754Y1498192D02*
X1979556D01*
X1978754Y1493242D02*
X1979533D01*
X1971084Y1531492D02*
X1979526D01*
X1971084Y1482892D02*
X1979517D01*
X1978754Y1488292D02*
X1979511D01*
X1978754Y1489642D02*
X1979461D01*
X1971084Y1532392D02*
X1979447D01*
X1978754Y1494592D02*
X1979445D01*
X1979010Y1499542D02*
X1979431D01*
X1971084Y1531942D02*
X1979409D01*
X1978754Y1498642D02*
X1979404D01*
X1978754Y1493692D02*
X1979394D01*
X1978754Y1488742D02*
X1979386D01*
X1978754Y1489192D02*
X1979370D01*
X1978754Y1494142D02*
X1979367D01*
X1978754Y1499092D02*
X1979365D01*
X1971084Y1516642D02*
X1979258D01*
X1971084Y1517092D02*
X1978985D01*
X1971084Y1483342D02*
X1978947D01*
X1971084Y1523842D02*
X1978908D01*
X1971084Y1529242D02*
X1978864D01*
X1971084Y1502692D02*
X1978738D01*
X1971084Y1526992D02*
X1978670D01*
X1971084Y1526092D02*
X1978642D01*
X1971084Y1517542D02*
X1978523D01*
X1971084Y1483792D02*
X1978497D01*
X1971084Y1524292D02*
X1978389D01*
X1971084Y1528792D02*
X1978374D01*
X1971084Y1527442D02*
X1978300D01*
X1971084Y1525642D02*
X1978289D01*
X1971084Y1524742D02*
X1978190D01*
X1971084Y1528342D02*
X1978185D01*
X1971084Y1502242D02*
X1978175D01*
X1971084Y1527892D02*
X1978164D01*
X1971084Y1525192D02*
X1978161D01*
X1971084Y1484242D02*
X1978047D01*
X1971084Y1517992D02*
X1977925D01*
X1971084Y1519342D02*
X1977757D01*
X1971084Y1501792D02*
X1977725D01*
X1971084Y1518442D02*
X1977703D01*
X1971084Y1518892D02*
X1977657D01*
X1971084Y1521592D02*
X1977642D01*
X1971084Y1519792D02*
X1977389D01*
X1971084Y1521142D02*
X1977289D01*
X1971084Y1501342D02*
X1977275D01*
X1971084Y1520242D02*
X1977190D01*
X1971084Y1520692D02*
X1977161D01*
X1971084Y1500892D02*
X1976825D01*
X1971084Y1500442D02*
X1976429D01*
X1971084Y1484692D02*
X1976271D01*
X1971084Y1499992D02*
X1976268D01*
X1971084Y1499542D02*
X1976254D01*
X1971084Y1499092D02*
X1976254D01*
X1971084Y1498642D02*
X1976254D01*
X1971084Y1498192D02*
X1976254D01*
X1971084Y1497742D02*
X1976254D01*
X1971084Y1497292D02*
X1976254D01*
X1971084Y1496842D02*
X1976254D01*
X1971084Y1496392D02*
X1976254D01*
X1971084Y1495942D02*
X1976254D01*
X1971084Y1495492D02*
X1976254D01*
X1971084Y1495042D02*
X1976254D01*
X1971084Y1494592D02*
X1976254D01*
X1971084Y1494142D02*
X1976254D01*
X1971084Y1493692D02*
X1976254D01*
X1971084Y1493242D02*
X1976254D01*
X1971084Y1492792D02*
X1976254D01*
X1971084Y1492342D02*
X1976254D01*
X1971084Y1491892D02*
X1976254D01*
X1971084Y1491442D02*
X1976254D01*
X1971084Y1490992D02*
X1976254D01*
X1971084Y1490542D02*
X1976254D01*
X1971084Y1490092D02*
X1976254D01*
X1971084Y1489642D02*
X1976254D01*
X1971084Y1489192D02*
X1976254D01*
X1971084Y1488742D02*
X1976254D01*
X1971084Y1488292D02*
X1976254D01*
X1971084Y1487842D02*
X1976254D01*
X1971084Y1487392D02*
X1976254D01*
X1971084Y1486942D02*
X1976128D01*
X1971084Y1485142D02*
X1975982D01*
X1971084Y1486492D02*
X1975967D01*
X1971084Y1486042D02*
X1975967D01*
X1971084Y1485592D02*
X1975967D01*
X1971084Y1536442D02*
X1971555D01*
X1968504Y1585373D02*
X1993664D01*
X1968504D02*
X1973504Y1586373D01*
Y1584373*
X1968504Y1585373*
X2039370D02*
X2014210D01*
X2039370D02*
X2034370Y1584373D01*
Y1586373*
X2039370Y1585373*
X1968504Y1576503D02*
Y1587373D01*
X2039370Y1576503D02*
Y1587373D01*
X2054344Y1474288D02*
Y1519520D01*
Y1474288D02*
X2053344Y1479288D01*
X2055344*
X2054344Y1474288*
Y1574503D02*
Y1529270D01*
Y1574503D02*
X2055344Y1569503D01*
X2053344*
X2054344Y1574503*
X2041370Y1474288D02*
X2056344D01*
X2041370Y1574503D02*
X2056344D01*
G54D115*
X2039370Y1545193D03*
X1968504Y1530193D03*
X1996476Y1474287D03*
X2039370Y1530193D03*
X1968504Y1525193D03*
X2001476Y1474287D03*
X2039370Y1525193D03*
X1968504Y1520193D03*
X2006476Y1474287D03*
X2039370Y1520193D03*
X1968504Y1515193D03*
X1981476Y1474287D03*
X2011476D03*
X2039370Y1515193D03*
X1968504Y1510193D03*
X2016476Y1474287D03*
X2039370Y1510193D03*
X1968504Y1505193D03*
X2021476Y1474287D03*
X2039370Y1505193D03*
X1968504Y1500193D03*
X2026476Y1474287D03*
X1968504Y1545193D03*
X2039370Y1500193D03*
X1968504Y1495193D03*
X2039370D03*
X1968504Y1490193D03*
X2039370D03*
X1968504Y1485193D03*
X2039370D03*
X1968504Y1480193D03*
X2039384D03*
X1968504Y1540193D03*
X1986476Y1474287D03*
X2039370Y1540193D03*
X1968504Y1535193D03*
X1991476Y1474287D03*
X2039370Y1535193D03*
G54D120*
X2022004Y1550803D03*
X2030810D03*
X1970459Y1476146D03*
X1977004Y1481803D03*
X1977662Y1476208D03*
X1974880D03*
X1973754Y1482053D03*
Y1479303D03*
X1976254Y1479053D03*
X1978754D03*
X1983004Y1481303D03*
X1975254Y1484053D03*
X1984504Y1479303D03*
X1986004Y1481303D03*
X1988254Y1479303D03*
X1993004Y1479803D03*
X1990754Y1481053D03*
X1995004Y1483803D03*
Y1481303D03*
X2003504Y1479803D03*
X2009004Y1479303D03*
X2013004Y1480803D03*
X2006504Y1481803D03*
X2015754Y1480803D03*
X2017754Y1479303D03*
X2031754Y1476303D03*
X2026754Y1481803D03*
X2031754Y1482053D03*
X2033254Y1478303D03*
X2030254D03*
X2024504Y1483303D03*
X2029254D03*
X2037254Y1476303D03*
X2034004Y1483303D03*
X2034754Y1476303D03*
X1973717Y1492931D03*
X1975504Y1489803D03*
X1973754Y1487803D03*
X1980304Y1491503D03*
Y1486503D03*
X2006754Y1486553D03*
X2021504Y1491803D03*
X2021754Y1488303D03*
X2028004Y1486803D03*
X2023754D03*
X2030004Y1488303D03*
X2027504Y1491803D03*
X2024742Y1491786D03*
X2032004Y1486803D03*
X2030797Y1491849D03*
X2025754Y1488303D03*
X2034504Y1491803D03*
X2034104Y1488403D03*
X1973404Y1497603D03*
X1980304Y1496503D03*
X2018504Y1501553D03*
X2021004Y1500553D03*
X2020754Y1503053D03*
X2017754Y1504053D03*
X2023404Y1502903D03*
X2031004Y1502553D03*
X2029004Y1500803D03*
X2026504D03*
X2023754Y1500553D03*
X2033804Y1497203D03*
X1980254Y1511803D03*
X1977754Y1507553D03*
X1979504Y1509303D03*
X1992000Y1511777D03*
Y1508777D03*
X2001000Y1511777D03*
Y1508777D03*
X1995000Y1511777D03*
X1998000Y1508777D03*
X1995000D03*
X1998000Y1511777D03*
X2004000Y1508777D03*
Y1511777D03*
X2022254Y1505153D03*
X2018004Y1508303D03*
X2019504Y1510303D03*
X2017754Y1512053D03*
X2019304Y1506103D03*
X2024754Y1505153D03*
X1992004Y1517803D03*
Y1520803D03*
Y1514803D03*
X2001004D03*
X1998004D03*
X2001004Y1520803D03*
Y1517803D03*
X1998004D03*
X1995004Y1514803D03*
X1998004Y1520803D03*
X1995004D03*
Y1517803D03*
X2004004Y1514803D03*
Y1520803D03*
Y1517803D03*
X2030254Y1521053D03*
X2027004D03*
X2028754Y1519053D03*
X1973254Y1527303D03*
X1975754Y1533803D03*
X2003254D03*
Y1531303D03*
X2010254Y1529803D03*
X2013004Y1532053D03*
X2008004Y1532803D03*
X2010504Y1532303D03*
X2021004Y1530303D03*
X2022754Y1524803D03*
X2023004Y1532053D03*
X2016504Y1532553D03*
X2020004Y1532803D03*
X2018004Y1530303D03*
X2015004D03*
X2025254Y1534053D03*
X2031254Y1533803D03*
X2029004Y1531803D03*
X2026504Y1529303D03*
X2025504Y1525303D03*
X2031904Y1524403D03*
X2028204Y1524503D03*
X2031704Y1528103D03*
X2030104Y1526203D03*
X1973254Y1534553D03*
X1973504Y1543303D03*
X1978254Y1535053D03*
X1981004Y1534553D03*
X1983504Y1543803D03*
X1983754Y1535303D03*
X1988504Y1543803D03*
X1991004D03*
X1986004D03*
X2003004Y1538803D03*
Y1536303D03*
X2000504Y1543803D03*
X2003004D03*
X2012254Y1536053D03*
X2012504Y1538553D03*
X2010004Y1538053D03*
X2012254Y1541053D03*
X2009504Y1540803D03*
X2008004Y1536303D03*
X2010004Y1534803D03*
X2005504Y1543553D03*
X2003754Y1541303D03*
X2021004Y1537053D03*
X2021754Y1534553D03*
X2023504Y1539053D03*
X2023254Y1541553D03*
X2018254Y1538553D03*
X2019004Y1535303D03*
X2020754Y1539553D03*
X2016504Y1536053D03*
X2015254Y1538303D03*
X2014254Y1534303D03*
X2020504Y1542803D03*
X2018004Y1541553D03*
X2015004Y1541053D03*
X2027504Y1535803D03*
X2023754Y1536303D03*
X2026254Y1538303D03*
X2028504Y1540053D03*
X2026004Y1541303D03*
X2028504Y1542703D03*
X2033504Y1535303D03*
X2032254Y1541053D03*
X2031004Y1543303D03*
X2025504Y1544053D03*
X2030754Y1538803D03*
X2034504Y1537803D03*
X2034254Y1542553D03*
X1971504Y1548803D03*
X1973504Y1546303D03*
X1974254Y1548803D03*
X1977254D03*
X1980604D03*
X1980754Y1545303D03*
X1982504Y1547053D03*
X1977504Y1544553D03*
X1978754Y1546803D03*
X1976004Y1546553D03*
X1987504Y1546303D03*
X1984604Y1548803D03*
X1988204D03*
X1991604D03*
X1990004Y1546553D03*
X1985004Y1546303D03*
X1992504D03*
X1997254Y1548803D03*
X2000254D03*
X2003504D03*
X1998004Y1545053D03*
X1994504Y1548803D03*
X2003004Y1546303D03*
X2000254D03*
X1995254Y1546053D03*
X2008754Y1547303D03*
X2010754Y1548803D03*
X2013254Y1548053D03*
X2013004Y1545553D03*
X2010504D03*
X2007504Y1545053D03*
X2006754Y1548803D03*
X2005504Y1546553D03*
X2022504Y1544303D03*
X2015754Y1548803D03*
X2019504Y1549053D03*
X2017754Y1547303D03*
X2015754Y1545803D03*
X2030004Y1548803D03*
X2027004D03*
X2024254D03*
Y1546303D03*
X2030004Y1545803D03*
X2032754Y1548803D03*
X2033004Y1544803D03*
X2027004Y1546303D03*
X2036254Y1548803D03*
X2034504Y1547053D03*
G54D164*
X1968504Y1540193D02*
X1971246D01*
X1972254Y1539186*
G54D169*
X1998012Y1514803D03*
G54D174*
X2006969Y1524646D03*
X2005591D03*
X2004213D03*
X2002835D03*
X2001457D03*
X2000079D03*
X1998701D03*
X1997323D03*
X1995945D03*
X1994567D03*
X1993189D03*
X1991811D03*
X1990433D03*
X1989055D03*
Y1504961D03*
X1990433D03*
X1991811D03*
X1993189D03*
X1994567D03*
X1995945D03*
X1997323D03*
X1998701D03*
X2000079D03*
X2001457D03*
X2002835D03*
X2004213D03*
X2005591D03*
X2006969D03*
G54D175*
X1988169Y1521004D03*
Y1519626D03*
Y1518248D03*
Y1516870D03*
Y1515492D03*
Y1514114D03*
Y1512736D03*
Y1511358D03*
Y1509980D03*
Y1508602D03*
X2007854D03*
Y1509980D03*
Y1511358D03*
Y1512736D03*
Y1514114D03*
Y1515492D03*
Y1516870D03*
Y1518248D03*
Y1519626D03*
Y1521004D03*
G54D178*
X2000004Y1531303D02*
X2003504Y1527803D01*
G54D179*
X2030810Y1547209D02*
Y1550803D01*
G54D186*
X2013614Y1484035D03*
G54D187*
Y1489035D03*
Y1494035D03*
Y1499035D03*
X1986014D03*
Y1494035D03*
Y1489035D03*
Y1484035D03*
G54D188*
X2022821Y1520803D03*
X2024987D03*
X2005571Y1530803D03*
X2007737D03*
Y1538803D03*
X2005571D03*
X2028687Y1503303D03*
X2026521D03*
X2013921Y1512603D03*
X2016087D03*
X2014921Y1521303D03*
X2017087D03*
X2013421Y1503103D03*
X2015587D03*
X2017287Y1517503D03*
X2015121D03*
G54D189*
X2000504Y1539970D03*
Y1542136D03*
X1997004Y1539970D03*
Y1542136D03*
X1977504Y1485886D03*
Y1483720D03*
X1981504Y1515586D03*
Y1513420D03*
X2015254Y1526636D03*
Y1524470D03*
X2020254Y1524469D03*
Y1526635D03*
X2012304Y1527720D03*
Y1529886D03*
X2005574Y1533720D03*
Y1535886D03*
X2017754Y1524470D03*
Y1526636D03*
X2015504Y1508886D03*
Y1506720D03*
G54D190*
X1977254Y1539725D03*
Y1542481D03*
G74*
X0Y0D02*
M02*
