<?xml version="1.0" encoding="UTF-8"?>
<!DOCTYPE svg PUBLIC "-//W3C//DTD SVG 1.1//EN" "http://www.w3.org/Graphics/SVG/1.1/DTD/svg11.dtd">
<svg version="1.1" xmlns="http://www.w3.org/2000/svg" xmlns:xlink="http://www.w3.org/1999/xlink" x="0" y="0" width="100" height="105" viewBox="0, 0, 100, 105">
  <g id="Background">
    <rect x="0" y="0" width="100" height="105" fill="#000000"/>
  </g>
  <g id="layer1">
    <g id="Character">
      <path d="M100,0 L100,105 L0,105 L0,105 L100,105 L100,0 L100,0 z" fill="#00AF2E"/>
      <path d="M49.684,8.222 L50.422,8.332 C51.752,8.842 52,11.07 52,22.5 C52,32.98 52.308,36.181 53.353,36.582 C55.374,37.358 72.518,34.387 75.976,32.662 C79.253,31.027 80.981,32.113 78.966,34.541 C77.591,36.198 68.266,39.257 59.075,41.065 L51.983,42.539 L53.5,45.896 C54.438,50.964 64.06,70.813 69.714,79.344 C78.171,92.105 84.565,97.856 90.828,98.337 C92.755,98.485 93.5,99.095 93.5,100.521 C93.5,103.104 89.55,103.524 85.5,101.374 C74.779,95.681 58.89,73.503 52.455,55.25 C50.735,50.37 49.046,45.318 48,51.504 C47.571,54.038 39.375,71.121 34.011,79.152 C28.512,87.386 16.514,99.826 15.862,97.871 C15.645,97.218 14.592,96.76 20.705,91.362 C32.219,81.194 47.42,51.106 46.426,44.127 C46.129,42.036 44.977,42.488 33.564,42.218 C22.14,41.948 18.486,41.041 19.276,38.672 C19.487,38.04 24.971,37.617 33.559,37.572 L47.5,37.5 L47.822,29.5 C48,25.1 47.586,19.118 46.902,16.206 C45.821,11.601 45.867,10.705 47.252,9.319 C48.463,8.389 47.697,8.841 49.684,8.222 z" fill="#00AF2E"/>
      <path d="M42.304,73 C45.75,73 54,85.669 54,90.96 C54.038,90.556 53.966,92.79 54.088,92.269 C54.04,93.309 53.195,94.484 51.964,93.985 C50.892,93.551 50.678,92.837 50.225,91.962 L50,91.383 C50,87.986 46.578,80.762 43.654,77.987 C40.829,75.305 40.205,73 42.304,73 z" fill="#00AF2E"/>
    </g>
    <text transform="matrix(1, 0, 0, 1, 47.711, 97.5)">
      <tspan x="-11.823" y="3.5" font-family="Lato-Light" font-size="11" kerning="-0.5" fill="#00AF2E">Kanzi</tspan>
    </text>
  </g>
</svg>
