*
*
G04 PADS 9.5 Build Number: 522968 generated Gerber (RS-274-X) file*
G04 PC Version=2.1*
*
%IN "ESP32_WROOM32_UFL_5X5_V"*%
*
%MOIN*%
*
%FSLAX35Y35*%
*
*
*
*
G04 PC Standard Apertures*
*
*
G04 Thermal Relief Aperture macro.*
%AMTER*
1,1,$1,0,0*
1,0,$1-$2,0,0*
21,0,$3,$4,0,0,45*
21,0,$3,$4,0,0,135*
%
*
*
G04 Annular Aperture macro.*
%AMANN*
1,1,$1,0,0*
1,0,$2,0,0*
%
*
*
G04 Odd Aperture macro.*
%AMODD*
1,1,$1,0,0*
1,0,$1-0.005,0,0*
%
*
*
G04 PC Custom Aperture Macros*
*
*
*
*
*
*
G04 PC Aperture Table*
*
%ADD010C,0.001*%
%ADD044C,0.01*%
%ADD109C,0.005*%
*
*
*
*
G04 PC Circuitry*
G04 Layer Name ESP32_WROOM32_UFL_5X5_V - circuitry*
%LPD*%
*
G54D10*
G01X2064117Y1612327D02*
X2064074Y1612628D01*
X2063950Y1612876*
X2063748Y1612997*
X2063454Y1613039*
X2063240Y1612996*
X2063073Y1612954*
X2062910Y1612832*
X2062781Y1612617*
X2062693Y1612621*
X2062608Y1612792*
X2062487Y1612913*
X2062277Y1612997*
X2062070Y1613038*
X2061905Y1612997*
X2061695Y1612913*
X2061434Y1612652*
X2061349Y1612688*
Y1612995*
X2061047*
Y1610773*
X2061349*
Y1612197*
X2061350Y1612209*
X2061395Y1612387*
X2061405Y1612407*
X2061628Y1612675*
X2061653Y1612691*
X2061966Y1612780*
X2061991Y1612781*
X2062170Y1612736*
X2062186Y1612729*
X2062319Y1612640*
X2062336Y1612621*
X2062426Y1612442*
X2062431Y1612420*
Y1610773*
X2062733*
Y1612063*
Y1612070*
X2062778Y1612382*
X2062787Y1612405*
X2062921Y1612584*
X2062931Y1612594*
X2063110Y1612728*
X2063130Y1612737*
X2063353Y1612781*
X2063373*
X2063596Y1612737*
X2063626Y1612718*
X2063760Y1612539*
X2063768Y1612525*
X2063812Y1612391*
X2063815Y1612375*
Y1610773*
X2064117*
Y1612327*
X2060367D02*
X2060324Y1612628D01*
X2060200Y1612876*
X2059998Y1612997*
X2059704Y1613039*
X2059490Y1612996*
X2059323Y1612954*
X2059160Y1612832*
X2059031Y1612617*
X2058943Y1612621*
X2058858Y1612792*
X2058737Y1612913*
X2058527Y1612997*
X2058320Y1613038*
X2058155Y1612997*
X2057945Y1612913*
X2057684Y1612652*
X2057599Y1612688*
Y1612995*
X2057297*
Y1610773*
X2057599*
Y1612197*
X2057600Y1612209*
X2057645Y1612387*
X2057655Y1612407*
X2057878Y1612675*
X2057903Y1612691*
X2058216Y1612780*
X2058241Y1612781*
X2058420Y1612736*
X2058436Y1612729*
X2058569Y1612640*
X2058586Y1612621*
X2058676Y1612442*
X2058681Y1612420*
Y1610773*
X2058983*
Y1612063*
Y1612070*
X2059028Y1612382*
X2059037Y1612405*
X2059171Y1612584*
X2059181Y1612594*
X2059360Y1612728*
X2059380Y1612737*
X2059603Y1612781*
X2059623*
X2059846Y1612737*
X2059876Y1612718*
X2060010Y1612539*
X2060018Y1612525*
X2060062Y1612391*
X2060065Y1612375*
Y1610773*
X2060367*
Y1612327*
X2056706Y1612725D02*
X2056619Y1613029D01*
X2056444Y1613512*
X2056319Y1613679*
X2056155Y1613802*
X2055728Y1613887*
X2055432Y1613845*
X2055181Y1613719*
X2055014Y1613510*
X2054884Y1613208*
X2054797Y1612814*
X2054752Y1612284*
Y1611890*
X2054840Y1611540*
X2054927Y1611235*
X2055052Y1611026*
X2055348Y1610815*
X2055731Y1610730*
X2056027Y1610772*
X2056277Y1610897*
X2056445Y1611106*
X2056445D02*
X2056574Y1611408D01*
X2056662Y1611803*
X2056706Y1612288*
Y1612725*
X2056404Y1612643D02*
Y1611929D01*
Y1611921*
X2056359Y1611653*
Y1611651*
X2056314Y1611428*
X2056310Y1611415*
X2056220Y1611237*
X2056207Y1611220*
X2055984Y1611042*
X2055962Y1611032*
X2055739Y1610987*
X2055719*
X2055496Y1611032*
X2055475Y1611042*
X2055252Y1611220*
X2055238Y1611237*
X2055149Y1611415*
X2055144Y1611428*
X2055144D02*
X2055100Y1611651D01*
Y1611653*
X2055055Y1611921*
X2055054Y1611929*
Y1612643*
X2055055Y1612650*
X2055099Y1612963*
X2055100Y1612965*
X2055144Y1613189*
X2055144D02*
X2055149Y1613201D01*
X2055238Y1613380*
X2055252Y1613396*
X2055475Y1613575*
X2055496Y1613585*
X2055719Y1613630*
X2055737*
X2056005Y1613585*
X2056036Y1613567*
X2056215Y1613344*
X2056217Y1613340*
X2056307Y1613207*
X2056314Y1613189*
X2056359Y1612965*
Y1612963*
X2056404Y1612650*
Y1612643*
X2054161Y1611075D02*
X2052649D01*
X2052610Y1611156*
X2052788Y1611380*
X2052797Y1611388*
X2052975Y1611522*
X2053241Y1611744*
X2053595Y1612053*
X2053815Y1612317*
X2053944Y1612489*
X2054030Y1612703*
X2054116Y1613048*
X2054074Y1613381*
X2053866Y1613631*
X2053568Y1613801*
X2053182Y1613887*
X2052799Y1613845*
X2052505Y1613677*
X2052293Y1613381*
X2052220Y1613088*
X2052520Y1613055*
X2052555Y1613233*
X2052564Y1613253*
X2052698Y1613432*
X2052708Y1613442*
X2052887Y1613576*
X2052909Y1613585*
X2053176Y1613630*
X2053194*
X2053418Y1613585*
X2053438Y1613576*
X2053616Y1613442*
X2053622Y1613437*
X2053756Y1613303*
X2053769Y1613278*
X2053814Y1613055*
Y1613035*
X2053769Y1612812*
X2053763Y1612796*
X2053629Y1612573*
X2053624Y1612566*
X2053356Y1612253*
X2053352Y1612249*
X2052949Y1611891*
X2052640Y1611626*
X2052291Y1611189*
X2052206Y1610978*
X2052172Y1610773*
X2054161*
Y1611075*
X2051483D02*
X2051181D01*
Y1610773*
X2051483*
Y1611075*
X2050456Y1612375D02*
X2050412Y1612903D01*
X2050325Y1613249*
X2050153Y1613550*
X2049985Y1613718*
X2049732Y1613845*
X2049437Y1613887*
X2049054Y1613802*
X2048759Y1613592*
X2048589Y1613251*
X2048504Y1612866*
X2048589Y1612436*
X2048758Y1612099*
X2049052Y1611931*
X2049347Y1611846*
X2049554Y1611888*
X2049765Y1611972*
X2050072Y1612235*
X2050154Y1612197*
Y1612152*
Y1612147*
X2050109Y1611656*
X2050104Y1611639*
X2050017Y1611465*
X2049974Y1611292*
X2049957Y1611265*
X2049734Y1611086*
X2049716Y1611077*
X2049404Y1610988*
X2049378Y1610987*
X2049199Y1611032*
X2049184Y1611039*
X2049050Y1611128*
X2049036Y1611142*
X2048947Y1611276*
X2048941Y1611288*
X2048864Y1611517*
X2048559Y1611484*
X2048633Y1611190*
X2048801Y1610938*
X2049051Y1610772*
X2049390Y1610729*
X2049687Y1610772*
X2049941Y1610898*
X2050153Y1611111*
X2050325Y1611411*
X2050412Y1611847*
X2050412D02*
X2050456Y1612375D01*
X2050154Y1612866D02*
Y1612859D01*
X2050109Y1612547*
X2050102Y1612528*
X2049969Y1612305*
X2049956Y1612291*
X2049777Y1612157*
X2049755Y1612147*
X2049487Y1612103*
X2049471*
X2049203Y1612147*
X2049181Y1612157*
X2049003Y1612291*
X2048990Y1612305*
X2048856Y1612528*
X2048850Y1612546*
X2048805Y1612813*
X2048804Y1612822*
X2048805Y1612829*
X2048849Y1613141*
X2048856Y1613160*
X2048990Y1613383*
X2049002Y1613396*
X2049225Y1613575*
X2049246Y1613585*
X2049469Y1613630*
X2049487*
X2049755Y1613585*
X2049777Y1613576*
X2049956Y1613442*
X2049970Y1613424*
X2050104Y1613156*
X2050104D02*
X2050109Y1613142D01*
X2050154Y1612875*
Y1612866*
X2047376Y1613888D02*
X2047186D01*
X2047067Y1613689*
X2047059Y1613679*
X2046836Y1613456*
X2046828Y1613450*
X2046561Y1613271*
X2046558Y1613269*
X2046270Y1613105*
Y1612813*
X2046640Y1612998*
X2046994Y1613263*
X2047074Y1613223*
Y1610773*
X2047376*
Y1613888*
X2013745Y1656500D02*
X2013702Y1656801D01*
X2013578Y1657049*
X2013376Y1657170*
X2013082Y1657212*
X2012868Y1657169*
X2012701Y1657127*
X2012538Y1657005*
X2012409Y1656791*
X2012322Y1656794*
X2012236Y1656965*
X2012115Y1657086*
X2011906Y1657170*
X2011698Y1657211*
X2011534Y1657170*
X2011323Y1657086*
X2011062Y1656826*
X2010977Y1656861*
Y1657168*
X2010675*
Y1654947*
X2010977*
Y1656370*
X2010979Y1656382*
X2011023Y1656561*
X2011033Y1656580*
X2011256Y1656848*
X2011281Y1656864*
X2011594Y1656954*
X2011620*
X2011798Y1656909*
X2011814Y1656903*
X2011948Y1656813*
X2011965Y1656794*
X2012054Y1656615*
X2012059Y1656593*
Y1654947*
X2012361*
Y1656236*
Y1656243*
X2012406Y1656556*
X2012416Y1656578*
X2012550Y1656757*
X2012560Y1656767*
X2012738Y1656901*
X2012758Y1656910*
X2012982Y1656955*
X2013001*
X2013224Y1656910*
X2013255Y1656891*
X2013388Y1656712*
X2013396Y1656698*
X2013441Y1656564*
X2013443Y1656548*
Y1654947*
X2013745*
Y1656500*
X2009995D02*
X2009952Y1656801D01*
X2009828Y1657049*
X2009626Y1657170*
X2009332Y1657212*
X2009118Y1657169*
X2008951Y1657127*
X2008788Y1657005*
X2008659Y1656791*
X2008572Y1656794*
X2008486Y1656965*
X2008365Y1657086*
X2008156Y1657170*
X2007948Y1657211*
X2007784Y1657170*
X2007573Y1657086*
X2007312Y1656826*
X2007227Y1656861*
Y1657168*
X2006925*
Y1654947*
X2007227*
Y1656370*
X2007229Y1656382*
X2007273Y1656561*
X2007283Y1656580*
X2007506Y1656848*
X2007531Y1656864*
X2007844Y1656954*
X2007870*
X2008048Y1656909*
X2008064Y1656903*
X2008198Y1656813*
X2008215Y1656794*
X2008304Y1656615*
X2008309Y1656593*
Y1654947*
X2008611*
Y1656236*
Y1656243*
X2008656Y1656556*
X2008666Y1656578*
X2008800Y1656757*
X2008810Y1656767*
X2008988Y1656901*
X2009008Y1656910*
X2009232Y1656955*
X2009251*
X2009474Y1656910*
X2009505Y1656891*
X2009638Y1656712*
X2009646Y1656698*
X2009691Y1656564*
X2009693Y1656548*
Y1654947*
X2009995*
Y1656500*
X2006334Y1656899D02*
X2006247Y1657203D01*
X2006072Y1657685*
X2005947Y1657852*
X2005783Y1657975*
X2005356Y1658060*
X2005060Y1658018*
X2004809Y1657893*
X2004642Y1657683*
X2004512Y1657381*
X2004425Y1656987*
X2004381Y1656457*
Y1656064*
X2004468Y1655713*
X2004555Y1655408*
X2004681Y1655199*
X2004976Y1654988*
X2005359Y1654903*
X2005655Y1654945*
X2005906Y1655070*
X2006073Y1655280*
X2006202Y1655582*
X2006290Y1655976*
X2006334Y1656461*
Y1656899*
X2006032Y1656816D02*
Y1656102D01*
Y1656094*
X2005987Y1655826*
Y1655824*
X2005942Y1655601*
X2005938Y1655589*
X2005849Y1655410*
X2005835Y1655393*
X2005612Y1655215*
X2005590Y1655205*
X2005367Y1655160*
X2005348*
X2005124Y1655205*
X2005103Y1655215*
X2004880Y1655393*
X2004866Y1655410*
X2004777Y1655589*
X2004773Y1655601*
X2004728Y1655824*
Y1655826*
X2004683Y1656094*
X2004682Y1656102*
Y1656816*
X2004683Y1656823*
X2004728Y1657136*
Y1657139*
X2004773Y1657362*
X2004777Y1657374*
X2004866Y1657553*
X2004880Y1657570*
X2005103Y1657748*
X2005124Y1657758*
X2005348Y1657803*
X2005366*
X2005633Y1657758*
X2005664Y1657740*
X2005843Y1657517*
X2005845Y1657514*
X2005935Y1657380*
X2005942Y1657362*
X2005987Y1657139*
Y1657136*
X2006032Y1656823*
Y1656816*
X2003834Y1656899D02*
X2003747Y1657203D01*
X2003572Y1657685*
X2003447Y1657852*
X2003283Y1657975*
X2002856Y1658060*
X2002560Y1658018*
X2002309Y1657893*
X2002142Y1657683*
X2002012Y1657381*
X2001925Y1656987*
X2001881Y1656457*
Y1656064*
X2001968Y1655713*
X2002055Y1655408*
X2002181Y1655199*
X2002476Y1654988*
X2002859Y1654903*
X2003155Y1654945*
X2003406Y1655070*
X2003573Y1655280*
X2003702Y1655582*
X2003790Y1655976*
X2003834Y1656461*
Y1656899*
X2003532Y1656816D02*
Y1656102D01*
Y1656094*
X2003487Y1655826*
Y1655824*
X2003442Y1655601*
X2003438Y1655589*
X2003349Y1655410*
X2003335Y1655393*
X2003112Y1655215*
X2003090Y1655205*
X2002867Y1655160*
X2002848*
X2002624Y1655205*
X2002603Y1655215*
X2002380Y1655393*
X2002366Y1655410*
X2002277Y1655589*
X2002273Y1655601*
X2002228Y1655824*
Y1655826*
X2002183Y1656094*
X2002182Y1656102*
Y1656816*
X2002183Y1656823*
X2002228Y1657136*
Y1657139*
X2002273Y1657362*
X2002277Y1657374*
X2002366Y1657553*
X2002380Y1657570*
X2002603Y1657748*
X2002624Y1657758*
X2002848Y1657803*
X2002866*
X2003133Y1657758*
X2003164Y1657740*
X2003343Y1657517*
X2003345Y1657514*
X2003435Y1657380*
X2003442Y1657362*
X2003487Y1657139*
Y1657136*
X2003532Y1656823*
Y1656816*
X2001111Y1655248D02*
X2000809D01*
Y1654947*
X2001111*
Y1655248*
X2000083Y1655836D02*
X2000041Y1656088D01*
X1999958Y1656297*
X1999792Y1656463*
X1999531Y1656593*
X1999528Y1656681*
X1999746Y1656811*
X1999870Y1656935*
X1999953Y1657102*
X1999994Y1657266*
X1999952Y1657599*
X1999743Y1657850*
X1999492Y1658018*
X1999107Y1658061*
X1998723Y1658018*
X1998472Y1657850*
X1998262Y1657599*
X1998221Y1657309*
X1998262Y1657101*
X1998345Y1656935*
X1998469Y1656811*
X1998687Y1656681*
X1998677Y1656590*
X1998420Y1656505*
X1998258Y1656343*
X1998174Y1656090*
X1998132Y1655836*
X1998217Y1655451*
X1998386Y1655156*
X1998722Y1654945*
X1999107Y1654902*
X1999492Y1654945*
X1999829Y1655156*
X1999998Y1655451*
X2000083Y1655836*
X1999692Y1657251D02*
X1999647Y1657072D01*
X1999640Y1657056*
X1999551Y1656922*
X1999532Y1656906*
X1999353Y1656816*
X1999340Y1656812*
X1999117Y1656767*
X1999098*
X1998874Y1656812*
X1998862Y1656816*
X1998683Y1656906*
X1998664Y1656922*
X1998575Y1657056*
X1998567Y1657074*
X1998523Y1657298*
Y1657319*
X1998568Y1657498*
X1998575Y1657514*
X1998664Y1657648*
X1998683Y1657665*
X1998862Y1657754*
X1998874Y1657758*
X1999098Y1657803*
X1999117*
X1999340Y1657758*
X1999353Y1657754*
X1999532Y1657665*
X1999554Y1657642*
X1999643Y1657464*
X1999647Y1657453*
X1999692Y1657275*
Y1657251*
X1999782Y1655834D02*
Y1655826D01*
X1999737Y1655558*
X1999728Y1655536*
X1999594Y1655358*
X1999584Y1655348*
X1999405Y1655214*
X1999383Y1655204*
X1999116Y1655160*
X1999107Y1655159*
X1998929*
X1998901Y1655168*
X1998770Y1655255*
X1998594Y1655343*
X1998575Y1655360*
X1998485Y1655494*
X1998478Y1655515*
X1998433Y1655827*
X1998432Y1655834*
X1998433Y1655844*
X1998478Y1656067*
X1998484Y1656083*
X1998618Y1656306*
X1998631Y1656321*
X1998810Y1656455*
X1998831Y1656464*
X1999099Y1656508*
X1999116*
X1999383Y1656464*
X1999405Y1656455*
X1999584Y1656321*
X1999597Y1656306*
X1999731Y1656083*
X1999737Y1656067*
X1999781Y1655844*
X1999782Y1655834*
X1997004Y1658061D02*
X1996814D01*
X1996695Y1657862*
X1996687Y1657852*
X1996464Y1657629*
X1996457Y1657623*
X1996189Y1657444*
X1996186Y1657443*
X1995898Y1657278*
Y1656986*
X1996268Y1657172*
X1996268D02*
X1996622Y1657437D01*
X1996702Y1657397*
Y1654947*
X1997004*
Y1658061*
X1995900Y1656987D02*
Y1657279D01*
X1996000Y1657037D02*
Y1657336D01*
X1996100Y1657087D02*
Y1657394D01*
X1996200Y1657137D02*
Y1657452D01*
X1996300Y1657195D02*
Y1657519D01*
X1996400Y1657270D02*
Y1657585D01*
X1996500Y1657345D02*
Y1657665D01*
X1996600Y1657420D02*
Y1657765D01*
X1996700Y1657411D02*
Y1657870D01*
X1996800Y1654947D02*
Y1658037D01*
X1996900Y1654947D02*
Y1658061D01*
X1997000Y1654947D02*
Y1658061D01*
X1998200Y1655527D02*
Y1656168D01*
X1998300Y1655305D02*
Y1656385D01*
Y1657025D02*
Y1657644D01*
X1998400Y1655147D02*
Y1656485D01*
Y1656880D02*
Y1657764D01*
X1998500Y1655084D02*
Y1655472D01*
Y1656110D02*
Y1656531D01*
Y1656793D02*
Y1657869D01*
X1998600Y1655022D02*
Y1655340D01*
Y1656276D02*
Y1656565D01*
Y1656733D02*
Y1657018D01*
Y1657552D02*
Y1657936D01*
X1998700Y1654959D02*
Y1655290D01*
Y1656372D02*
Y1656606D01*
Y1656669D02*
Y1656897D01*
Y1657673D02*
Y1658002D01*
X1998800Y1654936D02*
Y1655235D01*
Y1656447D02*
Y1656847D01*
Y1657723D02*
Y1658026D01*
X1998900Y1654925D02*
Y1655168D01*
Y1656475D02*
Y1656807D01*
Y1657763D02*
Y1658038D01*
X1999000Y1654914D02*
Y1655159D01*
Y1656492D02*
Y1656787D01*
Y1657783D02*
Y1658049D01*
X1999100Y1654903D02*
Y1655159D01*
Y1656509D02*
Y1656767D01*
Y1657803D02*
Y1658060D01*
X1999200Y1654913D02*
Y1655174D01*
Y1656494D02*
Y1656784D01*
Y1657786D02*
Y1658050D01*
X1999300Y1654924D02*
Y1655191D01*
Y1656478D02*
Y1656804D01*
Y1657766D02*
Y1658039D01*
X1999400Y1654935D02*
Y1655210D01*
Y1656458D02*
Y1656840D01*
Y1657730D02*
Y1658028D01*
X1999500Y1654950D02*
Y1655285D01*
Y1656383D02*
Y1656890D01*
Y1657680D02*
Y1658012D01*
X1999600Y1655012D02*
Y1655366D01*
Y1656301D02*
Y1656559D01*
Y1656724D02*
Y1656996D01*
Y1657550D02*
Y1657946D01*
X1999700Y1655075D02*
Y1655499D01*
Y1656134D02*
Y1656509D01*
Y1656784D02*
Y1657879D01*
X1999800Y1655137D02*
Y1656455D01*
Y1656865D02*
Y1657782D01*
X1999900Y1655280D02*
Y1656355D01*
Y1656995D02*
Y1657662D01*
X2000000Y1655461D02*
Y1656191D01*
X2000900Y1654947D02*
Y1655248D01*
X2001000Y1654947D02*
Y1655248D01*
X2001100Y1654947D02*
Y1655248D01*
X2001900Y1655986D02*
Y1656690D01*
X2002000Y1655602D02*
Y1657326D01*
X2002100Y1655334D02*
Y1657586D01*
X2002200Y1655185D02*
Y1655992D01*
Y1656943D02*
Y1657756D01*
X2002300Y1655114D02*
Y1655542D01*
Y1657420D02*
Y1657881D01*
X2002400Y1655042D02*
Y1655377D01*
Y1657586D02*
Y1657938D01*
X2002500Y1654983D02*
Y1655297D01*
Y1657666D02*
Y1657988D01*
X2002600Y1654960D02*
Y1655217D01*
Y1657746D02*
Y1658024D01*
X2002700Y1654938D02*
Y1655190D01*
Y1657773D02*
Y1658038D01*
X2002800Y1654916D02*
Y1655170D01*
Y1657793D02*
Y1658052D01*
X2002900Y1654909D02*
Y1655167D01*
Y1657797D02*
Y1658051D01*
X2003000Y1654923D02*
Y1655187D01*
Y1657781D02*
Y1658031D01*
X2003100Y1654937D02*
Y1655208D01*
Y1657764D02*
Y1658011D01*
X2003200Y1654968D02*
Y1655285D01*
Y1657696D02*
Y1657991D01*
X2003300Y1655018D02*
Y1655365D01*
Y1657571D02*
Y1657962D01*
X2003400Y1655068D02*
Y1655513D01*
Y1657432D02*
Y1657887D01*
X2003500Y1655188D02*
Y1655904D01*
Y1657047D02*
Y1657781D01*
X2003600Y1655343D02*
Y1657608D01*
X2003700Y1655576D02*
Y1657333D01*
X2003800Y1656086D02*
Y1657018D01*
X2004400Y1655986D02*
Y1656690D01*
X2004500Y1655602D02*
Y1657326D01*
X2004600Y1655334D02*
Y1657586D01*
X2004700Y1655185D02*
Y1655992D01*
Y1656943D02*
Y1657756D01*
X2004800Y1655114D02*
Y1655542D01*
Y1657420D02*
Y1657881D01*
X2004900Y1655042D02*
Y1655377D01*
Y1657586D02*
Y1657938D01*
X2005000Y1654983D02*
Y1655297D01*
Y1657666D02*
Y1657988D01*
X2005100Y1654960D02*
Y1655217D01*
Y1657746D02*
Y1658024D01*
X2005200Y1654938D02*
Y1655190D01*
Y1657773D02*
Y1658038D01*
X2005300Y1654916D02*
Y1655170D01*
Y1657793D02*
Y1658052D01*
X2005400Y1654909D02*
Y1655167D01*
Y1657797D02*
Y1658051D01*
X2005500Y1654923D02*
Y1655187D01*
Y1657781D02*
Y1658031D01*
X2005600Y1654937D02*
Y1655208D01*
Y1657764D02*
Y1658011D01*
X2005700Y1654968D02*
Y1655285D01*
Y1657696D02*
Y1657991D01*
X2005800Y1655018D02*
Y1655365D01*
Y1657571D02*
Y1657962D01*
X2005900Y1655068D02*
Y1655513D01*
Y1657432D02*
Y1657887D01*
X2006000Y1655188D02*
Y1655904D01*
Y1657047D02*
Y1657781D01*
X2006100Y1655343D02*
Y1657608D01*
X2006200Y1655576D02*
Y1657333D01*
X2006300Y1656086D02*
Y1657018D01*
X2007000Y1654947D02*
Y1657168D01*
X2007100Y1654947D02*
Y1657168D01*
X2007200Y1654947D02*
Y1657168D01*
X2007300Y1656601D02*
Y1656817D01*
X2007400Y1656721D02*
Y1656913D01*
X2007500Y1656841D02*
Y1657013D01*
X2007600Y1656884D02*
Y1657097D01*
X2007700Y1656913D02*
Y1657137D01*
X2007800Y1656941D02*
Y1657175D01*
X2007900Y1656946D02*
Y1657200D01*
X2008000Y1656921D02*
Y1657201D01*
X2008100Y1656878D02*
Y1657181D01*
X2008200Y1656812D02*
Y1657152D01*
X2008300Y1656623D02*
Y1657112D01*
X2008400Y1654947D02*
Y1657051D01*
X2008500Y1654947D02*
Y1656937D01*
X2008600Y1654947D02*
Y1656769D01*
X2008700Y1656624D02*
Y1656859D01*
X2008800Y1656758D02*
Y1657014D01*
X2008900Y1656835D02*
Y1657089D01*
X2009000Y1656908D02*
Y1657140D01*
X2009100Y1656928D02*
Y1657165D01*
X2009200Y1656948D02*
Y1657186D01*
X2009300Y1656945D02*
Y1657206D01*
X2009400Y1656925D02*
Y1657202D01*
X2009500Y1656896D02*
Y1657188D01*
X2009600Y1656764D02*
Y1657174D01*
X2009700Y1654947D02*
Y1657126D01*
X2009800Y1654947D02*
Y1657066D01*
X2009900Y1654947D02*
Y1656905D01*
X2010700Y1654947D02*
Y1657168D01*
X2010800Y1654947D02*
Y1657168D01*
X2010900Y1654947D02*
Y1657168D01*
X2011000Y1656468D02*
Y1656819D01*
X2011100Y1656661D02*
Y1656863D01*
X2011200Y1656781D02*
Y1656963D01*
X2011300Y1656870D02*
Y1657063D01*
X2011400Y1656898D02*
Y1657117D01*
X2011500Y1656927D02*
Y1657157D01*
X2011600Y1656955D02*
Y1657187D01*
X2011700Y1656934D02*
Y1657211D01*
X2011800Y1656909D02*
Y1657191D01*
X2011900Y1656845D02*
Y1657171D01*
X2012000Y1656723D02*
Y1657132D01*
X2012100Y1654947D02*
Y1657092D01*
X2012200Y1654947D02*
Y1657001D01*
X2012300Y1654947D02*
Y1656837D01*
X2012400Y1656513D02*
Y1656779D01*
X2012500Y1656691D02*
Y1656942D01*
X2012600Y1656797D02*
Y1657052D01*
X2012700Y1656872D02*
Y1657127D01*
X2012800Y1656918D02*
Y1657152D01*
X2012900Y1656938D02*
Y1657176D01*
X2013000Y1656955D02*
Y1657196D01*
X2013100Y1656935D02*
Y1657209D01*
X2013200Y1656915D02*
Y1657195D01*
X2013300Y1656830D02*
Y1657181D01*
X2013400Y1656686D02*
Y1657156D01*
X2013500Y1654947D02*
Y1657096D01*
X2013600Y1654947D02*
Y1657005D01*
X2013700Y1654947D02*
Y1656805D01*
X2046300Y1612828D02*
Y1613122D01*
X2046400Y1612878D02*
Y1613179D01*
X2046500Y1612928D02*
Y1613236D01*
X2046600Y1612978D02*
Y1613297D01*
X2046700Y1613043D02*
Y1613364D01*
X2046800Y1613118D02*
Y1613431D01*
X2046900Y1613193D02*
Y1613520D01*
X2047000Y1613267D02*
Y1613620D01*
X2047100Y1610773D02*
Y1613744D01*
X2047200Y1610773D02*
Y1613888D01*
X2047300Y1610773D02*
Y1613888D01*
X2048600Y1611322D02*
Y1611488D01*
Y1612415D02*
Y1613273D01*
X2048700Y1611090D02*
Y1611499D01*
Y1612215D02*
Y1613473D01*
X2048800Y1610940D02*
Y1611510D01*
Y1612075D02*
Y1613621D01*
X2048900Y1610872D02*
Y1611410D01*
Y1612018D02*
Y1612455D01*
Y1613233D02*
Y1613692D01*
X2049000Y1610805D02*
Y1611196D01*
Y1611960D02*
Y1612293D01*
Y1613395D02*
Y1613764D01*
X2049100Y1610765D02*
Y1611095D01*
Y1611917D02*
Y1612218D01*
Y1613475D02*
Y1613812D01*
X2049200Y1610753D02*
Y1611032D01*
Y1611888D02*
Y1612148D01*
Y1613555D02*
Y1613834D01*
X2049300Y1610740D02*
Y1611007D01*
Y1611860D02*
Y1612131D01*
Y1613596D02*
Y1613857D01*
X2049400Y1610731D02*
Y1610987D01*
Y1611857D02*
Y1612115D01*
Y1613616D02*
Y1613879D01*
X2049500Y1610745D02*
Y1611015D01*
Y1611877D02*
Y1612105D01*
Y1613628D02*
Y1613878D01*
X2049600Y1610759D02*
Y1611044D01*
Y1611906D02*
Y1612121D01*
Y1613611D02*
Y1613864D01*
X2049700Y1610778D02*
Y1611073D01*
Y1611946D02*
Y1612138D01*
Y1613594D02*
Y1613849D01*
X2049800Y1610828D02*
Y1611139D01*
Y1612002D02*
Y1612174D01*
Y1613559D02*
Y1613811D01*
X2049900Y1610878D02*
Y1611219D01*
Y1612087D02*
Y1612249D01*
Y1613484D02*
Y1613761D01*
X2050000Y1610958D02*
Y1611395D01*
Y1612173D02*
Y1612357D01*
Y1613365D02*
Y1613703D01*
X2050100Y1611058D02*
Y1611630D01*
Y1612246D02*
Y1612524D01*
Y1613165D02*
Y1613603D01*
X2050200Y1611193D02*
Y1613468D01*
X2050300Y1611368D02*
Y1613293D01*
X2050400Y1611788D02*
Y1612950D01*
X2051200Y1610773D02*
Y1611075D01*
X2051300Y1610773D02*
Y1611075D01*
X2051400Y1610773D02*
Y1611075D01*
X2052200Y1610773D02*
Y1610940D01*
X2052300Y1610773D02*
Y1611201D01*
Y1613079D02*
Y1613390D01*
X2052400Y1610773D02*
Y1611326D01*
Y1613068D02*
Y1613530D01*
X2052500Y1610773D02*
Y1611451D01*
Y1613057D02*
Y1613670D01*
X2052600Y1610773D02*
Y1611115D01*
Y1611136D02*
Y1611576D01*
Y1613301D02*
Y1613731D01*
X2052700Y1610773D02*
Y1611075D01*
Y1611269D02*
Y1611677D01*
Y1613434D02*
Y1613788D01*
X2052800Y1610773D02*
Y1611075D01*
Y1611390D02*
Y1611763D01*
Y1613511D02*
Y1613845D01*
X2052900Y1610773D02*
Y1611075D01*
Y1611465D02*
Y1611849D01*
Y1613583D02*
Y1613856D01*
X2053000Y1610773D02*
Y1611075D01*
Y1611542D02*
Y1611936D01*
Y1613600D02*
Y1613867D01*
X2053100Y1610773D02*
Y1611075D01*
Y1611626D02*
Y1612025D01*
Y1613617D02*
Y1613878D01*
X2053200Y1610773D02*
Y1611075D01*
Y1611709D02*
Y1612114D01*
Y1613628D02*
Y1613883D01*
X2053300Y1610773D02*
Y1611075D01*
Y1611795D02*
Y1612203D01*
Y1613608D02*
Y1613861D01*
X2053400Y1610773D02*
Y1611075D01*
Y1611882D02*
Y1612304D01*
Y1613588D02*
Y1613839D01*
X2053500Y1610773D02*
Y1611075D01*
Y1611970D02*
Y1612421D01*
Y1613529D02*
Y1613816D01*
X2053600Y1610773D02*
Y1611075D01*
Y1612059D02*
Y1612537D01*
Y1613454D02*
Y1613783D01*
X2053700Y1610773D02*
Y1611075D01*
Y1612179D02*
Y1612691D01*
Y1613359D02*
Y1613726D01*
X2053800Y1610773D02*
Y1611075D01*
Y1612299D02*
Y1612965D01*
Y1613125D02*
Y1613669D01*
X2053900Y1610773D02*
Y1611075D01*
Y1612430D02*
Y1613590D01*
X2054000Y1610773D02*
Y1611075D01*
Y1612629D02*
Y1613470D01*
X2054100Y1610773D02*
Y1611075D01*
Y1612984D02*
Y1613176D01*
X2054800Y1611700D02*
Y1612829D01*
X2054900Y1611330D02*
Y1613245D01*
X2055000Y1611113D02*
Y1613478D01*
X2055100Y1610992D02*
Y1611650D01*
Y1612966D02*
Y1613618D01*
X2055200Y1610921D02*
Y1611313D01*
Y1613304D02*
Y1613729D01*
X2055300Y1610849D02*
Y1611181D01*
Y1613435D02*
Y1613779D01*
X2055400Y1610803D02*
Y1611101D01*
Y1613515D02*
Y1613829D01*
X2055500Y1610781D02*
Y1611031D01*
Y1613586D02*
Y1613854D01*
X2055600Y1610759D02*
Y1611011D01*
Y1613606D02*
Y1613869D01*
X2055700Y1610736D02*
Y1610991D01*
Y1613626D02*
Y1613883D01*
X2055800Y1610739D02*
Y1610999D01*
Y1613619D02*
Y1613873D01*
X2055900Y1610754D02*
Y1611019D01*
Y1613603D02*
Y1613853D01*
X2056000Y1610768D02*
Y1611055D01*
Y1613586D02*
Y1613833D01*
X2056100Y1610808D02*
Y1611135D01*
Y1613487D02*
Y1613813D01*
X2056200Y1610858D02*
Y1611215D01*
Y1613362D02*
Y1613768D01*
X2056300Y1610925D02*
Y1611396D01*
Y1613216D02*
Y1613693D01*
X2056400Y1611050D02*
Y1611899D01*
Y1612676D02*
Y1613570D01*
X2056500Y1611235D02*
Y1613357D01*
X2056600Y1611524D02*
Y1613082D01*
X2056700Y1612222D02*
Y1612746D01*
X2057300Y1610773D02*
Y1612995D01*
X2057400Y1610773D02*
Y1612995D01*
X2057500Y1610773D02*
Y1612995D01*
X2057600Y1612207D02*
Y1612677D01*
X2057700Y1612461D02*
Y1612668D01*
X2057800Y1612581D02*
Y1612768D01*
X2057900Y1612690D02*
Y1612868D01*
X2058000Y1612719D02*
Y1612935D01*
X2058100Y1612747D02*
Y1612975D01*
X2058200Y1612776D02*
Y1613008D01*
X2058300Y1612766D02*
Y1613033D01*
X2058400Y1612741D02*
Y1613022D01*
X2058500Y1612686D02*
Y1613002D01*
X2058600Y1612594D02*
Y1612968D01*
X2058700Y1610773D02*
Y1612928D01*
X2058800Y1610773D02*
Y1612850D01*
X2058900Y1610773D02*
Y1612708D01*
X2059000Y1612187D02*
Y1612594D01*
X2059100Y1612489D02*
Y1612732D01*
X2059200Y1612608D02*
Y1612862D01*
X2059300Y1612683D02*
Y1612937D01*
X2059400Y1612741D02*
Y1612974D01*
X2059500Y1612761D02*
Y1612998D01*
X2059600Y1612781D02*
Y1613018D01*
X2059700Y1612766D02*
Y1613038D01*
X2059800Y1612746D02*
Y1613025D01*
X2059900Y1612686D02*
Y1613011D01*
X2060000Y1612553D02*
Y1612996D01*
X2060100Y1610773D02*
Y1612936D01*
X2060200Y1610773D02*
Y1612875D01*
X2060300Y1610773D02*
Y1612675D01*
X2061100Y1610773D02*
Y1612995D01*
X2061200Y1610773D02*
Y1612995D01*
X2061300Y1610773D02*
Y1612995D01*
X2061400Y1612400D02*
Y1612638D01*
X2061500Y1612521D02*
Y1612718D01*
X2061600Y1612641D02*
Y1612818D01*
X2061700Y1612705D02*
Y1612915D01*
X2061800Y1612733D02*
Y1612955D01*
X2061900Y1612762D02*
Y1612995D01*
X2062000Y1612779D02*
Y1613021D01*
X2062100Y1612754D02*
Y1613032D01*
X2062200Y1612720D02*
Y1613012D01*
X2062300Y1612653D02*
Y1612988D01*
X2062400Y1612494D02*
Y1612948D01*
X2062500Y1610773D02*
Y1612900D01*
X2062600Y1610773D02*
Y1612800D01*
X2062700Y1610773D02*
Y1612611D01*
X2062800Y1612422D02*
Y1612649D01*
X2062900Y1612555D02*
Y1612816D01*
X2063000Y1612645D02*
Y1612900D01*
X2063100Y1612720D02*
Y1612961D01*
X2063200Y1612751D02*
Y1612986D01*
X2063300Y1612771D02*
Y1613008D01*
X2063400Y1612776D02*
Y1613028D01*
X2063500Y1612756D02*
Y1613032D01*
X2063600Y1612736D02*
Y1613018D01*
X2063700Y1612620D02*
Y1613004D01*
X2063800Y1612428D02*
Y1612966D01*
X2063900Y1610773D02*
Y1612906D01*
X2064000Y1610773D02*
Y1612775D01*
X2064100Y1610773D02*
Y1612444D01*
*
G04 PC Custom Flashes*
G04 Layer Name ESP32_WROOM32_UFL_5X5_V - flashes*
%LPD*%
*
*
G04 PC Circuitry*
G04 Layer Name ESP32_WROOM32_UFL_5X5_V - circuitry*
%LPD*%
*
G54D10*
X1968504Y1650394D02*
X1968507D01*
X2039370D02*
X2039373D01*
X2039370Y1574803D02*
X2039373D01*
X2039370Y1650394D02*
X2039373D01*
G54D44*
X2035370Y1641709D02*
X2043370Y1649709D01*
X2035370D02*
X2043370Y1641709D01*
X1964504Y1626709D02*
X1972504Y1634709D01*
X1964504D02*
X1972504Y1626709D01*
X1992476Y1570803D02*
X2000476Y1578803D01*
X1992476D02*
X2000476Y1570803D01*
X2035370Y1626709D02*
X2043370Y1634709D01*
X2035370D02*
X2043370Y1626709D01*
X1964504Y1621709D02*
X1972504Y1629709D01*
X1964504D02*
X1972504Y1621709D01*
X1997476Y1570803D02*
X2005476Y1578803D01*
X1997476D02*
X2005476Y1570803D01*
X2035370Y1621709D02*
X2043370Y1629709D01*
X2035370D02*
X2043370Y1621709D01*
X1964504Y1616709D02*
X1972504Y1624709D01*
X1964504D02*
X1972504Y1616709D01*
X2002476Y1570803D02*
X2010476Y1578803D01*
X2002476D02*
X2010476Y1570803D01*
X2035370Y1616709D02*
X2043370Y1624709D01*
X2035370D02*
X2043370Y1616709D01*
X1964504Y1611709D02*
X1972504Y1619709D01*
X1964504D02*
X1972504Y1611709D01*
X1977476Y1570803D02*
X1985476Y1578803D01*
X1977476D02*
X1985476Y1570803D01*
X2007476D02*
X2015476Y1578803D01*
X2007476D02*
X2015476Y1570803D01*
X2035370Y1611709D02*
X2043370D01*
X2035370Y1619709*
X2043370*
X2035370Y1611709*
X1964504Y1606709D02*
X1972504Y1614709D01*
X1964504D02*
X1972504Y1606709D01*
X2012476Y1570803D02*
X2020476Y1578803D01*
X2012476D02*
X2020476Y1570803D01*
X2035370Y1606709D02*
X2043370Y1614709D01*
X2035370D02*
X2043370Y1606709D01*
X1964504Y1601709D02*
X1972504Y1609709D01*
X1964504D02*
X1972504Y1601709D01*
X2017476Y1570803D02*
X2025476Y1578803D01*
X2017476D02*
X2025476Y1570803D01*
X2035370Y1601709D02*
X2043370Y1609709D01*
X2035370D02*
X2043370Y1601709D01*
X1964504Y1596709D02*
X1972504Y1604709D01*
X1964504D02*
X1972504Y1596709D01*
X2022476Y1570803D02*
X2030476Y1578803D01*
X2022476D02*
X2030476Y1570803D01*
X1964504Y1641709D02*
X1972504Y1649709D01*
X1964504D02*
X1972504Y1641709D01*
X2035370Y1596709D02*
X2043370Y1604709D01*
X2035370D02*
X2043370Y1596709D01*
X1964504Y1591709D02*
X1972504Y1599709D01*
X1964504D02*
X1972504Y1591709D01*
X2035370D02*
X2043370Y1599709D01*
X2035370D02*
X2043370Y1591709D01*
X1964504Y1586709D02*
X1972504Y1594709D01*
X1964504D02*
X1972504Y1586709D01*
X2035370D02*
X2043370Y1594709D01*
X2035370D02*
X2043370Y1586709D01*
X1964504Y1581709D02*
X1972504Y1589709D01*
X1964504D02*
X1972504Y1581709D01*
X2035370D02*
X2043370Y1589709D01*
X2035370D02*
X2043370Y1581709D01*
X1964504Y1576709D02*
X1972504Y1584709D01*
X1964504D02*
X1972504Y1576709D01*
X2035384D02*
X2043384Y1584709D01*
X2035384D02*
X2043384Y1576709D01*
X1964504Y1636709D02*
X1972504D01*
X1964504Y1644709*
X1972504*
X1964504Y1636709*
X1982476Y1570803D02*
X1990476Y1578803D01*
X1982476D02*
X1990476Y1570803D01*
X2035370Y1636709D02*
X2043370Y1644709D01*
X2035370D02*
X2043370Y1636709D01*
X1964504Y1631709D02*
X1972504Y1639709D01*
X1964504D02*
X1972504Y1631709D01*
X1987476Y1570803D02*
X1995476Y1578803D01*
X1987476D02*
X1995476Y1570803D01*
X2035370Y1631709D02*
X2043370Y1639709D01*
X2035370D02*
X2043370Y1631709D01*
X1966459Y1576662D02*
X1974459D01*
X1970459Y1572662D02*
Y1580662D01*
X1969504Y1579553D02*
X1977504D01*
X1973504Y1575553D02*
Y1583553D01*
X1973004Y1582053D02*
X1981004D01*
X1977004Y1578053D02*
Y1586053D01*
X1973662Y1576724D02*
X1981662D01*
X1977662Y1572724D02*
Y1580724D01*
X1970880Y1576724D02*
X1978880D01*
X1974880Y1572724D02*
Y1580724D01*
X1970004Y1582553D02*
X1978004D01*
X1974004Y1578553D02*
Y1586553D01*
X1972254Y1579053D02*
X1980254D01*
X1976254Y1575053D02*
Y1583053D01*
X1974754Y1579803D02*
X1982754D01*
X1978754Y1575803D02*
Y1583803D01*
X1978504Y1581553D02*
X1986504D01*
X1982504Y1577553D02*
Y1585553D01*
X1980504Y1580053D02*
X1988504D01*
X1984504Y1576053D02*
Y1584053D01*
X1982754Y1581553D02*
X1990754D01*
X1986754Y1577553D02*
Y1585553D01*
X1985004Y1579803D02*
X1993004D01*
X1989004Y1575803D02*
Y1583803D01*
Y1580319D02*
X1997004D01*
X1993004Y1576319D02*
Y1584319D01*
X1986754Y1581569D02*
X1994754D01*
X1990754Y1577569D02*
Y1585569D01*
X1991004Y1584319D02*
X1999004D01*
X1995004Y1580319D02*
Y1588319D01*
X1991004Y1581803D02*
X1999004D01*
X1995004Y1577803D02*
Y1585803D01*
X1999254Y1580553D02*
X2007254D01*
X2003254Y1576553D02*
Y1584553D01*
X1996004Y1580569D02*
X2004004D01*
Y1588569*
X1996004*
Y1580569*
X2000004Y1584569D02*
Y1588569D01*
X2004754Y1580053D02*
X2012754D01*
X2008754Y1576053D02*
Y1584053D01*
X2009004Y1581319D02*
X2017004D01*
X2013004Y1577319D02*
Y1585319D01*
X2002754Y1582053D02*
X2010754D01*
X2006754Y1578053D02*
Y1586053D01*
X2011754Y1581319D02*
X2019754D01*
X2015754Y1577319D02*
Y1585319D01*
X2013754Y1579819D02*
X2021754D01*
X2017754Y1575819D02*
Y1583819D01*
X2025904Y1578819D02*
X2033904D01*
X2029904Y1574819D02*
Y1582819D01*
X2025004Y1583803D02*
X2033004D01*
X2029004Y1579803D02*
Y1587803D01*
X2022754Y1582303D02*
X2030754D01*
X2026754Y1578303D02*
Y1586303D01*
X2027504Y1576803D02*
X2035504D01*
X2031504Y1572803D02*
Y1580803D01*
X2029504Y1583819D02*
X2037504D01*
X2033504Y1579819D02*
Y1587819D01*
X2027254Y1582303D02*
X2035254D01*
X2031254Y1578303D02*
Y1586303D01*
X2020504Y1583803D02*
X2028504D01*
X2024504Y1579803D02*
Y1587803D01*
X2029004Y1578803D02*
X2037004D01*
X2033004Y1574803D02*
Y1582803D01*
X2033207Y1576897D02*
X2041207D01*
X2037207Y1572897D02*
Y1580897D01*
X2030504Y1576803D02*
X2038504D01*
X2034504Y1572803D02*
Y1580803D01*
X1969717Y1593447D02*
X1977717D01*
X1973717Y1589447D02*
Y1597447D01*
X1969704Y1588403D02*
X1977704D01*
X1973704Y1584403D02*
Y1592403D01*
X1971504Y1590319D02*
X1979504D01*
X1975504Y1586319D02*
Y1594319D01*
X1976304Y1592103D02*
X1984304D01*
X1980304Y1588103D02*
Y1596103D01*
X1976304Y1587103D02*
X1984304D01*
X1980304Y1583103D02*
Y1591103D01*
X1971254Y1584803D02*
X1979254D01*
X1975254Y1580803D02*
Y1588803D01*
X1992754Y1582069D02*
X2000754D01*
Y1590069*
X1992754*
Y1582069*
X1996754Y1586069D02*
Y1590069D01*
X1994254Y1585569D02*
X2002254D01*
Y1593569*
X1994254*
Y1585569*
X1998254Y1589569D02*
Y1593569D01*
X1999254Y1583819D02*
X2007254D01*
Y1591819*
X1999254*
Y1583819*
X2003254Y1587819D02*
Y1591819D01*
X1991254Y1587069D02*
X1999254D01*
Y1595069*
X1991254*
Y1587069*
X1995254Y1591069D02*
Y1595069D01*
X1997504Y1583819D02*
X2005504D01*
Y1591819*
X1997504*
Y1583819*
X2001504Y1587819D02*
Y1591819D01*
X1991004Y1583819D02*
X1999004D01*
Y1591819*
X1991004*
Y1583819*
X1995004Y1587819D02*
Y1591819D01*
X2002754Y1587069D02*
X2010754D01*
X2006754Y1583069D02*
Y1591069D01*
X2002504Y1587069D02*
X2010504D01*
Y1595069*
X2002504*
Y1587069*
X2006504Y1591069D02*
Y1595069D01*
X2000754Y1587069D02*
X2008754D01*
Y1595069*
X2000754*
Y1587069*
X2004754Y1591069D02*
Y1595069D01*
X2017504Y1592319D02*
X2025504D01*
X2021504Y1588319D02*
Y1596319D01*
X2017754Y1588803D02*
X2025754D01*
X2021754Y1584803D02*
Y1592803D01*
X2023754Y1587303D02*
X2031754D01*
X2027754Y1583303D02*
Y1591303D01*
X2019754Y1587303D02*
X2027754D01*
X2023754Y1583303D02*
Y1591303D01*
X2026004Y1588803D02*
X2034004D01*
X2030004Y1584803D02*
Y1592803D01*
X2023254Y1592303D02*
X2031254D01*
X2027254Y1588303D02*
Y1596303D01*
X2020254Y1592303D02*
X2028254D01*
X2024254Y1588303D02*
Y1596303D01*
X2028004Y1587303D02*
X2036004D01*
X2032004Y1583303D02*
Y1591303D01*
X2026504Y1592303D02*
X2034504D01*
X2030504Y1588303D02*
Y1596303D01*
X2021754Y1588803D02*
X2029754D01*
X2025754Y1584803D02*
Y1592803D01*
X2029754Y1592303D02*
X2037754D01*
X2033754Y1588303D02*
Y1596303D01*
X2030004Y1588803D02*
X2038004D01*
X2034004Y1584803D02*
Y1592803D01*
X1969404Y1598103D02*
X1977404D01*
X1973404Y1594103D02*
Y1602103D01*
X1976304Y1597103D02*
X1984304D01*
X1980304Y1593103D02*
Y1601103D01*
X1979054Y1599858D02*
X1987054D01*
Y1607858*
X1979054*
Y1599858*
X1983054Y1603858D02*
Y1607858D01*
X1982204Y1599858D02*
X1990204D01*
Y1607858*
X1982204*
Y1599858*
X1986204Y1603858D02*
Y1607858D01*
X1987704Y1598219D02*
X1995704D01*
Y1606219*
X1987704*
Y1598219*
X1991704Y1602219D02*
Y1606219D01*
X1984004Y1599858D02*
X1992004D01*
Y1607858*
X1984004*
Y1599858*
X1988004Y1603858D02*
Y1607858D01*
X1997457Y1596133D02*
X2005457D01*
Y1604133*
X1997457*
Y1596133*
X2001457Y1600133D02*
Y1604133D01*
X1999004Y1597319D02*
X2007004D01*
Y1605319*
X1999004*
Y1597319*
X2003004Y1601319D02*
Y1605319D01*
X2008254Y1598569D02*
X2012254Y1602569D01*
X2008254Y1606569*
X2004254Y1602569*
X2008254Y1598569*
Y1602569D02*
Y1606569D01*
X2000304Y1598619D02*
X2008304D01*
Y1606619*
X2000304*
Y1598619*
X2004304Y1602619D02*
Y1606619D01*
X2014754Y1602303D02*
X2022754D01*
X2018754Y1598303D02*
Y1606303D01*
X2017254Y1601053D02*
X2025254D01*
X2021254Y1597053D02*
Y1605053D01*
X2017004Y1603553D02*
X2025004D01*
X2021004Y1599553D02*
Y1607553D01*
X2013504Y1604553D02*
X2021504D01*
X2017504Y1600553D02*
Y1608553D01*
X2027004Y1603303D02*
X2035004D01*
X2031004Y1599303D02*
Y1607303D01*
X2025004Y1601303D02*
X2033004D01*
X2029004Y1597303D02*
Y1605303D01*
X2019754Y1603303D02*
X2027754D01*
X2023754Y1599303D02*
Y1607303D01*
X2019754Y1601053D02*
X2027754D01*
X2023754Y1597053D02*
Y1605053D01*
X2022504Y1601053D02*
X2030504D01*
X2026504Y1597053D02*
Y1605053D01*
X2029804Y1597719D02*
X2037804D01*
X2033804Y1593719D02*
Y1601719D01*
X1976504Y1612053D02*
X1984504D01*
X1980504Y1608053D02*
Y1616053D01*
X1973754Y1607803D02*
X1981754D01*
X1977754Y1603803D02*
Y1611803D01*
X1975504Y1609553D02*
X1983504D01*
X1979504Y1605553D02*
Y1613553D01*
X1977479Y1600819D02*
X1985479D01*
Y1608819*
X1977479*
Y1600819*
X1981479Y1604819D02*
Y1608819D01*
X1988000Y1612293D02*
X1996000D01*
X1992000Y1608293D02*
Y1616293D01*
X1988000Y1609293D02*
X1996000D01*
X1992000Y1605293D02*
Y1613293D01*
X1979754Y1609069D02*
X1987754D01*
Y1617069*
X1979754*
Y1609069*
X1983754Y1613069D02*
Y1617069D01*
X1980629Y1600819D02*
X1988629D01*
Y1608819*
X1980629*
Y1600819*
X1984629Y1604819D02*
Y1608819D01*
X1997000Y1612293D02*
X2005000D01*
X2001000Y1608293D02*
Y1616293D01*
X1997000Y1609293D02*
X2005000D01*
X2001000Y1605293D02*
Y1613293D01*
X1991000Y1612293D02*
X1999000D01*
X1995000Y1608293D02*
Y1616293D01*
X1994000Y1609293D02*
X2002000D01*
X1998000Y1605293D02*
Y1613293D01*
X1991000Y1609293D02*
X1999000D01*
X1995000Y1605293D02*
Y1613293D01*
X1994000Y1612293D02*
X2002000D01*
X1998000Y1608293D02*
Y1616293D01*
X2000000Y1609293D02*
X2008000D01*
X2004000Y1605293D02*
Y1613293D01*
X2000000Y1612293D02*
X2008000D01*
X2004000Y1608293D02*
Y1616293D01*
X2007404Y1604019D02*
X2015404D01*
Y1612019*
X2007404*
Y1604019*
X2011404Y1608019D02*
Y1612019D01*
X2007624Y1601943D02*
X2015624D01*
Y1609943*
X2007624*
Y1601943*
X2011624Y1605943D02*
Y1609943D01*
X2011504Y1601819D02*
X2019504D01*
Y1609819*
X2011504*
Y1601819*
X2015504Y1605819D02*
Y1609819D01*
X2009754Y1601819D02*
X2017754D01*
Y1609819*
X2009754*
Y1601819*
X2013754Y1605819D02*
Y1609819D01*
X2014004Y1608053D02*
X2022004D01*
X2018004Y1604053D02*
Y1612053D01*
X2012254Y1607303D02*
X2020254D01*
Y1615303*
X2012254*
Y1607303*
X2016254Y1611303D02*
Y1615303D01*
X2018504Y1605553D02*
X2026504D01*
X2022504Y1601553D02*
Y1609553D01*
X2015254Y1610303D02*
X2023254D01*
X2019254Y1606303D02*
Y1614303D01*
X2014004Y1612553D02*
X2022004D01*
X2018004Y1608553D02*
Y1616553D01*
X2015504Y1606053D02*
X2023504D01*
X2019504Y1602053D02*
Y1610053D01*
X2010004Y1607119D02*
X2018004D01*
Y1615119*
X2010004*
Y1607119*
X2014004Y1611119D02*
Y1615119D01*
X2021004Y1605553D02*
X2029004D01*
X2025004Y1601553D02*
Y1609553D01*
X2027754Y1601819D02*
X2035754D01*
Y1609819*
X2027754*
Y1601819*
X2031754Y1605819D02*
Y1609819D01*
X2027972Y1604195D02*
X2035972D01*
Y1612195*
X2027972*
Y1604195*
X2031972Y1608195D02*
Y1612195D01*
X2028066Y1606723D02*
X2036066D01*
Y1614723*
X2028066*
Y1606723*
X2032066Y1610723D02*
Y1614723D01*
X2027996Y1609016D02*
X2035996D01*
Y1617016*
X2027996*
Y1609016*
X2031996Y1613016D02*
Y1617016D01*
X1977504Y1620069D02*
X1985504D01*
Y1628069*
X1977504*
Y1620069*
X1981504Y1624069D02*
Y1628069D01*
X1975004Y1615319D02*
X1983004D01*
Y1623319*
X1975004*
Y1615319*
X1979004Y1619319D02*
Y1623319D01*
X1974504Y1617069D02*
X1982504D01*
Y1625069*
X1974504*
Y1617069*
X1978504Y1621069D02*
Y1625069D01*
X1976254Y1614069D02*
X1984254D01*
Y1622069*
X1976254*
Y1614069*
X1980254Y1618069D02*
Y1622069D01*
X1978254Y1614069D02*
X1986254D01*
Y1622069*
X1978254*
Y1614069*
X1982254Y1618069D02*
Y1622069D01*
X1984004Y1612008D02*
X1988004Y1616008D01*
X1984004Y1620008*
X1980004Y1616008*
X1984004Y1612008*
Y1616008D02*
Y1620008D01*
X1988004Y1618319D02*
X1996004D01*
X1992004Y1614319D02*
Y1622319D01*
X1988004Y1621319D02*
X1996004D01*
X1992004Y1617319D02*
Y1625319D01*
X1988004Y1615319D02*
X1996004D01*
X1992004Y1611319D02*
Y1619319D01*
X1980254Y1619069D02*
X1988254D01*
Y1627069*
X1980254*
Y1619069*
X1984254Y1623069D02*
Y1627069D01*
X1997004Y1615319D02*
X2005004D01*
X2001004Y1611319D02*
Y1619319D01*
X1994004Y1615319D02*
X2002004D01*
X1998004Y1611319D02*
Y1619319D01*
X1997004Y1621319D02*
X2005004D01*
X2001004Y1617319D02*
Y1625319D01*
X1997004Y1618319D02*
X2005004D01*
X2001004Y1614319D02*
Y1622319D01*
X1994004Y1618319D02*
X2002004D01*
X1998004Y1614319D02*
Y1622319D01*
X1991004Y1615319D02*
X1999004D01*
X1995004Y1611319D02*
Y1619319D01*
X1994004Y1621319D02*
X2002004D01*
X1998004Y1617319D02*
Y1625319D01*
X1991004Y1621319D02*
X1999004D01*
X1995004Y1617319D02*
Y1625319D01*
X1991004Y1618319D02*
X1999004D01*
X1995004Y1614319D02*
Y1622319D01*
X2000004Y1615319D02*
X2008004D01*
X2004004Y1611319D02*
Y1619319D01*
X2011004Y1610869D02*
X2015004Y1614869D01*
X2011004Y1618869*
X2007004Y1614869*
X2011004Y1610869*
Y1614869D02*
Y1618869D01*
Y1615219D02*
X2015004Y1619219D01*
X2011004Y1623219*
X2007004Y1619219*
X2011004Y1615219*
Y1619219D02*
Y1623219D01*
X2000004Y1621319D02*
X2008004D01*
X2004004Y1617319D02*
Y1625319D01*
X2000004Y1618319D02*
X2008004D01*
X2004004Y1614319D02*
Y1622319D01*
X2009404Y1615019D02*
X2017404D01*
Y1623019*
X2009404*
Y1615019*
X2013404Y1619019D02*
Y1623019D01*
X2014754Y1617803D02*
X2022754D01*
Y1625803*
X2014754*
Y1617803*
X2018754Y1621803D02*
Y1625803D01*
X2017004Y1617819D02*
X2025004D01*
Y1625819*
X2017004*
Y1617819*
X2021004Y1621819D02*
Y1625819D01*
X2010104Y1611019D02*
X2018104D01*
Y1619019*
X2010104*
Y1611019*
X2014104Y1615019D02*
Y1619019D01*
X2011804Y1611019D02*
X2019804D01*
Y1619019*
X2011804*
Y1611019*
X2015804Y1615019D02*
Y1619019D01*
X2015754Y1616053D02*
X2023754D01*
Y1624053*
X2015754*
Y1616053*
X2019754Y1620053D02*
Y1624053D01*
X2015504Y1614019D02*
X2023504D01*
Y1622019*
X2015504*
Y1614019*
X2019504Y1618019D02*
Y1622019D01*
X2011204Y1615919D02*
X2019204D01*
Y1623919*
X2011204*
Y1615919*
X2015204Y1619919D02*
Y1623919D01*
X2013204Y1615919D02*
X2021204D01*
Y1623919*
X2013204*
Y1615919*
X2017204Y1619919D02*
Y1623919D01*
X2026004Y1621553D02*
X2034004D01*
X2030004Y1617553D02*
Y1625553D01*
X2023004Y1621553D02*
X2031004D01*
X2027004Y1617553D02*
Y1625553D01*
X2028004Y1616319D02*
X2036004D01*
Y1624319*
X2028004*
Y1616319*
X2032004Y1620319D02*
Y1624319D01*
X2024504Y1619553D02*
X2032504D01*
X2028504Y1615553D02*
Y1623553D01*
X2028020Y1611285D02*
X2036020D01*
Y1619285*
X2028020*
Y1611285*
X2032020Y1615285D02*
Y1619285D01*
X2028066Y1613718D02*
X2036066D01*
Y1621718*
X2028066*
Y1613718*
X2032066Y1617718D02*
Y1621718D01*
X1969254Y1628053D02*
X1977254D01*
X1973254Y1624053D02*
Y1632053D01*
X1971754Y1634303D02*
X1979754D01*
X1975754Y1630303D02*
Y1638303D01*
X1977004Y1623069D02*
X1985004D01*
Y1631069*
X1977004*
Y1623069*
X1981004Y1627069D02*
Y1631069D01*
X1975504Y1624569D02*
X1983504D01*
Y1632569*
X1975504*
Y1624569*
X1979504Y1628569D02*
Y1632569D01*
X1975504Y1621569D02*
X1983504D01*
Y1629569*
X1975504*
Y1621569*
X1979504Y1625569D02*
Y1629569D01*
X1976754Y1628569D02*
X1984754D01*
Y1636569*
X1976754*
Y1628569*
X1980754Y1632569D02*
Y1636569D01*
X1981254Y1629069D02*
X1989254D01*
Y1637069*
X1981254*
Y1629069*
X1985254Y1633069D02*
Y1637069D01*
X1999254Y1631803D02*
X2007254D01*
X2003254Y1627803D02*
Y1635803D01*
X1999254Y1634553D02*
X2007254D01*
X2003254Y1630553D02*
Y1638553D01*
X2004754Y1623819D02*
X2012754Y1631819D01*
Y1623819*
X2004754Y1631819*
Y1623819*
X2009564Y1620933D02*
X2017564D01*
Y1628933*
X2009564*
Y1620933*
X2013564Y1624933D02*
Y1628933D01*
X2008004Y1632303D02*
X2016004D01*
X2012004Y1628303D02*
Y1636303D01*
X2004004Y1633303D02*
X2012004D01*
X2008004Y1629303D02*
Y1637303D01*
X2005504Y1631303D02*
X2013504D01*
X2009504Y1627303D02*
Y1635303D01*
X2017504Y1631053D02*
X2025504D01*
X2021504Y1627053D02*
Y1635053D01*
X2018754Y1625319D02*
X2026754D01*
X2022754Y1621319D02*
Y1629319D01*
X2013754Y1633303D02*
X2021754D01*
X2017754Y1629303D02*
Y1637303D01*
X2012504Y1630803D02*
X2020504D01*
X2016504Y1626803D02*
Y1634803D01*
X2015004Y1631053D02*
X2023004D01*
X2019004Y1627053D02*
Y1635053D01*
X2010004Y1630803D02*
X2018004D01*
X2014004Y1626803D02*
Y1634803D01*
X2011254Y1633053D02*
X2019254D01*
X2015254Y1629053D02*
Y1637053D01*
X2020754Y1631053D02*
X2028754D01*
X2024754Y1627053D02*
Y1635053D01*
X2026754Y1631803D02*
X2034754D01*
X2030754Y1627803D02*
Y1635803D01*
X2024004Y1631053D02*
X2032004D01*
X2028004Y1627053D02*
Y1635053D01*
X2021504Y1625819D02*
X2029504D01*
X2025504Y1621819D02*
Y1629819D01*
X2027754Y1625053D02*
X2035754D01*
X2031754Y1621053D02*
Y1629053D01*
X2024754Y1625803D02*
X2032754D01*
X2028754Y1621803D02*
Y1629803D01*
X1969254Y1635069D02*
X1977254D01*
X1973254Y1631069D02*
Y1639069D01*
X1979004Y1635803D02*
X1987004D01*
X1983004Y1631803D02*
Y1639803D01*
X1974004Y1635803D02*
X1982004D01*
X1978004Y1631803D02*
Y1639803D01*
X1976504Y1635053D02*
X1984504D01*
X1980504Y1631053D02*
Y1639053D01*
X1979504Y1644303D02*
X1987504D01*
X1983504Y1640303D02*
Y1648303D01*
X1970754Y1643053D02*
X1978754D01*
X1974754Y1639053D02*
Y1647053D01*
X1980254Y1634819D02*
X1988254Y1642819D01*
Y1634819*
X1980254Y1642819*
Y1634819*
Y1637319D02*
X1988254Y1645319D01*
Y1637319*
X1980254Y1645319*
Y1637319*
X1986754D02*
X1994754Y1645319D01*
Y1637319*
X1986754Y1645319*
Y1637319*
Y1634819D02*
X1994754Y1642819D01*
Y1634819*
X1986754Y1642819*
Y1634819*
X1984754Y1644303D02*
X1992754D01*
X1988754Y1640303D02*
Y1648303D01*
X1987254Y1644303D02*
X1995254D01*
X1991254Y1640303D02*
Y1648303D01*
X1982254Y1644303D02*
X1990254D01*
X1986254Y1640303D02*
Y1648303D01*
X1988754Y1632569D02*
X1996754D01*
Y1640569*
X1988754*
Y1632569*
X1992754Y1636569D02*
Y1640569D01*
X1998504Y1637303D02*
X2006504D01*
X2002504Y1633303D02*
Y1641303D01*
X1999254Y1640053D02*
X2007254D01*
X2003254Y1636053D02*
Y1644053D01*
X1991504Y1639569D02*
X1999504D01*
Y1647569*
X1991504*
Y1639569*
X1995504Y1643569D02*
Y1647569D01*
X1998504Y1643803D02*
X2006504D01*
X2002504Y1639803D02*
Y1647803D01*
X1992504Y1632719D02*
X2000504D01*
Y1640719*
X1992504*
Y1632719*
X1996504Y1636719D02*
Y1640719D01*
X1994754Y1638819D02*
X2002754D01*
Y1646819*
X1994754*
Y1638819*
X1998754Y1642819D02*
Y1646819D01*
X2009254Y1634803D02*
X2017254D01*
X2013254Y1630803D02*
Y1638803D01*
X2007754Y1636803D02*
X2015754D01*
X2011754Y1632803D02*
Y1640803D01*
X2008504Y1639303D02*
X2016504D01*
X2012504Y1635303D02*
Y1643303D01*
X2006004Y1638553D02*
X2014004D01*
X2010004Y1634553D02*
Y1642553D01*
X2005754Y1635053D02*
X2013754D01*
X2009754Y1631053D02*
Y1639053D01*
X2002004Y1644303D02*
X2010004D01*
X2006004Y1640303D02*
Y1648303D01*
X2008004Y1642053D02*
X2016004D01*
X2012004Y1638053D02*
Y1646053D01*
X2005504Y1641053D02*
X2013504D01*
X2009504Y1637053D02*
Y1645053D01*
X2004004Y1637053D02*
X2012004D01*
X2008004Y1633053D02*
Y1641053D01*
X2000504Y1642303D02*
X2008504D01*
X2004504Y1638303D02*
Y1646303D01*
X2012254Y1639803D02*
X2020254D01*
X2016254Y1635803D02*
Y1643803D01*
X2012004Y1635553D02*
X2020004D01*
X2016004Y1631553D02*
Y1639553D01*
X2010254Y1637553D02*
X2018254D01*
X2014254Y1633553D02*
Y1641553D01*
X2013504Y1642053D02*
X2021504D01*
X2017504Y1638053D02*
Y1646053D01*
X2013504Y1637553D02*
X2021504D01*
X2017504Y1633553D02*
Y1641553D01*
X2010504Y1642053D02*
X2018504D01*
X2014504Y1638053D02*
Y1646053D01*
X2027754Y1644303D02*
X2035754D01*
X2031754Y1640303D02*
Y1648303D01*
X1969254Y1645303D02*
X1977254D01*
X1973254Y1641303D02*
Y1649303D01*
X1969254Y1648303D02*
X1977254D01*
X1973254Y1644303D02*
Y1652303D01*
X1974754Y1646053D02*
X1982754D01*
X1978754Y1642053D02*
Y1650053D01*
X1977254Y1645553D02*
X1985254D01*
X1981254Y1641553D02*
Y1649553D01*
X1972004Y1645553D02*
X1980004D01*
X1976004Y1641553D02*
Y1649553D01*
X1979254Y1648303D02*
X1987254D01*
X1983254Y1644303D02*
Y1652303D01*
X1976254Y1648303D02*
X1984254D01*
X1980254Y1644303D02*
Y1652303D01*
X1973004Y1648303D02*
X1981004D01*
X1977004Y1644303D02*
Y1652303D01*
X1981004Y1646553D02*
X1989004D01*
X1985004Y1642553D02*
Y1650553D01*
X1983254Y1648303D02*
X1991254D01*
X1987254Y1644303D02*
Y1652303D01*
X1985254Y1646803D02*
X1993254D01*
X1989254Y1642803D02*
Y1650803D01*
X1987504Y1648303D02*
X1995504D01*
X1991504Y1644303D02*
Y1652303D01*
X1989504Y1645553D02*
X1997504D01*
X1993504Y1641553D02*
Y1649553D01*
X1994254Y1645053D02*
X2002254D01*
X1998254Y1641053D02*
Y1649053D01*
X1990254Y1648303D02*
X1998254D01*
X1994254Y1644303D02*
Y1652303D01*
X1997004Y1645803D02*
X2005004D01*
X2001004Y1641803D02*
Y1649803D01*
X1994254Y1648303D02*
X2002254D01*
X1998254Y1644303D02*
Y1652303D01*
X1997754Y1648303D02*
X2005754D01*
X2001754Y1644303D02*
Y1652303D01*
X1992004Y1646303D02*
X2000004D01*
X1996004Y1642303D02*
Y1650303D01*
X2006504Y1646553D02*
X2014504D01*
X2010504Y1642553D02*
Y1650553D01*
X2004004Y1645803D02*
X2012004D01*
X2008004Y1641803D02*
Y1649803D01*
X2001004Y1648303D02*
X2009004D01*
X2005004Y1644303D02*
Y1652303D01*
X2004504Y1648303D02*
X2012504D01*
X2008504Y1644303D02*
Y1652303D01*
X2000004Y1645803D02*
X2008004D01*
X2004004Y1641803D02*
Y1649803D01*
X2007754Y1648303D02*
X2015754D01*
X2011754Y1644303D02*
Y1652303D01*
X2009254Y1646803D02*
X2017254D01*
X2013254Y1642803D02*
Y1650803D01*
X2018754Y1646803D02*
X2026754D01*
X2022754Y1642803D02*
Y1650803D01*
X2017004Y1648303D02*
X2025004D01*
X2021004Y1644303D02*
Y1652303D01*
X2015254Y1646803D02*
X2023254D01*
X2019254Y1642803D02*
Y1650803D01*
X2013504Y1648303D02*
X2021504D01*
X2017504Y1644303D02*
Y1652303D01*
X2011754Y1646803D02*
X2019754D01*
X2015754Y1642803D02*
Y1650803D01*
X2024504Y1648303D02*
X2032504D01*
X2028504Y1644303D02*
Y1652303D01*
X2020754Y1648303D02*
X2028754D01*
X2024754Y1644303D02*
Y1652303D01*
X2027754Y1648303D02*
X2035754D01*
X2031754Y1644303D02*
Y1652303D01*
X2026254Y1646303D02*
X2034254D01*
X2030254Y1642303D02*
Y1650303D01*
X2030504Y1648303D02*
X2038504D01*
X2034504Y1644303D02*
Y1652303D01*
X2029754Y1645803D02*
X2037754D01*
X2033754Y1641803D02*
Y1649803D01*
X1968504Y1650394D02*
X2039370D01*
Y1574803*
X1968504*
Y1650394*
X2218504Y1742803D02*
X2476504D01*
X2218504Y1718803D02*
X2476504D01*
X2218504Y1694803D02*
X2476504D01*
X2218504Y1670803D02*
X2476504D01*
X2218504Y1646803D02*
X2476504D01*
X2218504Y1622803D02*
X2476504D01*
X2218504Y1598803D02*
X2476504D01*
X2218504Y1574803D02*
X2476504D01*
X2218504Y1742803D02*
Y1574803D01*
X2302504Y1742803D02*
Y1574803D01*
X2338504Y1742803D02*
Y1574803D01*
X2374504Y1742803D02*
Y1574803D01*
X2428504Y1742803D02*
Y1574803D01*
X2476504Y1742803D02*
Y1574803D01*
X2445186Y1732678D02*
Y1724803D01*
X2443277Y1732678D02*
X2447095D01*
X2451186D02*
X2450640Y1732303D01*
X2450095Y1731553*
X2449822Y1730803*
X2449549Y1729678*
Y1727803*
X2449822Y1726678*
X2450095Y1725928*
X2450640Y1725178*
X2451186Y1724803*
X2452277*
X2452822Y1725178*
X2453368Y1725928*
X2453640Y1726678*
X2453913Y1727803*
Y1729678*
X2453640Y1730803*
X2453368Y1731553*
X2452822Y1732303*
X2452277Y1732678*
X2451186*
X2456368D02*
Y1724803D01*
X2459640*
X2226140Y1708678D02*
X2225322Y1708303D01*
X2224777Y1707178*
X2224504Y1705303*
Y1704178*
X2224777Y1702303*
X2225322Y1701178*
X2226140Y1700803*
X2226686*
X2227504Y1701178*
X2228049Y1702303*
X2228322Y1704178*
Y1705303*
X2228049Y1707178*
X2227504Y1708303*
X2226686Y1708678*
X2226140*
X2231049Y1701553D02*
X2230777Y1701178D01*
X2231049Y1700803*
X2231322Y1701178*
X2231049Y1701553*
X2234049Y1706803D02*
Y1707178D01*
X2234322Y1707928*
X2234595Y1708303*
X2235140Y1708678*
X2236231*
X2236777Y1708303*
X2237049Y1707928*
X2237322Y1707178*
Y1706428*
X2237049Y1705678*
X2236504Y1704553*
X2233777Y1700803*
X2237595*
X2243595Y1708678D02*
X2240868D01*
X2240595Y1705303*
X2240868Y1705678*
X2241686Y1706053*
X2242504*
X2243322Y1705678*
X2243868Y1704928*
X2244140Y1703803*
X2243868Y1703053*
X2243595Y1701928*
X2243049Y1701178*
X2242231Y1700803*
X2241413*
X2240595Y1701178*
X2240322Y1701553*
X2240049Y1702303*
X2312640Y1707178D02*
X2313186Y1707553D01*
X2314004Y1708678*
Y1700803*
X2317822Y1708678D02*
X2317004Y1708303D01*
X2316731Y1707553*
Y1706803*
X2317004Y1706053*
X2317549Y1705678*
X2318640Y1705303*
X2319458Y1704928*
X2320004Y1704178*
X2320277Y1703428*
Y1702303*
X2320004Y1701553*
X2319731Y1701178*
X2318913Y1700803*
X2317822*
X2317004Y1701178*
X2316731Y1701553*
X2316458Y1702303*
Y1703428*
X2316731Y1704178*
X2317277Y1704928*
X2318095Y1705303*
X2319186Y1705678*
X2319731Y1706053*
X2320004Y1706803*
Y1707553*
X2319731Y1708303*
X2318913Y1708678*
X2317822*
X2326004Y1707553D02*
X2325731Y1708303D01*
X2324913Y1708678*
X2324368*
X2323549Y1708303*
X2323004Y1707178*
X2322731Y1705303*
Y1703428*
X2323004Y1701928*
X2323549Y1701178*
X2324368Y1700803*
X2324640*
X2325458Y1701178*
X2326004Y1701928*
X2326277Y1703053*
Y1703428*
X2326004Y1704553*
X2325458Y1705303*
X2324640Y1705678*
X2324368*
X2323549Y1705303*
X2323004Y1704553*
X2322731Y1703428*
X2350504Y1706803D02*
X2362504D01*
X2356504Y1700803D02*
Y1712803D01*
X2383140Y1708678D02*
X2385322Y1704928D01*
Y1700803*
X2387504Y1708678D02*
X2385322Y1704928D01*
X2389958Y1708678D02*
Y1700803D01*
Y1708678D02*
X2393504D01*
X2389958Y1704928D02*
X2392140D01*
X2389958Y1700803D02*
X2393504D01*
X2399777Y1707553D02*
X2399231Y1708303D01*
X2398413Y1708678*
X2397322*
X2396504Y1708303*
X2395958Y1707553*
Y1706803*
X2396231Y1706053*
X2396504Y1705678*
X2397049Y1705303*
X2398686Y1704553*
X2399231Y1704178*
X2399504Y1703803*
X2399777Y1703053*
Y1701928*
X2399231Y1701178*
X2398413Y1700803*
X2397322*
X2396504Y1701178*
X2395958Y1701928*
X2436322Y1707553D02*
Y1700803D01*
X2433868Y1704178D02*
X2438777D01*
X2446140Y1710178D02*
X2441231Y1698178D01*
X2448595Y1704178D02*
X2453504D01*
X2457595Y1708678D02*
X2456777Y1708303D01*
X2456231Y1707178*
X2455958Y1705303*
Y1704178*
X2456231Y1702303*
X2456777Y1701178*
X2457595Y1700803*
X2458140*
X2458958Y1701178*
X2459504Y1702303*
X2459777Y1704178*
Y1705303*
X2459504Y1707178*
X2458958Y1708303*
X2458140Y1708678*
X2457595*
X2462504Y1701553D02*
X2462231Y1701178D01*
X2462504Y1700803*
X2462777Y1701178*
X2462504Y1701553*
X2466868Y1708678D02*
X2466049Y1708303D01*
X2465504Y1707178*
X2465231Y1705303*
Y1704178*
X2465504Y1702303*
X2466049Y1701178*
X2466868Y1700803*
X2467413*
X2468231Y1701178*
X2468777Y1702303*
X2469049Y1704178*
Y1705303*
X2468777Y1707178*
X2468231Y1708303*
X2467413Y1708678*
X2466868*
X2226140Y1684678D02*
X2225322Y1684303D01*
X2224777Y1683178*
X2224504Y1681303*
Y1680178*
X2224777Y1678303*
X2225322Y1677178*
X2226140Y1676803*
X2226686*
X2227504Y1677178*
X2228049Y1678303*
X2228322Y1680178*
Y1681303*
X2228049Y1683178*
X2227504Y1684303*
X2226686Y1684678*
X2226140*
X2231049Y1677553D02*
X2230777Y1677178D01*
X2231049Y1676803*
X2231322Y1677178*
X2231049Y1677553*
X2237322Y1684678D02*
X2234595D01*
X2234322Y1681303*
X2234595Y1681678*
X2235413Y1682053*
X2236231*
X2237049Y1681678*
X2237595Y1680928*
X2237868Y1679803*
X2237595Y1679053*
X2237322Y1677928*
X2236777Y1677178*
X2235958Y1676803*
X2235140*
X2234322Y1677178*
X2234049Y1677553*
X2233777Y1678303*
X2243868Y1684678D02*
X2241140D01*
X2240868Y1681303*
X2241140Y1681678*
X2241958Y1682053*
X2242777*
X2243595Y1681678*
X2244140Y1680928*
X2244413Y1679803*
X2244140Y1679053*
X2243868Y1677928*
X2243322Y1677178*
X2242504Y1676803*
X2241686*
X2240868Y1677178*
X2240595Y1677553*
X2240322Y1678303*
X2315095Y1684678D02*
X2318095D01*
X2316458Y1681678*
X2317277*
X2317822Y1681303*
X2318095Y1680928*
X2318368Y1679803*
Y1679053*
X2318095Y1677928*
X2317549Y1677178*
X2316731Y1676803*
X2315913*
X2315095Y1677178*
X2314822Y1677553*
X2314549Y1678303*
X2324095Y1683553D02*
X2323822Y1684303D01*
X2323004Y1684678*
X2322458*
X2321640Y1684303*
X2321095Y1683178*
X2320822Y1681303*
Y1679428*
X2321095Y1677928*
X2321640Y1677178*
X2322458Y1676803*
X2322731*
X2323549Y1677178*
X2324095Y1677928*
X2324368Y1679053*
Y1679428*
X2324095Y1680553*
X2323549Y1681303*
X2322731Y1681678*
X2322458*
X2321640Y1681303*
X2321095Y1680553*
X2320822Y1679428*
X2350504Y1676803D02*
X2362504Y1688803D01*
X2350504D02*
X2362504Y1676803D01*
X2383140Y1684678D02*
X2385322Y1680928D01*
Y1676803*
X2387504Y1684678D02*
X2385322Y1680928D01*
X2389958Y1684678D02*
Y1676803D01*
Y1684678D02*
X2393504D01*
X2389958Y1680928D02*
X2392140D01*
X2389958Y1676803D02*
X2393504D01*
X2399777Y1683553D02*
X2399231Y1684303D01*
X2398413Y1684678*
X2397322*
X2396504Y1684303*
X2395958Y1683553*
Y1682803*
X2396231Y1682053*
X2396504Y1681678*
X2397049Y1681303*
X2398686Y1680553*
X2399231Y1680178*
X2399504Y1679803*
X2399777Y1679053*
Y1677928*
X2399231Y1677178*
X2398413Y1676803*
X2397322*
X2396504Y1677178*
X2395958Y1677928*
X2440958Y1683553D02*
Y1676803D01*
X2438504Y1680178D02*
X2443413D01*
X2450777Y1686178D02*
X2445868Y1674178D01*
X2453231Y1680178D02*
X2458140D01*
X2461140Y1684678D02*
X2464140D01*
X2462504Y1681678*
X2463322*
X2463868Y1681303*
X2464140Y1680928*
X2464413Y1679803*
Y1679053*
X2464140Y1677928*
X2463595Y1677178*
X2462777Y1676803*
X2461958*
X2461140Y1677178*
X2460868Y1677553*
X2460595Y1678303*
X2226140Y1660678D02*
X2225322Y1660303D01*
X2224777Y1659178*
X2224504Y1657303*
Y1656178*
X2224777Y1654303*
X2225322Y1653178*
X2226140Y1652803*
X2226686*
X2227504Y1653178*
X2228049Y1654303*
X2228322Y1656178*
Y1657303*
X2228049Y1659178*
X2227504Y1660303*
X2226686Y1660678*
X2226140*
X2231049Y1653553D02*
X2230777Y1653178D01*
X2231049Y1652803*
X2231322Y1653178*
X2231049Y1653553*
X2233777Y1659178D02*
X2234322Y1659553D01*
X2235140Y1660678*
Y1652803*
X2241413Y1660678D02*
X2238686Y1652803D01*
X2237595Y1660678D02*
X2241413D01*
X2247686D02*
X2244958Y1652803D01*
X2243868Y1660678D02*
X2247686D01*
X2251504D02*
X2250686Y1660303D01*
X2250413Y1659553*
Y1658803*
X2250686Y1658053*
X2251231Y1657678*
X2252322Y1657303*
X2253140Y1656928*
X2253686Y1656178*
X2253958Y1655428*
Y1654303*
X2253686Y1653553*
X2253413Y1653178*
X2252595Y1652803*
X2251504*
X2250686Y1653178*
X2250413Y1653553*
X2250140Y1654303*
Y1655428*
X2250413Y1656178*
X2250958Y1656928*
X2251777Y1657303*
X2252868Y1657678*
X2253413Y1658053*
X2253686Y1658803*
Y1659553*
X2253413Y1660303*
X2252595Y1660678*
X2251504*
X2317822D02*
X2315095D01*
X2314822Y1657303*
X2315095Y1657678*
X2315913Y1658053*
X2316731*
X2317549Y1657678*
X2318095Y1656928*
X2318368Y1655803*
X2318095Y1655053*
X2317822Y1653928*
X2317277Y1653178*
X2316458Y1652803*
X2315640*
X2314822Y1653178*
X2314549Y1653553*
X2314277Y1654303*
X2324640Y1660678D02*
X2321913Y1652803D01*
X2320822Y1660678D02*
X2324640D01*
X2350504Y1652803D02*
X2362504D01*
Y1664803*
X2350504*
Y1652803*
X2356504Y1658803D02*
Y1664803D01*
X2383140Y1660678D02*
X2385322Y1656928D01*
Y1652803*
X2387504Y1660678D02*
X2385322Y1656928D01*
X2389958Y1660678D02*
Y1652803D01*
Y1660678D02*
X2393504D01*
X2389958Y1656928D02*
X2392140D01*
X2389958Y1652803D02*
X2393504D01*
X2399777Y1659553D02*
X2399231Y1660303D01*
X2398413Y1660678*
X2397322*
X2396504Y1660303*
X2395958Y1659553*
Y1658803*
X2396231Y1658053*
X2396504Y1657678*
X2397049Y1657303*
X2398686Y1656553*
X2399231Y1656178*
X2399504Y1655803*
X2399777Y1655053*
Y1653928*
X2399231Y1653178*
X2398413Y1652803*
X2397322*
X2396504Y1653178*
X2395958Y1653928*
X2440958Y1659553D02*
Y1652803D01*
X2438504Y1656178D02*
X2443413D01*
X2450777Y1662178D02*
X2445868Y1650178D01*
X2453231Y1656178D02*
X2458140D01*
X2461140Y1660678D02*
X2464140D01*
X2462504Y1657678*
X2463322*
X2463868Y1657303*
X2464140Y1656928*
X2464413Y1655803*
Y1655053*
X2464140Y1653928*
X2463595Y1653178*
X2462777Y1652803*
X2461958*
X2461140Y1653178*
X2460868Y1653553*
X2460595Y1654303*
X2226140Y1636678D02*
X2225322Y1636303D01*
X2224777Y1635178*
X2224504Y1633303*
Y1632178*
X2224777Y1630303*
X2225322Y1629178*
X2226140Y1628803*
X2226686*
X2227504Y1629178*
X2228049Y1630303*
X2228322Y1632178*
Y1633303*
X2228049Y1635178*
X2227504Y1636303*
X2226686Y1636678*
X2226140*
X2231049Y1629553D02*
X2230777Y1629178D01*
X2231049Y1628803*
X2231322Y1629178*
X2231049Y1629553*
X2234049Y1634803D02*
Y1635178D01*
X2234322Y1635928*
X2234595Y1636303*
X2235140Y1636678*
X2236231*
X2236777Y1636303*
X2237049Y1635928*
X2237322Y1635178*
Y1634428*
X2237049Y1633678*
X2236504Y1632553*
X2233777Y1628803*
X2237595*
X2241686Y1636678D02*
X2240868Y1636303D01*
X2240322Y1635178*
X2240049Y1633303*
Y1632178*
X2240322Y1630303*
X2240868Y1629178*
X2241686Y1628803*
X2242231*
X2243049Y1629178*
X2243595Y1630303*
X2243868Y1632178*
Y1633303*
X2243595Y1635178*
X2243049Y1636303*
X2242231Y1636678*
X2241686*
X2246868D02*
X2249868D01*
X2248231Y1633678*
X2249049*
X2249595Y1633303*
X2249868Y1632928*
X2250140Y1631803*
Y1631053*
X2249868Y1629928*
X2249322Y1629178*
X2248504Y1628803*
X2247686*
X2246868Y1629178*
X2246595Y1629553*
X2246322Y1630303*
X2252868Y1634803D02*
Y1635178D01*
X2253140Y1635928*
X2253413Y1636303*
X2253958Y1636678*
X2255049*
X2255595Y1636303*
X2255868Y1635928*
X2256140Y1635178*
Y1634428*
X2255868Y1633678*
X2255322Y1632553*
X2252595Y1628803*
X2256413*
X2320140Y1636678D02*
X2317413Y1631428D01*
X2321504*
X2320140Y1636678D02*
Y1628803D01*
X2356504D02*
X2362504Y1634803D01*
X2356504Y1640803*
X2350504Y1634803*
X2356504Y1628803*
Y1634803D02*
Y1640803D01*
X2383140Y1636678D02*
X2385322Y1632928D01*
Y1628803*
X2387504Y1636678D02*
X2385322Y1632928D01*
X2389958Y1636678D02*
Y1628803D01*
Y1636678D02*
X2393504D01*
X2389958Y1632928D02*
X2392140D01*
X2389958Y1628803D02*
X2393504D01*
X2399777Y1635553D02*
X2399231Y1636303D01*
X2398413Y1636678*
X2397322*
X2396504Y1636303*
X2395958Y1635553*
Y1634803*
X2396231Y1634053*
X2396504Y1633678*
X2397049Y1633303*
X2398686Y1632553*
X2399231Y1632178*
X2399504Y1631803*
X2399777Y1631053*
Y1629928*
X2399231Y1629178*
X2398413Y1628803*
X2397322*
X2396504Y1629178*
X2395958Y1629928*
X2440958Y1635553D02*
Y1628803D01*
X2438504Y1632178D02*
X2443413D01*
X2450777Y1638178D02*
X2445868Y1626178D01*
X2453231Y1632178D02*
X2458140D01*
X2461140Y1636678D02*
X2464140D01*
X2462504Y1633678*
X2463322*
X2463868Y1633303*
X2464140Y1632928*
X2464413Y1631803*
Y1631053*
X2464140Y1629928*
X2463595Y1629178*
X2462777Y1628803*
X2461958*
X2461140Y1629178*
X2460868Y1629553*
X2460595Y1630303*
X2226140Y1612678D02*
X2225322Y1612303D01*
X2224777Y1611178*
X2224504Y1609303*
Y1608178*
X2224777Y1606303*
X2225322Y1605178*
X2226140Y1604803*
X2226686*
X2227504Y1605178*
X2228049Y1606303*
X2228322Y1608178*
Y1609303*
X2228049Y1611178*
X2227504Y1612303*
X2226686Y1612678*
X2226140*
X2231049Y1605553D02*
X2230777Y1605178D01*
X2231049Y1604803*
X2231322Y1605178*
X2231049Y1605553*
X2237595Y1612678D02*
X2234868Y1604803D01*
X2233777Y1612678D02*
X2237595D01*
X2317822Y1610803D02*
Y1611178D01*
X2318095Y1611928*
X2318368Y1612303*
X2318913Y1612678*
X2320004*
X2320549Y1612303*
X2320822Y1611928*
X2321095Y1611178*
Y1610428*
X2320822Y1609678*
X2320277Y1608553*
X2317549Y1604803*
X2321368*
X2350504D02*
X2362504D01*
X2350504Y1616803*
X2362504*
X2350504Y1604803*
X2383140Y1612678D02*
X2385322Y1608928D01*
Y1604803*
X2387504Y1612678D02*
X2385322Y1608928D01*
X2389958Y1612678D02*
Y1604803D01*
Y1612678D02*
X2393504D01*
X2389958Y1608928D02*
X2392140D01*
X2389958Y1604803D02*
X2393504D01*
X2399777Y1611553D02*
X2399231Y1612303D01*
X2398413Y1612678*
X2397322*
X2396504Y1612303*
X2395958Y1611553*
Y1610803*
X2396231Y1610053*
X2396504Y1609678*
X2397049Y1609303*
X2398686Y1608553*
X2399231Y1608178*
X2399504Y1607803*
X2399777Y1607053*
Y1605928*
X2399231Y1605178*
X2398413Y1604803*
X2397322*
X2396504Y1605178*
X2395958Y1605928*
X2440958Y1611553D02*
Y1604803D01*
X2438504Y1608178D02*
X2443413D01*
X2450777Y1614178D02*
X2445868Y1602178D01*
X2453231Y1608178D02*
X2458140D01*
X2461140Y1612678D02*
X2464140D01*
X2462504Y1609678*
X2463322*
X2463868Y1609303*
X2464140Y1608928*
X2464413Y1607803*
Y1607053*
X2464140Y1605928*
X2463595Y1605178*
X2462777Y1604803*
X2461958*
X2461140Y1605178*
X2460868Y1605553*
X2460595Y1606303*
X2226140Y1588678D02*
X2225322Y1588303D01*
X2224777Y1587178*
X2224504Y1585303*
Y1584178*
X2224777Y1582303*
X2225322Y1581178*
X2226140Y1580803*
X2226686*
X2227504Y1581178*
X2228049Y1582303*
X2228322Y1584178*
Y1585303*
X2228049Y1587178*
X2227504Y1588303*
X2226686Y1588678*
X2226140*
X2231049Y1581553D02*
X2230777Y1581178D01*
X2231049Y1580803*
X2231322Y1581178*
X2231049Y1581553*
X2234049Y1586803D02*
Y1587178D01*
X2234322Y1587928*
X2234595Y1588303*
X2235140Y1588678*
X2236231*
X2236777Y1588303*
X2237049Y1587928*
X2237322Y1587178*
Y1586428*
X2237049Y1585678*
X2236504Y1584553*
X2233777Y1580803*
X2237595*
X2243595Y1588678D02*
X2240868D01*
X2240595Y1585303*
X2240868Y1585678*
X2241686Y1586053*
X2242504*
X2243322Y1585678*
X2243868Y1584928*
X2244140Y1583803*
X2243868Y1583053*
X2243595Y1581928*
X2243049Y1581178*
X2242231Y1580803*
X2241413*
X2240595Y1581178*
X2240322Y1581553*
X2240049Y1582303*
X2249322Y1588678D02*
X2246595Y1583428D01*
X2250686*
X2249322Y1588678D02*
Y1580803D01*
X2320958Y1588678D02*
X2318231D01*
X2317958Y1585303*
X2318231Y1585678*
X2319049Y1586053*
X2319868*
X2320686Y1585678*
X2321231Y1584928*
X2321504Y1583803*
X2321231Y1583053*
X2320958Y1581928*
X2320413Y1581178*
X2319595Y1580803*
X2318777*
X2317958Y1581178*
X2317686Y1581553*
X2317413Y1582303*
X2350504Y1580803D02*
X2362504Y1592803D01*
Y1580803*
X2350504Y1592803*
Y1580803*
X2383140Y1588678D02*
X2385322Y1584928D01*
Y1580803*
X2387504Y1588678D02*
X2385322Y1584928D01*
X2389958Y1588678D02*
Y1580803D01*
Y1588678D02*
X2393504D01*
X2389958Y1584928D02*
X2392140D01*
X2389958Y1580803D02*
X2393504D01*
X2399777Y1587553D02*
X2399231Y1588303D01*
X2398413Y1588678*
X2397322*
X2396504Y1588303*
X2395958Y1587553*
Y1586803*
X2396231Y1586053*
X2396504Y1585678*
X2397049Y1585303*
X2398686Y1584553*
X2399231Y1584178*
X2399504Y1583803*
X2399777Y1583053*
Y1581928*
X2399231Y1581178*
X2398413Y1580803*
X2397322*
X2396504Y1581178*
X2395958Y1581928*
X2440958Y1587553D02*
Y1580803D01*
X2438504Y1584178D02*
X2443413D01*
X2450777Y1590178D02*
X2445868Y1578178D01*
X2453231Y1584178D02*
X2458140D01*
X2461140Y1588678D02*
X2464140D01*
X2462504Y1585678*
X2463322*
X2463868Y1585303*
X2464140Y1584928*
X2464413Y1583803*
Y1583053*
X2464140Y1581928*
X2463595Y1581178*
X2462777Y1580803*
X2461958*
X2461140Y1581178*
X2460868Y1581553*
X2460595Y1582303*
G54D109*
X1968504Y1656772D02*
X1992357D01*
X1968504D02*
X1973504Y1657772D01*
Y1655772*
X1968504Y1656772*
X2039370D02*
X2015516D01*
X2039370D02*
X2034370Y1655772D01*
Y1657772*
X2039370Y1656772*
X1968504Y1652394D02*
Y1658772D01*
X2039370Y1652394D02*
Y1658772D01*
X2054252Y1574803D02*
Y1607723D01*
Y1574803D02*
X2053252Y1579803D01*
X2055252*
X2054252Y1574803*
Y1650394D02*
Y1617473D01*
Y1650394D02*
X2055252Y1645394D01*
X2053252*
X2054252Y1650394*
X2041370Y1574803D02*
X2056252D01*
X2041370Y1650394D02*
X2056252D01*
X0Y0D02*
M02*
