%
T1C.007F0S0
X19917Y160222
X19862Y160386
X198305Y160386
X1988Y160386
X198148Y160482
X198463Y160482
X198375Y161307
X198025Y161807
X198225Y161807
X1979Y161932
X19785Y162107
X198425Y162307
X19815Y162407
X19795Y162557
X1981Y162707
X19795Y162857
X198075Y163257
X198525Y163307
X199275Y163657
X19955Y164357
X199875Y164282
X19965Y163672
X201356Y162493
X20152Y161992
X20172Y161992
X20134Y161902
X20141Y161502
X20158Y161502
X201625Y16113
X2014Y161112
X20114Y160802
X201162Y160594
X201375Y160582
X20155Y160582
X20043Y160262
X2003Y160132
X200146Y160013
X199525Y159107
X200475Y159107
X20065Y159107
X199825Y158957
X1995Y158782
X200325Y158782
X20015Y158782
X199675Y158607
X2Y158457
X203175Y160582
X203197Y16082
X203207Y161072
X2032Y161302
X203202Y161528
X203207Y161772
X20195Y161802
X201975Y162005
X2032Y162032
X201875Y16218
X2021Y162182
T2C.008F0S0
X200825Y160257
X2011Y161487
X1984Y161601
X2011Y161922
T3C.00984F0S0
X197046Y157666
X197766Y157672
X197488Y157672
X197625Y157905
X19735Y157955
X197875Y15798
X1989Y15798
X19845Y158005
X1993Y158032
X198675Y158155
X19825Y158155
X199075Y158157
X1977Y158205
X1974Y158255
X197525Y15848
X19803Y15871
X19737Y15884
X19755Y159032
X19803Y15921
X197372Y159345
X19803Y15971
X19734Y15981
X197775Y16078
X1992Y160929
X19795Y160955
X19805Y161205
X1992Y161229
X1992Y161532
X1992Y161832
X1992Y162132
X197325Y162805
X197575Y16343
X19805Y163505
X197325Y163507
X1978Y16358
X1983Y16358
X197475Y164305
X19835Y16443
X198875Y16443
X199125Y16443
X198625Y16443
X197325Y16453
X198125Y164555
X1976Y164555
X197875Y164605
X1985Y164655
X198925Y16468
X198025Y16483
X1977Y16483
X197325Y16483
X198725Y16483
X198325Y16483
X19915Y16483
X199425Y16483
X199825Y16483
X200175Y16483
X2005Y16483
X20085Y16483
X201175Y16483
X20175Y16483
X201325Y16468
X201575Y16468
X20105Y164655
X1996Y16463
X2001Y16458
X2008Y16458
X2004Y16458
X19935Y164555
X199825Y164505
X2006Y16443
X20025Y16438
X20045Y16423
X2012Y164205
X20175Y164205
X20145Y164205
X20095Y164105
X200325Y164005
X201625Y16398
X20125Y16393
X201Y163855
X201425Y163755
X20175Y163755
X20025Y16373
X2008Y163705
X201175Y16368
X2016Y163555
X200975Y163505
X201325Y16348
X200325Y163455
X2008Y16333
X201775Y16333
X201525Y163305
X2012Y16323
X200325Y16318
X20095Y16313
X20165Y16308
X2014Y16308
X1995Y162132
X1998Y162132
X2004Y162132
X2001Y162132
X1995Y161832
X2004Y161832
X2001Y161832
X1998Y161832
X2004Y161532
X2001Y161532
X1998Y161532
X1995Y161532
X2018Y161255
X2001Y161229
X1995Y161229
X1998Y161229
X2004Y161229
X2001Y160929
X1998Y160929
X1995Y160929
X2004Y160929
X2018Y160805
X20175Y160455
X200675Y158707
X1995Y158432
X200675Y158205
X1995Y15818
X2013Y158132
X201575Y158132
X200325Y158055
X200875Y158005
X201775Y157982
X20345Y15768
X20315Y15768
X203721Y15769
X2033Y15788
X20299Y157882
X203125Y15823
X202675Y15823
X20245Y15838
X2029Y15838
X20335Y158382
X202775Y15873
X202375Y15873
X2032Y15873
X203Y15888
X202575Y15888
X2034Y15888
X202175Y15888
X202725Y15923
X202425Y15923
X20305Y15923
X203375Y15923
X20215Y159232
X20338Y159772
X20265Y160105
X202375Y160105
X202125Y160105
X2029Y16013
X201875Y16023
X202375Y16033
X2031Y16033
X2021Y160355
X2025Y160555
X20225Y160555
X20195Y160605
X201925Y16103
X20285Y161955
X2027Y162155
X203Y162155
X203175Y162505
X202275Y162532
X202875Y16258
X20255Y162582
X20215Y163105
X2019Y163105
X202475Y163105
X2028Y163105
X203075Y16318
X203175Y16443
X203375Y16458
X203025Y16463
X202275Y16468
X201925Y16468
X202475Y16483
X203175Y16483
X2021Y16483
X20345Y16483
X20285Y16483
T4C.01F095S3
X198425Y163882
X199075Y163882
X199075Y164132
X198425Y164132
X200875Y162782
T5C.02165F197S55
X198148Y15748
X198648Y15748
X199148Y15748
X19685Y158071
X19685Y158571
X19685Y159071
X19685Y159571
X19685Y160071
X19685Y160571
X19685Y161071
X19685Y161571
X19685Y162071
X19685Y162571
X19685Y163071
X19685Y163571
X19685Y164571
X199648Y15748
X200648Y15748
X201148Y15748
X200148Y15748
X201648Y15748
X202148Y15748
X202648Y15748
X203938Y158071
X203937Y158571
X203937Y159071
X203937Y159571
X203937Y160071
X203937Y160571
X203937Y161071
X203937Y162071
X203937Y162571
X203937Y163071
X203937Y163571
X203937Y164071
X203937Y164571
T6C.02756F197S55
X203937Y161571
X19685Y164071
M30
