*
*
G04 PADS 9.5 Build Number: 522968 generated Gerber (RS-274-X) file*
G04 PC Version=2.1*
*
%IN "ESP32_WROOM32_UFL_5X5_V"*%
*
%MOIN*%
*
%FSLAX35Y35*%
*
*
*
*
G04 PC Standard Apertures*
*
*
G04 Thermal Relief Aperture macro.*
%AMTER*
1,1,$1,0,0*
1,0,$1-$2,0,0*
21,0,$3,$4,0,0,45*
21,0,$3,$4,0,0,135*
%
*
*
G04 Annular Aperture macro.*
%AMANN*
1,1,$1,0,0*
1,0,$2,0,0*
%
*
*
G04 Odd Aperture macro.*
%AMODD*
1,1,$1,0,0*
1,0,$1-0.005,0,0*
%
*
*
G04 PC Custom Aperture Macros*
*
*
*
*
*
*
G04 PC Aperture Table*
*
%ADD010C,0.001*%
%ADD044C,0.01*%
%ADD109C,0.005*%
*
*
*
*
G04 PC Circuitry*
G04 Layer Name ESP32_WROOM32_UFL_5X5_V - circuitry*
%LPD*%
*
G54D10*
G01X2064117Y1612327D02*
X2064074Y1612628D01*
X2063950Y1612876*
X2063748Y1612997*
X2063454Y1613039*
X2063240Y1612996*
X2063073Y1612954*
X2062910Y1612832*
X2062781Y1612617*
X2062693Y1612621*
X2062608Y1612792*
X2062487Y1612913*
X2062277Y1612997*
X2062070Y1613038*
X2061905Y1612997*
X2061695Y1612913*
X2061434Y1612652*
X2061349Y1612688*
Y1612995*
X2061047*
Y1610773*
X2061349*
Y1612197*
X2061350Y1612209*
X2061395Y1612387*
X2061405Y1612407*
X2061628Y1612675*
X2061653Y1612691*
X2061966Y1612780*
X2061991Y1612781*
X2062170Y1612736*
X2062186Y1612729*
X2062319Y1612640*
X2062336Y1612621*
X2062426Y1612442*
X2062431Y1612420*
Y1610773*
X2062733*
Y1612063*
Y1612070*
X2062778Y1612382*
X2062787Y1612405*
X2062921Y1612584*
X2062931Y1612594*
X2063110Y1612728*
X2063130Y1612737*
X2063353Y1612781*
X2063373*
X2063596Y1612737*
X2063626Y1612718*
X2063760Y1612539*
X2063768Y1612525*
X2063812Y1612391*
X2063815Y1612375*
Y1610773*
X2064117*
Y1612327*
X2060367D02*
X2060324Y1612628D01*
X2060200Y1612876*
X2059998Y1612997*
X2059704Y1613039*
X2059490Y1612996*
X2059323Y1612954*
X2059160Y1612832*
X2059031Y1612617*
X2058943Y1612621*
X2058858Y1612792*
X2058737Y1612913*
X2058527Y1612997*
X2058320Y1613038*
X2058155Y1612997*
X2057945Y1612913*
X2057684Y1612652*
X2057599Y1612688*
Y1612995*
X2057297*
Y1610773*
X2057599*
Y1612197*
X2057600Y1612209*
X2057645Y1612387*
X2057655Y1612407*
X2057878Y1612675*
X2057903Y1612691*
X2058216Y1612780*
X2058241Y1612781*
X2058420Y1612736*
X2058436Y1612729*
X2058569Y1612640*
X2058586Y1612621*
X2058676Y1612442*
X2058681Y1612420*
Y1610773*
X2058983*
Y1612063*
Y1612070*
X2059028Y1612382*
X2059037Y1612405*
X2059171Y1612584*
X2059181Y1612594*
X2059360Y1612728*
X2059380Y1612737*
X2059603Y1612781*
X2059623*
X2059846Y1612737*
X2059876Y1612718*
X2060010Y1612539*
X2060018Y1612525*
X2060062Y1612391*
X2060065Y1612375*
Y1610773*
X2060367*
Y1612327*
X2056706Y1612725D02*
X2056619Y1613029D01*
X2056444Y1613512*
X2056319Y1613679*
X2056155Y1613802*
X2055728Y1613887*
X2055432Y1613845*
X2055181Y1613719*
X2055014Y1613510*
X2054884Y1613208*
X2054797Y1612814*
X2054752Y1612284*
Y1611890*
X2054840Y1611540*
X2054927Y1611235*
X2055052Y1611026*
X2055348Y1610815*
X2055731Y1610730*
X2056027Y1610772*
X2056277Y1610897*
X2056445Y1611106*
X2056445D02*
X2056574Y1611408D01*
X2056662Y1611803*
X2056706Y1612288*
Y1612725*
X2056404Y1612643D02*
Y1611929D01*
Y1611921*
X2056359Y1611653*
Y1611651*
X2056314Y1611428*
X2056310Y1611415*
X2056220Y1611237*
X2056207Y1611220*
X2055984Y1611042*
X2055962Y1611032*
X2055739Y1610987*
X2055719*
X2055496Y1611032*
X2055475Y1611042*
X2055252Y1611220*
X2055238Y1611237*
X2055149Y1611415*
X2055144Y1611428*
X2055144D02*
X2055100Y1611651D01*
Y1611653*
X2055055Y1611921*
X2055054Y1611929*
Y1612643*
X2055055Y1612650*
X2055099Y1612963*
X2055100Y1612965*
X2055144Y1613189*
X2055144D02*
X2055149Y1613201D01*
X2055238Y1613380*
X2055252Y1613396*
X2055475Y1613575*
X2055496Y1613585*
X2055719Y1613630*
X2055737*
X2056005Y1613585*
X2056036Y1613567*
X2056215Y1613344*
X2056217Y1613340*
X2056307Y1613207*
X2056314Y1613189*
X2056359Y1612965*
Y1612963*
X2056404Y1612650*
Y1612643*
X2054161Y1611075D02*
X2052649D01*
X2052610Y1611156*
X2052788Y1611380*
X2052797Y1611388*
X2052975Y1611522*
X2053241Y1611744*
X2053595Y1612053*
X2053815Y1612317*
X2053944Y1612489*
X2054030Y1612703*
X2054116Y1613048*
X2054074Y1613381*
X2053866Y1613631*
X2053568Y1613801*
X2053182Y1613887*
X2052799Y1613845*
X2052505Y1613677*
X2052293Y1613381*
X2052220Y1613088*
X2052520Y1613055*
X2052555Y1613233*
X2052564Y1613253*
X2052698Y1613432*
X2052708Y1613442*
X2052887Y1613576*
X2052909Y1613585*
X2053176Y1613630*
X2053194*
X2053418Y1613585*
X2053438Y1613576*
X2053616Y1613442*
X2053622Y1613437*
X2053756Y1613303*
X2053769Y1613278*
X2053814Y1613055*
Y1613035*
X2053769Y1612812*
X2053763Y1612796*
X2053629Y1612573*
X2053624Y1612566*
X2053356Y1612253*
X2053352Y1612249*
X2052949Y1611891*
X2052640Y1611626*
X2052291Y1611189*
X2052206Y1610978*
X2052172Y1610773*
X2054161*
Y1611075*
X2051483D02*
X2051181D01*
Y1610773*
X2051483*
Y1611075*
X2050456Y1612375D02*
X2050412Y1612903D01*
X2050325Y1613249*
X2050153Y1613550*
X2049985Y1613718*
X2049732Y1613845*
X2049437Y1613887*
X2049054Y1613802*
X2048759Y1613592*
X2048589Y1613251*
X2048504Y1612866*
X2048589Y1612436*
X2048758Y1612099*
X2049052Y1611931*
X2049347Y1611846*
X2049554Y1611888*
X2049765Y1611972*
X2050072Y1612235*
X2050154Y1612197*
Y1612152*
Y1612147*
X2050109Y1611656*
X2050104Y1611639*
X2050017Y1611465*
X2049974Y1611292*
X2049957Y1611265*
X2049734Y1611086*
X2049716Y1611077*
X2049404Y1610988*
X2049378Y1610987*
X2049199Y1611032*
X2049184Y1611039*
X2049050Y1611128*
X2049036Y1611142*
X2048947Y1611276*
X2048941Y1611288*
X2048864Y1611517*
X2048559Y1611484*
X2048633Y1611190*
X2048801Y1610938*
X2049051Y1610772*
X2049390Y1610729*
X2049687Y1610772*
X2049941Y1610898*
X2050153Y1611111*
X2050325Y1611411*
X2050412Y1611847*
X2050412D02*
X2050456Y1612375D01*
X2050154Y1612866D02*
Y1612859D01*
X2050109Y1612547*
X2050102Y1612528*
X2049969Y1612305*
X2049956Y1612291*
X2049777Y1612157*
X2049755Y1612147*
X2049487Y1612103*
X2049471*
X2049203Y1612147*
X2049181Y1612157*
X2049003Y1612291*
X2048990Y1612305*
X2048856Y1612528*
X2048850Y1612546*
X2048805Y1612813*
X2048804Y1612822*
X2048805Y1612829*
X2048849Y1613141*
X2048856Y1613160*
X2048990Y1613383*
X2049002Y1613396*
X2049225Y1613575*
X2049246Y1613585*
X2049469Y1613630*
X2049487*
X2049755Y1613585*
X2049777Y1613576*
X2049956Y1613442*
X2049970Y1613424*
X2050104Y1613156*
X2050104D02*
X2050109Y1613142D01*
X2050154Y1612875*
Y1612866*
X2047376Y1613888D02*
X2047186D01*
X2047067Y1613689*
X2047059Y1613679*
X2046836Y1613456*
X2046828Y1613450*
X2046561Y1613271*
X2046558Y1613269*
X2046270Y1613105*
Y1612813*
X2046640Y1612998*
X2046994Y1613263*
X2047074Y1613223*
Y1610773*
X2047376*
Y1613888*
X2013745Y1656500D02*
X2013702Y1656801D01*
X2013578Y1657049*
X2013376Y1657170*
X2013082Y1657212*
X2012868Y1657169*
X2012701Y1657127*
X2012538Y1657005*
X2012409Y1656791*
X2012322Y1656794*
X2012236Y1656965*
X2012115Y1657086*
X2011906Y1657170*
X2011698Y1657211*
X2011534Y1657170*
X2011323Y1657086*
X2011062Y1656826*
X2010977Y1656861*
Y1657168*
X2010675*
Y1654947*
X2010977*
Y1656370*
X2010979Y1656382*
X2011023Y1656561*
X2011033Y1656580*
X2011256Y1656848*
X2011281Y1656864*
X2011594Y1656954*
X2011620*
X2011798Y1656909*
X2011814Y1656903*
X2011948Y1656813*
X2011965Y1656794*
X2012054Y1656615*
X2012059Y1656593*
Y1654947*
X2012361*
Y1656236*
Y1656243*
X2012406Y1656556*
X2012416Y1656578*
X2012550Y1656757*
X2012560Y1656767*
X2012738Y1656901*
X2012758Y1656910*
X2012982Y1656955*
X2013001*
X2013224Y1656910*
X2013255Y1656891*
X2013388Y1656712*
X2013396Y1656698*
X2013441Y1656564*
X2013443Y1656548*
Y1654947*
X2013745*
Y1656500*
X2009995D02*
X2009952Y1656801D01*
X2009828Y1657049*
X2009626Y1657170*
X2009332Y1657212*
X2009118Y1657169*
X2008951Y1657127*
X2008788Y1657005*
X2008659Y1656791*
X2008572Y1656794*
X2008486Y1656965*
X2008365Y1657086*
X2008156Y1657170*
X2007948Y1657211*
X2007784Y1657170*
X2007573Y1657086*
X2007312Y1656826*
X2007227Y1656861*
Y1657168*
X2006925*
Y1654947*
X2007227*
Y1656370*
X2007229Y1656382*
X2007273Y1656561*
X2007283Y1656580*
X2007506Y1656848*
X2007531Y1656864*
X2007844Y1656954*
X2007870*
X2008048Y1656909*
X2008064Y1656903*
X2008198Y1656813*
X2008215Y1656794*
X2008304Y1656615*
X2008309Y1656593*
Y1654947*
X2008611*
Y1656236*
Y1656243*
X2008656Y1656556*
X2008666Y1656578*
X2008800Y1656757*
X2008810Y1656767*
X2008988Y1656901*
X2009008Y1656910*
X2009232Y1656955*
X2009251*
X2009474Y1656910*
X2009505Y1656891*
X2009638Y1656712*
X2009646Y1656698*
X2009691Y1656564*
X2009693Y1656548*
Y1654947*
X2009995*
Y1656500*
X2006334Y1656899D02*
X2006247Y1657203D01*
X2006072Y1657685*
X2005947Y1657852*
X2005783Y1657975*
X2005356Y1658060*
X2005060Y1658018*
X2004809Y1657893*
X2004642Y1657683*
X2004512Y1657381*
X2004425Y1656987*
X2004381Y1656457*
Y1656064*
X2004468Y1655713*
X2004555Y1655408*
X2004681Y1655199*
X2004976Y1654988*
X2005359Y1654903*
X2005655Y1654945*
X2005906Y1655070*
X2006073Y1655280*
X2006202Y1655582*
X2006290Y1655976*
X2006334Y1656461*
Y1656899*
X2006032Y1656816D02*
Y1656102D01*
Y1656094*
X2005987Y1655826*
Y1655824*
X2005942Y1655601*
X2005938Y1655589*
X2005849Y1655410*
X2005835Y1655393*
X2005612Y1655215*
X2005590Y1655205*
X2005367Y1655160*
X2005348*
X2005124Y1655205*
X2005103Y1655215*
X2004880Y1655393*
X2004866Y1655410*
X2004777Y1655589*
X2004773Y1655601*
X2004728Y1655824*
Y1655826*
X2004683Y1656094*
X2004682Y1656102*
Y1656816*
X2004683Y1656823*
X2004728Y1657136*
Y1657139*
X2004773Y1657362*
X2004777Y1657374*
X2004866Y1657553*
X2004880Y1657570*
X2005103Y1657748*
X2005124Y1657758*
X2005348Y1657803*
X2005366*
X2005633Y1657758*
X2005664Y1657740*
X2005843Y1657517*
X2005845Y1657514*
X2005935Y1657380*
X2005942Y1657362*
X2005987Y1657139*
Y1657136*
X2006032Y1656823*
Y1656816*
X2003834Y1656899D02*
X2003747Y1657203D01*
X2003572Y1657685*
X2003447Y1657852*
X2003283Y1657975*
X2002856Y1658060*
X2002560Y1658018*
X2002309Y1657893*
X2002142Y1657683*
X2002012Y1657381*
X2001925Y1656987*
X2001881Y1656457*
Y1656064*
X2001968Y1655713*
X2002055Y1655408*
X2002181Y1655199*
X2002476Y1654988*
X2002859Y1654903*
X2003155Y1654945*
X2003406Y1655070*
X2003573Y1655280*
X2003702Y1655582*
X2003790Y1655976*
X2003834Y1656461*
Y1656899*
X2003532Y1656816D02*
Y1656102D01*
Y1656094*
X2003487Y1655826*
Y1655824*
X2003442Y1655601*
X2003438Y1655589*
X2003349Y1655410*
X2003335Y1655393*
X2003112Y1655215*
X2003090Y1655205*
X2002867Y1655160*
X2002848*
X2002624Y1655205*
X2002603Y1655215*
X2002380Y1655393*
X2002366Y1655410*
X2002277Y1655589*
X2002273Y1655601*
X2002228Y1655824*
Y1655826*
X2002183Y1656094*
X2002182Y1656102*
Y1656816*
X2002183Y1656823*
X2002228Y1657136*
Y1657139*
X2002273Y1657362*
X2002277Y1657374*
X2002366Y1657553*
X2002380Y1657570*
X2002603Y1657748*
X2002624Y1657758*
X2002848Y1657803*
X2002866*
X2003133Y1657758*
X2003164Y1657740*
X2003343Y1657517*
X2003345Y1657514*
X2003435Y1657380*
X2003442Y1657362*
X2003487Y1657139*
Y1657136*
X2003532Y1656823*
Y1656816*
X2001111Y1655248D02*
X2000809D01*
Y1654947*
X2001111*
Y1655248*
X2000083Y1655836D02*
X2000041Y1656088D01*
X1999958Y1656297*
X1999792Y1656463*
X1999531Y1656593*
X1999528Y1656681*
X1999746Y1656811*
X1999870Y1656935*
X1999953Y1657102*
X1999994Y1657266*
X1999952Y1657599*
X1999743Y1657850*
X1999492Y1658018*
X1999107Y1658061*
X1998723Y1658018*
X1998472Y1657850*
X1998262Y1657599*
X1998221Y1657309*
X1998262Y1657101*
X1998345Y1656935*
X1998469Y1656811*
X1998687Y1656681*
X1998677Y1656590*
X1998420Y1656505*
X1998258Y1656343*
X1998174Y1656090*
X1998132Y1655836*
X1998217Y1655451*
X1998386Y1655156*
X1998722Y1654945*
X1999107Y1654902*
X1999492Y1654945*
X1999829Y1655156*
X1999998Y1655451*
X2000083Y1655836*
X1999692Y1657251D02*
X1999647Y1657072D01*
X1999640Y1657056*
X1999551Y1656922*
X1999532Y1656906*
X1999353Y1656816*
X1999340Y1656812*
X1999117Y1656767*
X1999098*
X1998874Y1656812*
X1998862Y1656816*
X1998683Y1656906*
X1998664Y1656922*
X1998575Y1657056*
X1998567Y1657074*
X1998523Y1657298*
Y1657319*
X1998568Y1657498*
X1998575Y1657514*
X1998664Y1657648*
X1998683Y1657665*
X1998862Y1657754*
X1998874Y1657758*
X1999098Y1657803*
X1999117*
X1999340Y1657758*
X1999353Y1657754*
X1999532Y1657665*
X1999554Y1657642*
X1999643Y1657464*
X1999647Y1657453*
X1999692Y1657275*
Y1657251*
X1999782Y1655834D02*
Y1655826D01*
X1999737Y1655558*
X1999728Y1655536*
X1999594Y1655358*
X1999584Y1655348*
X1999405Y1655214*
X1999383Y1655204*
X1999116Y1655160*
X1999107Y1655159*
X1998929*
X1998901Y1655168*
X1998770Y1655255*
X1998594Y1655343*
X1998575Y1655360*
X1998485Y1655494*
X1998478Y1655515*
X1998433Y1655827*
X1998432Y1655834*
X1998433Y1655844*
X1998478Y1656067*
X1998484Y1656083*
X1998618Y1656306*
X1998631Y1656321*
X1998810Y1656455*
X1998831Y1656464*
X1999099Y1656508*
X1999116*
X1999383Y1656464*
X1999405Y1656455*
X1999584Y1656321*
X1999597Y1656306*
X1999731Y1656083*
X1999737Y1656067*
X1999781Y1655844*
X1999782Y1655834*
X1997004Y1658061D02*
X1996814D01*
X1996695Y1657862*
X1996687Y1657852*
X1996464Y1657629*
X1996457Y1657623*
X1996189Y1657444*
X1996186Y1657443*
X1995898Y1657278*
Y1656986*
X1996268Y1657172*
X1996268D02*
X1996622Y1657437D01*
X1996702Y1657397*
Y1654947*
X1997004*
Y1658061*
X1995900Y1656987D02*
Y1657279D01*
X1996000Y1657037D02*
Y1657336D01*
X1996100Y1657087D02*
Y1657394D01*
X1996200Y1657137D02*
Y1657452D01*
X1996300Y1657195D02*
Y1657519D01*
X1996400Y1657270D02*
Y1657585D01*
X1996500Y1657345D02*
Y1657665D01*
X1996600Y1657420D02*
Y1657765D01*
X1996700Y1657411D02*
Y1657870D01*
X1996800Y1654947D02*
Y1658037D01*
X1996900Y1654947D02*
Y1658061D01*
X1997000Y1654947D02*
Y1658061D01*
X1998200Y1655527D02*
Y1656168D01*
X1998300Y1655305D02*
Y1656385D01*
Y1657025D02*
Y1657644D01*
X1998400Y1655147D02*
Y1656485D01*
Y1656880D02*
Y1657764D01*
X1998500Y1655084D02*
Y1655472D01*
Y1656110D02*
Y1656531D01*
Y1656793D02*
Y1657869D01*
X1998600Y1655022D02*
Y1655340D01*
Y1656276D02*
Y1656565D01*
Y1656733D02*
Y1657018D01*
Y1657552D02*
Y1657936D01*
X1998700Y1654959D02*
Y1655290D01*
Y1656372D02*
Y1656606D01*
Y1656669D02*
Y1656897D01*
Y1657673D02*
Y1658002D01*
X1998800Y1654936D02*
Y1655235D01*
Y1656447D02*
Y1656847D01*
Y1657723D02*
Y1658026D01*
X1998900Y1654925D02*
Y1655168D01*
Y1656475D02*
Y1656807D01*
Y1657763D02*
Y1658038D01*
X1999000Y1654914D02*
Y1655159D01*
Y1656492D02*
Y1656787D01*
Y1657783D02*
Y1658049D01*
X1999100Y1654903D02*
Y1655159D01*
Y1656509D02*
Y1656767D01*
Y1657803D02*
Y1658060D01*
X1999200Y1654913D02*
Y1655174D01*
Y1656494D02*
Y1656784D01*
Y1657786D02*
Y1658050D01*
X1999300Y1654924D02*
Y1655191D01*
Y1656478D02*
Y1656804D01*
Y1657766D02*
Y1658039D01*
X1999400Y1654935D02*
Y1655210D01*
Y1656458D02*
Y1656840D01*
Y1657730D02*
Y1658028D01*
X1999500Y1654950D02*
Y1655285D01*
Y1656383D02*
Y1656890D01*
Y1657680D02*
Y1658012D01*
X1999600Y1655012D02*
Y1655366D01*
Y1656301D02*
Y1656559D01*
Y1656724D02*
Y1656996D01*
Y1657550D02*
Y1657946D01*
X1999700Y1655075D02*
Y1655499D01*
Y1656134D02*
Y1656509D01*
Y1656784D02*
Y1657879D01*
X1999800Y1655137D02*
Y1656455D01*
Y1656865D02*
Y1657782D01*
X1999900Y1655280D02*
Y1656355D01*
Y1656995D02*
Y1657662D01*
X2000000Y1655461D02*
Y1656191D01*
X2000900Y1654947D02*
Y1655248D01*
X2001000Y1654947D02*
Y1655248D01*
X2001100Y1654947D02*
Y1655248D01*
X2001900Y1655986D02*
Y1656690D01*
X2002000Y1655602D02*
Y1657326D01*
X2002100Y1655334D02*
Y1657586D01*
X2002200Y1655185D02*
Y1655992D01*
Y1656943D02*
Y1657756D01*
X2002300Y1655114D02*
Y1655542D01*
Y1657420D02*
Y1657881D01*
X2002400Y1655042D02*
Y1655377D01*
Y1657586D02*
Y1657938D01*
X2002500Y1654983D02*
Y1655297D01*
Y1657666D02*
Y1657988D01*
X2002600Y1654960D02*
Y1655217D01*
Y1657746D02*
Y1658024D01*
X2002700Y1654938D02*
Y1655190D01*
Y1657773D02*
Y1658038D01*
X2002800Y1654916D02*
Y1655170D01*
Y1657793D02*
Y1658052D01*
X2002900Y1654909D02*
Y1655167D01*
Y1657797D02*
Y1658051D01*
X2003000Y1654923D02*
Y1655187D01*
Y1657781D02*
Y1658031D01*
X2003100Y1654937D02*
Y1655208D01*
Y1657764D02*
Y1658011D01*
X2003200Y1654968D02*
Y1655285D01*
Y1657696D02*
Y1657991D01*
X2003300Y1655018D02*
Y1655365D01*
Y1657571D02*
Y1657962D01*
X2003400Y1655068D02*
Y1655513D01*
Y1657432D02*
Y1657887D01*
X2003500Y1655188D02*
Y1655904D01*
Y1657047D02*
Y1657781D01*
X2003600Y1655343D02*
Y1657608D01*
X2003700Y1655576D02*
Y1657333D01*
X2003800Y1656086D02*
Y1657018D01*
X2004400Y1655986D02*
Y1656690D01*
X2004500Y1655602D02*
Y1657326D01*
X2004600Y1655334D02*
Y1657586D01*
X2004700Y1655185D02*
Y1655992D01*
Y1656943D02*
Y1657756D01*
X2004800Y1655114D02*
Y1655542D01*
Y1657420D02*
Y1657881D01*
X2004900Y1655042D02*
Y1655377D01*
Y1657586D02*
Y1657938D01*
X2005000Y1654983D02*
Y1655297D01*
Y1657666D02*
Y1657988D01*
X2005100Y1654960D02*
Y1655217D01*
Y1657746D02*
Y1658024D01*
X2005200Y1654938D02*
Y1655190D01*
Y1657773D02*
Y1658038D01*
X2005300Y1654916D02*
Y1655170D01*
Y1657793D02*
Y1658052D01*
X2005400Y1654909D02*
Y1655167D01*
Y1657797D02*
Y1658051D01*
X2005500Y1654923D02*
Y1655187D01*
Y1657781D02*
Y1658031D01*
X2005600Y1654937D02*
Y1655208D01*
Y1657764D02*
Y1658011D01*
X2005700Y1654968D02*
Y1655285D01*
Y1657696D02*
Y1657991D01*
X2005800Y1655018D02*
Y1655365D01*
Y1657571D02*
Y1657962D01*
X2005900Y1655068D02*
Y1655513D01*
Y1657432D02*
Y1657887D01*
X2006000Y1655188D02*
Y1655904D01*
Y1657047D02*
Y1657781D01*
X2006100Y1655343D02*
Y1657608D01*
X2006200Y1655576D02*
Y1657333D01*
X2006300Y1656086D02*
Y1657018D01*
X2007000Y1654947D02*
Y1657168D01*
X2007100Y1654947D02*
Y1657168D01*
X2007200Y1654947D02*
Y1657168D01*
X2007300Y1656601D02*
Y1656817D01*
X2007400Y1656721D02*
Y1656913D01*
X2007500Y1656841D02*
Y1657013D01*
X2007600Y1656884D02*
Y1657097D01*
X2007700Y1656913D02*
Y1657137D01*
X2007800Y1656941D02*
Y1657175D01*
X2007900Y1656946D02*
Y1657200D01*
X2008000Y1656921D02*
Y1657201D01*
X2008100Y1656878D02*
Y1657181D01*
X2008200Y1656812D02*
Y1657152D01*
X2008300Y1656623D02*
Y1657112D01*
X2008400Y1654947D02*
Y1657051D01*
X2008500Y1654947D02*
Y1656937D01*
X2008600Y1654947D02*
Y1656769D01*
X2008700Y1656624D02*
Y1656859D01*
X2008800Y1656758D02*
Y1657014D01*
X2008900Y1656835D02*
Y1657089D01*
X2009000Y1656908D02*
Y1657140D01*
X2009100Y1656928D02*
Y1657165D01*
X2009200Y1656948D02*
Y1657186D01*
X2009300Y1656945D02*
Y1657206D01*
X2009400Y1656925D02*
Y1657202D01*
X2009500Y1656896D02*
Y1657188D01*
X2009600Y1656764D02*
Y1657174D01*
X2009700Y1654947D02*
Y1657126D01*
X2009800Y1654947D02*
Y1657066D01*
X2009900Y1654947D02*
Y1656905D01*
X2010700Y1654947D02*
Y1657168D01*
X2010800Y1654947D02*
Y1657168D01*
X2010900Y1654947D02*
Y1657168D01*
X2011000Y1656468D02*
Y1656819D01*
X2011100Y1656661D02*
Y1656863D01*
X2011200Y1656781D02*
Y1656963D01*
X2011300Y1656870D02*
Y1657063D01*
X2011400Y1656898D02*
Y1657117D01*
X2011500Y1656927D02*
Y1657157D01*
X2011600Y1656955D02*
Y1657187D01*
X2011700Y1656934D02*
Y1657211D01*
X2011800Y1656909D02*
Y1657191D01*
X2011900Y1656845D02*
Y1657171D01*
X2012000Y1656723D02*
Y1657132D01*
X2012100Y1654947D02*
Y1657092D01*
X2012200Y1654947D02*
Y1657001D01*
X2012300Y1654947D02*
Y1656837D01*
X2012400Y1656513D02*
Y1656779D01*
X2012500Y1656691D02*
Y1656942D01*
X2012600Y1656797D02*
Y1657052D01*
X2012700Y1656872D02*
Y1657127D01*
X2012800Y1656918D02*
Y1657152D01*
X2012900Y1656938D02*
Y1657176D01*
X2013000Y1656955D02*
Y1657196D01*
X2013100Y1656935D02*
Y1657209D01*
X2013200Y1656915D02*
Y1657195D01*
X2013300Y1656830D02*
Y1657181D01*
X2013400Y1656686D02*
Y1657156D01*
X2013500Y1654947D02*
Y1657096D01*
X2013600Y1654947D02*
Y1657005D01*
X2013700Y1654947D02*
Y1656805D01*
X2046300Y1612828D02*
Y1613122D01*
X2046400Y1612878D02*
Y1613179D01*
X2046500Y1612928D02*
Y1613236D01*
X2046600Y1612978D02*
Y1613297D01*
X2046700Y1613043D02*
Y1613364D01*
X2046800Y1613118D02*
Y1613431D01*
X2046900Y1613193D02*
Y1613520D01*
X2047000Y1613267D02*
Y1613620D01*
X2047100Y1610773D02*
Y1613744D01*
X2047200Y1610773D02*
Y1613888D01*
X2047300Y1610773D02*
Y1613888D01*
X2048600Y1611322D02*
Y1611488D01*
Y1612415D02*
Y1613273D01*
X2048700Y1611090D02*
Y1611499D01*
Y1612215D02*
Y1613473D01*
X2048800Y1610940D02*
Y1611510D01*
Y1612075D02*
Y1613621D01*
X2048900Y1610872D02*
Y1611410D01*
Y1612018D02*
Y1612455D01*
Y1613233D02*
Y1613692D01*
X2049000Y1610805D02*
Y1611196D01*
Y1611960D02*
Y1612293D01*
Y1613395D02*
Y1613764D01*
X2049100Y1610765D02*
Y1611095D01*
Y1611917D02*
Y1612218D01*
Y1613475D02*
Y1613812D01*
X2049200Y1610753D02*
Y1611032D01*
Y1611888D02*
Y1612148D01*
Y1613555D02*
Y1613834D01*
X2049300Y1610740D02*
Y1611007D01*
Y1611860D02*
Y1612131D01*
Y1613596D02*
Y1613857D01*
X2049400Y1610731D02*
Y1610987D01*
Y1611857D02*
Y1612115D01*
Y1613616D02*
Y1613879D01*
X2049500Y1610745D02*
Y1611015D01*
Y1611877D02*
Y1612105D01*
Y1613628D02*
Y1613878D01*
X2049600Y1610759D02*
Y1611044D01*
Y1611906D02*
Y1612121D01*
Y1613611D02*
Y1613864D01*
X2049700Y1610778D02*
Y1611073D01*
Y1611946D02*
Y1612138D01*
Y1613594D02*
Y1613849D01*
X2049800Y1610828D02*
Y1611139D01*
Y1612002D02*
Y1612174D01*
Y1613559D02*
Y1613811D01*
X2049900Y1610878D02*
Y1611219D01*
Y1612087D02*
Y1612249D01*
Y1613484D02*
Y1613761D01*
X2050000Y1610958D02*
Y1611395D01*
Y1612173D02*
Y1612357D01*
Y1613365D02*
Y1613703D01*
X2050100Y1611058D02*
Y1611630D01*
Y1612246D02*
Y1612524D01*
Y1613165D02*
Y1613603D01*
X2050200Y1611193D02*
Y1613468D01*
X2050300Y1611368D02*
Y1613293D01*
X2050400Y1611788D02*
Y1612950D01*
X2051200Y1610773D02*
Y1611075D01*
X2051300Y1610773D02*
Y1611075D01*
X2051400Y1610773D02*
Y1611075D01*
X2052200Y1610773D02*
Y1610940D01*
X2052300Y1610773D02*
Y1611201D01*
Y1613079D02*
Y1613390D01*
X2052400Y1610773D02*
Y1611326D01*
Y1613068D02*
Y1613530D01*
X2052500Y1610773D02*
Y1611451D01*
Y1613057D02*
Y1613670D01*
X2052600Y1610773D02*
Y1611115D01*
Y1611136D02*
Y1611576D01*
Y1613301D02*
Y1613731D01*
X2052700Y1610773D02*
Y1611075D01*
Y1611269D02*
Y1611677D01*
Y1613434D02*
Y1613788D01*
X2052800Y1610773D02*
Y1611075D01*
Y1611390D02*
Y1611763D01*
Y1613511D02*
Y1613845D01*
X2052900Y1610773D02*
Y1611075D01*
Y1611465D02*
Y1611849D01*
Y1613583D02*
Y1613856D01*
X2053000Y1610773D02*
Y1611075D01*
Y1611542D02*
Y1611936D01*
Y1613600D02*
Y1613867D01*
X2053100Y1610773D02*
Y1611075D01*
Y1611626D02*
Y1612025D01*
Y1613617D02*
Y1613878D01*
X2053200Y1610773D02*
Y1611075D01*
Y1611709D02*
Y1612114D01*
Y1613628D02*
Y1613883D01*
X2053300Y1610773D02*
Y1611075D01*
Y1611795D02*
Y1612203D01*
Y1613608D02*
Y1613861D01*
X2053400Y1610773D02*
Y1611075D01*
Y1611882D02*
Y1612304D01*
Y1613588D02*
Y1613839D01*
X2053500Y1610773D02*
Y1611075D01*
Y1611970D02*
Y1612421D01*
Y1613529D02*
Y1613816D01*
X2053600Y1610773D02*
Y1611075D01*
Y1612059D02*
Y1612537D01*
Y1613454D02*
Y1613783D01*
X2053700Y1610773D02*
Y1611075D01*
Y1612179D02*
Y1612691D01*
Y1613359D02*
Y1613726D01*
X2053800Y1610773D02*
Y1611075D01*
Y1612299D02*
Y1612965D01*
Y1613125D02*
Y1613669D01*
X2053900Y1610773D02*
Y1611075D01*
Y1612430D02*
Y1613590D01*
X2054000Y1610773D02*
Y1611075D01*
Y1612629D02*
Y1613470D01*
X2054100Y1610773D02*
Y1611075D01*
Y1612984D02*
Y1613176D01*
X2054800Y1611700D02*
Y1612829D01*
X2054900Y1611330D02*
Y1613245D01*
X2055000Y1611113D02*
Y1613478D01*
X2055100Y1610992D02*
Y1611650D01*
Y1612966D02*
Y1613618D01*
X2055200Y1610921D02*
Y1611313D01*
Y1613304D02*
Y1613729D01*
X2055300Y1610849D02*
Y1611181D01*
Y1613435D02*
Y1613779D01*
X2055400Y1610803D02*
Y1611101D01*
Y1613515D02*
Y1613829D01*
X2055500Y1610781D02*
Y1611031D01*
Y1613586D02*
Y1613854D01*
X2055600Y1610759D02*
Y1611011D01*
Y1613606D02*
Y1613869D01*
X2055700Y1610736D02*
Y1610991D01*
Y1613626D02*
Y1613883D01*
X2055800Y1610739D02*
Y1610999D01*
Y1613619D02*
Y1613873D01*
X2055900Y1610754D02*
Y1611019D01*
Y1613603D02*
Y1613853D01*
X2056000Y1610768D02*
Y1611055D01*
Y1613586D02*
Y1613833D01*
X2056100Y1610808D02*
Y1611135D01*
Y1613487D02*
Y1613813D01*
X2056200Y1610858D02*
Y1611215D01*
Y1613362D02*
Y1613768D01*
X2056300Y1610925D02*
Y1611396D01*
Y1613216D02*
Y1613693D01*
X2056400Y1611050D02*
Y1611899D01*
Y1612676D02*
Y1613570D01*
X2056500Y1611235D02*
Y1613357D01*
X2056600Y1611524D02*
Y1613082D01*
X2056700Y1612222D02*
Y1612746D01*
X2057300Y1610773D02*
Y1612995D01*
X2057400Y1610773D02*
Y1612995D01*
X2057500Y1610773D02*
Y1612995D01*
X2057600Y1612207D02*
Y1612677D01*
X2057700Y1612461D02*
Y1612668D01*
X2057800Y1612581D02*
Y1612768D01*
X2057900Y1612690D02*
Y1612868D01*
X2058000Y1612719D02*
Y1612935D01*
X2058100Y1612747D02*
Y1612975D01*
X2058200Y1612776D02*
Y1613008D01*
X2058300Y1612766D02*
Y1613033D01*
X2058400Y1612741D02*
Y1613022D01*
X2058500Y1612686D02*
Y1613002D01*
X2058600Y1612594D02*
Y1612968D01*
X2058700Y1610773D02*
Y1612928D01*
X2058800Y1610773D02*
Y1612850D01*
X2058900Y1610773D02*
Y1612708D01*
X2059000Y1612187D02*
Y1612594D01*
X2059100Y1612489D02*
Y1612732D01*
X2059200Y1612608D02*
Y1612862D01*
X2059300Y1612683D02*
Y1612937D01*
X2059400Y1612741D02*
Y1612974D01*
X2059500Y1612761D02*
Y1612998D01*
X2059600Y1612781D02*
Y1613018D01*
X2059700Y1612766D02*
Y1613038D01*
X2059800Y1612746D02*
Y1613025D01*
X2059900Y1612686D02*
Y1613011D01*
X2060000Y1612553D02*
Y1612996D01*
X2060100Y1610773D02*
Y1612936D01*
X2060200Y1610773D02*
Y1612875D01*
X2060300Y1610773D02*
Y1612675D01*
X2061100Y1610773D02*
Y1612995D01*
X2061200Y1610773D02*
Y1612995D01*
X2061300Y1610773D02*
Y1612995D01*
X2061400Y1612400D02*
Y1612638D01*
X2061500Y1612521D02*
Y1612718D01*
X2061600Y1612641D02*
Y1612818D01*
X2061700Y1612705D02*
Y1612915D01*
X2061800Y1612733D02*
Y1612955D01*
X2061900Y1612762D02*
Y1612995D01*
X2062000Y1612779D02*
Y1613021D01*
X2062100Y1612754D02*
Y1613032D01*
X2062200Y1612720D02*
Y1613012D01*
X2062300Y1612653D02*
Y1612988D01*
X2062400Y1612494D02*
Y1612948D01*
X2062500Y1610773D02*
Y1612900D01*
X2062600Y1610773D02*
Y1612800D01*
X2062700Y1610773D02*
Y1612611D01*
X2062800Y1612422D02*
Y1612649D01*
X2062900Y1612555D02*
Y1612816D01*
X2063000Y1612645D02*
Y1612900D01*
X2063100Y1612720D02*
Y1612961D01*
X2063200Y1612751D02*
Y1612986D01*
X2063300Y1612771D02*
Y1613008D01*
X2063400Y1612776D02*
Y1613028D01*
X2063500Y1612756D02*
Y1613032D01*
X2063600Y1612736D02*
Y1613018D01*
X2063700Y1612620D02*
Y1613004D01*
X2063800Y1612428D02*
Y1612966D01*
X2063900Y1610773D02*
Y1612906D01*
X2064000Y1610773D02*
Y1612775D01*
X2064100Y1610773D02*
Y1612444D01*
*
G04 PC Custom Flashes*
G04 Layer Name ESP32_WROOM32_UFL_5X5_V - flashes*
%LPD*%
*
*
G04 PC Circuitry*
G04 Layer Name ESP32_WROOM32_UFL_5X5_V - circuitry*
%LPD*%
*
G54D10*
X1968504Y1650394D02*
X1968507D01*
X2039370D02*
X2039373D01*
X2039370Y1574803D02*
X2039373D01*
X2039370Y1650394D02*
X2039373D01*
G54D44*
X1968504D02*
X2039370D01*
Y1574803*
X1968504*
Y1650394*
G54D109*
X1977084Y1646274D02*
X1977175Y1646492D01*
X1977357Y1646711*
X1977539Y1646821*
X1977902*
X1978084Y1646711*
X1978266Y1646492*
X1978357Y1646274*
X1978448Y1645946*
Y1645399*
X1978357Y1645071*
X1978266Y1644852*
X1978084Y1644633*
X1977902Y1644524*
X1977539*
X1977357Y1644633*
X1977175Y1644852*
X1977084Y1645071*
Y1645399*
X1977539D02*
X1977084D01*
X1976266Y1646821D02*
Y1644524D01*
Y1646821D02*
X1974993Y1644524D01*
Y1646821D02*
Y1644524D01*
X1974175Y1646821D02*
Y1644524D01*
Y1646821D02*
X1973539D01*
X1973266Y1646711*
X1973084Y1646492*
X1972993Y1646274*
X1972902Y1645946*
Y1645399*
X1972993Y1645071*
X1973084Y1644852*
X1973266Y1644633*
X1973539Y1644524*
X1974175*
X1978266Y1641821D02*
X1977266D01*
X1977812Y1640946*
X1977539*
X1977357Y1640836*
X1977266Y1640727*
X1977175Y1640399*
Y1640180*
X1977266Y1639852*
X1977448Y1639633*
X1977721Y1639524*
X1977993*
X1978266Y1639633*
X1978357Y1639742*
X1978448Y1639961*
X1976357Y1641821D02*
X1975630Y1639524D01*
X1974902Y1641821D02*
X1975630Y1639524D01*
X1973902Y1641821D02*
X1972902D01*
X1973448Y1640946*
X1973175*
X1972993Y1640836*
X1972902Y1640727*
X1972812Y1640399*
Y1640180*
X1972902Y1639852*
X1973084Y1639633*
X1973357Y1639524*
X1973630*
X1973902Y1639633*
X1973993Y1639742*
X1974084Y1639961*
X1976254Y1636756D02*
Y1634459D01*
Y1636756D02*
X1975072D01*
X1976254Y1635662D02*
X1975527D01*
X1976254Y1634459D02*
X1975072D01*
X1974254Y1636756D02*
Y1634459D01*
Y1636756D02*
X1972981Y1634459D01*
Y1636756D02*
Y1634459D01*
X1989781Y1631427D02*
X1989963Y1631646D01*
X1990236Y1631756*
X1990599*
X1990872Y1631646*
X1991054Y1631427*
Y1631209*
X1990963Y1630990*
X1990872Y1630881*
X1990690Y1630771*
X1990145Y1630552*
X1989963Y1630443*
X1989872Y1630334*
X1989781Y1630115*
Y1629787*
X1989963Y1629568*
X1990236Y1629459*
X1990599*
X1990872Y1629568*
X1991054Y1629787*
X1988963Y1631756D02*
Y1629459D01*
Y1631756D02*
X1987781D01*
X1988963Y1630662D02*
X1988236D01*
X1988963Y1629459D02*
X1987781D01*
X1986963Y1631756D02*
Y1629459D01*
Y1631756D02*
X1985690Y1629459D01*
Y1631756D02*
Y1629459D01*
X1983599Y1631427D02*
X1983781Y1631646D01*
X1984054Y1631756*
X1984418*
X1984690Y1631646*
X1984872Y1631427*
Y1631209*
X1984781Y1630990*
X1984690Y1630881*
X1984508Y1630771*
X1983963Y1630552*
X1983781Y1630443*
X1983690Y1630334*
X1983599Y1630115*
Y1629787*
X1983781Y1629568*
X1984054Y1629459*
X1984418*
X1984690Y1629568*
X1984872Y1629787*
X1982236Y1631756D02*
X1982418Y1631646D01*
X1982599Y1631427*
X1982690Y1631209*
X1982781Y1630881*
Y1630334*
X1982690Y1630006*
X1982599Y1629787*
X1982418Y1629568*
X1982236Y1629459*
X1981872*
X1981690Y1629568*
X1981508Y1629787*
X1981418Y1630006*
X1981327Y1630334*
Y1630881*
X1981418Y1631209*
X1981508Y1631427*
X1981690Y1631646*
X1981872Y1631756*
X1982236*
X1980508D02*
Y1629459D01*
Y1631756D02*
X1979690D01*
X1979418Y1631646*
X1979327Y1631537*
X1979236Y1631318*
Y1631099*
X1979327Y1630881*
X1979418Y1630771*
X1979690Y1630662*
X1980508*
X1979872D02*
X1979236Y1629459D01*
X1978418Y1629021D02*
X1976508D01*
X1975963Y1631756D02*
X1975236Y1629459D01*
X1974508Y1631756D02*
X1975236Y1629459D01*
X1973690Y1631756D02*
Y1629459D01*
Y1631756D02*
X1972872D01*
X1972599Y1631646*
X1972508Y1631537*
X1972418Y1631318*
Y1630990*
X1972508Y1630771*
X1972599Y1630662*
X1972872Y1630552*
X1973690*
X1979054Y1621756D02*
Y1619459D01*
X1977690Y1621756D02*
X1977872Y1621646D01*
X1978054Y1621427*
X1978145Y1621209*
X1978236Y1620881*
Y1620334*
X1978145Y1620006*
X1978054Y1619787*
X1977872Y1619568*
X1977690Y1619459*
X1977327*
X1977145Y1619568*
X1976963Y1619787*
X1976872Y1620006*
X1976781Y1620334*
Y1620881*
X1976872Y1621209*
X1976963Y1621427*
X1977145Y1621646*
X1977327Y1621756*
X1977690*
X1975781D02*
X1974781D01*
X1975327Y1620881*
X1975054*
X1974872Y1620771*
X1974781Y1620662*
X1974690Y1620334*
Y1620115*
X1974781Y1619787*
X1974963Y1619568*
X1975236Y1619459*
X1975508*
X1975781Y1619568*
X1975872Y1619677*
X1975963Y1619896*
X1972963Y1621756D02*
X1973872Y1620224D01*
X1972508*
X1972963Y1621756D02*
Y1619459D01*
X1979054Y1616756D02*
Y1614459D01*
X1977690Y1616756D02*
X1977872Y1616646D01*
X1978054Y1616427*
X1978145Y1616209*
X1978236Y1615881*
Y1615334*
X1978145Y1615006*
X1978054Y1614787*
X1977872Y1614568*
X1977690Y1614459*
X1977327*
X1977145Y1614568*
X1976963Y1614787*
X1976872Y1615006*
X1976781Y1615334*
Y1615881*
X1976872Y1616209*
X1976963Y1616427*
X1977145Y1616646*
X1977327Y1616756*
X1977690*
X1975781D02*
X1974781D01*
X1975327Y1615881*
X1975054*
X1974872Y1615771*
X1974781Y1615662*
X1974690Y1615334*
Y1615115*
X1974781Y1614787*
X1974963Y1614568*
X1975236Y1614459*
X1975508*
X1975781Y1614568*
X1975872Y1614677*
X1975963Y1614896*
X1972690Y1616756D02*
X1973599D01*
X1973690Y1615771*
X1973599Y1615881*
X1973327Y1615990*
X1973054*
X1972781Y1615881*
X1972599Y1615662*
X1972508Y1615334*
X1972599Y1615115*
X1972690Y1614787*
X1972872Y1614568*
X1973145Y1614459*
X1973418*
X1973690Y1614568*
X1973781Y1614677*
X1973872Y1614896*
X1979054Y1611756D02*
Y1609459D01*
X1977690Y1611756D02*
X1977872Y1611646D01*
X1978054Y1611427*
X1978145Y1611209*
X1978236Y1610881*
Y1610334*
X1978145Y1610006*
X1978054Y1609787*
X1977872Y1609568*
X1977690Y1609459*
X1977327*
X1977145Y1609568*
X1976963Y1609787*
X1976872Y1610006*
X1976781Y1610334*
Y1610881*
X1976872Y1611209*
X1976963Y1611427*
X1977145Y1611646*
X1977327Y1611756*
X1977690*
X1975781D02*
X1974781D01*
X1975327Y1610881*
X1975054*
X1974872Y1610771*
X1974781Y1610662*
X1974690Y1610334*
Y1610115*
X1974781Y1609787*
X1974963Y1609568*
X1975236Y1609459*
X1975508*
X1975781Y1609568*
X1975872Y1609677*
X1975963Y1609896*
X1973781Y1611209D02*
Y1611318D01*
X1973690Y1611537*
X1973599Y1611646*
X1973418Y1611756*
X1973054*
X1972872Y1611646*
X1972781Y1611537*
X1972690Y1611318*
Y1611099*
X1972781Y1610881*
X1972963Y1610552*
X1973872Y1609459*
X1972599*
X1979054Y1606756D02*
Y1604459D01*
X1977690Y1606756D02*
X1977872Y1606646D01*
X1978054Y1606427*
X1978145Y1606209*
X1978236Y1605881*
Y1605334*
X1978145Y1605006*
X1978054Y1604787*
X1977872Y1604568*
X1977690Y1604459*
X1977327*
X1977145Y1604568*
X1976963Y1604787*
X1976872Y1605006*
X1976781Y1605334*
Y1605881*
X1976872Y1606209*
X1976963Y1606427*
X1977145Y1606646*
X1977327Y1606756*
X1977690*
X1975781D02*
X1974781D01*
X1975327Y1605881*
X1975054*
X1974872Y1605771*
X1974781Y1605662*
X1974690Y1605334*
Y1605115*
X1974781Y1604787*
X1974963Y1604568*
X1975236Y1604459*
X1975508*
X1975781Y1604568*
X1975872Y1604677*
X1975963Y1604896*
X1973690Y1606756D02*
X1972690D01*
X1973236Y1605881*
X1972963*
X1972781Y1605771*
X1972690Y1605662*
X1972599Y1605334*
Y1605115*
X1972690Y1604787*
X1972872Y1604568*
X1973145Y1604459*
X1973418*
X1973690Y1604568*
X1973781Y1604677*
X1973872Y1604896*
X1979054Y1601756D02*
Y1599459D01*
X1977690Y1601756D02*
X1977872Y1601646D01*
X1978054Y1601427*
X1978145Y1601209*
X1978236Y1600881*
Y1600334*
X1978145Y1600006*
X1978054Y1599787*
X1977872Y1599568*
X1977690Y1599459*
X1977327*
X1977145Y1599568*
X1976963Y1599787*
X1976872Y1600006*
X1976781Y1600334*
Y1600881*
X1976872Y1601209*
X1976963Y1601427*
X1977145Y1601646*
X1977327Y1601756*
X1977690*
X1975872Y1601209D02*
Y1601318D01*
X1975781Y1601537*
X1975690Y1601646*
X1975508Y1601756*
X1975145*
X1974963Y1601646*
X1974872Y1601537*
X1974781Y1601318*
Y1601099*
X1974872Y1600881*
X1975054Y1600552*
X1975963Y1599459*
X1974690*
X1972690Y1601756D02*
X1973599D01*
X1973690Y1600771*
X1973599Y1600881*
X1973327Y1600990*
X1973054*
X1972781Y1600881*
X1972599Y1600662*
X1972508Y1600334*
X1972599Y1600115*
X1972690Y1599787*
X1972872Y1599568*
X1973145Y1599459*
X1973418*
X1973690Y1599568*
X1973781Y1599677*
X1973872Y1599896*
X1979054Y1596756D02*
Y1594459D01*
X1977690Y1596756D02*
X1977872Y1596646D01*
X1978054Y1596427*
X1978145Y1596209*
X1978236Y1595881*
Y1595334*
X1978145Y1595006*
X1978054Y1594787*
X1977872Y1594568*
X1977690Y1594459*
X1977327*
X1977145Y1594568*
X1976963Y1594787*
X1976872Y1595006*
X1976781Y1595334*
Y1595881*
X1976872Y1596209*
X1976963Y1596427*
X1977145Y1596646*
X1977327Y1596756*
X1977690*
X1975872Y1596209D02*
Y1596318D01*
X1975781Y1596537*
X1975690Y1596646*
X1975508Y1596756*
X1975145*
X1974963Y1596646*
X1974872Y1596537*
X1974781Y1596318*
Y1596099*
X1974872Y1595881*
X1975054Y1595552*
X1975963Y1594459*
X1974690*
X1972781Y1596427D02*
X1972872Y1596646D01*
X1973145Y1596756*
X1973327*
X1973599Y1596646*
X1973781Y1596318*
X1973872Y1595771*
Y1595224*
X1973781Y1594787*
X1973599Y1594568*
X1973327Y1594459*
X1973236*
X1972963Y1594568*
X1972781Y1594787*
X1972690Y1595115*
Y1595224*
X1972781Y1595552*
X1972963Y1595771*
X1973236Y1595881*
X1973327*
X1973599Y1595771*
X1973781Y1595552*
X1973872Y1595224*
X1979054Y1591756D02*
Y1589459D01*
X1977690Y1591756D02*
X1977872Y1591646D01*
X1978054Y1591427*
X1978145Y1591209*
X1978236Y1590881*
Y1590334*
X1978145Y1590006*
X1978054Y1589787*
X1977872Y1589568*
X1977690Y1589459*
X1977327*
X1977145Y1589568*
X1976963Y1589787*
X1976872Y1590006*
X1976781Y1590334*
Y1590881*
X1976872Y1591209*
X1976963Y1591427*
X1977145Y1591646*
X1977327Y1591756*
X1977690*
X1975872Y1591209D02*
Y1591318D01*
X1975781Y1591537*
X1975690Y1591646*
X1975508Y1591756*
X1975145*
X1974963Y1591646*
X1974872Y1591537*
X1974781Y1591318*
Y1591099*
X1974872Y1590881*
X1975054Y1590552*
X1975963Y1589459*
X1974690*
X1972599Y1591756D02*
X1973508Y1589459D01*
X1973872Y1591756D02*
X1972599D01*
X1978254Y1586756D02*
Y1584459D01*
X1976890Y1586756D02*
X1977072Y1586646D01*
X1977254Y1586427*
X1977345Y1586209*
X1977436Y1585881*
Y1585334*
X1977345Y1585006*
X1977254Y1584787*
X1977072Y1584568*
X1976890Y1584459*
X1976527*
X1976345Y1584568*
X1976163Y1584787*
X1976072Y1585006*
X1975981Y1585334*
Y1585881*
X1976072Y1586209*
X1976163Y1586427*
X1976345Y1586646*
X1976527Y1586756*
X1976890*
X1975163Y1586318D02*
X1974981Y1586427D01*
X1974708Y1586756*
Y1584459*
X1972981Y1586756D02*
X1973890Y1585224D01*
X1972527*
X1972981Y1586756D02*
Y1584459D01*
X1978254Y1581756D02*
Y1579459D01*
X1976890Y1581756D02*
X1977072Y1581646D01*
X1977254Y1581427*
X1977345Y1581209*
X1977436Y1580881*
Y1580334*
X1977345Y1580006*
X1977254Y1579787*
X1977072Y1579568*
X1976890Y1579459*
X1976527*
X1976345Y1579568*
X1976163Y1579787*
X1976072Y1580006*
X1975981Y1580334*
Y1580881*
X1976072Y1581209*
X1976163Y1581427*
X1976345Y1581646*
X1976527Y1581756*
X1976890*
X1975163Y1581318D02*
X1974981Y1581427D01*
X1974708Y1581756*
Y1579459*
X1973799Y1581209D02*
Y1581318D01*
X1973708Y1581537*
X1973618Y1581646*
X1973436Y1581756*
X1973072*
X1972890Y1581646*
X1972799Y1581537*
X1972708Y1581318*
Y1581099*
X1972799Y1580881*
X1972981Y1580552*
X1973890Y1579459*
X1972618*
X1985457Y1584569D02*
X1987754D01*
X1985457Y1583205D02*
X1985566Y1583387D01*
X1985785Y1583569*
X1986004Y1583660*
X1986332Y1583750*
X1986879*
X1987207Y1583660*
X1987426Y1583569*
X1987645Y1583387*
X1987754Y1583205*
Y1582841*
X1987645Y1582660*
X1987426Y1582478*
X1987207Y1582387*
X1986879Y1582296*
X1986332*
X1986004Y1582387*
X1985785Y1582478*
X1985566Y1582660*
X1985457Y1582841*
Y1583205*
X1985895Y1581478D02*
X1985785Y1581296D01*
X1985457Y1581023*
X1987754*
X1985457Y1580023D02*
Y1579023D01*
X1986332Y1579569*
Y1579296*
X1986441Y1579114*
X1986551Y1579023*
X1986879Y1578932*
X1987098*
X1987426Y1579023*
X1987645Y1579205*
X1987754Y1579478*
Y1579750*
X1987645Y1580023*
X1987535Y1580114*
X1987316Y1580205*
X1990785Y1583296D02*
X1990566Y1583478D01*
X1990457Y1583750*
Y1584114*
X1990566Y1584387*
X1990785Y1584569*
X1991004*
X1991223Y1584478*
X1991332Y1584387*
X1991441Y1584205*
X1991660Y1583660*
X1991770Y1583478*
X1991879Y1583387*
X1992098Y1583296*
X1992426*
X1992645Y1583478*
X1992754Y1583750*
Y1584114*
X1992645Y1584387*
X1992426Y1584569*
X1990457Y1582478D02*
X1992754D01*
X1990457D02*
Y1581841D01*
X1990566Y1581569*
X1990785Y1581387*
X1991004Y1581296*
X1991332Y1581205*
X1991879*
X1992207Y1581296*
X1992426Y1581387*
X1992645Y1581569*
X1992754Y1581841*
Y1582478*
X1991004Y1580296D02*
X1990895D01*
X1990676Y1580205*
X1990566Y1580114*
X1990457Y1579932*
Y1579569*
X1990566Y1579387*
X1990676Y1579296*
X1990895Y1579205*
X1991113*
X1991332Y1579296*
X1991660Y1579478*
X1992754Y1580387*
Y1579114*
X1995785Y1583296D02*
X1995566Y1583478D01*
X1995457Y1583750*
Y1584114*
X1995566Y1584387*
X1995785Y1584569*
X1996004*
X1996223Y1584478*
X1996332Y1584387*
X1996441Y1584205*
X1996660Y1583660*
X1996770Y1583478*
X1996879Y1583387*
X1997098Y1583296*
X1997426*
X1997645Y1583478*
X1997754Y1583750*
Y1584114*
X1997645Y1584387*
X1997426Y1584569*
X1995457Y1582478D02*
X1997754D01*
X1995457D02*
Y1581841D01*
X1995566Y1581569*
X1995785Y1581387*
X1996004Y1581296*
X1996332Y1581205*
X1996879*
X1997207Y1581296*
X1997426Y1581387*
X1997645Y1581569*
X1997754Y1581841*
Y1582478*
X1995457Y1580205D02*
Y1579205D01*
X1996332Y1579750*
Y1579478*
X1996441Y1579296*
X1996551Y1579205*
X1996879Y1579114*
X1997098*
X1997426Y1579205*
X1997645Y1579387*
X1997754Y1579660*
Y1579932*
X1997645Y1580205*
X1997535Y1580296*
X1997316Y1580387*
X2001004Y1583205D02*
X2000785Y1583296D01*
X2000566Y1583478*
X2000457Y1583660*
Y1584023*
X2000566Y1584205*
X2000785Y1584387*
X2001004Y1584478*
X2001332Y1584569*
X2001879*
X2002207Y1584478*
X2002426Y1584387*
X2002645Y1584205*
X2002754Y1584023*
Y1583660*
X2002645Y1583478*
X2002426Y1583296*
X2002207Y1583205*
X2000457Y1582387D02*
X2002754D01*
X2000457D02*
X2002754Y1581660D01*
X2000457Y1580932D02*
X2002754Y1581660D01*
X2000457Y1580932D02*
X2002754D01*
X2000457Y1580114D02*
X2002754D01*
X2000457D02*
Y1579478D01*
X2000566Y1579205*
X2000785Y1579023*
X2001004Y1578932*
X2001332Y1578841*
X2001879*
X2002207Y1578932*
X2002426Y1579023*
X2002645Y1579205*
X2002754Y1579478*
Y1580114*
X2006004Y1583205D02*
X2005785Y1583296D01*
X2005566Y1583478*
X2005457Y1583660*
Y1584023*
X2005566Y1584205*
X2005785Y1584387*
X2006004Y1584478*
X2006332Y1584569*
X2006879*
X2007207Y1584478*
X2007426Y1584387*
X2007645Y1584205*
X2007754Y1584023*
Y1583660*
X2007645Y1583478*
X2007426Y1583296*
X2007207Y1583205*
X2005457Y1582387D02*
X2007754D01*
Y1581296*
X2005457Y1580478D02*
X2007754D01*
X2005457Y1579205D02*
X2006988Y1580478D01*
X2006441Y1580023D02*
X2007754Y1579205D01*
X2010785Y1583296D02*
X2010566Y1583478D01*
X2010457Y1583750*
Y1584114*
X2010566Y1584387*
X2010785Y1584569*
X2011004*
X2011223Y1584478*
X2011332Y1584387*
X2011441Y1584205*
X2011660Y1583660*
X2011770Y1583478*
X2011879Y1583387*
X2012098Y1583296*
X2012426*
X2012645Y1583478*
X2012754Y1583750*
Y1584114*
X2012645Y1584387*
X2012426Y1584569*
X2010457Y1582478D02*
X2012754D01*
X2010457D02*
Y1581841D01*
X2010566Y1581569*
X2010785Y1581387*
X2011004Y1581296*
X2011332Y1581205*
X2011879*
X2012207Y1581296*
X2012426Y1581387*
X2012645Y1581569*
X2012754Y1581841*
Y1582478*
X2010457Y1579841D02*
X2010566Y1580114D01*
X2010895Y1580296*
X2011441Y1580387*
X2011770*
X2012316Y1580296*
X2012645Y1580114*
X2012754Y1579841*
Y1579660*
X2012645Y1579387*
X2012316Y1579205*
X2011770Y1579114*
X2011441*
X2010895Y1579205*
X2010566Y1579387*
X2010457Y1579660*
Y1579841*
X2015785Y1582796D02*
X2015566Y1582978D01*
X2015457Y1583250*
Y1583614*
X2015566Y1583887*
X2015785Y1584069*
X2016004*
X2016223Y1583978*
X2016332Y1583887*
X2016441Y1583705*
X2016660Y1583160*
X2016770Y1582978*
X2016879Y1582887*
X2017098Y1582796*
X2017426*
X2017645Y1582978*
X2017754Y1583250*
Y1583614*
X2017645Y1583887*
X2017426Y1584069*
X2015457Y1581978D02*
X2017754D01*
X2015457D02*
Y1581341D01*
X2015566Y1581069*
X2015785Y1580887*
X2016004Y1580796*
X2016332Y1580705*
X2016879*
X2017207Y1580796*
X2017426Y1580887*
X2017645Y1581069*
X2017754Y1581341*
Y1581978*
X2015895Y1579887D02*
X2015785Y1579705D01*
X2015457Y1579432*
X2017754*
X2020457Y1584569D02*
X2022754D01*
X2020457Y1583205D02*
X2020566Y1583387D01*
X2020785Y1583569*
X2021004Y1583660*
X2021332Y1583750*
X2021879*
X2022207Y1583660*
X2022426Y1583569*
X2022645Y1583387*
X2022754Y1583205*
Y1582841*
X2022645Y1582660*
X2022426Y1582478*
X2022207Y1582387*
X2021879Y1582296*
X2021332*
X2021004Y1582387*
X2020785Y1582478*
X2020566Y1582660*
X2020457Y1582841*
Y1583205*
X2020895Y1581478D02*
X2020785Y1581296D01*
X2020457Y1581023*
X2022754*
X2020457Y1579023D02*
Y1579932D01*
X2021441Y1580023*
X2021332Y1579932*
X2021223Y1579660*
Y1579387*
X2021332Y1579114*
X2021551Y1578932*
X2021879Y1578841*
X2022098Y1578932*
X2022426Y1579023*
X2022645Y1579205*
X2022754Y1579478*
Y1579750*
X2022645Y1580023*
X2022535Y1580114*
X2022316Y1580205*
X2025457Y1583569D02*
X2027754D01*
X2025457Y1582205D02*
X2025566Y1582387D01*
X2025785Y1582569*
X2026004Y1582660*
X2026332Y1582750*
X2026879*
X2027207Y1582660*
X2027426Y1582569*
X2027645Y1582387*
X2027754Y1582205*
Y1581841*
X2027645Y1581660*
X2027426Y1581478*
X2027207Y1581387*
X2026879Y1581296*
X2026332*
X2026004Y1581387*
X2025785Y1581478*
X2025566Y1581660*
X2025457Y1581841*
Y1582205*
X2026004Y1580387D02*
X2025895D01*
X2025676Y1580296*
X2025566Y1580205*
X2025457Y1580023*
Y1579660*
X2025566Y1579478*
X2025676Y1579387*
X2025895Y1579296*
X2026113*
X2026332Y1579387*
X2026660Y1579569*
X2027754Y1580478*
Y1579205*
X2035254Y1581756D02*
Y1579459D01*
X2033890Y1581756D02*
X2034072Y1581646D01*
X2034254Y1581427*
X2034345Y1581209*
X2034436Y1580881*
Y1580334*
X2034345Y1580006*
X2034254Y1579787*
X2034072Y1579568*
X2033890Y1579459*
X2033527*
X2033345Y1579568*
X2033163Y1579787*
X2033072Y1580006*
X2032981Y1580334*
Y1580881*
X2033072Y1581209*
X2033163Y1581427*
X2033345Y1581646*
X2033527Y1581756*
X2033890*
X2031618D02*
X2031890Y1581646D01*
X2032072Y1581318*
X2032163Y1580771*
Y1580443*
X2032072Y1579896*
X2031890Y1579568*
X2031618Y1579459*
X2031436*
X2031163Y1579568*
X2030981Y1579896*
X2030890Y1580443*
Y1580771*
X2030981Y1581318*
X2031163Y1581646*
X2031436Y1581756*
X2031618*
X2035254Y1586756D02*
Y1584459D01*
X2033890Y1586756D02*
X2034072Y1586646D01*
X2034254Y1586427*
X2034345Y1586209*
X2034436Y1585881*
Y1585334*
X2034345Y1585006*
X2034254Y1584787*
X2034072Y1584568*
X2033890Y1584459*
X2033527*
X2033345Y1584568*
X2033163Y1584787*
X2033072Y1585006*
X2032981Y1585334*
Y1585881*
X2033072Y1586209*
X2033163Y1586427*
X2033345Y1586646*
X2033527Y1586756*
X2033890*
X2031254D02*
X2032163Y1585224D01*
X2030799*
X2031254Y1586756D02*
Y1584459D01*
X2034413Y1601638D02*
Y1599341D01*
X2033049Y1601638D02*
X2033231Y1601529D01*
X2033413Y1601310*
X2033504Y1601091*
X2033595Y1600763*
Y1600216*
X2033504Y1599888*
X2033413Y1599670*
X2033231Y1599451*
X2033049Y1599341*
X2032686*
X2032504Y1599451*
X2032322Y1599670*
X2032231Y1599888*
X2032140Y1600216*
Y1600763*
X2032231Y1601091*
X2032322Y1601310*
X2032504Y1601529*
X2032686Y1601638*
X2033049*
X2030140D02*
X2031049D01*
X2031140Y1600654*
X2031049Y1600763*
X2030777Y1600873*
X2030504*
X2030231Y1600763*
X2030049Y1600545*
X2029958Y1600216*
X2030049Y1599998*
X2030140Y1599670*
X2030322Y1599451*
X2030595Y1599341*
X2030868*
X2031140Y1599451*
X2031231Y1599560*
X2031322Y1599779*
X2035254Y1591756D02*
Y1589459D01*
X2033890Y1591756D02*
X2034072Y1591646D01*
X2034254Y1591427*
X2034345Y1591209*
X2034436Y1590881*
Y1590334*
X2034345Y1590006*
X2034254Y1589787*
X2034072Y1589568*
X2033890Y1589459*
X2033527*
X2033345Y1589568*
X2033163Y1589787*
X2033072Y1590006*
X2032981Y1590334*
Y1590881*
X2033072Y1591209*
X2033163Y1591427*
X2033345Y1591646*
X2033527Y1591756*
X2033890*
X2032163Y1591318D02*
X2031981Y1591427D01*
X2031708Y1591756*
Y1589459*
X2029799Y1591427D02*
X2029890Y1591646D01*
X2030163Y1591756*
X2030345*
X2030618Y1591646*
X2030799Y1591318*
X2030890Y1590771*
Y1590224*
X2030799Y1589787*
X2030618Y1589568*
X2030345Y1589459*
X2030254*
X2029981Y1589568*
X2029799Y1589787*
X2029708Y1590115*
Y1590224*
X2029799Y1590552*
X2029981Y1590771*
X2030254Y1590881*
X2030345*
X2030618Y1590771*
X2030799Y1590552*
X2030890Y1590224*
X2035504Y1596638D02*
Y1594341D01*
X2034140Y1596638D02*
X2034322Y1596529D01*
X2034504Y1596310*
X2034595Y1596091*
X2034686Y1595763*
Y1595216*
X2034595Y1594888*
X2034504Y1594670*
X2034322Y1594451*
X2034140Y1594341*
X2033777*
X2033595Y1594451*
X2033413Y1594670*
X2033322Y1594888*
X2033231Y1595216*
Y1595763*
X2033322Y1596091*
X2033413Y1596310*
X2033595Y1596529*
X2033777Y1596638*
X2034140*
X2032413Y1596201D02*
X2032231Y1596310D01*
X2031958Y1596638*
Y1594341*
X2029868Y1596638D02*
X2030777Y1594341D01*
X2031140Y1596638D02*
X2029868D01*
X2035004Y1606638D02*
Y1604341D01*
X2033640Y1606638D02*
X2033822Y1606529D01*
X2034004Y1606310*
X2034095Y1606091*
X2034186Y1605763*
Y1605216*
X2034095Y1604888*
X2034004Y1604670*
X2033822Y1604451*
X2033640Y1604341*
X2033277*
X2033095Y1604451*
X2032913Y1604670*
X2032822Y1604888*
X2032731Y1605216*
Y1605763*
X2032822Y1606091*
X2032913Y1606310*
X2033095Y1606529*
X2033277Y1606638*
X2033640*
X2031913Y1606201D02*
X2031731Y1606310D01*
X2031458Y1606638*
Y1604341*
X2030186Y1606638D02*
X2030458Y1606529D01*
X2030549Y1606310*
Y1606091*
X2030458Y1605873*
X2030277Y1605763*
X2029913Y1605654*
X2029640Y1605545*
X2029458Y1605326*
X2029368Y1605107*
Y1604779*
X2029458Y1604560*
X2029549Y1604451*
X2029822Y1604341*
X2030186*
X2030458Y1604451*
X2030549Y1604560*
X2030640Y1604779*
Y1605107*
X2030549Y1605326*
X2030368Y1605545*
X2030095Y1605654*
X2029731Y1605763*
X2029549Y1605873*
X2029458Y1606091*
Y1606310*
X2029549Y1606529*
X2029822Y1606638*
X2030186*
X2034822Y1631638D02*
Y1629341D01*
X2035458Y1631638D02*
X2034186D01*
X2033368D02*
X2032095Y1629341D01*
Y1631638D02*
X2033368Y1629341D01*
X2031277Y1631638D02*
Y1629341D01*
Y1631638D02*
X2030640D01*
X2030368Y1631529*
X2030186Y1631310*
X2030095Y1631091*
X2030004Y1630763*
Y1630216*
X2030095Y1629888*
X2030186Y1629670*
X2030368Y1629451*
X2030640Y1629341*
X2031277*
X2028640Y1631638D02*
X2028913Y1631529D01*
X2029095Y1631201*
X2029186Y1630654*
Y1630326*
X2029095Y1629779*
X2028913Y1629451*
X2028640Y1629341*
X2028458*
X2028186Y1629451*
X2028004Y1629779*
X2027913Y1630326*
Y1630654*
X2028004Y1631201*
X2028186Y1631529*
X2028458Y1631638*
X2028640*
X2035258Y1626638D02*
Y1624341D01*
Y1626638D02*
X2034440D01*
X2034168Y1626529*
X2034077Y1626420*
X2033986Y1626201*
Y1625982*
X2034077Y1625763*
X2034168Y1625654*
X2034440Y1625545*
X2035258*
X2034622D02*
X2033986Y1624341D01*
X2033168Y1626638D02*
X2031895Y1624341D01*
Y1626638D02*
X2033168Y1624341D01*
X2031077Y1626638D02*
Y1624341D01*
Y1626638D02*
X2030440D01*
X2030168Y1626529*
X2029986Y1626310*
X2029895Y1626091*
X2029804Y1625763*
Y1625216*
X2029895Y1624888*
X2029986Y1624670*
X2030168Y1624451*
X2030440Y1624341*
X2031077*
X2028440Y1626638D02*
X2028713Y1626529D01*
X2028895Y1626201*
X2028986Y1625654*
Y1625326*
X2028895Y1624779*
X2028713Y1624451*
X2028440Y1624341*
X2028258*
X2027986Y1624451*
X2027804Y1624779*
X2027713Y1625326*
Y1625654*
X2027804Y1626201*
X2027986Y1626529*
X2028258Y1626638*
X2028440*
X2034913Y1636638D02*
Y1634341D01*
X2033549Y1636638D02*
X2033731Y1636529D01*
X2033913Y1636310*
X2034004Y1636091*
X2034095Y1635763*
Y1635216*
X2034004Y1634888*
X2033913Y1634670*
X2033731Y1634451*
X2033549Y1634341*
X2033186*
X2033004Y1634451*
X2032822Y1634670*
X2032731Y1634888*
X2032640Y1635216*
Y1635763*
X2032731Y1636091*
X2032822Y1636310*
X2033004Y1636529*
X2033186Y1636638*
X2033549*
X2031731Y1636091D02*
Y1636201D01*
X2031640Y1636420*
X2031549Y1636529*
X2031368Y1636638*
X2031004*
X2030822Y1636529*
X2030731Y1636420*
X2030640Y1636201*
Y1635982*
X2030731Y1635763*
X2030913Y1635435*
X2031822Y1634341*
X2030549*
X2029640Y1636091D02*
Y1636201D01*
X2029549Y1636420*
X2029458Y1636529*
X2029277Y1636638*
X2028913*
X2028731Y1636529*
X2028640Y1636420*
X2028549Y1636201*
Y1635982*
X2028640Y1635763*
X2028822Y1635435*
X2029731Y1634341*
X2028458*
X2035304Y1621638D02*
Y1619341D01*
X2033940Y1621638D02*
X2034122Y1621529D01*
X2034304Y1621310*
X2034395Y1621091*
X2034486Y1620763*
Y1620216*
X2034395Y1619888*
X2034304Y1619670*
X2034122Y1619451*
X2033940Y1619341*
X2033577*
X2033395Y1619451*
X2033213Y1619670*
X2033122Y1619888*
X2033031Y1620216*
Y1620763*
X2033122Y1621091*
X2033213Y1621310*
X2033395Y1621529*
X2033577Y1621638*
X2033940*
X2032122Y1621091D02*
Y1621201D01*
X2032031Y1621420*
X2031940Y1621529*
X2031758Y1621638*
X2031395*
X2031213Y1621529*
X2031122Y1621420*
X2031031Y1621201*
Y1620982*
X2031122Y1620763*
X2031304Y1620435*
X2032213Y1619341*
X2030940*
X2030122Y1621201D02*
X2029940Y1621310D01*
X2029668Y1621638*
Y1619341*
X2035375Y1616829D02*
Y1614532D01*
Y1616829D02*
X2034102Y1614532D01*
Y1616829D02*
Y1614532D01*
X2031920Y1616282D02*
X2032011Y1616501D01*
X2032193Y1616720*
X2032375Y1616829*
X2032739*
X2032920Y1616720*
X2033102Y1616501*
X2033193Y1616282*
X2033284Y1615954*
Y1615407*
X2033193Y1615079*
X2033102Y1614861*
X2032920Y1614642*
X2032739Y1614532*
X2032375*
X2032193Y1614642*
X2032011Y1614861*
X2031920Y1615079*
X2034958Y1611638D02*
Y1609341D01*
X2033595Y1611638D02*
X2033777Y1611529D01*
X2033958Y1611310*
X2034049Y1611091*
X2034140Y1610763*
Y1610216*
X2034049Y1609888*
X2033958Y1609670*
X2033777Y1609451*
X2033595Y1609341*
X2033231*
X2033049Y1609451*
X2032868Y1609670*
X2032777Y1609888*
X2032686Y1610216*
Y1610763*
X2032777Y1611091*
X2032868Y1611310*
X2033049Y1611529*
X2033231Y1611638*
X2033595*
X2031868Y1611201D02*
X2031686Y1611310D01*
X2031413Y1611638*
Y1609341*
X2029413Y1610873D02*
X2029504Y1610545D01*
X2029686Y1610326*
X2029958Y1610216*
X2030049*
X2030322Y1610326*
X2030504Y1610545*
X2030595Y1610873*
Y1610982*
X2030504Y1611310*
X2030322Y1611529*
X2030049Y1611638*
X2029958*
X2029686Y1611529*
X2029504Y1611310*
X2029413Y1610873*
Y1610326*
X2029504Y1609779*
X2029686Y1609451*
X2029958Y1609341*
X2030140*
X2030413Y1609451*
X2030504Y1609670*
X2033992Y1646375D02*
X2034083Y1646594D01*
X2034265Y1646813*
X2034446Y1646922*
X2034810*
X2034992Y1646813*
X2035174Y1646594*
X2035265Y1646375*
X2035355Y1646047*
Y1645500*
X2035265Y1645172*
X2035174Y1644954*
X2034992Y1644735*
X2034810Y1644625*
X2034446*
X2034265Y1644735*
X2034083Y1644954*
X2033992Y1645172*
Y1645500*
X2034446D02*
X2033992D01*
X2033174Y1646922D02*
Y1644625D01*
Y1646922D02*
X2031901Y1644625D01*
Y1646922D02*
Y1644625D01*
X2031083Y1646922D02*
Y1644625D01*
Y1646922D02*
X2030446D01*
X2030174Y1646813*
X2029992Y1646594*
X2029901Y1646375*
X2029810Y1646047*
Y1645500*
X2029901Y1645172*
X2029992Y1644954*
X2030174Y1644735*
X2030446Y1644625*
X2031083*
X1989781Y1626427D02*
X1989963Y1626646D01*
X1990236Y1626756*
X1990599*
X1990872Y1626646*
X1991054Y1626427*
Y1626209*
X1990963Y1625990*
X1990872Y1625881*
X1990690Y1625771*
X1990145Y1625552*
X1989963Y1625443*
X1989872Y1625334*
X1989781Y1625115*
Y1624787*
X1989963Y1624568*
X1990236Y1624459*
X1990599*
X1990872Y1624568*
X1991054Y1624787*
X1988963Y1626756D02*
Y1624459D01*
Y1626756D02*
X1987781D01*
X1988963Y1625662D02*
X1988236D01*
X1988963Y1624459D02*
X1987781D01*
X1986963Y1626756D02*
Y1624459D01*
Y1626756D02*
X1985690Y1624459D01*
Y1626756D02*
Y1624459D01*
X1983599Y1626427D02*
X1983781Y1626646D01*
X1984054Y1626756*
X1984418*
X1984690Y1626646*
X1984872Y1626427*
Y1626209*
X1984781Y1625990*
X1984690Y1625881*
X1984508Y1625771*
X1983963Y1625552*
X1983781Y1625443*
X1983690Y1625334*
X1983599Y1625115*
Y1624787*
X1983781Y1624568*
X1984054Y1624459*
X1984418*
X1984690Y1624568*
X1984872Y1624787*
X1982236Y1626756D02*
X1982418Y1626646D01*
X1982599Y1626427*
X1982690Y1626209*
X1982781Y1625881*
Y1625334*
X1982690Y1625006*
X1982599Y1624787*
X1982418Y1624568*
X1982236Y1624459*
X1981872*
X1981690Y1624568*
X1981508Y1624787*
X1981418Y1625006*
X1981327Y1625334*
Y1625881*
X1981418Y1626209*
X1981508Y1626427*
X1981690Y1626646*
X1981872Y1626756*
X1982236*
X1980508D02*
Y1624459D01*
Y1626756D02*
X1979690D01*
X1979418Y1626646*
X1979327Y1626537*
X1979236Y1626318*
Y1626099*
X1979327Y1625881*
X1979418Y1625771*
X1979690Y1625662*
X1980508*
X1979872D02*
X1979236Y1624459D01*
X1978418Y1624021D02*
X1976508D01*
X1975963Y1626756D02*
X1975236Y1624459D01*
X1974508Y1626756D02*
X1975236Y1624459D01*
X1973690Y1626756D02*
Y1624459D01*
Y1626756D02*
X1972418Y1624459D01*
Y1626756D02*
Y1624459D01*
X2034913Y1641638D02*
Y1639341D01*
X2033549Y1641638D02*
X2033731Y1641529D01*
X2033913Y1641310*
X2034004Y1641091*
X2034095Y1640763*
Y1640216*
X2034004Y1639888*
X2033913Y1639670*
X2033731Y1639451*
X2033549Y1639341*
X2033186*
X2033004Y1639451*
X2032822Y1639670*
X2032731Y1639888*
X2032640Y1640216*
Y1640763*
X2032731Y1641091*
X2032822Y1641310*
X2033004Y1641529*
X2033186Y1641638*
X2033549*
X2031731Y1641091D02*
Y1641201D01*
X2031640Y1641420*
X2031549Y1641529*
X2031368Y1641638*
X2031004*
X2030822Y1641529*
X2030731Y1641420*
X2030640Y1641201*
Y1640982*
X2030731Y1640763*
X2030913Y1640435*
X2031822Y1639341*
X2030549*
X2029549Y1641638D02*
X2028549D01*
X2029095Y1640763*
X2028822*
X2028640Y1640654*
X2028549Y1640545*
X2028458Y1640216*
Y1639998*
X2028549Y1639670*
X2028731Y1639451*
X2029004Y1639341*
X2029277*
X2029549Y1639451*
X2029640Y1639560*
X2029731Y1639779*
X1980656Y1583201D02*
X1980437Y1583292D01*
X1980218Y1583474*
X1980109Y1583656*
Y1584019*
X1980218Y1584201*
X1980437Y1584383*
X1980656Y1584474*
X1980984Y1584565*
X1981531*
X1981859Y1584474*
X1982078Y1584383*
X1982297Y1584201*
X1982406Y1584019*
Y1583656*
X1982297Y1583474*
X1982078Y1583292*
X1981859Y1583201*
X1981531*
Y1583656D02*
Y1583201D01*
X1980109Y1582383D02*
X1982406D01*
X1980109D02*
X1982406Y1581110D01*
X1980109D02*
X1982406D01*
X1980109Y1580292D02*
X1982406D01*
X1980109D02*
Y1579656D01*
X1980218Y1579383*
X1980437Y1579201*
X1980656Y1579110*
X1980984Y1579019*
X1981531*
X1981859Y1579110*
X1982078Y1579201*
X1982297Y1579383*
X1982406Y1579656*
Y1580292*
X2025118Y1646923D02*
Y1644626D01*
Y1646923D02*
X2023936D01*
X2025118Y1645829D02*
X2024390D01*
X2025118Y1644626D02*
X2023936D01*
X2021845Y1646595D02*
X2022027Y1646813D01*
X2022299Y1646923*
X2022663*
X2022936Y1646813*
X2023118Y1646595*
Y1646376*
X2023027Y1646157*
X2022936Y1646048*
X2022754Y1645938*
X2022208Y1645720*
X2022027Y1645610*
X2021936Y1645501*
X2021845Y1645282*
Y1644954*
X2022027Y1644735*
X2022299Y1644626*
X2022663*
X2022936Y1644735*
X2023118Y1644954*
X2021027Y1646923D02*
Y1644626D01*
Y1646923D02*
X2020208D01*
X2019936Y1646813*
X2019845Y1646704*
X2019754Y1646485*
Y1646157*
X2019845Y1645938*
X2019936Y1645829*
X2020208Y1645720*
X2021027*
X2018754Y1646923D02*
X2017754D01*
X2018299Y1646048*
X2018027*
X2017845Y1645938*
X2017754Y1645829*
X2017663Y1645501*
Y1645282*
X2017754Y1644954*
X2017936Y1644735*
X2018208Y1644626*
X2018481*
X2018754Y1644735*
X2018845Y1644845*
X2018936Y1645063*
X2016754Y1646376D02*
Y1646485D01*
X2016663Y1646704*
X2016572Y1646813*
X2016390Y1646923*
X2016027*
X2015845Y1646813*
X2015754Y1646704*
X2015663Y1646485*
Y1646267*
X2015754Y1646048*
X2015936Y1645720*
X2016845Y1644626*
X2015572*
X2014754Y1645610D02*
X2013118D01*
X2012299Y1646923D02*
X2011845Y1644626D01*
X2011390Y1646923D02*
X2011845Y1644626D01*
X2011390Y1646923D02*
X2010936Y1644626D01*
X2010481Y1646923D02*
X2010936Y1644626D01*
X2009663Y1646923D02*
Y1644626D01*
Y1646923D02*
X2008845D01*
X2008572Y1646813*
X2008481Y1646704*
X2008390Y1646485*
Y1646267*
X2008481Y1646048*
X2008572Y1645938*
X2008845Y1645829*
X2009663*
X2009027D02*
X2008390Y1644626D01*
X2007027Y1646923D02*
X2007208Y1646813D01*
X2007390Y1646595*
X2007481Y1646376*
X2007572Y1646048*
Y1645501*
X2007481Y1645173*
X2007390Y1644954*
X2007208Y1644735*
X2007027Y1644626*
X2006663*
X2006481Y1644735*
X2006299Y1644954*
X2006208Y1645173*
X2006118Y1645501*
Y1646048*
X2006208Y1646376*
X2006299Y1646595*
X2006481Y1646813*
X2006663Y1646923*
X2007027*
X2004754D02*
X2004936Y1646813D01*
X2005118Y1646595*
X2005208Y1646376*
X2005299Y1646048*
Y1645501*
X2005208Y1645173*
X2005118Y1644954*
X2004936Y1644735*
X2004754Y1644626*
X2004390*
X2004208Y1644735*
X2004027Y1644954*
X2003936Y1645173*
X2003845Y1645501*
Y1646048*
X2003936Y1646376*
X2004027Y1646595*
X2004208Y1646813*
X2004390Y1646923*
X2004754*
X2003027D02*
Y1644626D01*
Y1646923D02*
X2002299Y1644626D01*
X2001572Y1646923D02*
X2002299Y1644626D01*
X2001572Y1646923D02*
Y1644626D01*
X2000754Y1645610D02*
X1999118D01*
X1998118Y1646923D02*
X1997118D01*
X1997663Y1646048*
X1997390*
X1997208Y1645938*
X1997118Y1645829*
X1997027Y1645501*
Y1645282*
X1997118Y1644954*
X1997299Y1644735*
X1997572Y1644626*
X1997845*
X1998118Y1644735*
X1998208Y1644845*
X1998299Y1645063*
X1996118Y1646376D02*
Y1646485D01*
X1996027Y1646704*
X1995936Y1646813*
X1995754Y1646923*
X1995390*
X1995208Y1646813*
X1995118Y1646704*
X1995027Y1646485*
Y1646267*
X1995118Y1646048*
X1995299Y1645720*
X1996208Y1644626*
X1994936*
X1994118Y1646923D02*
Y1645282D01*
X1994027Y1644954*
X1993845Y1644735*
X1993572Y1644626*
X1993390*
X1993118Y1644735*
X1992936Y1644954*
X1992845Y1645282*
Y1646923*
X1992027Y1644188D02*
X1990118D01*
X1989572Y1646923D02*
X1988845Y1644626D01*
X1988118Y1646923D02*
X1988845Y1644626D01*
X1987208Y1646376D02*
Y1646485D01*
X1987118Y1646704*
X1987027Y1646813*
X1986845Y1646923*
X1986481*
X1986299Y1646813*
X1986208Y1646704*
X1986118Y1646485*
Y1646267*
X1986208Y1646048*
X1986390Y1645720*
X1987299Y1644626*
X1986027*
X1985118Y1644845D02*
X1985208Y1644735D01*
X1985118Y1644626*
X1985027Y1644735*
X1985118Y1644845*
X1984208Y1646485D02*
X1984027Y1646595D01*
X1983754Y1646923*
Y1644626*
X1968504Y1656772D02*
X1992357D01*
X1968504D02*
X1973504Y1657772D01*
Y1655772*
X1968504Y1656772*
X2039370D02*
X2015516D01*
X2039370D02*
X2034370Y1655772D01*
Y1657772*
X2039370Y1656772*
X1968504Y1652394D02*
Y1658772D01*
X2039370Y1652394D02*
Y1658772D01*
X2054252Y1574803D02*
Y1607723D01*
Y1574803D02*
X2053252Y1579803D01*
X2055252*
X2054252Y1574803*
Y1650394D02*
Y1617473D01*
Y1650394D02*
X2055252Y1645394D01*
X2053252*
X2054252Y1650394*
X2041370Y1574803D02*
X2056252D01*
X2041370Y1650394D02*
X2056252D01*
X0Y0D02*
M02*
