*
*
G04 PADS 9.5 Build Number: 522968 generated Gerber (RS-274-X) file*
G04 PC Version=2.1*
*
%IN "ESP32_WROOM32_UFL_5X5_V"*%
*
%MOIN*%
*
%FSLAX35Y35*%
*
*
*
*
G04 PC Standard Apertures*
*
*
G04 Thermal Relief Aperture macro.*
%AMTER*
1,1,$1,0,0*
1,0,$1-$2,0,0*
21,0,$3,$4,0,0,45*
21,0,$3,$4,0,0,135*
%
*
*
G04 Annular Aperture macro.*
%AMANN*
1,1,$1,0,0*
1,0,$2,0,0*
%
*
*
G04 Odd Aperture macro.*
%AMODD*
1,1,$1,0,0*
1,0,$1-0.005,0,0*
%
*
*
G04 PC Custom Aperture Macros*
*
*
*
*
*
*
G04 PC Aperture Table*
*
%ADD010C,0.001*%
%ADD043C,0.008*%
%ADD044C,0.01*%
%ADD048C,0.006*%
%ADD109C,0.005*%
%ADD131C,0.00787*%
%ADD173C,0.00598*%
%ADD198C,0.002*%
%ADD201C,0.00402*%
*
*
*
*
G04 PC Circuitry*
G04 Layer Name ESP32_WROOM32_UFL_5X5_V - circuitry*
%LPD*%
*
G54D10*
G01X2064117Y1612327D02*
X2064074Y1612628D01*
X2063950Y1612876*
X2063748Y1612997*
X2063454Y1613039*
X2063240Y1612996*
X2063073Y1612954*
X2062910Y1612832*
X2062781Y1612617*
X2062693Y1612621*
X2062608Y1612792*
X2062487Y1612913*
X2062277Y1612997*
X2062070Y1613038*
X2061905Y1612997*
X2061695Y1612913*
X2061434Y1612652*
X2061349Y1612688*
Y1612995*
X2061047*
Y1610773*
X2061349*
Y1612197*
X2061350Y1612209*
X2061395Y1612387*
X2061405Y1612407*
X2061628Y1612675*
X2061653Y1612691*
X2061966Y1612780*
X2061991Y1612781*
X2062170Y1612736*
X2062186Y1612729*
X2062319Y1612640*
X2062336Y1612621*
X2062426Y1612442*
X2062431Y1612420*
Y1610773*
X2062733*
Y1612063*
Y1612070*
X2062778Y1612382*
X2062787Y1612405*
X2062921Y1612584*
X2062931Y1612594*
X2063110Y1612728*
X2063130Y1612737*
X2063353Y1612781*
X2063373*
X2063596Y1612737*
X2063626Y1612718*
X2063760Y1612539*
X2063768Y1612525*
X2063812Y1612391*
X2063815Y1612375*
Y1610773*
X2064117*
Y1612327*
X2060367D02*
X2060324Y1612628D01*
X2060200Y1612876*
X2059998Y1612997*
X2059704Y1613039*
X2059490Y1612996*
X2059323Y1612954*
X2059160Y1612832*
X2059031Y1612617*
X2058943Y1612621*
X2058858Y1612792*
X2058737Y1612913*
X2058527Y1612997*
X2058320Y1613038*
X2058155Y1612997*
X2057945Y1612913*
X2057684Y1612652*
X2057599Y1612688*
Y1612995*
X2057297*
Y1610773*
X2057599*
Y1612197*
X2057600Y1612209*
X2057645Y1612387*
X2057655Y1612407*
X2057878Y1612675*
X2057903Y1612691*
X2058216Y1612780*
X2058241Y1612781*
X2058420Y1612736*
X2058436Y1612729*
X2058569Y1612640*
X2058586Y1612621*
X2058676Y1612442*
X2058681Y1612420*
Y1610773*
X2058983*
Y1612063*
Y1612070*
X2059028Y1612382*
X2059037Y1612405*
X2059171Y1612584*
X2059181Y1612594*
X2059360Y1612728*
X2059380Y1612737*
X2059603Y1612781*
X2059623*
X2059846Y1612737*
X2059876Y1612718*
X2060010Y1612539*
X2060018Y1612525*
X2060062Y1612391*
X2060065Y1612375*
Y1610773*
X2060367*
Y1612327*
X2056706Y1612725D02*
X2056619Y1613029D01*
X2056444Y1613512*
X2056319Y1613679*
X2056155Y1613802*
X2055728Y1613887*
X2055432Y1613845*
X2055181Y1613719*
X2055014Y1613510*
X2054884Y1613208*
X2054797Y1612814*
X2054752Y1612284*
Y1611890*
X2054840Y1611540*
X2054927Y1611235*
X2055052Y1611026*
X2055348Y1610815*
X2055731Y1610730*
X2056027Y1610772*
X2056277Y1610897*
X2056445Y1611106*
X2056445D02*
X2056574Y1611408D01*
X2056662Y1611803*
X2056706Y1612288*
Y1612725*
X2056404Y1612643D02*
Y1611929D01*
Y1611921*
X2056359Y1611653*
Y1611651*
X2056314Y1611428*
X2056310Y1611415*
X2056220Y1611237*
X2056207Y1611220*
X2055984Y1611042*
X2055962Y1611032*
X2055739Y1610987*
X2055719*
X2055496Y1611032*
X2055475Y1611042*
X2055252Y1611220*
X2055238Y1611237*
X2055149Y1611415*
X2055144Y1611428*
X2055144D02*
X2055100Y1611651D01*
Y1611653*
X2055055Y1611921*
X2055054Y1611929*
Y1612643*
X2055055Y1612650*
X2055099Y1612963*
X2055100Y1612965*
X2055144Y1613189*
X2055144D02*
X2055149Y1613201D01*
X2055238Y1613380*
X2055252Y1613396*
X2055475Y1613575*
X2055496Y1613585*
X2055719Y1613630*
X2055737*
X2056005Y1613585*
X2056036Y1613567*
X2056215Y1613344*
X2056217Y1613340*
X2056307Y1613207*
X2056314Y1613189*
X2056359Y1612965*
Y1612963*
X2056404Y1612650*
Y1612643*
X2054161Y1611075D02*
X2052649D01*
X2052610Y1611156*
X2052788Y1611380*
X2052797Y1611388*
X2052975Y1611522*
X2053241Y1611744*
X2053595Y1612053*
X2053815Y1612317*
X2053944Y1612489*
X2054030Y1612703*
X2054116Y1613048*
X2054074Y1613381*
X2053866Y1613631*
X2053568Y1613801*
X2053182Y1613887*
X2052799Y1613845*
X2052505Y1613677*
X2052293Y1613381*
X2052220Y1613088*
X2052520Y1613055*
X2052555Y1613233*
X2052564Y1613253*
X2052698Y1613432*
X2052708Y1613442*
X2052887Y1613576*
X2052909Y1613585*
X2053176Y1613630*
X2053194*
X2053418Y1613585*
X2053438Y1613576*
X2053616Y1613442*
X2053622Y1613437*
X2053756Y1613303*
X2053769Y1613278*
X2053814Y1613055*
Y1613035*
X2053769Y1612812*
X2053763Y1612796*
X2053629Y1612573*
X2053624Y1612566*
X2053356Y1612253*
X2053352Y1612249*
X2052949Y1611891*
X2052640Y1611626*
X2052291Y1611189*
X2052206Y1610978*
X2052172Y1610773*
X2054161*
Y1611075*
X2051483D02*
X2051181D01*
Y1610773*
X2051483*
Y1611075*
X2050456Y1612375D02*
X2050412Y1612903D01*
X2050325Y1613249*
X2050153Y1613550*
X2049985Y1613718*
X2049732Y1613845*
X2049437Y1613887*
X2049054Y1613802*
X2048759Y1613592*
X2048589Y1613251*
X2048504Y1612866*
X2048589Y1612436*
X2048758Y1612099*
X2049052Y1611931*
X2049347Y1611846*
X2049554Y1611888*
X2049765Y1611972*
X2050072Y1612235*
X2050154Y1612197*
Y1612152*
Y1612147*
X2050109Y1611656*
X2050104Y1611639*
X2050017Y1611465*
X2049974Y1611292*
X2049957Y1611265*
X2049734Y1611086*
X2049716Y1611077*
X2049404Y1610988*
X2049378Y1610987*
X2049199Y1611032*
X2049184Y1611039*
X2049050Y1611128*
X2049036Y1611142*
X2048947Y1611276*
X2048941Y1611288*
X2048864Y1611517*
X2048559Y1611484*
X2048633Y1611190*
X2048801Y1610938*
X2049051Y1610772*
X2049390Y1610729*
X2049687Y1610772*
X2049941Y1610898*
X2050153Y1611111*
X2050325Y1611411*
X2050412Y1611847*
X2050412D02*
X2050456Y1612375D01*
X2050154Y1612866D02*
Y1612859D01*
X2050109Y1612547*
X2050102Y1612528*
X2049969Y1612305*
X2049956Y1612291*
X2049777Y1612157*
X2049755Y1612147*
X2049487Y1612103*
X2049471*
X2049203Y1612147*
X2049181Y1612157*
X2049003Y1612291*
X2048990Y1612305*
X2048856Y1612528*
X2048850Y1612546*
X2048805Y1612813*
X2048804Y1612822*
X2048805Y1612829*
X2048849Y1613141*
X2048856Y1613160*
X2048990Y1613383*
X2049002Y1613396*
X2049225Y1613575*
X2049246Y1613585*
X2049469Y1613630*
X2049487*
X2049755Y1613585*
X2049777Y1613576*
X2049956Y1613442*
X2049970Y1613424*
X2050104Y1613156*
X2050104D02*
X2050109Y1613142D01*
X2050154Y1612875*
Y1612866*
X2047376Y1613888D02*
X2047186D01*
X2047067Y1613689*
X2047059Y1613679*
X2046836Y1613456*
X2046828Y1613450*
X2046561Y1613271*
X2046558Y1613269*
X2046270Y1613105*
Y1612813*
X2046640Y1612998*
X2046994Y1613263*
X2047074Y1613223*
Y1610773*
X2047376*
Y1613888*
X2013745Y1656500D02*
X2013702Y1656801D01*
X2013578Y1657049*
X2013376Y1657170*
X2013082Y1657212*
X2012868Y1657169*
X2012701Y1657127*
X2012538Y1657005*
X2012409Y1656791*
X2012322Y1656794*
X2012236Y1656965*
X2012115Y1657086*
X2011906Y1657170*
X2011698Y1657211*
X2011534Y1657170*
X2011323Y1657086*
X2011062Y1656826*
X2010977Y1656861*
Y1657168*
X2010675*
Y1654947*
X2010977*
Y1656370*
X2010979Y1656382*
X2011023Y1656561*
X2011033Y1656580*
X2011256Y1656848*
X2011281Y1656864*
X2011594Y1656954*
X2011620*
X2011798Y1656909*
X2011814Y1656903*
X2011948Y1656813*
X2011965Y1656794*
X2012054Y1656615*
X2012059Y1656593*
Y1654947*
X2012361*
Y1656236*
Y1656243*
X2012406Y1656556*
X2012416Y1656578*
X2012550Y1656757*
X2012560Y1656767*
X2012738Y1656901*
X2012758Y1656910*
X2012982Y1656955*
X2013001*
X2013224Y1656910*
X2013255Y1656891*
X2013388Y1656712*
X2013396Y1656698*
X2013441Y1656564*
X2013443Y1656548*
Y1654947*
X2013745*
Y1656500*
X2009995D02*
X2009952Y1656801D01*
X2009828Y1657049*
X2009626Y1657170*
X2009332Y1657212*
X2009118Y1657169*
X2008951Y1657127*
X2008788Y1657005*
X2008659Y1656791*
X2008572Y1656794*
X2008486Y1656965*
X2008365Y1657086*
X2008156Y1657170*
X2007948Y1657211*
X2007784Y1657170*
X2007573Y1657086*
X2007312Y1656826*
X2007227Y1656861*
Y1657168*
X2006925*
Y1654947*
X2007227*
Y1656370*
X2007229Y1656382*
X2007273Y1656561*
X2007283Y1656580*
X2007506Y1656848*
X2007531Y1656864*
X2007844Y1656954*
X2007870*
X2008048Y1656909*
X2008064Y1656903*
X2008198Y1656813*
X2008215Y1656794*
X2008304Y1656615*
X2008309Y1656593*
Y1654947*
X2008611*
Y1656236*
Y1656243*
X2008656Y1656556*
X2008666Y1656578*
X2008800Y1656757*
X2008810Y1656767*
X2008988Y1656901*
X2009008Y1656910*
X2009232Y1656955*
X2009251*
X2009474Y1656910*
X2009505Y1656891*
X2009638Y1656712*
X2009646Y1656698*
X2009691Y1656564*
X2009693Y1656548*
Y1654947*
X2009995*
Y1656500*
X2006334Y1656899D02*
X2006247Y1657203D01*
X2006072Y1657685*
X2005947Y1657852*
X2005783Y1657975*
X2005356Y1658060*
X2005060Y1658018*
X2004809Y1657893*
X2004642Y1657683*
X2004512Y1657381*
X2004425Y1656987*
X2004381Y1656457*
Y1656064*
X2004468Y1655713*
X2004555Y1655408*
X2004681Y1655199*
X2004976Y1654988*
X2005359Y1654903*
X2005655Y1654945*
X2005906Y1655070*
X2006073Y1655280*
X2006202Y1655582*
X2006290Y1655976*
X2006334Y1656461*
Y1656899*
X2006032Y1656816D02*
Y1656102D01*
Y1656094*
X2005987Y1655826*
Y1655824*
X2005942Y1655601*
X2005938Y1655589*
X2005849Y1655410*
X2005835Y1655393*
X2005612Y1655215*
X2005590Y1655205*
X2005367Y1655160*
X2005348*
X2005124Y1655205*
X2005103Y1655215*
X2004880Y1655393*
X2004866Y1655410*
X2004777Y1655589*
X2004773Y1655601*
X2004728Y1655824*
Y1655826*
X2004683Y1656094*
X2004682Y1656102*
Y1656816*
X2004683Y1656823*
X2004728Y1657136*
Y1657139*
X2004773Y1657362*
X2004777Y1657374*
X2004866Y1657553*
X2004880Y1657570*
X2005103Y1657748*
X2005124Y1657758*
X2005348Y1657803*
X2005366*
X2005633Y1657758*
X2005664Y1657740*
X2005843Y1657517*
X2005845Y1657514*
X2005935Y1657380*
X2005942Y1657362*
X2005987Y1657139*
Y1657136*
X2006032Y1656823*
Y1656816*
X2003834Y1656899D02*
X2003747Y1657203D01*
X2003572Y1657685*
X2003447Y1657852*
X2003283Y1657975*
X2002856Y1658060*
X2002560Y1658018*
X2002309Y1657893*
X2002142Y1657683*
X2002012Y1657381*
X2001925Y1656987*
X2001881Y1656457*
Y1656064*
X2001968Y1655713*
X2002055Y1655408*
X2002181Y1655199*
X2002476Y1654988*
X2002859Y1654903*
X2003155Y1654945*
X2003406Y1655070*
X2003573Y1655280*
X2003702Y1655582*
X2003790Y1655976*
X2003834Y1656461*
Y1656899*
X2003532Y1656816D02*
Y1656102D01*
Y1656094*
X2003487Y1655826*
Y1655824*
X2003442Y1655601*
X2003438Y1655589*
X2003349Y1655410*
X2003335Y1655393*
X2003112Y1655215*
X2003090Y1655205*
X2002867Y1655160*
X2002848*
X2002624Y1655205*
X2002603Y1655215*
X2002380Y1655393*
X2002366Y1655410*
X2002277Y1655589*
X2002273Y1655601*
X2002228Y1655824*
Y1655826*
X2002183Y1656094*
X2002182Y1656102*
Y1656816*
X2002183Y1656823*
X2002228Y1657136*
Y1657139*
X2002273Y1657362*
X2002277Y1657374*
X2002366Y1657553*
X2002380Y1657570*
X2002603Y1657748*
X2002624Y1657758*
X2002848Y1657803*
X2002866*
X2003133Y1657758*
X2003164Y1657740*
X2003343Y1657517*
X2003345Y1657514*
X2003435Y1657380*
X2003442Y1657362*
X2003487Y1657139*
Y1657136*
X2003532Y1656823*
Y1656816*
X2001111Y1655248D02*
X2000809D01*
Y1654947*
X2001111*
Y1655248*
X2000083Y1655836D02*
X2000041Y1656088D01*
X1999958Y1656297*
X1999792Y1656463*
X1999531Y1656593*
X1999528Y1656681*
X1999746Y1656811*
X1999870Y1656935*
X1999953Y1657102*
X1999994Y1657266*
X1999952Y1657599*
X1999743Y1657850*
X1999492Y1658018*
X1999107Y1658061*
X1998723Y1658018*
X1998472Y1657850*
X1998262Y1657599*
X1998221Y1657309*
X1998262Y1657101*
X1998345Y1656935*
X1998469Y1656811*
X1998687Y1656681*
X1998677Y1656590*
X1998420Y1656505*
X1998258Y1656343*
X1998174Y1656090*
X1998132Y1655836*
X1998217Y1655451*
X1998386Y1655156*
X1998722Y1654945*
X1999107Y1654902*
X1999492Y1654945*
X1999829Y1655156*
X1999998Y1655451*
X2000083Y1655836*
X1999692Y1657251D02*
X1999647Y1657072D01*
X1999640Y1657056*
X1999551Y1656922*
X1999532Y1656906*
X1999353Y1656816*
X1999340Y1656812*
X1999117Y1656767*
X1999098*
X1998874Y1656812*
X1998862Y1656816*
X1998683Y1656906*
X1998664Y1656922*
X1998575Y1657056*
X1998567Y1657074*
X1998523Y1657298*
Y1657319*
X1998568Y1657498*
X1998575Y1657514*
X1998664Y1657648*
X1998683Y1657665*
X1998862Y1657754*
X1998874Y1657758*
X1999098Y1657803*
X1999117*
X1999340Y1657758*
X1999353Y1657754*
X1999532Y1657665*
X1999554Y1657642*
X1999643Y1657464*
X1999647Y1657453*
X1999692Y1657275*
Y1657251*
X1999782Y1655834D02*
Y1655826D01*
X1999737Y1655558*
X1999728Y1655536*
X1999594Y1655358*
X1999584Y1655348*
X1999405Y1655214*
X1999383Y1655204*
X1999116Y1655160*
X1999107Y1655159*
X1998929*
X1998901Y1655168*
X1998770Y1655255*
X1998594Y1655343*
X1998575Y1655360*
X1998485Y1655494*
X1998478Y1655515*
X1998433Y1655827*
X1998432Y1655834*
X1998433Y1655844*
X1998478Y1656067*
X1998484Y1656083*
X1998618Y1656306*
X1998631Y1656321*
X1998810Y1656455*
X1998831Y1656464*
X1999099Y1656508*
X1999116*
X1999383Y1656464*
X1999405Y1656455*
X1999584Y1656321*
X1999597Y1656306*
X1999731Y1656083*
X1999737Y1656067*
X1999781Y1655844*
X1999782Y1655834*
X1997004Y1658061D02*
X1996814D01*
X1996695Y1657862*
X1996687Y1657852*
X1996464Y1657629*
X1996457Y1657623*
X1996189Y1657444*
X1996186Y1657443*
X1995898Y1657278*
Y1656986*
X1996268Y1657172*
X1996268D02*
X1996622Y1657437D01*
X1996702Y1657397*
Y1654947*
X1997004*
Y1658061*
X1995900Y1656987D02*
Y1657279D01*
X1996000Y1657037D02*
Y1657336D01*
X1996100Y1657087D02*
Y1657394D01*
X1996200Y1657137D02*
Y1657452D01*
X1996300Y1657195D02*
Y1657519D01*
X1996400Y1657270D02*
Y1657585D01*
X1996500Y1657345D02*
Y1657665D01*
X1996600Y1657420D02*
Y1657765D01*
X1996700Y1657411D02*
Y1657870D01*
X1996800Y1654947D02*
Y1658037D01*
X1996900Y1654947D02*
Y1658061D01*
X1997000Y1654947D02*
Y1658061D01*
X1998200Y1655527D02*
Y1656168D01*
X1998300Y1655305D02*
Y1656385D01*
Y1657025D02*
Y1657644D01*
X1998400Y1655147D02*
Y1656485D01*
Y1656880D02*
Y1657764D01*
X1998500Y1655084D02*
Y1655472D01*
Y1656110D02*
Y1656531D01*
Y1656793D02*
Y1657869D01*
X1998600Y1655022D02*
Y1655340D01*
Y1656276D02*
Y1656565D01*
Y1656733D02*
Y1657018D01*
Y1657552D02*
Y1657936D01*
X1998700Y1654959D02*
Y1655290D01*
Y1656372D02*
Y1656606D01*
Y1656669D02*
Y1656897D01*
Y1657673D02*
Y1658002D01*
X1998800Y1654936D02*
Y1655235D01*
Y1656447D02*
Y1656847D01*
Y1657723D02*
Y1658026D01*
X1998900Y1654925D02*
Y1655168D01*
Y1656475D02*
Y1656807D01*
Y1657763D02*
Y1658038D01*
X1999000Y1654914D02*
Y1655159D01*
Y1656492D02*
Y1656787D01*
Y1657783D02*
Y1658049D01*
X1999100Y1654903D02*
Y1655159D01*
Y1656509D02*
Y1656767D01*
Y1657803D02*
Y1658060D01*
X1999200Y1654913D02*
Y1655174D01*
Y1656494D02*
Y1656784D01*
Y1657786D02*
Y1658050D01*
X1999300Y1654924D02*
Y1655191D01*
Y1656478D02*
Y1656804D01*
Y1657766D02*
Y1658039D01*
X1999400Y1654935D02*
Y1655210D01*
Y1656458D02*
Y1656840D01*
Y1657730D02*
Y1658028D01*
X1999500Y1654950D02*
Y1655285D01*
Y1656383D02*
Y1656890D01*
Y1657680D02*
Y1658012D01*
X1999600Y1655012D02*
Y1655366D01*
Y1656301D02*
Y1656559D01*
Y1656724D02*
Y1656996D01*
Y1657550D02*
Y1657946D01*
X1999700Y1655075D02*
Y1655499D01*
Y1656134D02*
Y1656509D01*
Y1656784D02*
Y1657879D01*
X1999800Y1655137D02*
Y1656455D01*
Y1656865D02*
Y1657782D01*
X1999900Y1655280D02*
Y1656355D01*
Y1656995D02*
Y1657662D01*
X2000000Y1655461D02*
Y1656191D01*
X2000900Y1654947D02*
Y1655248D01*
X2001000Y1654947D02*
Y1655248D01*
X2001100Y1654947D02*
Y1655248D01*
X2001900Y1655986D02*
Y1656690D01*
X2002000Y1655602D02*
Y1657326D01*
X2002100Y1655334D02*
Y1657586D01*
X2002200Y1655185D02*
Y1655992D01*
Y1656943D02*
Y1657756D01*
X2002300Y1655114D02*
Y1655542D01*
Y1657420D02*
Y1657881D01*
X2002400Y1655042D02*
Y1655377D01*
Y1657586D02*
Y1657938D01*
X2002500Y1654983D02*
Y1655297D01*
Y1657666D02*
Y1657988D01*
X2002600Y1654960D02*
Y1655217D01*
Y1657746D02*
Y1658024D01*
X2002700Y1654938D02*
Y1655190D01*
Y1657773D02*
Y1658038D01*
X2002800Y1654916D02*
Y1655170D01*
Y1657793D02*
Y1658052D01*
X2002900Y1654909D02*
Y1655167D01*
Y1657797D02*
Y1658051D01*
X2003000Y1654923D02*
Y1655187D01*
Y1657781D02*
Y1658031D01*
X2003100Y1654937D02*
Y1655208D01*
Y1657764D02*
Y1658011D01*
X2003200Y1654968D02*
Y1655285D01*
Y1657696D02*
Y1657991D01*
X2003300Y1655018D02*
Y1655365D01*
Y1657571D02*
Y1657962D01*
X2003400Y1655068D02*
Y1655513D01*
Y1657432D02*
Y1657887D01*
X2003500Y1655188D02*
Y1655904D01*
Y1657047D02*
Y1657781D01*
X2003600Y1655343D02*
Y1657608D01*
X2003700Y1655576D02*
Y1657333D01*
X2003800Y1656086D02*
Y1657018D01*
X2004400Y1655986D02*
Y1656690D01*
X2004500Y1655602D02*
Y1657326D01*
X2004600Y1655334D02*
Y1657586D01*
X2004700Y1655185D02*
Y1655992D01*
Y1656943D02*
Y1657756D01*
X2004800Y1655114D02*
Y1655542D01*
Y1657420D02*
Y1657881D01*
X2004900Y1655042D02*
Y1655377D01*
Y1657586D02*
Y1657938D01*
X2005000Y1654983D02*
Y1655297D01*
Y1657666D02*
Y1657988D01*
X2005100Y1654960D02*
Y1655217D01*
Y1657746D02*
Y1658024D01*
X2005200Y1654938D02*
Y1655190D01*
Y1657773D02*
Y1658038D01*
X2005300Y1654916D02*
Y1655170D01*
Y1657793D02*
Y1658052D01*
X2005400Y1654909D02*
Y1655167D01*
Y1657797D02*
Y1658051D01*
X2005500Y1654923D02*
Y1655187D01*
Y1657781D02*
Y1658031D01*
X2005600Y1654937D02*
Y1655208D01*
Y1657764D02*
Y1658011D01*
X2005700Y1654968D02*
Y1655285D01*
Y1657696D02*
Y1657991D01*
X2005800Y1655018D02*
Y1655365D01*
Y1657571D02*
Y1657962D01*
X2005900Y1655068D02*
Y1655513D01*
Y1657432D02*
Y1657887D01*
X2006000Y1655188D02*
Y1655904D01*
Y1657047D02*
Y1657781D01*
X2006100Y1655343D02*
Y1657608D01*
X2006200Y1655576D02*
Y1657333D01*
X2006300Y1656086D02*
Y1657018D01*
X2007000Y1654947D02*
Y1657168D01*
X2007100Y1654947D02*
Y1657168D01*
X2007200Y1654947D02*
Y1657168D01*
X2007300Y1656601D02*
Y1656817D01*
X2007400Y1656721D02*
Y1656913D01*
X2007500Y1656841D02*
Y1657013D01*
X2007600Y1656884D02*
Y1657097D01*
X2007700Y1656913D02*
Y1657137D01*
X2007800Y1656941D02*
Y1657175D01*
X2007900Y1656946D02*
Y1657200D01*
X2008000Y1656921D02*
Y1657201D01*
X2008100Y1656878D02*
Y1657181D01*
X2008200Y1656812D02*
Y1657152D01*
X2008300Y1656623D02*
Y1657112D01*
X2008400Y1654947D02*
Y1657051D01*
X2008500Y1654947D02*
Y1656937D01*
X2008600Y1654947D02*
Y1656769D01*
X2008700Y1656624D02*
Y1656859D01*
X2008800Y1656758D02*
Y1657014D01*
X2008900Y1656835D02*
Y1657089D01*
X2009000Y1656908D02*
Y1657140D01*
X2009100Y1656928D02*
Y1657165D01*
X2009200Y1656948D02*
Y1657186D01*
X2009300Y1656945D02*
Y1657206D01*
X2009400Y1656925D02*
Y1657202D01*
X2009500Y1656896D02*
Y1657188D01*
X2009600Y1656764D02*
Y1657174D01*
X2009700Y1654947D02*
Y1657126D01*
X2009800Y1654947D02*
Y1657066D01*
X2009900Y1654947D02*
Y1656905D01*
X2010700Y1654947D02*
Y1657168D01*
X2010800Y1654947D02*
Y1657168D01*
X2010900Y1654947D02*
Y1657168D01*
X2011000Y1656468D02*
Y1656819D01*
X2011100Y1656661D02*
Y1656863D01*
X2011200Y1656781D02*
Y1656963D01*
X2011300Y1656870D02*
Y1657063D01*
X2011400Y1656898D02*
Y1657117D01*
X2011500Y1656927D02*
Y1657157D01*
X2011600Y1656955D02*
Y1657187D01*
X2011700Y1656934D02*
Y1657211D01*
X2011800Y1656909D02*
Y1657191D01*
X2011900Y1656845D02*
Y1657171D01*
X2012000Y1656723D02*
Y1657132D01*
X2012100Y1654947D02*
Y1657092D01*
X2012200Y1654947D02*
Y1657001D01*
X2012300Y1654947D02*
Y1656837D01*
X2012400Y1656513D02*
Y1656779D01*
X2012500Y1656691D02*
Y1656942D01*
X2012600Y1656797D02*
Y1657052D01*
X2012700Y1656872D02*
Y1657127D01*
X2012800Y1656918D02*
Y1657152D01*
X2012900Y1656938D02*
Y1657176D01*
X2013000Y1656955D02*
Y1657196D01*
X2013100Y1656935D02*
Y1657209D01*
X2013200Y1656915D02*
Y1657195D01*
X2013300Y1656830D02*
Y1657181D01*
X2013400Y1656686D02*
Y1657156D01*
X2013500Y1654947D02*
Y1657096D01*
X2013600Y1654947D02*
Y1657005D01*
X2013700Y1654947D02*
Y1656805D01*
X2046300Y1612828D02*
Y1613122D01*
X2046400Y1612878D02*
Y1613179D01*
X2046500Y1612928D02*
Y1613236D01*
X2046600Y1612978D02*
Y1613297D01*
X2046700Y1613043D02*
Y1613364D01*
X2046800Y1613118D02*
Y1613431D01*
X2046900Y1613193D02*
Y1613520D01*
X2047000Y1613267D02*
Y1613620D01*
X2047100Y1610773D02*
Y1613744D01*
X2047200Y1610773D02*
Y1613888D01*
X2047300Y1610773D02*
Y1613888D01*
X2048600Y1611322D02*
Y1611488D01*
Y1612415D02*
Y1613273D01*
X2048700Y1611090D02*
Y1611499D01*
Y1612215D02*
Y1613473D01*
X2048800Y1610940D02*
Y1611510D01*
Y1612075D02*
Y1613621D01*
X2048900Y1610872D02*
Y1611410D01*
Y1612018D02*
Y1612455D01*
Y1613233D02*
Y1613692D01*
X2049000Y1610805D02*
Y1611196D01*
Y1611960D02*
Y1612293D01*
Y1613395D02*
Y1613764D01*
X2049100Y1610765D02*
Y1611095D01*
Y1611917D02*
Y1612218D01*
Y1613475D02*
Y1613812D01*
X2049200Y1610753D02*
Y1611032D01*
Y1611888D02*
Y1612148D01*
Y1613555D02*
Y1613834D01*
X2049300Y1610740D02*
Y1611007D01*
Y1611860D02*
Y1612131D01*
Y1613596D02*
Y1613857D01*
X2049400Y1610731D02*
Y1610987D01*
Y1611857D02*
Y1612115D01*
Y1613616D02*
Y1613879D01*
X2049500Y1610745D02*
Y1611015D01*
Y1611877D02*
Y1612105D01*
Y1613628D02*
Y1613878D01*
X2049600Y1610759D02*
Y1611044D01*
Y1611906D02*
Y1612121D01*
Y1613611D02*
Y1613864D01*
X2049700Y1610778D02*
Y1611073D01*
Y1611946D02*
Y1612138D01*
Y1613594D02*
Y1613849D01*
X2049800Y1610828D02*
Y1611139D01*
Y1612002D02*
Y1612174D01*
Y1613559D02*
Y1613811D01*
X2049900Y1610878D02*
Y1611219D01*
Y1612087D02*
Y1612249D01*
Y1613484D02*
Y1613761D01*
X2050000Y1610958D02*
Y1611395D01*
Y1612173D02*
Y1612357D01*
Y1613365D02*
Y1613703D01*
X2050100Y1611058D02*
Y1611630D01*
Y1612246D02*
Y1612524D01*
Y1613165D02*
Y1613603D01*
X2050200Y1611193D02*
Y1613468D01*
X2050300Y1611368D02*
Y1613293D01*
X2050400Y1611788D02*
Y1612950D01*
X2051200Y1610773D02*
Y1611075D01*
X2051300Y1610773D02*
Y1611075D01*
X2051400Y1610773D02*
Y1611075D01*
X2052200Y1610773D02*
Y1610940D01*
X2052300Y1610773D02*
Y1611201D01*
Y1613079D02*
Y1613390D01*
X2052400Y1610773D02*
Y1611326D01*
Y1613068D02*
Y1613530D01*
X2052500Y1610773D02*
Y1611451D01*
Y1613057D02*
Y1613670D01*
X2052600Y1610773D02*
Y1611115D01*
Y1611136D02*
Y1611576D01*
Y1613301D02*
Y1613731D01*
X2052700Y1610773D02*
Y1611075D01*
Y1611269D02*
Y1611677D01*
Y1613434D02*
Y1613788D01*
X2052800Y1610773D02*
Y1611075D01*
Y1611390D02*
Y1611763D01*
Y1613511D02*
Y1613845D01*
X2052900Y1610773D02*
Y1611075D01*
Y1611465D02*
Y1611849D01*
Y1613583D02*
Y1613856D01*
X2053000Y1610773D02*
Y1611075D01*
Y1611542D02*
Y1611936D01*
Y1613600D02*
Y1613867D01*
X2053100Y1610773D02*
Y1611075D01*
Y1611626D02*
Y1612025D01*
Y1613617D02*
Y1613878D01*
X2053200Y1610773D02*
Y1611075D01*
Y1611709D02*
Y1612114D01*
Y1613628D02*
Y1613883D01*
X2053300Y1610773D02*
Y1611075D01*
Y1611795D02*
Y1612203D01*
Y1613608D02*
Y1613861D01*
X2053400Y1610773D02*
Y1611075D01*
Y1611882D02*
Y1612304D01*
Y1613588D02*
Y1613839D01*
X2053500Y1610773D02*
Y1611075D01*
Y1611970D02*
Y1612421D01*
Y1613529D02*
Y1613816D01*
X2053600Y1610773D02*
Y1611075D01*
Y1612059D02*
Y1612537D01*
Y1613454D02*
Y1613783D01*
X2053700Y1610773D02*
Y1611075D01*
Y1612179D02*
Y1612691D01*
Y1613359D02*
Y1613726D01*
X2053800Y1610773D02*
Y1611075D01*
Y1612299D02*
Y1612965D01*
Y1613125D02*
Y1613669D01*
X2053900Y1610773D02*
Y1611075D01*
Y1612430D02*
Y1613590D01*
X2054000Y1610773D02*
Y1611075D01*
Y1612629D02*
Y1613470D01*
X2054100Y1610773D02*
Y1611075D01*
Y1612984D02*
Y1613176D01*
X2054800Y1611700D02*
Y1612829D01*
X2054900Y1611330D02*
Y1613245D01*
X2055000Y1611113D02*
Y1613478D01*
X2055100Y1610992D02*
Y1611650D01*
Y1612966D02*
Y1613618D01*
X2055200Y1610921D02*
Y1611313D01*
Y1613304D02*
Y1613729D01*
X2055300Y1610849D02*
Y1611181D01*
Y1613435D02*
Y1613779D01*
X2055400Y1610803D02*
Y1611101D01*
Y1613515D02*
Y1613829D01*
X2055500Y1610781D02*
Y1611031D01*
Y1613586D02*
Y1613854D01*
X2055600Y1610759D02*
Y1611011D01*
Y1613606D02*
Y1613869D01*
X2055700Y1610736D02*
Y1610991D01*
Y1613626D02*
Y1613883D01*
X2055800Y1610739D02*
Y1610999D01*
Y1613619D02*
Y1613873D01*
X2055900Y1610754D02*
Y1611019D01*
Y1613603D02*
Y1613853D01*
X2056000Y1610768D02*
Y1611055D01*
Y1613586D02*
Y1613833D01*
X2056100Y1610808D02*
Y1611135D01*
Y1613487D02*
Y1613813D01*
X2056200Y1610858D02*
Y1611215D01*
Y1613362D02*
Y1613768D01*
X2056300Y1610925D02*
Y1611396D01*
Y1613216D02*
Y1613693D01*
X2056400Y1611050D02*
Y1611899D01*
Y1612676D02*
Y1613570D01*
X2056500Y1611235D02*
Y1613357D01*
X2056600Y1611524D02*
Y1613082D01*
X2056700Y1612222D02*
Y1612746D01*
X2057300Y1610773D02*
Y1612995D01*
X2057400Y1610773D02*
Y1612995D01*
X2057500Y1610773D02*
Y1612995D01*
X2057600Y1612207D02*
Y1612677D01*
X2057700Y1612461D02*
Y1612668D01*
X2057800Y1612581D02*
Y1612768D01*
X2057900Y1612690D02*
Y1612868D01*
X2058000Y1612719D02*
Y1612935D01*
X2058100Y1612747D02*
Y1612975D01*
X2058200Y1612776D02*
Y1613008D01*
X2058300Y1612766D02*
Y1613033D01*
X2058400Y1612741D02*
Y1613022D01*
X2058500Y1612686D02*
Y1613002D01*
X2058600Y1612594D02*
Y1612968D01*
X2058700Y1610773D02*
Y1612928D01*
X2058800Y1610773D02*
Y1612850D01*
X2058900Y1610773D02*
Y1612708D01*
X2059000Y1612187D02*
Y1612594D01*
X2059100Y1612489D02*
Y1612732D01*
X2059200Y1612608D02*
Y1612862D01*
X2059300Y1612683D02*
Y1612937D01*
X2059400Y1612741D02*
Y1612974D01*
X2059500Y1612761D02*
Y1612998D01*
X2059600Y1612781D02*
Y1613018D01*
X2059700Y1612766D02*
Y1613038D01*
X2059800Y1612746D02*
Y1613025D01*
X2059900Y1612686D02*
Y1613011D01*
X2060000Y1612553D02*
Y1612996D01*
X2060100Y1610773D02*
Y1612936D01*
X2060200Y1610773D02*
Y1612875D01*
X2060300Y1610773D02*
Y1612675D01*
X2061100Y1610773D02*
Y1612995D01*
X2061200Y1610773D02*
Y1612995D01*
X2061300Y1610773D02*
Y1612995D01*
X2061400Y1612400D02*
Y1612638D01*
X2061500Y1612521D02*
Y1612718D01*
X2061600Y1612641D02*
Y1612818D01*
X2061700Y1612705D02*
Y1612915D01*
X2061800Y1612733D02*
Y1612955D01*
X2061900Y1612762D02*
Y1612995D01*
X2062000Y1612779D02*
Y1613021D01*
X2062100Y1612754D02*
Y1613032D01*
X2062200Y1612720D02*
Y1613012D01*
X2062300Y1612653D02*
Y1612988D01*
X2062400Y1612494D02*
Y1612948D01*
X2062500Y1610773D02*
Y1612900D01*
X2062600Y1610773D02*
Y1612800D01*
X2062700Y1610773D02*
Y1612611D01*
X2062800Y1612422D02*
Y1612649D01*
X2062900Y1612555D02*
Y1612816D01*
X2063000Y1612645D02*
Y1612900D01*
X2063100Y1612720D02*
Y1612961D01*
X2063200Y1612751D02*
Y1612986D01*
X2063300Y1612771D02*
Y1613008D01*
X2063400Y1612776D02*
Y1613028D01*
X2063500Y1612756D02*
Y1613032D01*
X2063600Y1612736D02*
Y1613018D01*
X2063700Y1612620D02*
Y1613004D01*
X2063800Y1612428D02*
Y1612966D01*
X2063900Y1610773D02*
Y1612906D01*
X2064000Y1610773D02*
Y1612775D01*
X2064100Y1610773D02*
Y1612444D01*
*
G04 PC Custom Flashes*
G04 Layer Name ESP32_WROOM32_UFL_5X5_V - flashes*
%LPD*%
*
*
G04 PC Circuitry*
G04 Layer Name ESP32_WROOM32_UFL_5X5_V - circuitry*
%LPD*%
*
G54D10*
X1998012Y1617819D02*
Y1612819D01*
X2000512Y1615319D02*
X1995512D01*
X1968504Y1650394D02*
X1968507D01*
X2039370D02*
X2039373D01*
X2039370Y1574803D02*
X2039373D01*
X2039370Y1650394D02*
X2039373D01*
G54D43*
X1993004Y1641319D02*
X1994004D01*
X1980804D02*
X1981804D01*
G54D44*
X2010033Y1628409D02*
G75*
G03X2010033I-360J0D01*
G01X1968504Y1650394D02*
X2039370D01*
Y1574803*
X1968504*
Y1650394*
X2018504Y1621319D02*
X2021004D01*
X2019754Y1620069*
X2018504Y1621319*
G54D48*
X2006814Y1582551D02*
Y1601551D01*
X1992814*
Y1582551*
X1998314*
Y1582628*
X2001314D02*
G03X1998314I-1500J-0D01*
G01X2001314D02*
Y1582551D01*
X2006814*
X2004614Y1584801D02*
G03X2004614I-800J0D01*
G54D109*
G01X1992039Y1637719D02*
Y1644919D01*
X1994983*
Y1637719*
X1992039*
X1979839D02*
Y1644919D01*
X1982783*
Y1637719*
X1979839*
X1995989Y1632730D02*
X1996122Y1632960D01*
X1996197Y1633260*
X1996176Y1633480*
X1995942Y1633758*
X1995730Y1633817*
X1995421Y1633796*
X1995171Y1633705*
X1994826Y1633533*
X1994347Y1633132*
X1994118Y1632821*
X1993985Y1632591*
X1993910Y1632291*
X1993931Y1632071*
X1994165Y1631792*
X1994378Y1631733*
X1994686Y1631755*
X1994936Y1631846*
X1996574Y1632033D02*
X1996670Y1632114D01*
X1996919Y1632205*
X1997074Y1632215*
X1997286Y1632156*
X1997520Y1631878*
X1997541Y1631658*
X1997504Y1631508*
X1997371Y1631278*
X1997179Y1631117*
X1996929Y1631026*
X1996525Y1630924*
X1994983Y1630817*
X1995801Y1629842*
X1997955Y1630582D02*
X1998168Y1630523D01*
X1998630Y1630555*
X1996619Y1628867*
X1985471Y1642261D02*
X1985252Y1642170D01*
X1985033Y1641988*
X1984924Y1641806*
Y1641442*
X1985033Y1641261*
X1985252Y1641079*
X1985471Y1640988*
X1985799Y1640897*
X1986346*
X1986674Y1640988*
X1986893Y1641079*
X1987111Y1641261*
X1987221Y1641442*
Y1641806*
X1987111Y1641988*
X1986893Y1642170*
X1986674Y1642261*
X1985361Y1643079D02*
X1985252Y1643261D01*
X1984924Y1643533*
X1987221*
X1985471Y1644442D02*
X1985361D01*
X1985143Y1644533*
X1985033Y1644624*
X1984924Y1644806*
Y1645170*
X1985033Y1645352*
X1985143Y1645442*
X1985361Y1645533*
X1985580*
X1985799Y1645442*
X1986127Y1645261*
X1987221Y1644352*
Y1645624*
X1980549Y1633822D02*
X1980330Y1633731D01*
X1980330D02*
X1980112Y1633550D01*
X1980002Y1633368*
Y1633004*
X1980112Y1632822*
X1980330Y1632641*
X1980549Y1632550*
X1980877Y1632459*
X1981424*
X1981752Y1632550*
X1981971Y1632641*
X1982190Y1632822*
X1982299Y1633004*
Y1633368*
X1982190Y1633550*
X1981971Y1633731*
X1981971D02*
X1981752Y1633822D01*
X1980440Y1634641D02*
X1980330Y1634822D01*
X1980002Y1635095*
X1982299*
X1980002Y1636095D02*
Y1637095D01*
X1980877Y1636550*
Y1636822*
X1980987Y1637004*
X1981096Y1637095*
X1981424Y1637186*
X1981643*
X1981971Y1637095*
X1982190Y1636913*
X1982299Y1636641*
Y1636368*
X1982190Y1636095*
X1982080Y1636004*
X1981862Y1635913*
X2030517Y1620149D02*
X2032157D01*
X2032485Y1620240*
X2032704Y1620422*
X2032704D02*
X2032814Y1620694D01*
Y1620876*
X2032704Y1621149*
X2032485Y1621331*
X2032157Y1621422*
X2032157D02*
X2030517D01*
X2030954Y1622240D02*
X2030845Y1622422D01*
X2030845D02*
X2030517Y1622694D01*
X2032814*
X1979754Y1628366D02*
Y1626725D01*
X1979845Y1626397*
X1980027Y1626178*
X1980299Y1626069*
X1980481*
X1980754Y1626178*
X1980936Y1626397*
X1981027Y1626725*
Y1628366*
X1981936Y1627819D02*
Y1627928D01*
X1982027Y1628147*
X1982118Y1628256*
X1982299Y1628366*
X1982663*
X1982845Y1628256*
X1982936Y1628147*
X1983027Y1627928*
Y1627709*
X1982936Y1627491*
X1982754Y1627162*
X1981845Y1626069*
X1983118*
X1975466Y1601052D02*
Y1599177D01*
X1975557Y1598802*
X1975739Y1598552*
X1976012Y1598427*
X1976194*
X1976466Y1598552*
X1976648Y1598802*
X1976739Y1599177*
Y1601052*
X1977739D02*
X1978739D01*
X1978194Y1600052*
X1978466*
X1978648Y1599927*
X1978739Y1599802*
X1978830Y1599427*
Y1599177*
X1978739Y1598802*
X1978557Y1598552*
X1978285Y1598427*
X1978012*
X1977739Y1598552*
X1977648Y1598677*
X1977557Y1598927*
X2027995Y1621993D02*
X2027904Y1622212D01*
X2027722Y1622430*
X2027540Y1622540*
X2027176*
X2026995Y1622430*
X2026813Y1622212*
X2026722Y1621993*
X2026631Y1621665*
Y1621118*
X2026722Y1620790*
X2026813Y1620571*
X2026995Y1620352*
X2027176Y1620243*
X2027540*
X2027722Y1620352*
X2027904Y1620571*
X2027995Y1620790*
X2028813Y1622102D02*
X2028995Y1622212D01*
X2029267Y1622540*
Y1620243*
X2003065Y1642183D02*
X2002846Y1642093D01*
X2002627Y1641911*
X2002518Y1641729*
Y1641365*
X2002627Y1641183*
X2002846Y1641002*
X2003065Y1640911*
X2003393Y1640820*
X2003940*
X2004268Y1640911*
X2004487Y1641002*
X2004705Y1641183*
X2004815Y1641365*
Y1641729*
X2004705Y1641911*
X2004487Y1642093*
X2004268Y1642183*
X2002955Y1643002D02*
X2002846Y1643183D01*
X2002518Y1643456*
X2004815*
X2002518Y1644820D02*
X2002627Y1644547D01*
X2002955Y1644365*
X2003502Y1644274*
X2003830*
X2004377Y1644365*
X2004705Y1644547*
X2004815Y1644820*
Y1645002*
X2004705Y1645274*
X2004377Y1645456*
X2003830Y1645547*
X2003502*
X2002955Y1645456*
X2002627Y1645274*
X2002518Y1645002*
Y1644820*
X1988658Y1642317D02*
X1988439Y1642226D01*
X1988221Y1642044*
X1988111Y1641863*
Y1641499*
X1988221Y1641317*
X1988439Y1641135*
X1988658Y1641044*
X1988986Y1640953*
X1989533*
X1989861Y1641044*
X1990080Y1641135*
X1990299Y1641317*
X1990408Y1641499*
Y1641863*
X1990299Y1642044*
X1990080Y1642226*
X1989861Y1642317*
X1988549Y1643135D02*
X1988439Y1643317D01*
X1988111Y1643590*
X1990408*
X1988549Y1644408D02*
X1988439Y1644590D01*
X1988111Y1644863*
X1990408*
X2010582Y1633954D02*
X2010491Y1634173D01*
X2010310Y1634391*
X2010128Y1634501*
X2009764*
X2009582Y1634391*
X2009400Y1634173*
X2009310Y1633954*
X2009219Y1633626*
Y1633079*
X2009310Y1632751*
X2009400Y1632532*
X2009582Y1632313*
X2009764Y1632204*
X2010128*
X2010310Y1632313*
X2010491Y1632532*
X2010582Y1632751*
X2011400Y1634063D02*
X2011582Y1634173D01*
X2011855Y1634501*
Y1632204*
X2013582Y1634501D02*
X2012673Y1632969D01*
X2014037*
X2013582Y1634501D02*
Y1632204D01*
X2010572Y1641454D02*
X2010481Y1641673D01*
X2010300Y1641891*
X2010118Y1642001*
X2009754*
X2009572Y1641891*
X2009390Y1641673*
X2009300Y1641454*
X2009209Y1641126*
Y1640579*
X2009300Y1640251*
X2009390Y1640032*
X2009572Y1639813*
X2009754Y1639704*
X2010118*
X2010300Y1639813*
X2010481Y1640032*
X2010572Y1640251*
X2011390Y1641563D02*
X2011572Y1641673D01*
X2011845Y1642001*
Y1639704*
X2013845Y1642001D02*
X2012936D01*
X2012845Y1641016*
X2012936Y1641126*
X2013209Y1641235*
X2013481*
X2013754Y1641126*
X2013936Y1640907*
X2014027Y1640579*
X2013936Y1640360*
X2013845Y1640032*
X2013663Y1639813*
X2013390Y1639704*
X2013118*
X2012845Y1639813*
X2012754Y1639923*
X2012663Y1640141*
X1989515Y1631363D02*
X1989296Y1631453D01*
X1989012Y1631479*
X1988807Y1631428*
X1988549Y1631171*
X1988498Y1630965*
X1988524Y1630682*
X1988615Y1630463*
X1988782Y1630166*
X1989169Y1629780*
X1989465Y1629612*
X1989684Y1629522*
X1989968Y1629496*
X1990174Y1629547*
X1990431Y1629804*
X1990482Y1630010*
X1990456Y1630293*
X1990365Y1630512*
X1990016Y1632019D02*
X1990067Y1632225D01*
X1990028Y1632649*
X1991652Y1631025*
X1991610Y1633767D02*
X1991391Y1633858D01*
X1991121Y1633742*
X1990992Y1633614*
X1990877Y1633343*
X1990980Y1632983*
X1991303Y1632532*
X1991689Y1632145*
X1992063Y1631900*
X1992346Y1631874*
X1992616Y1631989*
X1992681Y1632054*
X1992796Y1632324*
X1992770Y1632607*
X1992602Y1632903*
X1992525Y1632981*
X1992229Y1633149*
X1991945Y1633175*
X1991675Y1633059*
X1991611Y1632995*
X1991495Y1632725*
X1991521Y1632441*
X1991689Y1632145*
X1985959Y1636644D02*
X1985740Y1636735D01*
X1985457Y1636761*
X1985251Y1636709*
X1984994Y1636452*
X1984943Y1636246*
X1984969Y1635963*
X1985059Y1635744*
X1985227Y1635448*
X1985614Y1635061*
X1985910Y1634894*
X1986129Y1634803*
X1986412Y1634777*
X1986618Y1634828*
X1986875Y1635085*
X1986927Y1635291*
X1986900Y1635575*
X1986810Y1635793*
X1986461Y1637300D02*
X1986512Y1637506D01*
X1986473Y1637931*
X1988097Y1636307*
X1987951Y1639409D02*
X1988932Y1637142D01*
X1987051Y1638509D02*
X1987951Y1639409D01*
X1977004Y1589932D02*
X1976785Y1589841D01*
X1976566Y1589660*
X1976457Y1589478*
Y1589114*
X1976566Y1588932*
X1976785Y1588750*
X1977004Y1588660*
X1977332Y1588569*
X1977879*
X1978207Y1588660*
X1978426Y1588750*
X1978645Y1588932*
X1978754Y1589114*
Y1589478*
X1978645Y1589660*
X1978426Y1589841*
X1978207Y1589932*
X1976895Y1590750D02*
X1976785Y1590932D01*
X1976457Y1591205*
X1978754*
X1976457Y1592478D02*
X1976566Y1592205D01*
X1976785Y1592114*
X1977004*
X1977223Y1592205*
X1977332Y1592387*
X1977441Y1592750*
X1977551Y1593023*
X1977770Y1593205*
X1977988Y1593296*
X1978316*
X1978535Y1593205*
X1978645Y1593114*
X1978754Y1592841*
Y1592478*
X1978645Y1592205*
X1978535Y1592114*
X1978316Y1592023*
X1977988*
X1977770Y1592114*
X1977551Y1592296*
X1977441Y1592569*
X1977332Y1592932*
X1977223Y1593114*
X1977004Y1593205*
X1976785*
X1976566Y1593114*
X1976457Y1592841*
Y1592478*
X1981004Y1608932D02*
X1980785Y1608841D01*
X1980566Y1608660*
X1980457Y1608478*
Y1608114*
X1980566Y1607932*
X1980785Y1607750*
X1981004Y1607660*
X1981332Y1607569*
X1981879*
X1982207Y1607660*
X1982426Y1607750*
X1982645Y1607932*
X1982754Y1608114*
Y1608478*
X1982645Y1608660*
X1982426Y1608841*
X1982207Y1608932*
X1980895Y1609750D02*
X1980785Y1609932D01*
X1980457Y1610205*
X1982754*
X1981223Y1612205D02*
X1981551Y1612114D01*
X1981770Y1611932*
X1981879Y1611660*
Y1611569*
X1981770Y1611296*
X1981551Y1611114*
X1981223Y1611023*
X1981113*
X1980785Y1611114*
X1980566Y1611296*
X1980457Y1611569*
Y1611660*
X1980566Y1611932*
X1980785Y1612114*
X1981223Y1612205*
X1981770*
X1982316Y1612114*
X1982645Y1611932*
X1982754Y1611660*
Y1611478*
X1982645Y1611205*
X1982426Y1611114*
X2027589Y1601289D02*
X2027498Y1601508D01*
X2027316Y1601727*
X2027134Y1601836*
X2026771*
X2026589Y1601727*
X2026407Y1601508*
X2026316Y1601289*
X2026225Y1600961*
Y1600414*
X2026316Y1600086*
X2026407Y1599867*
X2026589Y1599648*
X2026771Y1599539*
X2027134*
X2027316Y1599648*
X2027498Y1599867*
X2027589Y1600086*
X2028498Y1601289D02*
Y1601398D01*
X2028589Y1601617*
X2028680Y1601727*
X2028862Y1601836*
X2029225*
X2029407Y1601727*
X2029498Y1601617*
X2029589Y1601398*
Y1601180*
X2029498Y1600961*
X2029316Y1600633*
X2028407Y1599539*
X2029680*
X2022299Y1597135D02*
X2022208Y1597353D01*
X2022026Y1597572*
X2021844Y1597681*
X2021481*
X2021299Y1597572*
X2021117Y1597353*
X2021026Y1597135*
X2020935Y1596806*
Y1596260*
X2021026Y1595931*
X2021117Y1595713*
X2021299Y1595494*
X2021481Y1595385*
X2021844*
X2022026Y1595494*
X2022208Y1595713*
X2022299Y1595931*
X2023208Y1597135D02*
Y1597244D01*
X2023299Y1597463*
X2023390Y1597572*
X2023572Y1597681*
X2023935*
X2024117Y1597572*
X2024208Y1597463*
X2024299Y1597244*
Y1597025*
X2024208Y1596806*
X2024026Y1596478*
X2023117Y1595385*
X2024390*
X2025754Y1597681D02*
X2025481Y1597572D01*
X2025299Y1597244*
X2025208Y1596697*
Y1596369*
X2025299Y1595822*
X2025481Y1595494*
X2025754Y1595385*
X2025935*
X2026208Y1595494*
X2026390Y1595822*
X2026481Y1596369*
Y1596697*
X2026390Y1597244*
X2026208Y1597572*
X2025935Y1597681*
X2025754*
X2022006Y1603579D02*
X2021915Y1603797D01*
X2021734Y1604016*
X2021552Y1604125*
X2021188*
X2021006Y1604016*
X2020825Y1603797*
X2020734Y1603579*
X2020643Y1603250*
Y1602704*
X2020734Y1602375*
X2020825Y1602157*
X2021006Y1601938*
X2021188Y1601829*
X2021552*
X2021734Y1601938*
X2021915Y1602157*
X2022006Y1602375*
X2023006Y1604125D02*
X2024006D01*
X2023461Y1603250*
X2023734*
X2023915Y1603141*
X2024006Y1603032*
X2024097Y1602704*
Y1602485*
X2024006Y1602157*
X2023825Y1601938*
X2023552Y1601829*
X2023279*
X2023006Y1601938*
X2022915Y1602047*
X2022825Y1602266*
X2022660Y1589227D02*
X2022569Y1589445D01*
X2022387Y1589664*
X2022205Y1589774*
X2021842*
X2021660Y1589664*
X2021478Y1589445*
X2021387Y1589227*
X2021296Y1588899*
Y1588352*
X2021387Y1588024*
X2021478Y1587805*
X2021660Y1587586*
X2021842Y1587477*
X2022205*
X2022387Y1587586*
X2022569Y1587805*
X2022660Y1588024*
X2024387Y1589774D02*
X2023478Y1588242D01*
X2024842*
X2024387Y1589774D02*
Y1587477D01*
X2022773Y1626003D02*
X2022554Y1625912D01*
X2022335Y1625731*
X2022226Y1625549*
Y1625185*
X2022335Y1625003*
X2022554Y1624822*
X2022773Y1624731*
X2023101Y1624640*
X2023648*
X2023976Y1624731*
X2024195Y1624822*
X2024413Y1625003*
X2024523Y1625185*
Y1625549*
X2024413Y1625731*
X2024195Y1625912*
X2023976Y1626003*
X2022226Y1628003D02*
Y1627094D01*
X2023210Y1627003*
X2023101Y1627094*
X2022991Y1627367*
Y1627640*
X2023101Y1627912*
X2023320Y1628094*
X2023648Y1628185*
X2023866Y1628094*
X2024195Y1628003*
X2024413Y1627822*
X2024523Y1627549*
Y1627276*
X2024413Y1627003*
X2024304Y1626912*
X2024085Y1626822*
X2028749Y1625924D02*
X2028530Y1625833D01*
X2028311Y1625651*
X2028202Y1625469*
Y1625106*
X2028311Y1624924*
X2028530Y1624742*
X2028749Y1624651*
X2029077Y1624560*
X2029624*
X2029952Y1624651*
X2030171Y1624742*
X2030390Y1624924*
X2030499Y1625106*
Y1625469*
X2030390Y1625651*
X2030171Y1625833*
X2029952Y1625924*
X2028530Y1627833D02*
X2028311Y1627742D01*
X2028202Y1627469*
Y1627288*
X2028311Y1627015*
X2028640Y1626833*
X2029186Y1626742*
X2029733*
X2030171Y1626833*
X2030390Y1627015*
X2030499Y1627288*
Y1627378*
X2030390Y1627651*
X2030171Y1627833*
X2029843Y1627924*
X2029733*
X2029405Y1627833*
X2029186Y1627651*
X2029077Y1627378*
Y1627288*
X2029186Y1627015*
X2029405Y1626833*
X2029733Y1626742*
X2011864Y1624782D02*
X2011645Y1624691D01*
X2011427Y1624509*
X2011317Y1624327*
Y1623964*
X2011427Y1623782*
X2011645Y1623600*
X2011864Y1623509*
X2012192Y1623418*
X2012739*
X2013067Y1623509*
X2013286Y1623600*
X2013505Y1623782*
X2013614Y1623964*
Y1624327*
X2013505Y1624509*
X2013286Y1624691*
X2013067Y1624782*
X2012083Y1626782D02*
X2012411Y1626691D01*
X2012630Y1626509*
X2012739Y1626236*
Y1626146*
X2012630Y1625873*
X2012411Y1625691*
X2012083Y1625600*
X2011974*
X2011645Y1625691*
X2011427Y1625873*
X2011317Y1626146*
Y1626236*
X2011427Y1626509*
X2011645Y1626691*
X2012083Y1626782*
X2012630*
X2013177Y1626691*
X2013505Y1626509*
X2013614Y1626236*
Y1626055*
X2013505Y1625782*
X2013286Y1625691*
X2009262Y1635704D02*
X2011559D01*
Y1636795*
X2009262Y1638522D02*
X2010793Y1637613D01*
Y1638977*
X2009262Y1638522D02*
X2011559D01*
X2001991Y1639303D02*
X2000129Y1637453D01*
X2000897Y1636679*
X2004169Y1637109D02*
X2003529Y1637754D01*
X2003529D02*
X2002666Y1637026D01*
X2002819Y1637050*
X2003100Y1636944*
X2003292Y1636751*
X2003396Y1636469*
X2003346Y1636164*
X2003144Y1635835*
X2002903Y1635724*
X2002573Y1635524*
X2002267Y1635477*
X2001986Y1635582*
X2001794Y1635776*
X2001691Y1636057*
X2001715Y1636210*
X2001829Y1636451*
X2025176Y1624979D02*
X2027473D01*
X2025176D02*
Y1625797D01*
X2025285Y1626070*
X2025394Y1626161*
X2025613Y1626252*
X2025832*
X2026051Y1626161*
X2026160Y1626070*
X2026269Y1625797*
Y1624979*
Y1625616D02*
X2027473Y1626252D01*
X2025613Y1627070D02*
X2025504Y1627252D01*
X2025176Y1627525*
X2027473*
X2021021Y1600950D02*
Y1598325D01*
Y1600950D02*
X2021839D01*
X2022112Y1600825*
X2022203Y1600700*
X2022294Y1600450*
Y1600200*
X2022203Y1599950*
X2022112Y1599825*
X2021839Y1599700*
X2021021*
X2021657D02*
X2022294Y1598325D01*
X2023203Y1600325D02*
Y1600450D01*
X2023294Y1600700*
X2023385Y1600825*
X2023567Y1600950*
X2023930*
X2024112Y1600825*
X2024203Y1600700*
X2024294Y1600450*
Y1600200*
X2024203Y1599950*
X2024021Y1599575*
X2023112Y1598325*
X2024385*
X2021225Y1590870D02*
X2023850D01*
X2021225D02*
Y1591688D01*
X2021350Y1591961*
X2021475Y1592052*
X2021725Y1592143*
X2021975*
X2022225Y1592052*
X2022350Y1591961*
X2022475Y1591688*
Y1590870*
Y1591507D02*
X2023850Y1592143D01*
X2021225Y1593143D02*
Y1594143D01*
X2022225Y1593597*
Y1593870*
X2022350Y1594052*
X2022475Y1594143*
X2022850Y1594234*
X2023100*
X2023475Y1594143*
X2023725Y1593961*
X2023850Y1593688*
Y1593416*
X2023725Y1593143*
X2023600Y1593052*
X2023350Y1592961*
X1975980Y1635270D02*
X1978277D01*
X1975980D02*
Y1635906D01*
X1976089Y1636179*
X1976308Y1636361*
X1976527Y1636451*
X1976855Y1636542*
X1977402*
X1977730Y1636451*
X1977949Y1636361*
X1978167Y1636179*
X1978277Y1635906*
Y1635270*
X1976417Y1637361D02*
X1976308Y1637542D01*
X1975980Y1637815*
X1978277*
X2030965Y1648319D02*
Y1646319D01*
X2030874Y1645944*
X2030783Y1645819*
X2030601Y1645694*
X2030419*
X2030238Y1645819*
X2030147Y1645944*
X2030056Y1646319*
Y1646569*
X2031965Y1648319D02*
X2032965D01*
X2032419Y1647319*
X2032692*
X2032874Y1647194*
X2032965Y1647069*
X2033056Y1646694*
Y1646444*
X2032965Y1646069*
X2032783Y1645819*
X2032510Y1645694*
X2032238*
X2031965Y1645819*
X2031874Y1645944*
X2031783Y1646194*
X2035056Y1647444D02*
X2034965Y1647069D01*
X2034783Y1646819*
X2034510Y1646694*
X2034419*
X2034147Y1646819*
X2033965Y1647069*
X2033874Y1647444*
Y1647569*
X2033965Y1647944*
X2034147Y1648194*
X2034419Y1648319*
X2034510*
X2034783Y1648194*
X2034965Y1647944*
X2035056Y1647444*
Y1646819*
X2034965Y1646194*
X2034783Y1645819*
X2034510Y1645694*
X2034328*
X2034056Y1645819*
X2033965Y1646069*
X2018004Y1623619D02*
X2014060D01*
X2012004Y1620604*
Y1602019*
X2019004*
X2018000Y1603019D02*
X2019000Y1602019D01*
X1968504Y1656772D02*
X1992357D01*
X1968504D02*
X1973504Y1657772D01*
Y1655772*
X1968504Y1656772*
X2039370D02*
X2015516D01*
X2039370D02*
X2034370Y1655772D01*
Y1657772*
X2039370Y1656772*
X1968504Y1652394D02*
Y1658772D01*
X2039370Y1652394D02*
Y1658772D01*
X2054252Y1574803D02*
Y1607723D01*
Y1574803D02*
X2053252Y1579803D01*
X2055252*
X2054252Y1574803*
Y1650394D02*
Y1617473D01*
Y1650394D02*
X2055252Y1645394D01*
X2053252*
X2054252Y1650394*
X2041370Y1574803D02*
X2056252D01*
X2041370Y1650394D02*
X2056252D01*
G54D131*
X2031630Y1619125D02*
Y1606010D01*
X2020138*
Y1619125*
X2031630*
G54D173*
X2007854Y1627917D02*
X2010610Y1625161D01*
Y1602720*
X1985414*
Y1627917*
X2007854*
G54D198*
X1998366Y1631897D02*
X1995583Y1634681D01*
X1997141Y1636240*
X1999925Y1633456*
X1998366Y1631897*
X2021935Y1622421D02*
X2025872D01*
Y1620216*
X2021935*
Y1622421*
X1999402Y1639600D02*
Y1643537D01*
X2001606*
Y1639600*
X1999402*
X1995902D02*
Y1643537D01*
X1998106*
Y1639600*
X1995902*
X2004685Y1632421D02*
X2008622D01*
Y1630216*
X2004685*
Y1632421*
X2008622Y1638216D02*
X2004685D01*
Y1640421*
X2008622*
Y1638216*
X1996225Y1635831D02*
X1993441Y1633047D01*
X1991883Y1634606*
X1994666Y1637390*
X1996225Y1635831*
X1991675Y1635281D02*
X1988891Y1632497D01*
X1987333Y1634056*
X1990116Y1636840*
X1991675Y1635281*
X1978606Y1587287D02*
Y1583350D01*
X1976402*
Y1587287*
X1978606*
X1982606Y1616987D02*
Y1613050D01*
X1980402*
Y1616987*
X1982606*
X2029572Y1602716D02*
X2025635D01*
Y1604921*
X2029572*
Y1602716*
X2013035Y1614221D02*
X2016972D01*
Y1612016*
X2013035*
Y1614221*
X2014035Y1622921D02*
X2017972D01*
Y1620716*
X2014035*
Y1622921*
X2012535Y1604721D02*
X2016472D01*
Y1602516*
X2012535*
Y1604721*
X2016356Y1628037D02*
Y1624100D01*
X2014152*
Y1628037*
X2016356*
X2019152Y1624099D02*
Y1628036D01*
X2021356*
Y1624099*
X2019152*
X2010702Y1627351D02*
Y1631288D01*
X2012906*
Y1627351*
X2010702*
X2004472Y1633350D02*
Y1637287D01*
X2006676*
Y1633350*
X2004472*
X2000116Y1633647D02*
X1997333Y1636431D01*
X1998891Y1637990*
X2001675Y1635206*
X2000116Y1633647*
X2016652Y1624100D02*
Y1628037D01*
X2018856*
Y1624100*
X2016652*
X2018172Y1616916D02*
X2014235D01*
Y1619121*
X2018172*
Y1616916*
X2016606Y1610287D02*
Y1606350D01*
X2014402*
Y1610287*
X2016606*
X1975285Y1638863D02*
Y1641225D01*
X1979222*
Y1638863*
X1975285*
Y1642012D02*
Y1644375D01*
X1979222*
Y1642012*
X1975285*
X1979222Y1641225D02*
X1975285Y1642012D01*
Y1641225D02*
X1979222Y1642012D01*
G54D201*
X2030146Y1634661D02*
X2022862D01*
Y1641945*
X2030146*
Y1634661*
G74*
X0Y0D02*
M02*
